<?xml version="1.0" standalone="no"?>
<!DOCTYPE svg PUBLIC "-//W3C//DTD SVG 20010904//EN"
 "http://www.w3.org/TR/2001/REC-SVG-20010904/DTD/svg10.dtd">
<svg version="1.0" xmlns="http://www.w3.org/2000/svg"
 width="512.000000pt" height="512.000000pt" viewBox="0 0 512.000000 512.000000"
 preserveAspectRatio="xMidYMid meet">

<g transform="translate(0.000000,512.000000) scale(0.100000,-0.100000)"
fill="#fff" stroke="none">
<path d="M2360 4299 c-101 -12 -238 -42 -353 -79 -126 -40 -349 -154 -467
-237 -118 -84 -315 -280 -395 -393 -59 -82 -60 -86 -60 -150 0 -77 18 -109 81
-140 89 -44 153 -15 245 110 210 286 521 481 889 557 119 25 391 24 515 0 442
-89 808 -360 1009 -746 30 -59 68 -147 85 -197 32 -96 65 -234 57 -242 -3 -2
-38 21 -77 52 -40 31 -90 61 -110 67 -99 30 -199 -46 -199 -151 0 -79 9 -89
270 -290 246 -190 309 -218 386 -171 33 20 355 429 386 490 53 103 -24 223
-142 223 -64 -1 -101 -23 -153 -92 l-41 -54 -21 89 c-142 603 -573 1081 -1150
1273 -236 79 -513 108 -755 81z"/>
<path d="M884 2831 c-33 -20 -355 -429 -386 -491 -53 -102 24 -222 142 -222
62 0 101 23 153 92 l41 54 21 -89 c126 -536 476 -970 967 -1199 756 -353 1670
-118 2153 555 59 81 60 85 60 149 0 77 -18 109 -81 140 -89 44 -154 15 -245
-110 -206 -283 -528 -485 -887 -557 -133 -26 -405 -24 -539 5 -356 77 -658
269 -872 556 -75 99 -160 263 -200 382 -32 95 -65 234 -57 242 3 2 37 -21 76
-52 40 -31 89 -61 110 -67 100 -30 200 46 200 151 0 80 -11 92 -270 291 -246
189 -309 217 -386 170z"/>
</g>
</svg>
