<?xml version="1.0" standalone="no"?>
<!DOCTYPE svg PUBLIC "-//W3C//DTD SVG 20010904//EN"
 "http://www.w3.org/TR/2001/REC-SVG-20010904/DTD/svg10.dtd">
<svg version="1.0" xmlns="http://www.w3.org/2000/svg"
 width="512.000000pt" height="512.000000pt" viewBox="0 0 512.000000 512.000000"
 preserveAspectRatio="xMidYMid meet">

<g transform="translate(0.000000,512.000000) scale(0.100000,-0.100000)"
fill="#fff" stroke="none">
<path d="M2350 5104 c-328 -38 -544 -92 -799 -201 -447 -191 -851 -529 -1124
-939 -216 -326 -350 -686 -409 -1099 -18 -130 -15 -453 6 -605 86 -632 315
-1119 711 -1516 407 -408 937 -655 1543 -719 884 -94 1747 249 2275 904 357
443 560 1039 561 1651 1 389 -83 744 -259 1099 -379 763 -1083 1277 -1925
1406 -100 16 -498 29 -580 19z m760 -977 c48 -25 80 -74 80 -123 0 -17 -31
-313 -70 -659 -38 -346 -70 -632 -70 -637 0 -4 116 -8 258 -8 239 0 259 -1
290 -20 62 -38 92 -132 61 -193 -16 -31 -1478 -1495 -1511 -1513 -39 -20 -107
-18 -146 6 -42 26 -72 76 -72 121 0 19 32 318 70 664 39 346 70 630 70 631 0
2 -118 4 -262 6 -257 3 -264 4 -296 26 -18 13 -39 36 -47 52 -19 37 -19 103
-1 138 21 39 1496 1509 1526 1521 40 16 74 12 120 -12z"/>
<path d="M2395 3140 l-440 -440 160 0 c190 0 216 -8 253 -83 l24 -46 -57 -507
c-31 -279 -55 -515 -53 -526 2 -13 121 100 443 422 l440 440 -152 0 c-162 0
-192 6 -235 47 -54 51 -54 48 7 593 31 277 55 511 53 522 -2 13 -120 -99 -443
-422z"/>
</g>
</svg>
