<?xml version="1.0" standalone="no"?>
<!DOCTYPE svg PUBLIC "-//W3C//DTD SVG 20010904//EN"
 "http://www.w3.org/TR/2001/REC-SVG-20010904/DTD/svg10.dtd">
<svg version="1.0" xmlns="http://www.w3.org/2000/svg"
 width="512.000000pt" height="512.000000pt" viewBox="0 0 512.000000 512.000000"
 preserveAspectRatio="xMidYMid meet">

<g transform="translate(0.000000,512.000000) scale(0.100000,-0.100000)"
fill="#fff" stroke="none">
<path d="M2350 5104 c-328 -38 -544 -92 -799 -201 -447 -191 -851 -529 -1124
-939 -216 -326 -350 -686 -409 -1099 -18 -130 -15 -453 6 -605 86 -632 315
-1119 711 -1516 346 -347 783 -579 1282 -680 847 -171 1722 67 2321 631 489
461 775 1155 776 1885 1 389 -83 744 -259 1099 -379 763 -1083 1277 -1925
1406 -100 16 -498 29 -580 19z m561 -334 c854 -125 1515 -675 1779 -1478 86
-260 124 -499 124 -767 0 -200 -16 -334 -64 -527 -157 -628 -604 -1182 -1183
-1468 -331 -162 -639 -234 -1007 -234 -217 0 -346 15 -544 65 -647 161 -1189
598 -1481 1194 -161 328 -228 613 -229 965 0 285 37 513 129 789 260 778 904
1317 1740 1456 229 38 497 40 736 5z"/>
<path d="M2990 4139 c-30 -12 -1505 -1482 -1526 -1521 -18 -35 -18 -101 1
-138 8 -16 29 -39 47 -52 32 -22 39 -23 296 -26 144 -2 262 -4 262 -6 0 -1
-31 -285 -70 -631 -38 -346 -70 -645 -70 -664 0 -45 30 -95 72 -121 39 -24
107 -26 146 -6 33 18 1495 1482 1511 1513 31 61 1 155 -61 193 -31 19 -51 20
-290 20 -142 0 -258 4 -258 8 0 5 32 291 70 637 39 346 70 642 70 659 0 49
-32 98 -80 123 -46 24 -80 28 -120 12z m-205 -1099 c-61 -545 -61 -542 -7
-593 43 -41 73 -47 235 -47 l152 0 -440 -440 c-322 -322 -441 -435 -443 -422
-2 11 22 247 53 526 l57 507 -24 46 c-37 75 -63 83 -253 83 l-160 0 440 440
c323 323 441 435 443 422 2 -11 -22 -245 -53 -522z"/>
</g>
</svg>
