<svg width="20" height="12" viewBox="0 0 20 12" fill="none" xmlns="http://www.w3.org/2000/svg">
<path d="M10 0C10.7735 0 11.5154 0.305172 12.0624 0.848381C12.6094 1.39159 12.9167 2.12834 12.9167 2.89655C12.9167 3.66477 12.6094 4.40151 12.0624 4.94472C11.5154 5.48793 10.7735 5.7931 10 5.7931C9.22645 5.7931 8.48459 5.48793 7.93761 4.94472C7.39062 4.40151 7.08333 3.66477 7.08333 2.89655C7.08333 2.12834 7.39062 1.39159 7.93761 0.848381C8.48459 0.305172 9.22645 0 10 0ZM4.16667 2.06897C4.63333 2.06897 5.06667 2.1931 5.44167 2.41655C5.31667 3.6 5.66667 4.77517 6.38333 5.69379C5.96667 6.48828 5.13333 7.03448 4.16667 7.03448C3.50363 7.03448 2.86774 6.77291 2.3989 6.3073C1.93006 5.84169 1.66667 5.21019 1.66667 4.55172C1.66667 3.89326 1.93006 3.26176 2.3989 2.79615C2.86774 2.33054 3.50363 2.06897 4.16667 2.06897ZM15.8333 2.06897C16.4964 2.06897 17.1323 2.33054 17.6011 2.79615C18.0699 3.26176 18.3333 3.89326 18.3333 4.55172C18.3333 5.21019 18.0699 5.84169 17.6011 6.3073C17.1323 6.77291 16.4964 7.03448 15.8333 7.03448C14.8667 7.03448 14.0333 6.48828 13.6167 5.69379C14.3333 4.77517 14.6833 3.6 14.5583 2.41655C14.9333 2.1931 15.3667 2.06897 15.8333 2.06897ZM4.58333 10.5517C4.58333 8.83862 7.00833 7.44828 10 7.44828C12.9917 7.44828 15.4167 8.83862 15.4167 10.5517V12H4.58333V10.5517ZM0 12V10.7586C0 9.60828 1.575 8.64 3.70833 8.35862C3.21667 8.92138 2.91667 9.69931 2.91667 10.5517V12H0ZM20 12H17.0833V10.5517C17.0833 9.69931 16.7833 8.92138 16.2917 8.35862C18.425 8.64 20 9.60828 20 10.7586V12Z" fill="white"/>
</svg>
