<svg width="40" height="41" viewBox="0 0 40 41" fill="none" xmlns="http://www.w3.org/2000/svg">
<path d="M30.1783 0.821529C29.1796 1.0904 29.7558 0.544973 16.2275 14.0578C6.07173 24.2136 3.47517 26.8486 3.38299 27.0944C3.15252 27.7244 0.0412598 38.7405 0.0412598 38.9249C0.0412598 39.4396 0.640466 40.0388 1.14749 40.0388C1.40868 40.0388 12.663 36.8354 13.0625 36.651C13.2776 36.5511 17.2262 32.6486 26.0606 23.8142C39.5966 10.2629 38.9897 10.9005 39.2586 9.87108C39.466 9.0875 39.3661 8.21174 38.982 7.44353C38.7592 6.99796 33.182 1.40537 32.6903 1.1365C31.9375 0.729344 30.9772 0.60643 30.1783 0.821529ZM31.4842 3.11849C31.6225 3.17994 32.8901 4.39372 34.3574 5.86101C37.146 8.67267 37.146 8.67267 37.0307 9.29492C36.9923 9.53307 36.7465 9.80963 35.6249 10.9466L34.2652 12.3063L31.0233 9.06446L27.7738 5.81492L29.0644 4.52432C29.7711 3.80988 30.4548 3.17994 30.5777 3.11849C30.8773 2.98789 31.1769 2.98789 31.4842 3.11849ZM29.4254 10.6931L32.6519 13.9196L22.6267 23.9447L12.6015 33.9699L9.35969 30.7281L6.11015 27.4785L16.1123 17.4764C21.6204 11.9683 26.1375 7.46657 26.1605 7.46657C26.1836 7.46657 27.6508 8.9185 29.4254 10.6931ZM7.72339 32.3951C9.17532 33.847 10.3507 35.0531 10.3353 35.0685C10.2739 35.1146 2.93742 37.1964 2.9067 37.1734C2.87597 37.135 4.98855 29.7448 5.03465 29.7448C5.05769 29.7448 6.26379 30.9355 7.72339 32.3951Z" fill="white"/>
</svg>
