<?xml version="1.0" standalone="no"?>
<!DOCTYPE svg PUBLIC "-//W3C//DTD SVG 20010904//EN"
 "http://www.w3.org/TR/2001/REC-SVG-20010904/DTD/svg10.dtd">
<svg version="1.0" xmlns="http://www.w3.org/2000/svg"
 width="512.000000pt" height="512.000000pt" viewBox="0 0 512.000000 512.000000"
 preserveAspectRatio="xMidYMid meet">

<g transform="translate(0.000000,512.000000) scale(0.100000,-0.100000)"
fill="#fff" stroke="none">
<path d="M3280 4791 c-30 -10 -75 -28 -100 -40 -33 -17 -455 -433 -1523 -1499
-813 -813 -1491 -1497 -1507 -1521 -99 -147 -104 -344 -15 -491 21 -34 139
-160 304 -325 149 -148 271 -273 271 -277 0 -5 -134 -8 -299 -8 -293 0 -299 0
-331 -22 -57 -39 -75 -72 -75 -137 0 -48 5 -64 29 -95 54 -72 -158 -66 2526
-66 2684 0 2472 -6 2526 66 24 31 29 47 29 95 0 65 -18 98 -75 136 l-33 23
-1216 0 -1216 0 1162 1163 c1223 1224 1190 1189 1229 1316 30 101 14 243 -41
352 -9 19 -290 308 -624 642 -441 443 -622 618 -664 642 -107 64 -246 82 -357
46z m170 -311 c8 0 279 -264 602 -587 419 -419 591 -597 599 -621 27 -83 79
-26 -952 -1057 l-949 -950 -655 655 -655 655 947 948 c648 647 958 950 978
957 17 5 39 7 50 4 11 -2 27 -4 35 -4z m-1135 -3650 l-200 -200 -465 0 -465 0
-388 388 c-276 276 -390 396 -396 419 -22 77 -21 78 406 505 l398 398 655
-655 655 -655 -200 -200z"/>
</g>
</svg>
