<?xml version="1.0" standalone="no"?>
<!DOCTYPE svg PUBLIC "-//W3C//DTD SVG 20010904//EN"
 "http://www.w3.org/TR/2001/REC-SVG-20010904/DTD/svg10.dtd">
<svg version="1.0" xmlns="http://www.w3.org/2000/svg"
 width="512.000000pt" height="512.000000pt" viewBox="0 0 512.000000 512.000000"
 preserveAspectRatio="xMidYMid meet">

<g transform="translate(0.000000,512.000000) scale(0.100000,-0.100000)"
fill="#fff" stroke="none">
<path d="M2645 5102 c-111 -38 -209 -121 -255 -216 l-21 -44 -54 24 c-267 122
-563 -40 -605 -331 -6 -43 -10 -439 -10 -1030 l0 -959 -67 65 c-99 97 -167
147 -266 195 -128 62 -210 78 -376 71 -157 -6 -257 -26 -356 -72 -130 -60
-202 -150 -212 -265 -9 -97 1 -123 76 -205 247 -266 442 -576 651 -1035 29
-63 84 -171 122 -240 64 -114 114 -189 343 -522 93 -135 105 -173 105 -341 l0
-129 34 -34 c38 -38 77 -44 125 -20 44 23 51 53 51 209 0 230 -10 255 -219
552 -182 260 -275 416 -376 634 -118 255 -193 398 -289 554 -96 157 -252 368
-352 476 l-68 73 20 36 c40 74 172 115 374 116 115 1 143 -2 192 -21 151 -57
304 -193 425 -378 95 -145 118 -172 152 -180 37 -8 95 16 113 47 10 19 14 250
18 1224 l5 1200 27 42 c88 132 290 125 366 -13 15 -27 17 -133 22 -1152 l5
-1122 29 -30 c36 -38 74 -46 119 -27 72 29 67 -59 67 1283 0 1153 1 1210 19
1249 31 68 117 124 192 124 72 0 151 -49 187 -114 16 -29 17 -128 22 -1258 l5
-1227 29 -30 c16 -16 41 -33 56 -36 36 -8 95 17 112 47 10 19 14 236 18 1144
l5 1120 27 42 c88 132 290 125 366 -13 15 -27 17 -133 22 -1152 l5 -1122 29
-30 c36 -38 74 -46 119 -27 70 29 67 -1 67 748 0 753 -3 718 73 785 47 41 96
56 168 51 76 -6 133 -43 168 -113 l26 -49 3 -681 c4 -651 -6 -1081 -29 -1340
-33 -372 -178 -727 -419 -1025 -101 -125 -129 -205 -137 -386 -6 -146 2 -191
44 -224 31 -24 90 -26 122 -4 40 28 51 73 51 202 0 146 12 184 87 277 152 190
290 441 363 660 78 237 96 351 115 703 18 339 21 1772 4 1854 -38 176 -184
313 -362 337 -79 11 -169 0 -234 -29 l-43 -19 0 253 c0 139 -5 278 -10 307
-51 271 -352 424 -600 306 -30 -15 -55 -25 -56 -24 0 1 -13 25 -28 52 -77 143
-216 225 -380 225 -41 -1 -92 -8 -121 -18z"/>
</g>
</svg>
