<svg width="16" height="19" viewBox="0 0 16 19" fill="none" xmlns="http://www.w3.org/2000/svg">
<path d="M16 15.381V16.2857H0V15.381L1.77778 13.5714V8.14286C1.77778 5.3381 3.58222 2.8681 6.22222 2.0719C6.22222 1.98143 6.22222 1.9 6.22222 1.80952C6.22222 1.32961 6.40952 0.869349 6.74292 0.529997C7.07632 0.190646 7.5285 0 8 0C8.4715 0 8.92368 0.190646 9.25708 0.529997C9.59048 0.869349 9.77778 1.32961 9.77778 1.80952C9.77778 1.9 9.77778 1.98143 9.77778 2.0719C12.4178 2.8681 14.2222 5.3381 14.2222 8.14286V13.5714L16 15.381ZM9.77778 17.1905C9.77778 17.6704 9.59048 18.1307 9.25708 18.47C8.92368 18.8094 8.4715 19 8 19C7.5285 19 7.07632 18.8094 6.74292 18.47C6.40952 18.1307 6.22222 17.6704 6.22222 17.1905" fill="white" fill-opacity="0.9"/>
</svg>
