<svg width="231" height="170" viewBox="0 0 231 170" fill="none" xmlns="http://www.w3.org/2000/svg">
<path fill-rule="evenodd" clip-rule="evenodd" d="M0 26C0 11.6406 11.6406 0 26 0H95C109.359 0 121 11.6406 121 26V49H205C219.359 49 231 60.6406 231 75V144C231 158.359 219.359 170 205 170H135C120.641 170 109 158.359 109 144V121H60.5H26C11.6406 121 0 109.359 0 95V26ZM109 26V49V55V61V61.4211H121V61H205C212.732 61 219 67.268 219 75V144C219 151.732 212.732 158 205 158H135C127.268 158 121 151.732 121 144L121 121V116V109.579V109H109H60.5H26C18.268 109 12 102.732 12 95V26C12 18.268 18.268 12 26 12H95C102.732 12 109 18.268 109 26ZM109 68.9123V81.7544H121V68.9123H109ZM109 89.2456V102.088H121V89.2456H109Z" fill="white"/>
</svg>
