<svg width="789" height="746" viewBox="0 0 789 746" fill="none" xmlns="http://www.w3.org/2000/svg">
<path fill-rule="evenodd" clip-rule="evenodd" d="M540 300C540 432.548 432.548 540 300 540C167.452 540 60 432.548 60 300C60 167.452 167.452 60 300 60C432.548 60 540 167.452 540 300ZM512.132 512.132C457.843 566.421 382.843 600 300 600C134.315 600 0 465.685 0 300C0 134.315 134.315 0 300 0C465.685 0 600 134.315 600 300C600 361.145 581.707 418.017 550.296 465.443L788.426 703.574L746 746L512.132 512.132Z" fill="white"/>
</svg>
