<?xml version="1.0" standalone="no"?>
<!DOCTYPE svg PUBLIC "-//W3C//DTD SVG 20010904//EN"
 "http://www.w3.org/TR/2001/REC-SVG-20010904/DTD/svg10.dtd">
<svg version="1.0" xmlns="http://www.w3.org/2000/svg"
 width="128.000000pt" height="128.000000pt" viewBox="0 0 128.000000 128.000000"
 preserveAspectRatio="xMidYMid meet">

<g transform="translate(0.000000,128.000000) scale(0.100000,-0.100000)"
fill="#fff" stroke="none">
<path d="M177 1102 c-14 -15 -17 -40 -17 -120 0 -93 2 -102 22 -116 30 -21 44
-20 68 4 16 16 20 33 20 80 l0 60 160 0 160 0 0 -370 0 -370 -58 0 c-66 0
-102 -19 -102 -55 0 -51 17 -55 210 -55 193 0 210 4 210 55 0 36 -36 55 -102
55 l-58 0 0 370 0 370 160 0 160 0 0 -60 c0 -47 4 -64 20 -80 24 -24 38 -25
68 -4 20 14 22 23 22 118 0 87 -3 105 -18 119 -17 15 -64 17 -464 17 -418 0
-446 -1 -461 -18z"/>
</g>
</svg>
