<svg width="32" height="36" viewBox="0 0 32 36" fill="none" xmlns="http://www.w3.org/2000/svg">
<path d="M31.3979 10.1742H29.6941C29.546 9.58156 29.2744 8.88193 28.8793 8.07531C28.5007 7.25222 28.0727 6.47852 27.5953 5.75421C27.1014 4.99697 26.5582 4.3385 25.9656 3.7788C25.3894 3.20264 24.8297 2.87341 24.2865 2.7911C23.7761 2.72525 23.1341 2.67587 22.3604 2.64294C21.5867 2.61002 20.8707 2.59356 20.2122 2.59356H18.78V30.6196C18.78 31.1629 18.8952 31.6649 19.1257 32.1259C19.3562 32.5703 19.7595 32.916 20.3356 33.163C20.632 33.2782 21.2493 33.4346 22.1876 33.6321C23.1424 33.8297 23.8831 33.9367 24.4099 33.9531V35.7063H7.8659V33.9531C8.32683 33.9202 9.02645 33.8544 9.96477 33.7556C10.9195 33.6568 11.578 33.5334 11.9402 33.3852C12.4834 33.1712 12.8785 32.8667 13.1254 32.4716C13.3888 32.06 13.5205 31.5168 13.5205 30.8419V2.59356H12.0883C11.578 2.59356 10.9442 2.61002 10.187 2.64294C9.42976 2.65941 8.70545 2.70879 8.01405 2.7911C7.47082 2.85695 6.90289 3.18618 6.31027 3.7788C5.73411 4.35496 5.1991 5.01343 4.70525 5.75421C4.2114 6.49499 3.77516 7.28515 3.39654 8.1247C3.01792 8.94778 2.75454 9.63094 2.60638 10.1742H0.877901V0.667538H31.3979V10.1742Z" fill="white"/>
</svg>
