<?xml version="1.0" standalone="no"?>
<!DOCTYPE svg PUBLIC "-//W3C//DTD SVG 20010904//EN"
 "http://www.w3.org/TR/2001/REC-SVG-20010904/DTD/svg10.dtd">
<svg version="1.0" xmlns="http://www.w3.org/2000/svg"
 width="512.000000pt" height="512.000000pt" viewBox="0 0 512.000000 512.000000"
 preserveAspectRatio="xMidYMid meet">

<g transform="translate(0.000000,512.000000) scale(0.100000,-0.100000)"
fill="#fff" stroke="none">
<path d="M2515 4901 c-16 -4 -43 -15 -60 -24 -51 -27 -932 -917 -950 -959 -64
-155 93 -331 256 -288 39 10 77 44 309 276 146 145 269 264 273 264 4 0 7
-548 7 -1218 l0 -1218 -29 -119 c-92 -375 -260 -690 -449 -841 -71 -57 -178
-109 -256 -123 -39 -7 -265 -11 -646 -11 -417 0 -597 -3 -621 -12 -57 -19 -90
-49 -115 -102 -61 -131 4 -277 136 -305 67 -14 1123 -15 1240 -1 230 28 424
120 592 278 131 124 241 275 323 444 l43 87 16 -42 c9 -23 38 -79 65 -125 234
-392 522 -601 886 -642 50 -5 333 -10 636 -10 451 0 554 3 595 15 181 54 194
321 19 401 -11 5 -299 11 -640 14 -610 5 -621 6 -687 28 -289 97 -535 462
-668 990 -19 74 -20 125 -20 1295 0 669 3 1217 8 1217 4 0 122 -115 262 -256
265 -266 300 -294 375 -294 77 0 163 58 199 133 22 48 21 129 -3 175 -24 45
-913 934 -956 955 -39 19 -102 27 -140 18z"/>
</g>
</svg>
