<?xml version="1.0" standalone="no"?>
<!DOCTYPE svg PUBLIC "-//W3C//DTD SVG 20010904//EN"
 "http://www.w3.org/TR/2001/REC-SVG-20010904/DTD/svg10.dtd">
<svg version="1.0" xmlns="http://www.w3.org/2000/svg"
 width="512.000000pt" height="512.000000pt" viewBox="0 0 512.000000 512.000000"
 preserveAspectRatio="xMidYMid meet">

<g transform="translate(0.000000,512.000000) scale(0.100000,-0.100000)"
fill="#fff" stroke="none">
<path d="M2307 3844 c-693 -87 -1304 -522 -1621 -1152 -62 -123 -61 -144 9
-280 360 -704 1087 -1152 1867 -1152 783 0 1515 457 1872 1168 62 123 61 144
-9 280 -305 596 -864 1008 -1525 1123 -155 27 -433 34 -593 13z m542 -328
c289 -53 556 -170 784 -343 81 -61 246 -222 307 -298 58 -73 137 -192 175
-262 l28 -53 -28 -52 c-87 -161 -187 -290 -339 -435 -635 -611 -1612 -657
-2311 -108 -141 110 -306 292 -400 440 -33 53 -85 147 -85 155 0 4 20 44 45
89 229 407 652 724 1120 840 69 17 122 26 260 45 63 9 364 -3 444 -18z"/>
<path d="M2421 3204 c-137 -29 -296 -128 -379 -236 -288 -374 -113 -906 344
-1044 82 -25 266 -25 348 0 192 58 337 182 421 358 107 226 77 487 -80 687
-152 194 -414 288 -654 235z m282 -340 c68 -33 127 -92 164 -164 24 -47 27
-67 27 -140 0 -73 -3 -93 -27 -140 -50 -97 -120 -156 -223 -186 -147 -42 -316
37 -389 183 -25 50 -29 69 -29 143 0 74 4 93 29 143 43 87 136 163 230 188 56
15 160 2 218 -27z"/>
</g>
</svg>
