<svg width="380" height="378" viewBox="0 0 380 378" fill="none" xmlns="http://www.w3.org/2000/svg">
<path fill-rule="evenodd" clip-rule="evenodd" d="M190.013 0C84.8667 0 0 84.9147 0 188.938C0 292.961 84.8667 377.884 190.013 377.884C295.159 377.884 380 292.961 380 188.938C380 84.9147 295.154 0 190.013 0ZM209.612 13.6807C219.79 14.805 229.707 16.8062 239.292 19.587L209.975 63.5811L191.055 53.4026L166.069 78.3005L162.288 96.4167L132.759 112.257L133.895 130L114.6 125.47L108.547 149.236L127.842 151.501L147.524 128.482L160.016 127.735L174.019 155.656L183.854 139.431L166.831 124.338L172.509 122.447L210.35 137.914L232.677 111.883L245.545 127.35L218.3 149.61L221.707 157.536L239.117 155.656L236.459 168.485L278.854 227.338L311.017 193.008L273.551 166.219L279.615 160.558H323.51L351.902 203.2L359.84 197.912L352.651 131.132L356.023 129.171C362.729 147.814 366.385 167.938 366.385 188.936C366.385 286.652 287.218 365.277 190.014 365.277C126.93 365.277 71.4332 332.164 40.2437 282.202C41.7118 275.577 43.0654 269.606 43.0654 269.606L30.959 249.984L18.408 229.965C15.2777 216.807 13.6192 203.073 13.6192 188.936C13.6192 151.804 25.05 117.423 44.5638 89.0735L61.6111 86.5988L88.8676 54.907L93.094 41.5534C105.838 33.1698 119.733 26.4053 134.482 21.523L140.336 27.3592L95.2938 57.545L96.0548 63.5798L135.418 50.3778L159.642 32.6467L198.619 28.4911L216.403 19.4328L209.613 13.6781L209.612 13.6807ZM136.167 57.9309L125.196 64.7126L136.928 73.7709L141.096 69.2418L136.167 57.9309H136.167ZM142.981 79.8057L122.55 100.186L133.521 105.848L147.15 100.945L142.981 79.8057H142.981ZM162.288 153.766L115.738 155.657L76.7499 197.154C76.7499 197.154 74.4861 223.945 73.7292 230.737L102.871 266.969L160.395 271.872L158.123 285.833L173.648 304.322L173.262 328.088L196.35 355.262L226.253 353.371L268.262 313.754L263.344 289.603L290.589 254.129L298.914 222.438L277.722 235.266L259.551 221.305L230.034 169.233L188.787 177.158L162.291 153.766H162.288ZM295.127 296.022L276.956 311.863L269.393 330.726L280.364 326.955L295.127 296.022V296.022Z" fill="url(#paint0_linear_96_14)"/>
<defs>
<linearGradient id="paint0_linear_96_14" x1="0" y1="0" x2="380" y2="0" gradientUnits="userSpaceOnUse">
<stop stop-color="#00FF8F"/>
<stop offset="1" stop-color="#00A1FF"/>
<stop offset="1" stop-color="#00A1FF"/>
</linearGradient>
</defs>
</svg>
