<?xml version="1.0" encoding="UTF-8" standalone="no"?>
<svg
   xmlns:dc="http://purl.org/dc/elements/1.1/"
   xmlns:cc="http://creativecommons.org/ns#"
   xmlns:rdf="http://www.w3.org/1999/02/22-rdf-syntax-ns#"
   xmlns:svg="http://www.w3.org/2000/svg"
   xmlns="http://www.w3.org/2000/svg"
   xmlns:xlink="http://www.w3.org/1999/xlink"
   xmlns:sodipodi="http://sodipodi.sourceforge.net/DTD/sodipodi-0.dtd"
   xmlns:inkscape="http://www.inkscape.org/namespaces/inkscape"
   viewBox="0 0 302 90"
   version="1.1"
   id="svg881"
   sodipodi:docname="logo.svg"
   inkscape:version="1.0.2-2 (e86c870879, 2021-01-15)"
   width="302"
   height="90">
  <metadata
     id="metadata885">
    <rdf:RDF>
      <cc:Work
         rdf:about="">
        <dc:format>image/svg+xml</dc:format>
        <dc:type
           rdf:resource="http://purl.org/dc/dcmitype/StillImage" />
        <dc:title></dc:title>
      </cc:Work>
    </rdf:RDF>
  </metadata>
  <sodipodi:namedview
     pagecolor="#ffffff"
     bordercolor="#666666"
     borderopacity="1"
     objecttolerance="10"
     gridtolerance="10"
     guidetolerance="10"
     inkscape:pageopacity="0"
     inkscape:pageshadow="2"
     inkscape:window-width="1267"
     inkscape:window-height="1198"
     id="namedview883"
     showgrid="false"
     inkscape:zoom="2.8284271"
     inkscape:cx="125.56888"
     inkscape:cy="41.213487"
     inkscape:window-x="1009"
     inkscape:window-y="70"
     inkscape:window-maximized="0"
     inkscape:current-layer="g871"
     inkscape:document-rotation="0" />
  <defs
     id="defs865">
    <linearGradient
       id="a">
      <stop
         stop-color="#00ff8f"
         offset="0"
         id="stop860" />
      <stop
         stop-color="#00a1ff"
         offset="1"
         id="stop862" />
    </linearGradient>
    <linearGradient
       inkscape:collect="always"
       xlink:href="#a"
       id="linearGradient867"
       gradientTransform="matrix(7.7717437,0,0,0.12867125,0,-17.324116)"
       x1="0"
       y1="792.71783"
       x2="38.858719"
       y2="792.71783"
       gradientUnits="userSpaceOnUse" />
    <linearGradient
       inkscape:collect="always"
       xlink:href="#a"
       id="linearGradient869"
       gradientTransform="scale(1.7419387,0.57407303)"
       x1="0"
       y1="19.927778"
       x2="61.664627"
       y2="19.927778"
       gradientUnits="userSpaceOnUse" />
    <linearGradient
       inkscape:collect="always"
       xlink:href="#a"
       id="linearGradient871"
       gradientTransform="scale(1.7419387,0.57407303)"
       x1="0"
       y1="19.927778"
       x2="61.664627"
       y2="19.927778"
       gradientUnits="userSpaceOnUse" />
    <linearGradient
       inkscape:collect="always"
       xlink:href="#a"
       id="linearGradient873"
       x1="5"
       y1="5"
       x2="95"
       y2="5"
       gradientUnits="userSpaceOnUse" />
    <linearGradient
       inkscape:collect="always"
       xlink:href="#a"
       id="linearGradient875"
       x1="5"
       y1="5"
       x2="95"
       y2="5"
       gradientUnits="userSpaceOnUse" />
  </defs>
  <g
     fill="url(#a)"
     featurekey="rootContainer"
     id="g871">
    <rect
       width="1"
       height="1"
       opacity="0"
       id="rect867"
       x="0"
       y="0" />
    <rect
       y="84.67588"
       width="302"
       height="5"
       id="rect869"
       style="fill:url(#linearGradient867)"
       x="0" />
  </g>
  <g
     transform="matrix(0.8,0,0,0.8,-4,-3.3241163)"
     fill="url(#a)"
     featurekey="symbolFeature-0"
     id="g875"
     style="fill:url(#linearGradient875)">
    <path
       d="M 50.003,5 C 25.1,5 5,25.224 5,49.999 5,74.774 25.1,95 50.003,95 74.906,95 95,74.774 95,49.999 95,25.224 74.905,5 50.003,5 Z m 4.642,3.2583 c 2.4105,0.26778 4.7592,0.74441 7.0295,1.4067 l -6.9436,10.478 -4.4811,-2.4242 -5.9176,5.9299 -0.89567,4.3147 -6.9935,3.7726 0.26898,4.2258 -4.5699,-1.0787 -1.4336,5.6603 4.5699,0.5393 4.6614,-5.4823 2.9588,-0.178 3.3165,6.65 2.3293,-3.8643 -4.0319,-3.5947 1.3449,-0.4504 8.9623,3.6837 5.2881,-6.1996 3.0475,3.6836 -6.4527,5.3016 0.80694,1.8877 4.1234,-0.4476 -0.62947,3.0553 10.041,14.017 7.6174,-8.1763 -8.8736,-6.3803 1.4364,-1.3483 h 10.396 l 6.7245,10.156 1.8801,-1.2593 -1.7026,-15.905 0.79862,-0.467 c 1.5881,4.4402 2.4541,9.233 2.4541,14.234 0,23.273 -18.75,41.999 -41.772,41.999 -14.941,0 -28.085,-7.8866 -35.472,-19.786 0.34772,-1.5777 0.66829,-2.9998 0.66829,-2.9998 l -2.8673,-4.6733 -2.9726,-4.7679 c -0.74139,-3.1339 -1.1342,-6.4049 -1.1342,-9.772 0,-8.8436 2.7073,-17.032 7.329,-23.784 l 4.0375,-0.5894 6.4555,-7.548 1.001,-3.1804 c 3.0183,-1.9967 6.3092,-3.6078 9.8025,-4.7706 l 1.3865,1.39 -10.668,7.1893 0.18024,1.4373 9.3228,-3.1443 5.7373,-4.223 9.2313,-0.98971 4.2122,-2.1574 -1.6083,-1.3706 z m -17.395,10.539 -2.5983,1.6152 2.7785,2.1574 0.98718,-1.0787 -1.1674,-2.6939 z m 1.6139,5.2099 -4.8388,4.854 2.5983,1.3484 3.2278,-1.1677 -0.98719,-5.0347 z m 4.5727,17.615 -11.025,0.4504 -9.234,9.8833 c 0,0 -0.53616,6.3807 -0.71543,7.9983 l 6.902,8.6294 13.624,1.1677 -0.53796,3.325 3.677,4.4036 -0.0915,5.6603 5.4683,6.4721 7.0822,-0.4504 9.9495,-9.4356 -1.1647,-5.7521 6.4527,-8.4487 1.9716,-7.5479 -5.0191,3.0553 -4.3037,-3.325 -6.9907,-12.402 -9.7692,1.8876 -6.2753,-5.5713 z m 31.462,33.881 -4.3037,3.7726 -1.7913,4.4926 2.5983,-0.898 z"
       fill="url(#a)"
       fill-rule="evenodd"
       style="fill:url(#linearGradient873)"
       id="path873" />
  </g>
  <g
     transform="matrix(1.955,0,0,1.955,92,-19.689516)"
     fill="url(#a)"
     featurekey="nameFeature-0"
     id="g879"
     style="fill:url(#linearGradient871)">
    <path
       d="m 3.8,39.92 v 6.92 H 0 V 17.36 h 5.92 c 2.64,0 4.76,2.12 4.76,4.76 v 13.04 c 0,2.6 -2.12,4.76 -4.76,4.76 z m 0,-18.76 v 14.96 h 2.12 c 0.56,0 0.96,-0.44 0.96,-0.96 V 22.12 c 0,-0.52 -0.4,-0.96 -0.96,-0.96 z m 14.587,18.76 c -2.88,0 -5.2,-2.36 -5.2,-5.24 V 22.2 c 0,-2.64 2.16,-4.8 4.8,-4.8 h 0.84 c 2.64,0 4.8,2.16 4.8,4.8 v 5.24 l -6.72,0.12 v 7.12 c 0,0.84 0.64,1.52 1.48,1.52 0.84,0 1.52,-0.68 1.52,-1.52 V 32.2 h 3.72 v 2.48 c 0,2.88 -2.36,5.24 -5.24,5.24 z m 0.44,-18.84 h -0.84 c -0.6,0 -1.08,0.52 -1.08,1.12 v 1.68 l 3,-0.08 v -1.6 c 0,-0.6 -0.48,-1.12 -1.08,-1.12 z m 13.107,-2.8 c 2.72,0 4.92,2.16 4.92,4.88 v 1.92 h -3.8 v -1.92 c 0,-0.64 -0.48,-1.12 -1.12,-1.12 h -0.84 c -0.6,0 -1.12,0.48 -1.12,1.12 l -0.08,16.88 h -3.76 l 0.08,-16.88 V 17.4 h 3.76 v 1 c 0.36,-0.08 0.76,-0.12 1.12,-0.12 z m 11.027,21.6 c 0.04,-6.28 0.04,-16.32 0,-22.52 l -3.8,0.04 c 0.04,6.16 0.04,16.16 0,22.44 z m -3.8,-27.28 h 3.8 v 3.72 h -3.8 z m 10.147,27.32 v 6.92 h -3.8 V 17.36 h 5.92 c 2.64,0 4.76,2.12 4.76,4.76 v 13.04 c 0,2.6 -2.12,4.76 -4.76,4.76 z m 0,-18.76 v 14.96 h 2.12 c 0.56,0 0.96,-0.44 0.96,-0.96 V 22.12 c 0,-0.52 -0.4,-0.96 -0.96,-0.96 z m 14.667,-3.8 c 2.84,0 5.16,2.28 5.16,5.12 v 17.48 h -3.8 V 22.48 c 0,-0.72 -0.6,-1.36 -1.36,-1.36 h -1.48 v 18.84 h -3.8 V 11.44 h 3.8 v 5.92 z m 12.867,22.56 c -2.88,0 -5.2,-2.36 -5.2,-5.24 V 22.2 c 0,-2.64 2.16,-4.8 4.8,-4.8 h 0.84 c 2.64,0 4.8,2.16 4.8,4.8 v 5.24 l -6.72,0.12 v 7.12 c 0,0.84 0.64,1.52 1.48,1.52 0.84,0 1.52,-0.68 1.52,-1.52 V 32.2 h 3.72 v 2.48 c 0,2.88 -2.36,5.24 -5.24,5.24 z m 0.44,-18.84 h -0.84 c -0.6,0 -1.08,0.52 -1.08,1.12 v 1.68 l 3,-0.08 v -1.6 c 0,-0.6 -0.48,-1.12 -1.08,-1.12 z m 13.107,-2.8 c 2.72,0 4.92,2.16 4.92,4.88 v 1.92 h -3.8 v -1.92 c 0,-0.64 -0.48,-1.12 -1.12,-1.12 h -0.84 c -0.6,0 -1.12,0.48 -1.12,1.12 l -0.08,16.88 h -3.76 l 0.08,-16.88 V 17.4 h 3.76 v 1 c 0.36,-0.08 0.76,-0.12 1.12,-0.12 z m 12.227,-0.92 c 2.64,0 4.8,2.16 4.8,4.8 v 18 h -3.84 v -18 c 0,-0.52 -0.44,-0.96 -0.96,-0.96 -0.52,0 -0.96,0.44 -0.96,0.96 v 18 h -3.84 V 16.64 h 3.84 v 0.84 c 0.32,-0.08 0.64,-0.12 0.96,-0.12 z"
       id="path877"
       style="fill:url(#linearGradient869)" />
  </g>
</svg>
