<?xml version="1.0" encoding="UTF-8" standalone="no"?>
<svg
   xmlns:dc="http://purl.org/dc/elements/1.1/"
   xmlns:cc="http://creativecommons.org/ns#"
   xmlns:rdf="http://www.w3.org/1999/02/22-rdf-syntax-ns#"
   xmlns:svg="http://www.w3.org/2000/svg"
   xmlns="http://www.w3.org/2000/svg"
   xmlns:sodipodi="http://sodipodi.sourceforge.net/DTD/sodipodi-0.dtd"
   xmlns:inkscape="http://www.inkscape.org/namespaces/inkscape"
   id="visual"
   viewBox="0 0 900 126"
   width="900"
   height="126"
   version="1.1"
   sodipodi:docname="download-1.svg"
   inkscape:version="1.0.2-2 (e86c870879, 2021-01-15)">
  <metadata
     id="metadata880">
    <rdf:RDF>
      <cc:Work
         rdf:about="">
        <dc:format>image/svg+xml</dc:format>
        <dc:type
           rdf:resource="http://purl.org/dc/dcmitype/StillImage" />
        <dc:title></dc:title>
      </cc:Work>
    </rdf:RDF>
  </metadata>
  <defs
     id="defs878" />
  <sodipodi:namedview
     pagecolor="#ffffff"
     bordercolor="#666666"
     borderopacity="1"
     objecttolerance="10"
     gridtolerance="10"
     guidetolerance="10"
     inkscape:pageopacity="0"
     inkscape:pageshadow="2"
     inkscape:window-width="2560"
     inkscape:window-height="1369"
     id="namedview876"
     showgrid="false"
     inkscape:zoom="1.1577778"
     inkscape:cx="274.98399"
     inkscape:cy="159.93848"
     inkscape:window-x="-8"
     inkscape:window-y="-8"
     inkscape:window-maximized="1"
     inkscape:current-layer="visual" />
  <path
     d="m 0,120 25,-4.7 c 25,-4.6 75,-14 125,-12.3 50,1.7 100,14.3 150,19.7 50,5.3 100,3.3 150,-2.7 50,-6 100,-16 150,-21 50,-5 100,-5 150,0.2 50,5.1 100,15.5 125,20.6 l 25,5.2 V 0 H 875 C 850,0 800,0 750,0 700,0 650,0 600,0 550,0 500,0 450,0 400,0 350,0 300,0 250,0 200,0 150,0 100,0 50,0 25,0 H 0 Z"
     fill="#eff0fd"
     id="path867" />
  <path
     d="M 0,88 25,85.5 C 50,83 100,78 150,80.3 c 50,2.4 100,12 150,13.2 50,1.2 100,-6.2 150,-5 50,1.2 100,10.8 150,13.5 50,2.7 100,-1.7 150,-3.7 50,-2 100,-1.6 125,-1.5 L 900,97 V 0 H 875 C 850,0 800,0 750,0 700,0 650,0 600,0 550,0 500,0 450,0 400,0 350,0 300,0 250,0 200,0 150,0 100,0 50,0 25,0 H 0 Z"
     fill="#a8a9bd"
     id="path869" />
  <path
     d="m 0,59 25,2.8 c 25,2.9 75,8.5 125,9.2 50,0.7 100,-3.7 150,-3.2 50,0.5 100,5.9 150,6.2 50,0.3 100,-4.3 150,-8.8 50,-4.5 100,-8.9 150,-12.2 50,-3.3 100,-5.7 125,-6.8 L 900,45 V 0 H 875 C 850,0 800,0 750,0 700,0 650,0 600,0 550,0 500,0 450,0 400,0 350,0 300,0 250,0 200,0 150,0 100,0 50,0 25,0 H 0 Z"
     fill="#676882"
     id="path871" />
  <path
     d="m 0,34 25,1.2 c 25,1.1 75,3.5 125,1.8 50,-1.7 100,-7.3 150,-9.8 50,-2.5 100,-1.9 150,-2.2 50,-0.3 100,-1.7 150,1.3 50,3 100,10.4 150,12.9 50,2.5 100,0.1 125,-1 L 900,37 V 0 H 875 C 850,0 800,0 750,0 700,0 650,0 600,0 550,0 500,0 450,0 400,0 350,0 300,0 250,0 200,0 150,0 100,0 50,0 25,0 H 0 Z"
     fill="#2a2e4a"
     id="path873" />
</svg>
