<?xml version="1.0" encoding="UTF-8" standalone="no"?>
<svg
   xmlns:dc="http://purl.org/dc/elements/1.1/"
   xmlns:cc="http://creativecommons.org/ns#"
   xmlns:rdf="http://www.w3.org/1999/02/22-rdf-syntax-ns#"
   xmlns:svg="http://www.w3.org/2000/svg"
   xmlns="http://www.w3.org/2000/svg"
   xmlns:sodipodi="http://sodipodi.sourceforge.net/DTD/sodipodi-0.dtd"
   xmlns:inkscape="http://www.inkscape.org/namespaces/inkscape"
   baseprofile="tiny"
   fill="#ececec"
   height="684"
   stroke="#000000"
   stroke-linecap="round"
   stroke-linejoin="round"
   stroke-width="0.1"
   version="1.2"
   viewbox="0 0 1000 684"
   width="656"
   id="svg986"
   sodipodi:docname="Balkans.svg"
   inkscape:version="1.0.2-2 (e86c870879, 2021-01-15)">
  <metadata
     id="metadata992">
    <rdf:RDF>
      <cc:Work
         rdf:about="">
        <dc:format>image/svg+xml</dc:format>
        <dc:type
           rdf:resource="http://purl.org/dc/dcmitype/StillImage" />
        <dc:title></dc:title>
      </cc:Work>
    </rdf:RDF>
  </metadata>
  <defs
     id="defs990" />
  <sodipodi:namedview
     pagecolor="#ffffff"
     bordercolor="#666666"
     borderopacity="1"
     objecttolerance="10"
     gridtolerance="10"
     guidetolerance="10"
     inkscape:pageopacity="0"
     inkscape:pageshadow="2"
     inkscape:window-width="2560"
     inkscape:window-height="1369"
     id="namedview988"
     showgrid="false"
     inkscape:zoom="0.43092106"
     inkscape:cx="284.92508"
     inkscape:cy="895.12415"
     inkscape:window-x="-8"
     inkscape:window-y="-8"
     inkscape:window-maximized="1"
     inkscape:current-layer="svg986"
     inkscape:document-rotation="0" />
  <path
     d="m 282.43237,298.00815 1.60894,1.28715 6.43576,9.33185 4.50503,1.60894 6.11396,4.18324 4.50503,10.29719 0.32179,7.07934 -1.60894,8.36648 0.96537,6.75754 -2.57431,2.57431 2.25252,6.43575 0.64357,6.11397 3.86146,7.07933 3.86145,3.53967 4.18324,7.72291 5.14862,-0.64358 4.18324,3.53967 v 3.53966 l 3.53967,5.79218 -2.5743,8.36648 -5.4704,2.57431 -3.86146,9.97542 -0.96537,6.43576 -1.93072,1.60893 -6.11397,0.96537 -5.4704,4.18324 3.21788,7.07933 -2.89609,2.25252 -0.96536,4.82681 -2.25252,2.25252 -8.68827,-2.89609 -2.25251,-8.0447 -5.47039,-8.68827 -15.76761,-8.36648 -3.86145,-3.53967 1.28715,-4.82681 -0.32179,-4.50503 -4.50503,-7.72291 0.96537,-8.36648 2.5743,-7.07934 -0.96536,-8.68827 0.32178,-6.75754 -2.25251,-9.33185 1.60894,-6.75754 2.89609,-4.18324 -0.64358,-7.07933 -4.82681,-3.53967 -5.14861,-0.64358 v -9.97542 l -0.96536,-1.93071 h 5.47039 l -5.47039,-9.01006 10.29721,-17.05476 3.53966,0.96537 2.57431,6.75754 z"
     id="AL"
     name="Albania"
     style="stroke-width:0.321788" />
  <path
     d="m 619.98779,238.4774 0.64358,11.90615 -2.89609,5.79218 -6.43576,-1.93072 -7.07933,1.60893 -3.21788,6.43576 -3.86145,3.86145 v 8.36649 l 1.28715,13.51508 -5.14861,2.25252 -9.33184,11.90615 9.65363,5.79218 5.4704,7.07933 7.7229,8.04469 1.60894,3.86145 -5.47039,-0.64358 -2.89609,1.28716 h -5.79218 l -4.82682,1.93072 -10.94078,-8.04469 -11.26258,0.96536 -4.82681,3.53967 -10.94079,1.28715 -3.21788,7.07933 -6.11397,0.96536 -0.96536,4.50503 -5.1486,-1.60894 -5.14861,3.53967 2.25252,3.21788 2.89609,8.68827 -0.64358,2.5743 -8.0447,3.86145 -5.79218,-0.96536 -10.29721,1.28715 -10.94078,2.89609 -5.47039,-3.53966 -11.90615,-3.86146 -2.89609,1.93073 -7.72291,-4.50503 -3.86145,-5.47039 -5.14861,1.60894 -13.51509,-0.32179 -0.64357,2.89609 -6.11397,0.64357 -9.65363,3.53967 -8.36649,-0.64358 -7.7229,0.64358 -3.21788,3.21788 -9.65364,-0.64358 v -13.51509 l 1.60894,-5.47039 -2.89609,-3.21788 -5.47039,-10.61899 -10.94079,-5.79217 -10.61899,-10.29721 3.21787,-0.96536 3.53967,-5.4704 -4.50503,-9.33185 V 283.5277 l 3.53967,-1.93073 5.79218,-0.32179 3.53966,-5.1486 5.14861,-5.4704 0.96536,-4.50503 -5.1486,-3.21787 -4.18325,-5.14861 -9.33184,-4.82682 -7.72291,-12.54972 -1.93073,-7.72291 1.28716,-7.40112 6.75754,-3.21788 0.64358,-6.11396 2.89609,-2.25252 13.83687,8.0447 -5.79218,6.43575 2.89609,5.79218 11.90615,-1.93072 12.54972,0.96536 17.05476,3.21788 11.26257,1.28715 8.0447,-1.60894 30.24805,5.47039 13.51509,0.64358 7.40112,-1.93073 5.1486,-2.89609 3.86146,-5.1486 10.61899,-6.75755 10.29721,-3.86145 14.15867,-2.89609 9.33184,-1.28715 14.48045,7.40112 10.29721,1.28715 2.89609,1.93073 5.4704,-1.60894 8.04469,8.36648 7.07933,2.25251 8.36649,1.60894 z"
     id="BG"
     name="Bulgaria"
     style="stroke-width:0.321788" />
  <path
     d="m 229.33738,182.48632 9.01006,-2.25251 4.82682,2.5743 -1.60894,8.0447 -5.1486,8.68827 -0.32179,8.36648 1.60894,2.5743 7.7229,3.86146 10.619,9.33184 -0.96536,2.57431 -9.97542,-0.32179 -1.60894,2.5743 10.29721,11.90615 -0.64358,7.07933 -8.04469,-0.96536 -2.25252,2.5743 -10.29721,1.60894 4.50503,7.07933 -7.40112,0.64358 -6.43575,5.47039 -1.60894,5.47039 0.32178,4.82682 -5.47039,0.64357 -1.60894,2.25252 1.93073,9.65363 3.53967,5.14861 -0.32179,2.5743 -3.53967,3.21788 -5.47039,-2.25252 -19.95085,-12.22793 -1.93072,-2.89609 -5.14861,0.32179 -3.53966,-1.93073 0.96536,-5.14861 -9.65363,-8.04469 -4.82682,-5.14861 -1.28715,-7.07933 -7.72291,-3.53966 -16.08939,-13.1933 -5.47039,-6.43576 -9.01006,-7.40112 -7.40112,-7.72291 -4.18324,-12.87151 -10.94079,-10.29721 -6.113965,-4.18324 -0.321788,-4.50503 0.965363,-16.08939 3.86145,-1.93073 5.79218,1.28715 5.4704,5.79218 5.79218,3.21788 8.68827,-10.29721 10.29721,0.96537 4.82682,-3.86146 8.68827,5.14861 8.04469,0.32179 9.01006,2.25251 5.47039,-1.93073 5.14861,4.18324 7.07933,-3.21787 5.79218,0.96536 5.79218,-0.64358 8.36648,2.25252 7.07933,0.64357 3.53967,2.57431 4.18324,7.07933 z"
     id="BA"
     name="Bosnia and Herzegovina"
     style="stroke-width:0.321788" />
  <path
     d="m 469.71289,650.68757 h 7.40112 l 5.47039,-3.21788 7.07933,11.90615 5.47039,-0.32178 11.26258,-2.8961 11.90615,0.64358 4.50503,3.21788 8.36648,0.64357 7.40112,1.60894 10.619,-2.25251 1.28715,1.28715 0.32178,9.01006 3.86146,0.64357 2.25251,-2.25251 5.4704,-1.93073 h 5.79218 l 5.1486,-2.5743 -1.28715,11.26257 -2.89609,1.28715 -14.15866,-0.32178 -26.06482,3.21787 -17.05475,1.28716 -2.25251,-0.64358 -2.25252,-7.07933 -10.619,-3.53967 -19.95084,-3.21788 -4.82682,-1.28715 -9.97542,0.64358 -3.53967,-3.21788 -1.28715,-5.79218 0.64358,-6.11397 4.50503,0.96537 1.28715,-4.50503 z m 139.65591,3.53967 -5.14861,-6.75755 3.53967,-1.60893 3.86145,7.7229 z m -176.01793,-36.68381 -4.50503,0.64357 -2.25252,-7.07933 1.60894,-3.21788 6.75754,6.75755 z m 201.76095,13.1933 -5.47039,-1.28715 1.28715,-5.79218 -2.25252,-5.14861 7.40112,-8.68827 10.29721,-4.18324 2.89609,2.89609 -2.89609,8.04469 -2.89609,4.18325 1.28715,3.21787 -5.1486,0.64358 z m -61.13968,-33.14415 -4.82682,3.86146 -2.89609,-1.93073 6.11397,-3.86145 z m 19.95084,-7.07933 v -2.25251 l 4.18324,-3.53967 8.0447,-3.21788 3.86145,1.93073 -8.04469,4.50503 -4.82682,0.32179 z m -71.43689,-17.37654 -2.89609,4.18324 -4.18324,-2.25251 1.28715,-3.86146 3.53966,-1.93072 z m 11.58436,5.14861 -3.53967,1.93072 -4.50503,-7.07933 6.11397,-6.43576 2.89609,2.25252 0.32179,5.79218 z m 17.37654,-28.31733 1.93073,-5.14861 5.1486,-0.32178 v 3.53966 z m -69.82795,-2.25252 -3.21788,-1.28715 1.28715,-3.86145 3.53967,1.60894 z m 101.68494,-11.90614 9.01006,2.25251 -2.25251,3.21788 -5.14861,2.89609 -5.47039,-2.89609 -3.86145,-3.86146 z m -246.81124,0.32178 1.28715,3.86146 -3.53967,3.21787 -5.1486,-3.86145 -3.86146,-5.79218 2.89609,-3.53967 2.89609,3.86146 z m 170.86932,2.25252 -4.50503,-0.32179 -7.72291,-6.75754 2.89609,-4.50503 2.89609,3.86145 4.18325,0.32179 z m -184.38441,-31.21342 0.96536,5.79218 2.89609,0.96536 4.18324,5.14861 -0.64357,3.86145 -6.75755,-2.5743 -3.21788,0.64358 -3.53967,-6.43576 -4.18324,0.64358 1.93072,-5.79218 4.50503,0.32178 z m 227.82576,8.0447 -3.53966,2.89609 -5.79218,-5.4704 4.50503,-4.18324 -6.75755,-7.72291 -0.32178,-3.21787 6.75754,-1.60894 4.18324,2.89609 1.93073,3.86145 1.28715,8.36648 z m -225.89504,-19.62906 -4.18324,0.32179 -1.28715,-2.89609 2.5743,-7.72291 3.53967,0.96536 0.64358,8.0447 z m 111.33859,-17.37654 2.89609,5.47039 17.69833,8.0447 9.01005,0.96536 5.4704,8.36648 -0.64358,1.93073 4.82682,12.22794 3.53966,2.89609 8.68827,0.96536 1.28716,6.11397 -2.89609,2.5743 -6.11397,-2.25251 -6.75755,-5.14861 -1.28715,-4.18324 -7.07933,-9.33185 -11.58436,-0.64357 -4.82682,-2.25252 -1.93072,-5.47039 -4.82682,-2.89609 -6.43576,-6.11397 -4.82681,-3.53966 -9.65364,-3.53967 -1.93073,-2.25251 6.11397,-4.18325 6.75755,-1.60894 z m 121.95757,-18.66369 -0.32178,2.89609 6.11396,4.82681 2.25252,3.21788 -3.86145,6.75754 -12.87152,-2.5743 -2.5743,-2.5743 5.14861,-4.18324 -2.89609,-1.60894 -3.86146,4.82682 -7.07933,-2.25252 -2.89609,-2.89609 2.25251,-4.50503 4.82682,0.32179 5.47039,-2.5743 v -1.93073 l 7.40112,-0.64357 z m -261.61349,-5.14861 -4.18325,0.96536 -3.86145,-2.5743 -3.86145,-6.11397 -7.07934,-7.07933 2.25252,-3.53966 5.1486,-1.28716 4.50503,3.86146 -3.53966,3.86145 2.5743,2.25252 2.89609,7.7229 z m 218.17214,-27.67375 -2.25251,4.50503 -0.32179,4.18324 -12.22794,-2.25251 -0.96536,-7.40112 7.07933,-0.32179 2.5743,2.5743 3.21788,-2.89609 z m 7.72291,-22.20336 -4.50503,1.28715 -5.47039,-4.18324 4.50502,-1.60894 z m -38.29275,-9.65363 -5.14861,1.93072 -5.79218,-3.53966 3.53967,-7.40112 4.18324,0.32179 3.21788,4.18324 z m 51.16426,-5.4704 -1.60894,-2.25251 -6.75754,-3.86145 -14.80224,-1.93073 -7.40112,-2.89609 -2.89609,0.64357 -6.43576,-3.21787 -3.86145,1.28715 -8.0447,5.47039 -4.82681,-0.64358 -5.14861,-3.21787 -7.07933,1.28715 -5.47039,6.11397 -5.79218,3.21787 -5.79218,-1.28715 h -7.40112 l -0.64358,3.53967 6.43576,6.75754 -1.60894,3.21788 1.60894,3.21788 6.75754,0.32179 8.0447,4.18324 -2.25252,2.25251 -10.29721,-3.86145 -3.86145,-0.32179 -3.86146,3.86145 11.26258,8.68828 1.60894,4.50502 -1.93073,2.89609 -4.82682,-2.5743 -8.04469,-10.29721 -9.97542,-1.93072 -1.28716,1.93072 3.86146,7.72291 9.33184,5.47039 -1.93072,1.93073 -9.65364,-3.21788 -3.53966,-5.1486 -1.28715,-6.43576 -17.69833,-9.01006 -4.50503,-9.01006 -7.07933,4.18324 1.28715,6.43576 -1.93073,12.22794 1.28715,4.18324 11.26257,11.90615 4.18325,8.68827 8.36648,6.75754 8.36648,10.29721 2.25252,5.79218 -4.18325,3.53967 -4.18324,-1.60894 0.96537,-6.11397 -7.07933,-3.86145 -6.11397,3.86145 4.82681,7.40112 1.60894,3.86145 -1.28715,4.18325 -5.1486,2.5743 -8.36649,0.32179 7.72291,4.50503 10.619,3.21787 5.1486,3.53967 4.82682,0.32179 5.47039,6.75754 8.36649,1.93073 5.47039,6.75754 6.43576,1.60894 5.47039,2.5743 3.21788,6.75755 0.96536,9.33184 1.93073,6.75755 0.32178,5.47039 -3.53966,1.60894 -4.18324,-5.14861 -13.51509,-11.58436 -3.21788,-1.28715 -3.21788,2.25252 -9.33184,1.60894 -6.11397,4.18324 4.82682,4.18324 0.32178,3.86145 2.57431,4.82682 6.43575,1.28715 6.43576,7.72291 -9.65364,3.21788 -3.53966,2.25251 -2.5743,-1.60894 -0.64358,-3.86145 -13.83688,-7.07933 -1.93072,1.93072 2.25251,7.72291 4.18324,5.14861 7.07933,13.83687 4.18325,11.90615 -0.64358,6.75754 3.21788,4.82682 0.32179,4.82682 -5.4704,-3.86146 -7.07933,-8.04469 -2.5743,-4.82682 -7.07933,0.32179 -4.18324,10.619 0.64357,6.11397 -5.1486,-3.53967 -0.64358,-9.33185 -6.75754,-9.01005 -2.89609,-1.28716 -4.18324,-6.11396 -4.82682,1.93072 -0.32179,9.33185 -1.28715,3.21788 -7.07933,-6.11397 -7.40112,-11.26257 -0.64358,-5.79219 4.50503,-5.47039 -0.96536,-3.86145 -5.14861,-8.0447 -6.75754,-4.82681 -3.86145,-1.60894 -2.25252,-5.14861 -6.43575,-4.18324 v -3.21788 l 6.43575,-5.47039 3.21788,-8.36648 6.11397,1.60894 4.50503,-0.64358 6.43575,-7.72291 5.14861,0.32179 12.54972,6.75754 13.51509,3.86146 6.75754,3.21788 3.86146,3.53966 5.1486,0.96537 -1.60894,-4.50503 2.57431,-1.28715 h 6.75754 l 0.64358,-5.14861 -6.43576,-1.93073 -2.5743,0.64358 -7.72291,-4.50503 -7.40112,-2.5743 -7.07933,-4.82682 -3.86145,4.18324 h -3.86146 l -10.94078,-2.89609 -6.75755,2.25252 -13.51509,2.25251 -3.53966,-4.18324 -8.36648,3.21788 -3.21788,-2.25252 -6.11397,-13.51508 -5.47039,-6.11397 -3.86146,-1.60894 -0.64357,-6.11397 4.82681,-0.64358 7.72291,2.89609 2.89609,-1.93072 -1.93072,-5.14861 -8.0447,-0.64357 -5.79218,1.60894 -9.01007,-7.07934 -4.82682,-5.47039 -7.07933,-3.53966 -5.47039,-10.94079 -8.36649,-8.36648 8.68827,2.89609 2.25252,-2.25252 0.96536,-4.82681 2.89609,-2.25252 -3.21788,-7.07933 5.4704,-4.18324 6.11397,-0.96537 1.93072,-1.60893 0.96537,-6.43576 3.86146,-9.97542 5.4704,-2.57431 2.5743,-8.36648 -3.53967,-5.79218 v -3.53966 l 14.80224,-0.96537 2.89609,-1.93072 7.40112,1.93072 7.72291,-4.18324 5.47039,-8.04469 2.5743,-0.96537 9.65364,-1.28715 10.61899,1.93073 9.33185,-3.21788 0.64358,-6.75754 6.43575,-0.96537 9.65364,0.64358 3.21788,-3.21788 7.7229,-0.64358 8.36649,0.64358 9.65363,-3.53967 6.11397,-0.64357 0.64357,-2.89609 13.51509,0.32179 5.14861,-1.60894 3.86145,5.47039 7.72291,4.50503 2.89609,-1.93073 11.90615,3.86146 5.47039,3.53966 10.94078,-2.89609 10.29721,-1.28715 5.79218,0.96536 8.0447,-3.86145 0.64358,-2.5743 -2.89609,-8.68827 -2.25252,-3.21788 5.14861,-3.53967 5.1486,1.60894 3.86145,0.96537 7.40112,4.82681 2.89609,9.97542 -10.94078,8.0447 1.60894,14.15866 -8.0447,10.29721 z"
     id="GR"
     name="Greece"
     style="stroke-width:0.321788" />
  <path
     d="m 142.45468,275.80479 7.40112,1.28715 -3.53967,2.89609 z m 41.51062,4.82682 5.14861,-0.32179 1.93072,2.89609 19.95085,12.22793 5.47039,2.25252 3.86146,6.11397 -15.44582,-9.97542 -14.15866,-8.0447 -9.97542,-2.25251 -13.83688,-6.43576 -1.60894,-2.89609 z m -20.27263,-11.26258 -2.5743,0.32179 -18.02012,-0.32179 -5.47039,-0.96536 -1.60894,-4.18324 5.79218,0.64357 1.60894,1.93073 z m -17.05475,-7.40112 -6.43576,0.32179 -8.36648,-2.5743 0.96536,-3.53967 15.44582,1.93073 z m -68.219017,-53.09499 -0.965364,1.28716 -10.618997,-8.68828 -0.965364,-6.11396 9.010059,8.68827 z m -15.767603,-20.9162 -6.113968,-0.64358 2.574303,-3.53966 z m -13.515087,4.82681 -2.896091,-0.32178 -5.470392,-13.51509 1.287151,-3.86146 -2.574303,-6.43575 2.896091,-0.96536 1.608939,6.75754 3.217878,2.89609 -0.321788,5.1486 z m 11.906148,-15.7676 -4.826817,0.96537 -3.217878,-3.21788 -4.183241,-0.64358 -3.217878,-3.21788 3.217878,-2.25251 1.608939,-3.86145 z m 159.284969,-47.30281 -2.25252,4.82682 5.14861,8.68827 0.64357,5.14861 4.18324,1.28715 -1.28715,6.43575 3.86145,3.21788 9.65364,3.21788 2.89609,4.82682 -7.40112,0.32179 -5.47039,1.28715 2.25251,8.36648 -3.21788,5.1486 -7.07933,-0.64357 -4.18324,-7.07933 -3.53967,-2.57431 -7.07933,-0.64357 -8.36648,-2.25252 -5.79218,0.64358 -5.79218,-0.96536 -7.07933,3.21787 -5.14861,-4.18324 -5.47039,1.93073 -9.01006,-2.25251 -8.04469,-0.32179 -8.68827,-5.14861 -4.82682,3.86146 -10.29721,-0.96537 -8.68827,10.29721 -5.79218,-3.21788 -5.4704,-5.79218 -5.79218,-1.28715 -3.86145,1.93073 -0.965363,16.08939 0.321788,4.50503 6.113965,4.18324 10.94079,10.29721 4.18324,12.87151 7.40112,7.72291 9.01006,7.40112 5.47039,6.43576 16.08939,13.1933 7.72291,3.53966 1.28715,7.07933 4.82682,5.14861 9.65363,8.04469 -0.96536,5.14861 -11.26258,-9.01006 -8.36648,-4.82682 -9.97542,-9.01006 -12.22794,-3.53966 -8.68827,-3.86146 -10.619,1.93073 -5.79218,-0.64357 -2.25251,-7.07934 -18.663694,-12.54972 -13.836875,-12.87151 -2.574303,-4.18324 9.975422,-3.86146 -4.505029,-2.5743 -12.549725,-10.94079 -3.861453,-5.1486 -0.321788,-13.1933 -2.574302,-5.47039 -9.331847,-7.07933 -3.539666,-3.53967 -6.757544,-2.25252 -4.505029,2.89609 -0.965363,6.11397 -9.653633,16.08939 h -4.183242 l -9.975422,-13.51508 -1.608939,-6.11397 -4.1832411,-12.54973 2.2525146,-1.60894 1.6089395,1.93073 10.618997,2.5743 4.505029,-4.18324 3.539665,1.60894 11.584361,-0.32179 1.930727,-0.96536 3.861453,-7.07933 8.366483,6.75754 4.826818,2.25252 4.183241,-1.60894 6.435756,2.25251 5.148605,0.64358 3.861454,-1.28715 -2.574303,-7.40112 2.252515,-2.25252 -3.217878,-3.53966 6.757544,-3.21788 6.757544,-1.93073 1.287151,-3.53966 -0.643576,-7.07934 -2.89609,-2.89609 1.287151,-4.50503 14.158662,-5.47039 2.25252,-3.21788 h 6.43575 v -5.47039 l 2.89609,-2.574302 8.0447,1.930732 9.33184,3.86145 5.4704,3.86145 2.89609,4.18324 8.68827,5.79218 7.07933,7.07934 4.18324,2.25251 8.0447,1.93073 4.18324,4.18324 10.619,2.89609 15.7676,0.64358 8.04469,-2.8961 3.53967,-4.50502 z"
     id="HR"
     name="Croatia"
     style="stroke-width:0.321788" />
  <path
     d="m 334.8838,7.4337587 h 4.82681 l 4.50503,7.4011193 7.07933,2.574303 2.8961,3.539666 7.40111,1.287151 2.8961,2.252514 2.25251,5.470393 -7.07933,7.401119 -14.80224,3.539666 -6.11397,7.722907 -3.86145,3.217878 0.32178,5.470393 -4.50502,4.505029 -2.25252,8.044695 -4.50503,4.826817 v 3.861454 l -5.14862,8.688271 0.64359,4.183241 -6.75755,4.826817 -4.82682,15.124028 -4.18324,2.89609 -8.36649,-0.96536 -8.04469,6.43575 -4.50503,-1.60894 -10.29721,2.89609 -3.21788,-1.60894 -9.01006,-0.96536 -3.53966,0.64358 -9.33185,-1.28715 -3.21788,0.96536 -4.82681,5.1486 -7.07934,3.21788 -5.1486,-1.60894 -6.75754,4.18324 -9.33185,1.28716 -3.53967,4.50502 -8.04469,2.8961 -15.7676,-0.64358 -10.619,-2.89609 -4.18324,-4.18324 -8.0447,-1.93073 -4.18324,-2.25251 -7.07933,-7.07934 -8.68827,-5.79218 -2.89609,-4.18324 -5.4704,-3.86145 -9.33184,-3.86145 -6.11397,-7.079337 -4.50503,-10.618997 -7.72291,-0.321788 5.79218,-5.470393 8.0447,-1.608939 0.96536,-5.79218 -3.53966,-5.148605 1.60894,-2.252515 -1.28716,-4.826817 7.07934,-3.861453 1.60893,-4.50503 -1.60893,-3.539666 -8.36649,-2.252514 4.18324,-4.50503 8.0447,2.896091 12.54972,-0.965364 -2.25251,-6.435756 1.93073,-6.113967 1.93072,-2.252515 6.75755,0.965363 13.51508,8.68827 5.14861,2.252515 15.12403,0.321788 22.52514,-1.287151 1.93073,-3.217878 -1.60894,-4.183241 1.28715,-3.217878 4.50503,-2.252515 13.83688,-1.287151 7.7229,-1.930727 3.21788,-4.826817 2.25252,-0.643576 11.26257,4.50503 16.08939,-8.044696 5.14861,-11.2625727 5.79218,-1.28715122 8.68827,0.32178781 8.04469,1.93072681 14.80224,-2.25251462 4.50503,2.89609022 7.07933,7.0793317 1.93074,0.643576 z"
     id="HU"
     name="Hungary"
     style="stroke-width:0.321788" />
  <path
     d="m 376.07264,309.9143 10.61899,10.29721 10.94079,5.79217 5.47039,10.61899 2.89609,3.21788 -1.60894,5.47039 v 13.51509 l -6.43575,0.96537 -0.64358,6.75754 -9.33185,3.21788 -10.61899,-1.93073 -9.65364,1.28715 -2.5743,0.96537 -5.47039,8.04469 -7.72291,4.18324 -7.40112,-1.93072 -2.89609,1.93072 -14.80224,0.96537 -4.18324,-3.53967 -5.14862,0.64358 -4.18324,-7.72291 -3.86145,-3.53967 -3.86146,-7.07933 -0.64357,-6.11397 -2.25252,-6.43575 2.57431,-2.57431 -0.96537,-6.75754 1.60894,-8.36648 5.47039,0.96536 1.60894,-2.5743 0.64358,-8.36649 10.9408,-4.8268 3.21788,-0.32179 5.1486,3.86146 4.82682,-6.11397 6.75754,-1.28715 7.07933,-0.96537 6.43576,-2.89609 6.11397,0.96537 7.40112,-2.57431 z"
     id="MK"
     name="Macedonia"
     style="stroke-width:0.321788" />
  <path
     d="m 242.85247,249.0964 1.28715,3.86145 8.36649,5.4704 6.11396,6.43575 9.65364,5.14861 6.75754,1.60894 17.05476,9.33184 0.32178,3.21788 -5.1486,1.28715 -0.64358,2.25252 -6.43575,1.28715 2.89609,4.82682 -0.64358,4.18324 -10.94078,3.86145 -2.57431,-6.75754 -3.53966,-0.96537 -10.29721,17.05476 -2.5743,0.96536 -8.0447,-0.64357 5.14861,6.11397 5.47039,2.5743 0.96536,1.93071 v 9.97542 l -6.75754,-3.86145 -2.89609,-5.79218 -9.97542,-9.33183 -11.26258,-6.43576 0.32179,-3.21788 -5.1486,0.32179 -3.86146,-6.11397 3.53967,-3.21788 0.32179,-2.5743 -3.53967,-5.14861 -1.93073,-9.65363 1.60894,-2.25252 5.47039,-0.64357 -0.32178,-4.82682 1.60894,-5.47039 6.43575,-5.47039 7.40112,-0.64358 -4.50503,-7.07933 z"
     id="ME"
     name="Montenegro"
     style="stroke-width:0.321788" />
  <path
     d="m 593.60119,153.52542 4.82682,5.14861 5.79218,2.89609 12.87151,2.89609 1.93073,-3.86146 2.89609,0.96537 5.1486,-1.60894 7.07934,-4.18324 7.07933,-0.64358 7.07933,2.25252 6.11397,5.79218 -0.64358,13.83687 -2.25251,6.75755 -19.95085,4.18324 1.28716,-1.93073 -2.25252,-6.43576 -3.21788,-3.21787 -2.89609,3.53966 1.93073,5.47039 -2.25252,4.50503 -0.64357,7.72291 1.93073,2.89609 -5.14861,6.43576 -1.60894,4.18324 2.5743,15.44581 -1.28715,11.90615 h -6.43575 l -8.36649,-1.60894 -7.07933,-2.25251 -8.04469,-8.36648 -5.4704,1.60894 -2.89609,-1.93073 -10.29721,-1.28715 -14.48045,-7.40112 -9.33184,1.28715 -14.15867,2.89609 -10.29721,3.86145 -10.61899,6.75755 -3.86146,5.1486 -5.1486,2.89609 -7.40112,1.93073 -13.51509,-0.64358 -30.24805,-5.47039 -8.0447,1.60894 -11.26257,-1.28715 -17.05476,-3.21788 -12.54972,-0.96536 -11.90615,1.93072 -2.89609,-5.79218 5.79218,-6.43575 -13.83687,-8.0447 -2.57431,-3.86145 -5.1486,-2.89609 -1.60894,-5.4704 8.04469,-5.79218 -9.65363,-5.1486 -5.47039,1.60894 -5.4704,5.79218 -4.18324,0.64357 -3.21788,-3.86145 -4.82681,-2.25251 -11.26258,-2.25252 -4.82681,-3.86145 -6.75755,-1.93073 0.64358,-1.93073 5.79218,-2.5743 -7.40112,-3.53966 4.82682,-6.43576 -2.89609,-3.53967 -8.3665,-2.5743 -12.22794,-6.11397 -7.07933,-5.79218 -1.28715,-13.1933 -2.5743,0.64358 -5.79218,-6.43576 -9.33185,-5.47039 -5.47039,-6.43576 10.29721,-2.89609 4.50503,1.60894 8.04469,-6.43575 8.36649,0.96536 4.18324,-2.89609 4.82682,-15.124028 6.75755,-4.826817 -0.64359,-4.183241 5.14862,-8.688271 v -3.861454 l 4.50503,-4.826817 2.25252,-8.044695 4.50502,-4.505029 -0.32178,-5.470393 3.86145,-3.217878 6.11397,-7.722907 14.80224,-3.539666 7.07933,-7.401119 6.75754,-2.89609 2.89609,-3.861454 h 2.25252 l 8.68827,4.826817 8.68827,-0.321787 22.20336,4.505028 11.58436,-2.252514 3.86145,0.965364 13.83688,10.618997 6.75754,-1.60894 3.21788,-3.861453 10.94079,-4.183242 27.03017,-3.861453 3.53967,-6.113968 0.64357,-4.505029 11.90615,-2.574303 h 6.75755 l 8.04469,5.148605 8.0447,9.653634 9.65363,15.767602 4.82682,4.183242 8.04469,10.297209 6.75755,5.792181 4.18324,5.470393 9.65363,6.757544 4.50503,9.331846 4.50503,7.401119 1.60894,9.331847 -2.89609,15.44581 0.32179,8.36649 4.50503,16.08939 -2.89609,2.25251 z"
     id="RO"
     name="Romania"
     style="stroke-width:0.321788" />
  <path
     d="m 272.45695,121.02485 5.47039,6.43576 9.33185,5.47039 5.79218,6.43576 2.5743,-0.64358 1.28715,13.1933 7.07933,5.79218 12.22794,6.11397 8.3665,2.5743 2.89609,3.53967 -4.82682,6.43576 7.40112,3.53966 -5.79218,2.5743 -0.64358,1.93073 6.75755,1.93073 4.82681,3.86145 11.26258,2.25252 4.82681,2.25251 3.21788,3.86145 4.18324,-0.64357 5.4704,-5.79218 5.47039,-1.60894 9.65363,5.1486 -8.04469,5.79218 1.60894,5.4704 5.1486,2.89609 2.57431,3.86145 -2.89609,2.25252 -0.64358,6.11396 -6.75754,3.21788 -1.28716,7.40112 1.93073,7.72291 7.72291,12.54972 9.33184,4.82682 4.18325,5.14861 5.1486,3.21787 -0.96536,4.50503 -5.14861,5.4704 -3.53966,5.1486 -5.79218,0.32179 -3.53967,1.93073 v 10.61899 l 4.50503,9.33185 -3.53967,5.4704 -3.21787,0.96536 -4.50503,-2.25252 -7.40112,2.57431 -6.11397,-0.96537 -6.43576,2.89609 -7.07933,0.96537 -1.93073,-4.18324 3.21788,-2.89609 3.86146,-10.29722 0.64357,-3.86145 -15.12403,-3.86146 v -4.18324 l -7.07933,-3.86145 -0.64357,-2.25252 -7.40113,-6.75754 -9.01006,-4.18324 -3.53967,-4.18324 -5.47039,2.89609 1.93072,5.1486 -1.28715,3.21788 -5.47039,4.18324 v 4.50503 l -4.82682,1.60894 -0.32178,-3.21788 -17.05476,-9.33184 -6.75754,-1.60894 -9.65364,-5.14861 -6.11396,-6.43575 -8.36649,-5.4704 -1.28715,-3.86145 2.25252,-2.5743 8.04469,0.96536 0.64358,-7.07933 -10.29721,-11.90615 1.60894,-2.5743 9.97542,0.32179 0.96536,-2.57431 -10.619,-9.33184 -7.7229,-3.86146 -1.60894,-2.5743 0.32179,-8.36648 5.1486,-8.68827 1.60894,-8.0447 -4.82682,-2.5743 -9.01006,2.25251 3.21788,-5.1486 -2.25251,-8.36648 5.47039,-1.28715 7.40112,-0.32179 -2.89609,-4.82682 -9.65364,-3.21788 -3.86145,-3.21788 1.28715,-6.43575 -4.18324,-1.28715 -0.64357,-5.14861 -5.14861,-8.68827 2.25252,-4.82682 6.75754,-4.18324 5.1486,1.60894 7.07934,-3.21788 4.82681,-5.1486 3.21788,-0.96536 9.33185,1.28715 3.53966,-0.64358 9.01006,0.96536 z"
     id="RS"
     name="Serbia"
     style="stroke-width:0.321788" />
  <path
     d="m 123.14741,101.71759 -8.0447,-1.930732 -2.89609,2.574302 v 5.47039 h -6.43575 l -2.25252,3.21788 -14.158662,5.47039 -1.287151,4.50503 2.89609,2.89609 0.643576,7.07934 -1.287151,3.53966 -6.757544,1.93073 -6.757544,3.21788 3.217878,3.53966 -2.252515,2.25252 2.574303,7.40112 -3.861454,1.28715 -5.148605,-0.64358 -6.435756,-2.25251 -4.183241,1.60894 -4.826818,-2.25252 -8.366483,-6.75754 -3.861453,7.07933 -1.930727,0.96536 -11.584361,0.32179 -3.539665,-1.60894 -4.505029,4.18324 -10.618997,-2.5743 -1.6089395,-1.93073 5.4703925,-3.53966 4.826817,-0.32179 -0.643575,-4.18324 -4.826817,-4.18324 -6.1139687,-3.53967 1.2871512,-6.43575 -4.1832415,-0.64358 -0.9653634,-3.21788 5.1486049,-6.75754 -7.4011196,-2.25252 -2.25251478,-4.50503 10.61899788,-7.40112 0.643576,-2.89609 16.08939,2.89609 16.089389,2.25252 9.653634,-3.86145 3.217878,-4.183246 6.113968,-2.252515 8.366483,-0.643576 9.010059,0.643576 7.401119,-3.539666 5.148605,-0.643575 7.722904,1.608939 0.32179,-6.113969 4.18324,-2.89609 7.72291,0.321788 4.50503,10.618997 z"
     id="SI"
     name="Slovenia"
     style="stroke-width:0.321788" />
  <path
     d="m 535.67939,419.00035 -9.33185,1.60894 -0.32179,-4.82682 7.07934,-1.93072 z m 72.72404,-92.03131 -0.32179,5.79218 3.21788,6.43576 7.40112,8.68827 6.43576,4.50503 26.06481,10.61899 4.50503,0.96537 -2.89609,11.26257 -6.75754,1.60894 -20.59442,-4.82682 -5.14861,-0.32179 -9.33185,4.50503 -7.40112,-1.28715 -9.97542,1.93073 -1.93072,6.75754 -6.43576,7.72291 -10.619,6.11397 -8.04469,3.21788 -11.26258,11.90615 -4.82681,7.07933 -4.82682,2.25251 1.60894,-6.43575 -0.96536,-5.4704 7.40111,-6.43575 10.619,-5.14861 2.25252,-4.18324 -17.37654,0.96536 h -10.619 l -3.21788,-5.79218 2.5743,-1.28715 8.0447,-10.29721 -1.60894,-14.15866 10.94078,-8.0447 -2.89609,-9.97542 -7.40112,-4.82681 -3.86145,-0.96537 0.96536,-4.50503 6.11397,-0.96536 3.21788,-7.07933 10.94079,-1.28715 4.82681,-3.53967 11.26258,-0.96536 10.94078,8.04469 4.82682,-1.93072 h 5.79218 l 2.89609,-1.28716 z"
     id="TR"
     name="Turkey"
     sodipodi:nodetypes="cccccccccccccccccccccccccccccccccccccccccccccccccccc"
     style="stroke-width:0.321788" />
  <path
     d="m 344.53743,313.13218 -6.75754,1.28715 -4.82682,6.11397 -5.1486,-3.86146 -3.21788,0.32179 -10.9408,4.8268 -0.64358,8.36649 -1.60894,2.5743 -5.47039,-0.96536 -0.32179,-7.07934 -4.50503,-10.29719 -6.11396,-4.18324 -4.50503,-1.60894 -6.43576,-9.33185 -1.60894,-1.28715 0.64358,-4.18324 -2.89609,-4.82682 6.43575,-1.28715 0.64358,-2.25252 5.1486,-1.28715 4.82682,-1.60894 v -4.50503 l 5.47039,-4.18324 1.28715,-3.21788 -1.93072,-5.1486 5.47039,-2.89609 3.53967,4.18324 9.01006,4.18324 7.40113,6.75754 0.64357,2.25252 7.07933,3.86145 v 4.18324 l 15.12403,3.86146 -0.64357,3.86145 -3.86146,10.29722 -3.21788,2.89609 z"
     id="XK"
     name="Kosovo"
     style="stroke-width:0.321788" />
  <circle
     cx="399.89999"
     cy="390.79999"
     id="0"
     r="0" />
  <circle
     cx="575.40002"
     cy="412"
     id="1"
     r="0" />
  <circle
     cx="521"
     cy="266.60001"
     id="2"
     r="0" />
</svg>
