<?xml version="1.0"?><svg baseprofile="tiny" fill="#ececec" height="830" stroke="black" stroke-linecap="round" stroke-linejoin="round" stroke-width=".1" version="1.2" viewbox="0 0 1000 830" width="1000" xmlns="http://www.w3.org/2000/svg">
 <g id="combined">
  <path d="M992.3 275l-1.8 0.4-1.5-0.4-5.3-0.6-1-0.3-0.7-0.4-2-0.6-0.7-0.2-0.4-0.4-0.9-0.9-0.7-0.6-1.4-0.9-1.9-1.8-1-0.6-0.6 0-0.5 0.3-0.6 1-0.5 0.4-0.8 0.5-2.3 0.7-1.2 0.6-2.3 0.6-0.6 0.3-0.4 0.3-0.8 0.8-1.1 1.2-1.2 1.2-0.9 0.6-3.7 1.8-1.7-1.2 0.1-1.2-1-0.8-1.8-3.6-1-0.8-4.4-0.1-2 0.4-1.9 1-2-2.5-2.6-6.2-1.9-2-3.5-0.8-1.6 1.7-1.1 2.9-1.5 2.9-5.5 3.1-11.3-1.6-6.5 2.5-1.6-1.6-2.3-0.1-0.6 0-0.3 0.2-2.5 2.6-0.3 0.6-0.3 0.6-0.1 0.7 0 0.7 0.4 1.4 0.6 1 0.7 1 0.7 1.2 0.3 0.6 0.7 2.8 0 0.2 0.2 1.1 0.1 0.7-0.2 0.8-0.1 0.7-0.3 0.6-0.6 1.1-0.3 0.9-0.5 3.7-0.3 0.6-0.4 0.6-0.8 0.9-4 3.3-1.3 0.7-1 0.2-0.7-0.2-0.5-0.4-0.5-0.4-0.5-0.4-0.6-0.2-2.9 0.1-4.7 1-1.3 0.1-0.8-0.1-2.1-0.1-5.7 1.1-3 0-7.9-0.2-3.1-0.4-12.1-4.6-9.1-6.1-6.6-6.9-7.2-4.7-1.2-1-9.4-9.2 1.3-3.3 0.2-2.2-0.2-0.9-0.2-0.8-0.2-0.7-0.3-0.5-1.2-1.5-0.8-1.5-0.2-1.9 0.4-7.3-0.1-2-0.4-2-1.9-3-1.6-7.3-3.1-5-0.6-1.5-0.8-1.2-0.6-1.3 0.3-4.6 1.1-5.2 18-33.7 0.3-1.2-0.2-4.7 1.3-1.9-0.5-2.4-3.2-9.8-3-26.8-2.2-8.6-1.3-1.8-1.6-1.7-1.3-1.8-1.2-2.6-0.3-2.3 0.1-2.5 2.2-14.7 0.4-1.4 1.1-2.9 0.4-2.4 1.9-5.4 1-4.4-0.1-3.5-0.5-3.3-0.9-2.8-0.8-3.2-1.5-4.3 0-1.9 0.2-2.4 2.3-8.1 0.4-1 0.4-0.6 2.3 1.3 13.7 4.2 0.8 0.7 1.5 1.5 0.9 1.2 1.4 2.9 6.6 9.4 5 5 2.6 1.9 2.6 1.1 2.8 0.1 7.3-4.2 0.9-0.8 1.1-0.6 2-0.1 1.7 0.6 3.6 2.2 1.9 0.3 2.3-0.6 0.7-1 0.1-1.2 2-5 2.4-0.5 0.8-0.5 3.7-5.8 5.5-6.8 0.1-1 0.6-0.1 2.4 1 3.1 2.5 1.6 2.3 2 1 4.2-1.3 5.7-3.9 5.2-4.6 1.5-3.1 1.1-3.3 1.5-2.3 2.8 0 0.1 0 2.9 0.5 1.6-0.9 2-3.9 0.4-3.9 0.2-1.3 0.8-1 2.2-1.3 0.9-0.8 3.4-4.8 2.8-2.5 3.5 0.2 5.1 3.7 3.5 3.2 1.9 0.8 3.5 0.7 4.4 2 2.1 0.1 2.5-2 0.6-1.5 0-1.7-0.3-1.6 0.2-1.6 0.5-1.5 1.4-1.9 0.6-1.1 1.5-4.4 1.2-1.3 2.9-1.4 6.3-9.2 2.5-2.2 2.3 5.2-1 4.9-4.4 9.9-0.2 3 0.7 5.8-0.2 3-1 2.2-2.7 4-0.8 2.6-0.2 1.4-0.7 2.6-2.3 5.1-1.7 3-2.3 2-3.7 0.9-1.2-0.6-0.7-1.3-1.1-0.8-2.4 0.7-1.5 1.4-0.6 1.6-0.3 1.8-0.5 1.8-3.9 6.8-1.3 3.6-0.4 3.9 0.4 1.8 1.7 3.7 0.5 2 0 1.8-1 6.9-6.3 18.4-0.9 4.6 0.8 2.3 1.7 1.9 2.1 3.3 0.4 3.8-0.6 4.1-0.1 3.9 2.2 3.6 3.2 1.1 7-0.7 3 1.2 1.1 1.8 0.1 1.9-0.2 1.9 0.2 1.8 2.6 5.7 0.2 0.9 0.4 2.4-0.5 2.3-1.1 2.2-0.8 3.2 2 5.9-0.2 1.7-1.2 4.2-0.1 2 1 2.9 3.6 4.4 1.8 2.9 0.3 0.9 4.4 4.7 3.3 4.8 15.5 30.5 1.4 7.1 1.2 19-0.7 5.9-6 14.8z" id="KHM1795" name="Rôtânôkiri">
  </path>
  <path d="M844.5 511.8l0-0.1-0.2-1.1-1-8.5 0.9-12.8-0.2-1.8-2.7-4.2-0.9-2-1.4-2.3-1.4-1.5-1.3-1.1-2-2.2-0.6-0.6-0.7-0.4-1.8-0.9-2.2-1.4-2.5-1.1-7.9-2.2-4.7-0.7-3-1.1-2.9-1.7-0.8-0.8-0.7-0.7-0.7-1.8-2.5-8.5-2.1-4.7-0.8-1.4-0.7-0.9-4.6-4.2-0.6-0.3-0.6-0.3-2.7-0.9-1.1-0.5-0.8-0.5-1.5-1.1-3.9-2.3-2.5-1.1-8.9-5.8-5.4-2.5-0.9-0.7-0.7-1-0.2-0.6-0.2-0.7 0.1-4.3-0.5-2.9 0.8-4.9 4.8-18.4 4.3-7 2.8-2.8 7.5-4.7 4.6-1.1 3.5-2.1 3.9-1.1 5.5-2.4 0.9-0.9 1.3-1.5 2.4-3.5 1.3-1.4 1-0.9 1.2-0.5 0.5-0.3 0.6-0.4 0.4-0.5 0.3-2.3-0.9-7.2-0.2-2.3-0.4-1.4-0.4-0.7-0.7-0.6-1.4-0.9-6.9-2.8-11.2-6.9-2.3-2.7-0.6-0.4-0.6-0.3-1.5-0.3-0.8-0.1-3.2 0-0.7-0.1-0.6-0.2-2-0.9-1.7-1.1-1.2-1.2-1.3-2.1-0.5-0.6-0.6-0.4-2.3-1.2-0.6-0.3-0.4-0.4-0.6-0.7-5.7-8-0.9-0.9-0.5-0.8-0.3-1.2-0.2-5.2 0.1-0.8 0.3-1 0.7-1.1 1.5-1.9 1-0.8 1-0.4 10.8 0.2 0.7-0.1 0.6-0.3 0.4-0.5 0.2-0.8 0-1-0.2-0.8-0.2-0.7-0.3-0.7-0.3-0.6-1-1.3-1.8-1.5-5.8-3.2-1.9-2.5-2.6-7.3-1-4.1 0-0.8 0.9-3.6-0.5-21.3 10.7-0.5 3.9 0.8 11.7 8.3 3.4 1.6 2.3 0.8 2.5 0.4 12.1 5.4 9.4 9.2 1.2 1 7.2 4.7 6.6 6.9 9.1 6.1 12.1 4.6 3.1 0.4 7.9 0.2 3 0 5.7-1.1 2.1 0.1 0.8 0.1 1.3-0.1 4.7-1 2.9-0.1 0.6 0.2 0.5 0.4 0.5 0.4 0.5 0.4 0.7 0.2 1-0.2 1.3-0.7 4-3.3 0.8-0.9 0.4-0.6 0.3-0.6 0.5-3.7 0.3-0.9 0.6-1.1 0.3-0.6 0.1-0.7 0.2-0.8-0.1-0.7-0.2-1.1 0-0.2-0.7-2.8-0.3-0.6-0.7-1.2-0.7-1-0.6-1-0.4-1.4 0-0.7 0.1-0.7 0.3-0.6 0.3-0.6 2.5-2.6 0.3-0.2 0.6 0 2.3 0.1 1.6 1.6 6.5-2.5 11.3 1.6 5.5-3.1 1.5-2.9 1.1-2.9 1.6-1.7 3.5 0.8 1.9 2 2.6 6.2 2 2.5 1.9-1 2-0.4 4.4 0.1 1 0.8 1.8 3.6 1 0.8-0.1 1.2 1.7 1.2 3.7-1.8 0.9-0.6 1.2-1.2 1.1-1.2 0.8-0.8 0.4-0.3 0.6-0.3 2.3-0.6 1.2-0.6 2.3-0.7 0.8-0.5 0.5-0.4 0.6-1 0.5-0.3 0.6 0 1 0.6 1.9 1.8 1.4 0.9 0.7 0.6 0.9 0.9 0.4 0.4 0.7 0.2 2 0.6 0.7 0.4 1 0.3 5.3 0.6 1.5 0.4 1.8-0.4-2.5 6.1-19.1 46.5 0.5 2.8 2.9 2.1 0.5 1.5 0.1 1.2-0.5 1.1-1 0.7-1.1 1.9-0.3 2.1 0.4 2.2 2.1 4.8 0.7 5.9 0.8 2.9 1.3 2.3 5.3 6 2.6 5.4 0.5 5.1-0.2 5.2 0.4 5.7 4.7 21.3 0.4 6.3-0.7 5.9-1 2.4-1.2 2.1-0.4 2.1 1.4 2.5 0 4.5-5.6 15.8-0.9 4.7-1.5 4.4-2.8 3.5-4.9 2-4.5 3.1-6.4 8.7-4.3 0.2-3.6-3.2-5.6-8.8-4.5-2.7-8.3 0.8-9.1 2.8-3 1-11.2 5.5-5.6 5.9-1.2 2.7-2.3 2.1-5 3.6-6 7.4-12.8 12.9-4.6 3.2-7 2.7-7 0.8-14.3-1.1-2.4 0.2z" id="KHM1794" name="Môndól Kiri">
  </path>
  <path d="M844.5 511.8l-3.5 0.3-4.3 2.6-3.1 4.5-2.2 6.3-3.6 4.9-4 1.1-9.4-2.1 1.5 2.9-16.2-2.3-9.1-0.1-5.8 4.1-2.5-0.2-1-1.3-0.7-1.7-1.7-1.2-2.5-0.4-2.2 0.2-4.4 1.2 0.3 0.8-1.3 0-13.1 3.1-1.6 0.1-4.4-1-1.2 0-0.9 0.1-5.3 2-1.4 0.2-1 0-0.6-0.3-0.5-0.3-0.4-0.5-1.1-1.4-8.9 0-2.2-0.9-0.2-0.7 0-0.7 0.2-0.7 0.2-0.6 0.3-0.6 0.4-0.5 0.4-0.4 0.5-0.4 1-1 0.5-0.9 0.2-0.6 0.1-0.6 0-0.2-3-5.9-1.2-1.7-1-1.1-0.6-0.3-1.2-0.5-2.2-1.3-3.3-2.5-1-0.5-0.7-0.1-2.4 0-0.8-0.3-3.3-1.8-2-0.8-0.8-0.6-0.4-0.6 0.2-0.5 0.4-0.4 0.5-0.5 0.6-1.1 0.3-0.7 0.2-0.7 0.1-0.8-0.3-1.1-0.6-1.3-1.4-2.3-0.9-0.9-0.8-0.4-0.9 0.1-0.6 0.1-2.5-0.7-1-3.7-0.4-0.6-0.5-0.7-5.1-3.6-2.6-1.2-6.3-1.2-5.8-2.3-1.5-0.4-1.1-0.2-0.8 0.1-0.7 0.1-0.7 0.2-1.4 1.2-0.7 0.2-5.2 1-1.7-7.9-0.9-0.7-0.8 0.1-3.4-0.2-9.4-2.1-1 0.5-0.7-0.1 0.4-5.8 0.3-0.8 0.5-1 0.9-0.7 1-1.1 1.8-2.6 0.6-1.8 0.3-1.3-0.6-9.8-2.7-14.9-2.2-7.2-5-22.9-5.8-17.1-0.4-4.3-2.2-8 0.4-3.7-0.4-6.4 0.5-2.1 0.3-0.6 0.6-1.2 0.2-0.7 0.1-0.8-0.1-1.2-0.4-1.4-1.2-2.5-1.3-2.1-2.2-2.1-0.3-0.7-0.1-0.8 0.4-1.1 0.3-0.8 1.3-1.6 0.6-1.2 0.1-0.7-0.1-0.9-0.4-1-1-1.5-0.7-0.8-0.7-0.6-1-0.7-0.5-0.4-0.4-1.2-2-13.2-0.1-1.5 0.2-1.1 1.3-3.3 0.3-1.4-0.2-1.2-0.6-1.4-1.5-2.6-1.6-2.1-2.6-2.5-0.5-0.5-6.1-25.4 16.4 7.9 7.3 1.8 2.5 1.3 16.9 13.3 6 3.3 4.2 1.8 1.6 0.4 2.1-0.1 2.7-0.2 7.5-2.5 0.6-0.3 1-1.1 1.3-1.8 3.4-6.4 0.6-1.5 0-2.7 0.3-0.7 0.5-0.8 1.2-0.4 0.8 0 0.6 0.1 0.3 0.1 3 1.2 0.5 0.1 0.6 0 0.7 0 0.6-0.2 0.7-0.2 0.4-0.3 0.4-0.6 0.3-0.9 1.3-6.3 0.4-1.2 11.8-17.4 2.2-1.7 1.1-0.7 1.6-0.7 1.6-0.5 8.6-0.6 5 0.9 1.5-0.1 1.2-0.5 1.2-1.3 2-2.5 1-0.7 1.3-0.7 10.9-4.8 3.1-0.7 6.9-0.6 0.5 21.3-0.9 3.6 0 0.8 1 4.1 2.6 7.3 1.9 2.5 5.8 3.2 1.8 1.5 1 1.3 0.3 0.6 0.3 0.7 0.2 0.7 0.2 0.8 0 1-0.2 0.8-0.4 0.5-0.6 0.3-0.7 0.1-10.8-0.2-1 0.4-1 0.8-1.5 1.9-0.7 1.1-0.3 1-0.1 0.8 0.2 5.2 0.3 1.2 0.5 0.8 0.9 0.9 5.7 8 0.6 0.7 0.4 0.4 0.6 0.3 2.3 1.2 0.6 0.4 0.5 0.6 1.3 2.1 1.2 1.2 1.7 1.1 2 0.9 0.6 0.2 0.7 0.1 3.2 0 0.8 0.1 1.5 0.3 0.6 0.3 0.6 0.4 2.3 2.7 11.2 6.9 6.9 2.8 1.4 0.9 0.7 0.6 0.4 0.7 0.4 1.4 0.2 2.3 0.9 7.2-0.3 2.3-0.4 0.5-0.6 0.4-0.5 0.3-1.2 0.5-1 0.9-1.3 1.4-2.4 3.5-1.3 1.5-0.9 0.9-5.5 2.4-3.9 1.1-3.5 2.1-4.6 1.1-7.5 4.7-2.8 2.8-4.3 7-4.8 18.4-0.8 4.9 0.5 2.9-0.1 4.3 0.2 0.7 0.2 0.6 0.7 1 0.9 0.7 5.4 2.5 8.9 5.8 2.5 1.1 3.9 2.3 1.5 1.1 0.8 0.5 1.1 0.5 2.7 0.9 0.6 0.3 0.6 0.3 4.6 4.2 0.7 0.9 0.8 1.4 2.1 4.7 2.5 8.5 0.7 1.8 0.7 0.7 0.8 0.8 2.9 1.7 3 1.1 4.7 0.7 7.9 2.2 2.5 1.1 2.2 1.4 1.8 0.9 0.7 0.4 0.6 0.6 2 2.2 1.3 1.1 1.4 1.5 1.4 2.3 0.9 2 2.7 4.2 0.2 1.8-0.9 12.8 1 8.5 0.2 1.1 0 0.1z" id="KHM1793" name="Krâchéh">
  </path>
  <path d="M656.6 605l1.9 3.3 2.3 1.2 5 0.9 2.1 1.6 0.9 2.1 0.2 2.6-0.4 5 2.9 10.2 0.3 2.9-0.5 2.9-2.1 6.5-3.1 14.4 0.2 2.8 2.4 1.9 3 0.8 2.5 1.5 0.5 4.1 0 0.1 2 5.3 3.9 2.9 10.1 2.5 2.8 2.6 4.5 7.2 2.9 3.2 6.6 5.6 2.5 3.2 1.9 3.9 2.2-4.1 2.9-1.7 3.2 0.5 3.4 2.6 2.2 3.3 3.1 11 2.1 3.8-1.4 1.1-1.9 0-4-0.2-3.4 0.4-0.6 0.7-1.1 2 0.5 0.4-0.3 5-0.3 0.4 1 3.1 4.6 8.8 4.9 18.5-4.2-3.5-5-1.2-10.6-1.1-5-1.7-5.3-2.7-4.7-3.4-3.5-4.1-1.8-2-6.3-5.2-0.2 3.2-1.8 4.2-2.2 3.7-1.8 2-3.9 0-3.3-2.1-2.6-3.1-1.4-2.8-2.1-6.6-1.4-2.9-6.4-8.9-3.3-5.9-3.2-3.7-5-0.5-5.5 1.6-4.3 2.6-0.1 0.1-3.5 2.3-4.3 1.9-2.8 0.6-0.1 0-1.4-3.2-1.8-2.1-1.6-1.3-0.4-0.7-0.1-0.5 0.8-1.5 0.5-1.3 0.8-6.3 0.4-1.4 0.6-1.3 0.3-0.5 2.1-2.3 0.4-0.6 0.5-0.9 0.6-1.4 0.2-0.9-0.3-0.7-0.3-0.5-0.5-0.4-0.5-1.5-1.6-8-0.1-2.5 0-1.7 0.9-1.8 0.5-1.6 1-5 0.3-0.5 0.3-0.5 1.4-1.3 0.9-1.6 0.4-0.5 1.2-0.7 3 0.3 0.3-0.8-0.5-1.3-0.1-0.6-0.5-1.4-1.3-9.7 0-15.4 0.2-1.1 0.2-0.9 1-2.5 1.2-4.1 2.5-12.1 2.5-6.2 0.9-1.2 0.7-0.8 1.2-0.5 5-1 2-1.2 0.7-0.3 0.8-0.1 3.2 0 1.5-0.1 0.7-0.2 0.7-0.2 0.6-0.4 1.2-0.8z" id="KHM1801" name="Svay Rieng">
  </path>
  <path d="M661.8 593.8l-0.5 0.5-2.5 2.7-2.2 3.4-0.5 3.8 0.5 0.8-1.2 0.8-0.6 0.4-0.7 0.2-0.7 0.2-1.5 0.1-3.2 0-0.8 0.1-0.7 0.3-2 1.2-5 1-1.2 0.5-0.7 0.8-0.9 1.2-2.5 6.2-2.5 12.1-1.2 4.1-1 2.5-0.2 0.9-0.2 1.1 0 15.4 1.3 9.7 0.5 1.4 0.1 0.6 0.5 1.3-0.3 0.8-3-0.3-1.2 0.7-0.4 0.5-0.9 1.6-1.4 1.3-0.3 0.5-0.3 0.5-1 5-0.5 1.6-0.9 1.8 0 1.7 0.1 2.5 1.6 8 0.5 1.5 0.5 0.4 0.3 0.5 0.3 0.7-0.2 0.9-0.6 1.4-0.5 0.9-0.4 0.6-2.1 2.3-0.3 0.5-0.6 1.3-0.4 1.4-0.8 6.3-0.5 1.3-0.8 1.5 0.1 0.5 0.4 0.7 1.6 1.3 1.8 2.1 1.4 3.2 0.1 0-17.7 3.8-9.4 2-1.5-0.2-4.2-2.1-5.3-1.5-0.9-0.5-2.4 1.7-7.6 8.9-5.6 11.4-1.8 1.9-2.8-1-6.5-5.7-2.9-1.9-8.3-1.6-2.8-19.7-0.1-5.4 1-5.3 4.3-10.3 2.7-9.8 2.5-4 6.1-6.6 1.6-4.4-0.2-5.3-3.9-15.5-1-8.3 1.6-1.4 4.3-2.3 0-4.4-1.6-2-2.7-1.7-13.7-11.4-9.4-5.1-1.4-1.2-0.9-1.2-3.7-6.8-0.5-1.2-0.5-1.9 4-7.2 0.8-2.9-0.2-0.8-0.6-1.4-0.4-1.6-0.2-1.7 0.2-1 0.3-0.7 0.2-0.2 0.3-0.2 3.1-4.7 0.7-1.5 0.3-1.1 0-1.7-0.1-0.6-0.4-1.8 15-10.1 7.3-6.8 1.7-1.7 3.4-2.7 1.9-1.1 1.6-0.7 2-0.4 3.6 0.8 11.1 4.5 2.9 4 2.2 5.3 0.6 1 0.9 1.1 0.5 0.5 0.7 0.4 2.1 0.8 1.3 0.4 6.9 0.6 23.3 4.2 13.7 0.1 5.2 5 4.6 3.5 1.6 0.9 1.3 0.6 1.6 0.5 2.2 0.4 0.5 0 6.8-1.1 1 0.5 0.3 1.2-0.2 3-1.9 4.6-0.1 0.9-0.1 0.1z" id="KHM1790" name="Prey Vêng">
  </path>
  <path d="M546.6 737.8l-18.4-3.4-2.7-0.9-2.1-2.9-0.5-2.6-1.1-0.8-4.1 2.2-2.5 1.8-0.8 0.7-0.8-1.4-0.3-0.6-0.3-0.6-1.7-6.2-0.5-1.3-0.5-0.8-0.5-0.4-0.4-0.5-0.3-0.9-0.2-4 1.4-6.1-0.7-9.2 0.2-4.5 2.4-9.3 0-1.7-1.3-2.9-3.7-2.6-3.7-2.9-2.1-2.2-3.9-5.8-1.1-0.7-1-0.7-0.3-0.5-0.3-0.6-0.3-2.9 0.4-8.7-0.7-1.1-0.4-0.3-1.1-0.5-6.7-1.5-1.1-0.5-0.5-0.3-0.6-0.4-1-0.1-1.2 0-5.7 1.5-5.8 0.5-2.5 0.4-1.6 0.8-0.3 0.1-1.8-0.4-4.9-3.3 8.1-10.7-0.6-0.8-2.1-0.2-15 0.3-5.1-1.8-2.9-4.2 2.9-24 0.7-7.9 5.7-13.7 1.4-7.8 0.5-1 0.8-1.2 1.8-2.1 1.8-1.5 1.8-0.8 1.1-0.6 1-0.8 0.8-0.9 0.5-2.4-0.1-7.8 1.3-5.1 2.7-5.4 1-0.8 2.8-0.7 3.1-1.3 3.9 6.5 0.6 3.5-0.1 1.4 0.2 1.1 0.6 0.6 1-0.2 0.4-0.3 0.4-0.5 0.4-0.2 0.5 0.2 1 1.1 0.6 0.6 3.6 0.8 1.2 1.1 0.8 0.1 0.9-0.3 1.6-0.9 1-0.3 0.9 0 0.7 0.2 0.7-0.4 0.8-1 2.9-7.4 0.7-1 0.8-0.7 1.2-0.2 0.7 0.2 0.9 0.6 0.8-0.8 0.8-4.1 3.5 0.9 5.8 8.2 7.1 3.5 0.6 0.5 0.6 0.7 0.3 1.1-0.3 0.8-0.8 0.4-1.7 0.2-0.6 0.2-0.5 0.3-0.4 0.7-0.2 0.8-0.1 0.8 0.2 3.3 0.2 0.9 3.7 1.8 15.4 3.1 0.4 1.8 0.1 0.6 0 1.7-0.3 1.1-0.7 1.5-3.1 4.7-0.3 0.2-0.2 0.2-0.3 0.7-0.2 1 0.2 1.7 0.4 1.6 0.6 1.4 0.2 0.8-0.8 2.9-4 7.2 0.5 1.9 0.5 1.2 3.7 6.8 0.9 1.2 1.4 1.2 9.4 5.1 13.7 11.4 2.7 1.7 1.6 2 0 4.4-4.3 2.3-1.6 1.4 1 8.3 3.9 15.5 0.2 5.3-1.6 4.4-6.1 6.6-2.5 4-2.7 9.8-4.3 10.3-1 5.3 0.1 5.4 2.8 19.7z m-53.8-106.5l0.5-0.2 0.5-0.5 1.6-4.5 2.4-1.9 2.4-2.4 0.4-2.2 0.5-8.4-3.7-1.5-0.4-0.4-0.4-0.7-0.5-5.7-1.3-5.8-1.8-5.5-0.1-3.9-0.6-0.7-0.9-0.3-8.4-0.5-2.2 0.5 0 0.6 0.1 0.9 0.8 1.8 0.9 2.8-10.2 0.1-5 9.2-0.9 3.9 0 5 0.2 1.6 0.4 1.2 1.2 1.8 0.7 1.4-0.2 1.8-2.9 10.1 5.1 4.6 1.4 0.1 2-0.1 3.9-1.1 1.1-0.6 0.8-0.6 2.1-2.8 1.6-1.1 1.3-0.2 1.1 0.3 3.8 3.3 2.7 0.6z" id="KHM1786" name="Kândal">
  </path>
  <path d="M514.4 731.9l-1.8 1.6-2.1 2.8-1.2 3 0.7 6.7 2.9 7.2 6.7 12.5 0.1 6.2-4.5 4.4-18.5 9.5-2.5 2.1-2.2 2.4-7.7 11.9-4.6 4.7-6.7 2.7-8.4 0.4-9.4-1.2-4.4-0.5 0-0.1 0.2-1.3 1.4-16.8-0.2-4.2-0.4-0.5-0.6-0.4-0.5-0.2-0.7-0.3-1.6-1.8-2.2-7.3 0.5-3.2 3.4-6.9 1.5-2.4 1.7-2.1 4.7-4-6.9-18.5-10.6-2.7-3.1-0.3-3.7 1.4-6.1 1.7-5.8-2.4-0.4-0.4-0.2-1.2 2-6.2 0.2-2.3-0.4-1.3-0.4-0.5-2.2-10.6-0.5-1.4-2.2-2-2.1-1.2-3.6-1.2-6.1-1.2-1.6-0.5-1.9-1.3-0.9-1.4-0.6-1.5-0.1-1.8 0.4-6.2 6.2 2.3 2.4 0.5 5.4 0.1 2.1 0.3 1.9 0.5 4.2 2.5 1.1 0.3 9.7-0.1 0.7-0.2 1.2-0.4 1.1-0.7 2.1-0.5 6.4-0.6-0.1-9.3 1.8-8.6 1.1-5.7 2.6-16.3 0.5-2.1 1.6-1.7 5.8-5.3 4.9 3.3 1.8 0.4 0.3-0.1 1.6-0.8 2.5-0.4 5.8-0.5 5.7-1.5 1.2 0 1 0.1 0.6 0.4 0.5 0.3 1.1 0.5 6.7 1.5 1.1 0.5 0.4 0.3 0.7 1.1-0.4 8.7 0.3 2.9 0.3 0.6 0.3 0.5 1 0.7 1.1 0.7 3.9 5.8 2.1 2.2 3.7 2.9 3.7 2.6 1.3 2.9 0 1.7-2.4 9.3-0.2 4.5 0.7 9.2-1.4 6.1 0.2 4 0.3 0.9 0.4 0.5 0.5 0.4 0.5 0.8 0.5 1.3 1.7 6.2 0.3 0.6 0.3 0.6 0.8 1.4z" id="KHM1802" name="Takêv">
  </path>
  <path d="M450.8 808.3l-14.2-1.8-8.1 0.4-2.9 0.6-2.5 1.9-1.8 2.8-1.6 3-7.8 11.6-2 1.8-2.7 0.5-3.4-0.8-0.4-1.1-3.2-4-1.5-0.9-0.4-1.7-0.7-0.7-1.3-1.1-0.3-1.5 0.2-5.8-1.4-3.5-3-5.5-2.3-2.2-4.1-1.6-7.8 0.5-1.8-0.4-2.3 0-1.4-0.4-2.7 4.5-2.3-2.6-1.3-0.8-1.3 0.2-1.2 0.8-1.1 0.3-1.5-1.3-2.9 3.8-4.9 0.1-9.6-2.5-3.2 0.3-4.6 1.3-3.2-0.3-18-5.1-3.2-0.3-2.6-0.8-5.2-4.4-0.2-0.9 0.5-0.4 0.8-1.1 3.5-5.5 1.6-3.3 0.6-1.7 0.2-2.8-0.1-3.9-2-15.9-0.1-1.6 1.3-9 0.1-19.9-1.7-6.4 8.3-10.4 1.8-1.9 0.9-0.5 1-0.2 1.4 0.5 1.2 0.6 1.5 0.4 1.5 0.1 2-0.7 0.9-0.5 2.7-3.3 5.5-9.6 0.1-0.4 1.2-4.6 1-0.7 0.8-0.4 6.4-1.5 3.1 2.7 1.7 1 2.4 1.1 14.9 3.3 14.4-2 13.7-0.5 5 2.1-0.4 6.2 0.1 1.8 0.6 1.5 0.9 1.4 1.9 1.3 1.6 0.5 6.1 1.2 3.6 1.2 2.1 1.2 2.2 2 0.5 1.4 2.2 10.6 0.4 0.5 0.4 1.3-0.2 2.3-2 6.2 0.2 1.2 0.4 0.4 5.8 2.4 6.1-1.7 3.7-1.4 3.1 0.3 10.6 2.7 6.9 18.5-4.7 4-1.7 2.1-1.5 2.4-3.4 6.9-0.5 3.2 2.2 7.3 1.6 1.8 0.7 0.3 0.5 0.2 0.6 0.4 0.4 0.5 0.2 4.2-1.4 16.8-0.2 1.3 0 0.1z" id="KHM1797" name="Kâmpôt">
  </path>
  <path d="M327.3 68.7l0 0.4 0.8 8.7 0.7 1.6 1.1 1.8 2.6 1.7 1.5 1.5 0.4 1.2-0.2 1.2-0.7 1.3-0.8 2.4-29.2 13.1-12.9 5.6-7.1 4.6-23.8 25.1-2.6 1.8-10.6 3.8-3.5 1.7-8.1 6.8-3 1.7-3.8 1-7.4 0.8-3.5 0.9-5.2 2.5-0.5-6.1-2.6-4.4-1.4-1.4-11.3-9-1.1-1.2-0.2-0.5-2.4-11.6-4.4 2.9-2.7 2.6-5.3 6.6-7.5-8.4-2.4-1.9-0.6-0.1-1.6 0.1-0.9 0.2-1 0-1-0.1-0.1-1.2 1.7-9.7 0.1-0.9-0.1-1-0.4-0.3-9.2-1.2-2-0.6-1.1-0.7-0.6-0.6-1.2-2.3-1.6-4.3-1.6-2.8-1-0.9-0.9-0.8-2.2-1-8.8-6.5-2.6-1.2 12.9-11.1 6.2-3.3 3.8-1.3 11.4-1.7 8.4-2.6 5.7-1.8 12.8 0 4-0.5 3.3-1.4 5.2-3.9 2.8-0.8 0.7 0.5 1 1 1.4 0.9 2 0.2 1.4-0.5 7.1-5 7.3-3.7 3.1-0.6 3.4 1.2 2.5 1.6 2.8 0.6 3.9-1.9 1.1-1.6 0.3-1.6 0.6-1.4 1.8-1 1.9-0.2 1.9 0.6 1.5 1 1.2 1.2 0.4 2-0.4 4.6 0.6 1.8 1.4 0.5 6.5 0.5 11 2.8 3.6 0.4 2.5-0.2 1.5-0.4 1.6 0 2.7 0.9 2.1 1.2 1.8 1.5 2.1 1.2 2.8 0.6 3.3-0.4 1-1.2 0.5-1.5 1.8-1.6 10.2-0.6 5.1 4.4 6.5-1.5 1.8-0.8z" id="KHM1782" name="Otdar Mean Chey">
  </path>
  <path d="M675.9 152.6l-1.2 0.7-1.9 0.7-3.7 0.6-22.2 0.1-3.1 0.4-1.4 0.3-0.6 0.3-0.6 0.6-0.5 0.9-0.4 2 0.2 1 0.2 0.8 0.4 0.6 0.4 1.2-0.1 0.8-0.5 0.8-1.3 0.8-1.8 0.6-0.7 0.1-0.7 0-0.5-0.3-0.4-0.4-1-0.8-0.5-0.4-0.7-0.1-0.7 0.1-1.2 0.4-2.4 0.2-0.8 0.2-0.8 0.4-1.4 1.4-0.6 0.5-0.6 0.2-0.7-0.1-0.6-0.2-0.4-0.5-0.4-0.5-1.6-2.6-0.5-0.5-0.5-0.4-0.5-0.3-0.7-0.3-0.8-0.2-0.7-0.1-1.5 0.2-0.6 0.2-0.6 0.3-0.6 0.3-1.1 0.8-2.5 2.6-0.5 0.4-1.1 0.7-1.3 1.1-0.7 0.9-0.4 0.8-0.3 0.7-0.1 1.2 0.7 8.4-0.3 2.2 0 0.8 0.3 1 0.6 1.2 1.4 2 0.8 0.9 0.8 0.6 0.5 0.3 0.5 0.4 0.7 0.9 0.7 1.4 2 6 1.6 10.6-2.4 27.4-4 5.2-25.5 13.5-4.4 1.6-37.2 26.3-0.8 0.8-2.5 3.9-1.4 1.7-13.1 11.4-18.4 9.2-11.1-1.2-4.3-1.4-2.2-2-0.8-0.9-1-1.5-1.7-3.9-0.7-3.9-0.6-7.5 0.9-8.8 1.1-3.7 1.9-3.9 0.5-1.5-0.2-1.5-1.2-0.9-1.8-0.6-18.1-3.6-11.6-0.3-6.3 1.9-6.5 2.6-18.1 10 2.7-25.3 1.3-3.7 2.2-4.2 15.8-21.5 0.4-1.2-0.2-0.7-0.2-0.5-1.4 0.2-1.9 1.5-0.7 0.4-4.6 1.7-2.3-0.1-16.2-4.4-16.6-2.4-3.4-0.9-0.7-0.3-0.8-0.6-0.8-1.1-0.7-1.3-0.5-1.3-0.4-1.3-0.1-1.5 0.2-1.9 0.8-2.7 2-4.2 0.6-2 0.2-2.2-1.1-9.7-0.5-1.6-0.8-1.5-0.7-1.1-0.7-1.2-0.4-1.7-0.8-3.9-0.7-0.8-0.8-0.5-0.6-0.4-0.4-0.7-1.4-3.5-0.6-1.2-0.8-0.7-1-0.3-2.3-0.3-0.7-0.7 0.1-0.9 7-9.9 0.8-1.5 0.6-1.6 0.1-2.5-0.1-1.4 0.4-2.3 8.5-24.2 1-9.2 1.5-3.3 2-3 1-1.2 3.4-2.5 0.8-0.7 0.3-0.8-0.2-0.5-1-0.9-3.9-3-5.7-7.1-0.4-0.7-0.1-1.1 0.6-1.1 0.8-0.6 0.9-0.6 0.4-1 0.2-1.6 0.1-6.3 0.7-4 0-3.5 0.7 0 1-0.5 1.2-1.1 1.6-1.1 2-0.6 3.4 0.7 3 1.4 3 0.6 3.8-1.6 2.1-2.3 1.8-3 2.1-2.8 3-1.7 3-0.1 4.7 2.1 3.2-0.2 1.2-1 1.9-3.1 1.5-0.6 1.5 0.7 1 3.5 1.3 1.1 2.8-0.6 5.7-4.5 2.5-1.4 3.2 0.4 2.5 1.5 2.5 2 3.1 1.6 1.3 0.1 3.6-0.6 1.7 0.1 1.5 0.6 3 2 1.5 0.8 3.3 0.6 7.4 1.4 3.5 1.1 1 2.3 0 2.6-0.9 8.9 0.3 1.6 6 11.2 3.3 3.7 4.2 2 10.2-3.2 5.8-9.7 4.3-9.7 5.5-3 0 6.2 0.7 4.5 1.8 4 11.2 17.1 3.4 3.4 1.3 0.7 2.7 0.9 1.4 0.8 4.8 6.8 1.6 1.5 1.9 0.7 3.1 0.4 5.3 0.1 5.6-0.8 5.3-1.8 4.4-3 3.2-0.9 2.8-1.6 5.2-3.7 1.5 1 1.5 1.2 1.2 1.3 1.1 1.6 2.9-1.1 3.4 1.4 2.9 3.1 1.4 3.4 2.9-2.1 1.9 0.1 1.9 1.2 3.1 1.3 2.7 0.3 4-0.6 2.1 0.1 5.2 2.8 2.8 4.8 2.2 5.4 3.2 4.8 16.2 14.2 4.2 2.3z" id="KHM1791" name="Preah Vihéar">
  </path>
  <path d="M405.1 68.6l0 3.5-0.7 4-0.1 6.3-0.2 1.6-0.4 1-0.9 0.6-0.8 0.6-0.6 1.1 0.1 1.1 0.4 0.7 5.7 7.1 3.9 3 1 0.9 0.2 0.5-0.3 0.8-0.8 0.7-3.4 2.5-1 1.2-2 3-1.5 3.3-1 9.2-8.5 24.2-0.4 2.3 0.1 1.4-0.1 2.5-0.6 1.6-0.8 1.5-7 9.9-0.1 0.9 0.7 0.7 2.3 0.3 1 0.3 0.8 0.7 0.6 1.2 1.4 3.5 0.4 0.7 0.6 0.4 0.8 0.5 0.7 0.8 0.8 3.9 0.4 1.7 0.7 1.2 0.7 1.1 0.8 1.5 0.5 1.6 1.1 9.7-0.2 2.2-0.6 2-2 4.2-0.8 2.7-0.2 1.9 0.1 1.5 0.4 1.3 0.5 1.3 0.7 1.3 0.8 1.1 0.8 0.6 0.7 0.3 3.4 0.9 16.6 2.4 16.2 4.4 2.3 0.1 4.6-1.7 0.7-0.4 1.9-1.5 1.4-0.2 0.2 0.5 0.2 0.7-0.4 1.2-15.8 21.5-2.2 4.2-1.3 3.7-2.7 25.3-1.5 3.7-1 1.3-2.4 2.1-1.6 0.9-6.7 2.5-1.1 0.6-0.6 0.8-0.5 1.3-0.8 2.9-1.5 17 0.3 4.9-0.2 1.1-0.6 0.7-1.6-0.1-1-0.3-1 0-0.5 0.4-0.3 1.2-0.3 3.1-0.3 1.3-6.5 11.2-2.6 10-1.6 4.2-0.8 0.7-1.3 1.1-3.2 2-5.2 2.4-0.6 0.3-2.4 1.8-4.8 2.6-2.4 1.8-7.9 9-1 1.9-1.7 5.9-4.8 3.1-6.7-9.4-65.5-67.2-11.2-12.2-7.2-11.1-5.1-9.8-2.7-2.4-15.1-2.9-2.8-1-1.6-1-1.2-1-2.2-3.1-0.9-0.8-1-0.4-2.9-0.5-6.4-2.6-6.2 1.1-2.8-0.5-1.6-1-1.4-1.1-3.6-4.5-0.4-42.6 1-2.9 1.9-2.5 2.1-4.1 0.3-3.6-2.7-11.3 0.5-6.3-0.4-8.5 0.5-4.2 2.4-3 5.2-2.5 3.5-0.9 7.4-0.8 3.8-1 3-1.7 8.1-6.8 3.5-1.7 10.6-3.8 2.6-1.8 23.8-25.1 7.1-4.6 12.9-5.6 29.2-13.1 0.8-2.4 0.7-1.3 0.2-1.2-0.4-1.2-1.5-1.5-2.6-1.7-1.1-1.8-0.7-1.6-0.8-8.7 0-0.4 0.1-0.1 5.3-2.6 6.8-1.9 1.1 0.6 1 1.1 1.3 1 2.4 0.1 1.4-0.7 4.7-5.1 0.3-1.1 0.4-0.5 1.6 0-0.5 0.7 0.1 1.8 1.1 1.7 2.3 0.9 3.3-1 2.5-2 2.9-1.5 4.5 0.4 10.2 4.1 21.4 3.2 1.3 0.5 1.2 0.4 1.1-0.1z" id="KHM1781" name="Siemréab">
  </path>
  <path d="M133.5 91.6l2.6 1.2 8.8 6.5 2.2 1 0.9 0.8 1 0.9 1.6 2.8 1.6 4.3 1.2 2.3 0.6 0.6 1.1 0.7 2 0.6 9.2 1.2 0.4 0.3 0.1 1-0.1 0.9-1.7 9.7 0.1 1.2 1 0.1 1 0 0.9-0.2 1.6-0.1 0.6 0.1 2.4 1.9 7.5 8.4 5.3-6.6 2.7-2.6 4.4-2.9 2.4 11.6 0.2 0.5 1.1 1.2 11.3 9 1.4 1.4 2.6 4.4 0.5 6.1-2.4 3-0.5 4.2 0.4 8.5-0.5 6.3 2.7 11.3-0.3 3.6-2.1 4.1-1.9 2.5-1 2.9 0.4 42.6-28.9 1.1-5.7-1.2-5.1-2.4-4.1-2.6-2.3-0.7-9.5 1.1-25 7.7-2.7 0.9-12.5-1.1-16.2-4.2-6-3-3.2-3.1-3 2.9-1.6 2.2-4.1 4.6-1.6-0.1-7.4-1.4-5.2-7.1-53.5-4.4-5.2-0.1 0.1-2.3-0.1-1.5-0.7-1.8-2-3.3-0.3-2 3.5-4.6 7.4-0.8 15.3 1.3 11.4-1 3.7-1.3 8.8-5.2 3.5-0.9-6.7-4.4-4-4 0.2-4.1 6.1-4.7 18.9-9.3 4.5-3.8 0.7-1.9 0.3-4 0.5-1.9 0.9-1.7 3.3-4.2 1.5-3.4 3.3-10.6 3.5-6.2 4.6-4.6 10.8-8.6 2.8-3.2 0.7-2.5-0.1-2.9 0.6-4.4 1.4-3.1 3.9-5.6 1.3-3.1 0.5-3.9 0-2.5 0.1-0.9 0.8-3.1 2.9-3 3.2-1.5 7-2 3.2-1.9 2.2-2z" id="KHM1777" name="Bântéay Méanchey">
  </path>
  <path d="M86.1 516.2l3 0 41.4 3 7.4 3.1 3.8 2.2 4.7 2 4.8 1.6 3.5 0.6 3.2 0 2.2-0.6 4.9-3 3-1 17.7-4.9 7.5-4.2 3.6-3.4 5.5-6.7 2.4-4 1.7-1.9 1.6-0.5 5 0 5.3-1.1 4.6 0 5.2 1.5 1.4 0.7 1.3 0.8 2.1 2 1.1 0.8 4.6 2.1 0.5 0.3 7.6 7.6 3.1 4.6 1.4 1.5 1.6 1.4 4.1 2.4 3 1.6 5.3 2 3.2 0.8 3.2 1.4 0.6 0.4 5.7 2.6 1.8 1.1 4.1 3.3 7.2 4.5 2 1.6-13.2 2-0.8 0.4-0.4 0.2-0.3 0.5-0.3 0.7-0.1 1.2 0 1.5 0.3 1.4 0.4 1.4 0.2 1.8-0.2 2.3-1.2 3.7-0.5 2.4-0.2 2.1 0.3 3.6 3.6 13.6 0.2 2-0.1 3.2 0 1.6 0.3 1.3 0.6 1 0.5 0.7 0.7 0.4 1.9 0.7 1.4 0.4 3.8 3.6 13.3 8.6 1.9 1.6 1.4 2.5 0.7 0.6 0.7 0.3 2.6 0.6 0.9-0.2 1.9-0.6 1.5-0.3 2.2 0.1 3.4 0.8 3.3 1.9 5.2 1.8 3.6 3.5 0.1 1.1-0.1 1.2-2.1 3.1-1.1 2.3 0 1.6 0.3 1.6 2.8 5.6 0.7 1.2 2.5 2.6 1.6 2.4 2.6 4.9 0.9 2.6 0.3 2-0.4 1-0.6 0.8-1.5 1.3-0.8 1.5-0.6 2.1-0.8 4.5-0.1 2 0 1.4 0.6 1.1 0.4 0.5 1.7 1.8 1.2 1.5 5.9 17.1-6.4 1.5-0.8 0.4-1 0.7-1.2 4.6-0.1 0.4-5.5 9.6-2.7 3.3-0.9 0.5-2 0.7-1.5-0.1-1.5-0.4-1.2-0.6-1.4-0.5-1 0.2-0.9 0.5-1.8 1.9-8.3 10.4-16.2 13.7-3.1 2.1-1.3 0.5-1.4 0.2-0.9 0.1-3.9-0.3-1.3 0.7-1.1 1.3-1.4 3.1-0.5 1.6-0.4 1.4 0 2.4-0.2 1.5-0.3 0.8-0.6 1.1-2.8 4.6-1.3 2.7-0.3 0.8-0.3 0.7-0.9 1.2-4.4 4-5.1 2.9 0-0.9-2.5-0.7-0.6-1.2 1.1-8.3 0.6-1.6 1.6-1.3 2.2-1.2 2.3-1.6 1.7-2.6 0.3-2.2-0.3-7.5-2.9-6.8-5.4-9.6-3.6-9.5 2.8-6.5-3.6-2.8-1.8-0.8-5.5-0.6-2.3-1-1.7-1.4-2.2-6.9-4.1-3.5-5.4-2-5.7-0.6 0.4 0.6 0 0.2 0.2 0.1 0.7 0.4-2.5 3.9-1.4 0-0.9-1.3-0.6-0.6-2.4-0.6 0 1.2 1.1 2.3-1.1 2.8-3.8 5.5 3.8-1.7 0.3 1.9-1.4 3.5-4.8 8.8-1.2 3.6-0.5 4.3-2.1 5-0.4 2.2 0.1 1.9 0.9 3 0.2 2.3-1 2.9-2.6 1.8-3 0.7-2.5-0.8-0.8 0.9-0.9 0.7-2.2 0.9-1.5-4.5-4-2.7-4.7-2-3.9-2.4-7.7 4.7-3.3 3 0.7 2.7-2.6-0.1-2.3 0.4-1.7 0.9-1.2 1.4-3.7-1.8-4.3-0.4-2.3-1 2.6-3.3-5.8-4.6-1.4-0.6-1.2-1.6 0.8-3.3 1.6-3 0.8-0.8-0.4-5.9-1.8-9.9-0.5-5.2 0.6-1.8 1.3-2 1.4-2.6 0.6-3.5-0.3-3.3-0.7-2.3-2.9-4.9-0.4-1.5-0.2-1.6-0.4-1.5-0.8-1.4-1.3-0.3-3.7 0-0.9-0.3 0.4-2.1 2.1-1.3 1.6-1.2-1.5-2 0-1.2 1.4-2.3 5.1-4.9 5.3-3.3 2.4 2.6 1.2 0-0.2-3-1.8-4.8-0.4-2.8-2.8 1.1-1.2 0.6-1.2 1-2.4-2.3-0.7-2.2-0.1-2.5-0.7-3.6-1.2-2.8-2.8-4-1.2-2.5 1.6 0.5 0.5 0.1 0.2 0.5 0.4 1.7 1.2 0 1.2-2.1 1.9-1.7 2.4-1.1 2.9-0.4 2.6 1.1 2.9 4.5 2.9 1-6-11.3-1.7-1.8 0.8-2.1 0.5-0.7-1.3 0-0.5 0.7-0.8 2.1 0.8 1.5-0.4 1.7-1.2 1.4-1.8 0.5-1.9-1-2.2-3.4-5-2.5-1.3-4.2-0.2-4.8 0.2-3.8-1.3 1.3 0.6-3.9 0.7-1.5-1.7 0-1-0.5-1.2-2.1 0.1 6.7-0.3 3-1 2.2-1.3 0-2.1-0.6-2.6 0.6-2.6 1.3-1.8 1.4-3.9-5.4 3.9-2.5 0.9 1.2 2.9 2.7 1.4 0-0.7-1.9-2-2.5-1.2-2.1 0-7.9 2.2-2.1 2.6 0.9 3.2 1.4 3.5-0.2 0-1.4-2.3 0.2-1.9-0.6-1.4-1-0.8-1.3 0-1.3 1.4 0 0-1.3-2 0.9-0.6 0.4-1.4 0-0.2-1.4-1-2.5-1.3 0 0 3.9-1.3-1.3 0 4.1-1.2 0 0.3-5.4 1-4 2-3 3.1-2.2 1.9-0.9 1.6-0.3 1.7 0.4 1.8 1.4 2.4 1.1 2.6-0.6 2.3-1.5 1.2-2.2-1.2 0-1.7 2.4-2.6-0.2-2.8-1.6-2-2-1.3 0-7.8 4-1-1.2-1.3-2.4-1.2-2.7-0.4-2.2-1-1.7-4.4-2.3-6.3-9.8-1.2 0 2.8 6.2 9.2 9.8 2.3 6.3-0.4 3.2-2.3 5.7 0 2.9 2 8.2-0.3 3.4-1.7 4.3-0.4-2.5-1.8-3.4-0.4-2.8-0.7-1.2-3.3-3.2-1.1-1.5 2.8-4.4-0.7-10.9-2.1-7.7-5.4-8.1-7.9-11.2-8.7-16.8-1.8-9.5-3.1-6.7-1.1-1.4z m100.2 252.4l0.8 0.8 1.7 0.2 1.4 0.9 0.1 2.8-2.5 0.9-2.2 1-1.8 1.8-1.2 2.8-1.6-1.3-0.9-2.2-0.4-2.1-0.4-0.9 0.2-0.5-6-2.3-2.9-2.3-2.2-2.7-0.6-2.9 1.8-2.5 3.8-1.4 3.1 0.9 2.6 2.2 2.2 2.3 0.4 0.7 0.4 1.3 0.5 0.6 1.1 0.3 1.2-0.1 1 0.3 0.4 1.4z m-49-120.3l0.9 2.2 1 1.6 0.3 1.4-1 1.4 1 2.6-0.1 3.6-0.9 3.4-1.2 2.3-2.5 1.2-3 0.1-1.8-1 0.9-1.7-2.1-2.1-0.6-4.1 0.1-7-1.4-8.2 0-4.7 1.4-4.1 0.3 0.8 0.6 0.9 0.3 0.9 2.1-1.8 1.8-0.2 1.5 1.1 2.4 4.8 0.1 2.1-0.2 2 0.1 2.5z m-1.2-27.7l0.9 1.8 2.1 3.2 0.8 1.6 0 1.4-0.8 1.4-2.2 4.1-0.8 1.1-1.9-0.2-0.2-1.9 0.8-4.5-1.7-3.1-2.5-3.6-1-3.6 2.5-2.9 3.2 1.9 0.8 0.7 0.4 1 0 0.9-0.3 0.7-0.1 0z m57.2 176.2l0.3 0.1 0.6 0.7 0 1.4-0.8 1.5-0.9 2.2-1.2 1.6-2-1.3-3.9-6-1.3-3.1 0.7-2.6 2.5-1 2.2-0.3 1.1 0.4 0.3 1.4-1.8 2.6-0.1 0.9-0.1 1 0.3 1.5 1 0.9 1.3 0.1 1.3-1.1 0.5-0.9z" id="KHM1779" name="Kaôh Kong">
  </path>
  <path d="M86.1 516.2l-2.6-3.2-9.7-15-1.4-7.6 4.3-31.6 0.9-3.7 2-3.6 4.9-4.3 1.6-2.7-0.3-1.7 4.6 1.8 0.8 0.6 0.3 0.2 0.4 0.3 0.8 0.2 0.8 0.1 1.2-0.2 1.3-0.6 3.4-2.9 1.4-0.8 1.8-0.3 1.9-0.5 2.8-1 3.5-2 10.2-4.2 1.4-0.9 2.1-2.8 3.7-4.2 0.7-0.3 1.1-0.1 0.4 0.2 1.1 1.2 2.6 2.2 2.2 0.9 1.1 0.2 1.3 0.1 1.4 0 1.9-0.3 1.4-0.5 0.8-0.5 0.4-0.4 0.7-1.2 0.9-0.5 1.5-0.7 3.6-0.8 5.4 0 2.1-0.5 3.3-1.8 4.3-3 8.3-3.4 15.8-4.5 3.8-0.5 18.3 2.3 13 3.3 6.6-0.7 5.5-1.8 3.1-1.7 1.8-1.5 1.2-1.5 1.8-3.8 0.1-0.4 0.4-0.9 3.9-6 1.3-3 0.1-0.8 0-0.8-1.3-4.9-1.2-2.7-1.1-5-0.2-1.5 3.8-10.5 0-0.8 0.1-0.3-0.1-0.6-0.3-0.5-0.3-0.4-0.4-0.3-1.4-0.6-0.9-1.1-0.5-1.8 0.4-2.7 0.6-1.7 0.9-1.1 0.7-0.5 3.8-1.6 1.2-0.7 1.3-1 1.6-1.8 0.5-1.6 0.1-1.6-0.3-1.6 0-1.1 0.2-2.3 1-1.8 3.2-4.7 0.5-2-0.5-1.6-1-0.9-1.3-0.8-0.7-0.8-1-1.3-0.4-1.9 0.3-1.5 0.8-1.1 0.8-0.8 7.7-6 14.7-14.9 65.5 67.2 6.7 9.4 9.2 11.2 31 27-0.6 7.8 0.1 2-1.5 6.9-0.2 2.6 1 3.4-0.4 1-0.8 1.4-5.2 5-1.1 1.7-1.7 5.1-1.1 2.4-0.4 0.7-0.9 1.1-1.4 1.2-3.4 2.1-1 0.4-0.7 0.1-1.3 0.5-1.6 1-3 2.8-1 0.7-0.8 0.4-5.7 1.2-1.2 0.5-0.4 0.2-0.6 0.6-5.4 7.4-0.8 2.8-1.3 7.9 3.5 14.6-3.1 3.4-1.1 0.8-1.7 0.7-3.2-0.9-1.6 0-4.1 0.5-1.6 0.6-1.6 1.9-1 1.6-2 6-1.1 1.6-3.6 3.7-0.6 1.1 0.2 1 2.2 2.5 0.4 0.5-0.7 0.5-9.9 5.2-2 0.6-2.3-0.1-1.2-0.3-1-0.8-2.4-3.2-1.1-1-1.3-0.9-1.3-0.5-1.1-0.3-1.3 0.5-1.4 1.4-2.9 3.7-1.8 1.9-1.7 0.9-0.8 0.2-0.9 0.6-0.7 0.6-3.9 4.4-2-1.6-7.2-4.5-4.1-3.3-1.8-1.1-5.7-2.6-0.6-0.4-3.2-1.4-3.2-0.8-5.3-2-3-1.6-4.1-2.4-1.6-1.4-1.4-1.5-3.1-4.6-7.6-7.6-0.5-0.3-4.6-2.1-1.1-0.8-2.1-2-1.3-0.8-1.4-0.7-5.2-1.5-4.6 0-5.3 1.1-5 0-1.6 0.5-1.7 1.9-2.4 4-5.5 6.7-3.6 3.4-7.5 4.2-17.7 4.9-3 1-4.9 3-2.2 0.6-3.2 0-3.5-0.6-4.8-1.6-4.7-2-3.8-2.2-7.4-3.1-41.4-3-3 0z" id="KHM1780" name="Pouthisat">
  </path>
  <path d="M85.8 442.8l-0.3-2.1-2.1-2.5-6.1-3.3-2.6-2.7-0.5-1.5-0.3-3.3-0.7-1.6-1.3-1.2-4.7-2.8-14.4-14.6-5.6-4.2-10.7-3.5-1.1-0.9 4-1.2 27-6.6 14.8-9.1 2.7-5 0.9-8.1 0-25.1-1.1-11.7-2.2-8.3-3.6-6.4-4.5-4.8-4.5-2.4-4.5-0.5-4 1.4-3.8 2.5-2.5 3.7-1 3.2 0 3.7-0.7 4.1-1.7 2.6-3.2 1.1-2.5 0.4-5.7 0-5 0.6 0-0.2-3.2-1.9-1.9-2.5-3-6.1-8.5-10.1-3.8-6.5-9.9-26.4-0.2-0.4-0.2-13.7 1.2-11.7-0.8-14.7 0-0.5 5.2 0.1 53.5 4.4 5.2 7.1 7.4 1.4 1.6 0.1 4.1-4.6 1.6-2.2 3-2.9 3.2 3.1 6 3 16.2 4.2 12.5 1.1 2.7-0.9 25-7.7 9.5-1.1 2.3 0.7 4.1 2.6 5.1 2.4 5.7 1.2 28.9-1.1 3.6 4.5 1.4 1.1 1.6 1 2.8 0.5 6.2-1.1 6.4 2.6 2.9 0.5 1 0.4 0.9 0.8 2.2 3.1 1.2 1 1.6 1 2.8 1 15.1 2.9 2.7 2.4 5.1 9.8 7.2 11.1 11.2 12.2-14.7 14.9-7.7 6-0.8 0.8-0.8 1.1-0.3 1.5 0.4 1.9 1 1.3 0.7 0.8 1.3 0.8 1 0.9 0.5 1.6-0.5 2-3.2 4.7-1 1.8-0.2 2.3 0 1.1 0.3 1.6-0.1 1.6-0.5 1.6-1.6 1.8-1.3 1-1.2 0.7-3.8 1.6-0.7 0.5-0.9 1.1-0.6 1.7-0.4 2.7 0.5 1.8 0.9 1.1 1.4 0.6 0.4 0.3 0.3 0.4 0.3 0.5 0.1 0.6-0.1 0.3 0 0.8-3.8 10.5 0.2 1.5 1.1 5 1.2 2.7 1.3 4.9 0 0.8-0.1 0.8-1.3 3-3.9 6-0.4 0.9-0.1 0.4-1.8 3.8-1.2 1.5-1.8 1.5-3.1 1.7-5.5 1.8-6.6 0.7-13-3.3-18.3-2.3-3.8 0.5-15.8 4.5-8.3 3.4-4.3 3-3.3 1.8-2.1 0.5-5.4 0-3.6 0.8-1.5 0.7-0.9 0.5-0.7 1.2-0.4 0.4-0.8 0.5-1.4 0.5-1.9 0.3-1.4 0-1.3-0.1-1.1-0.2-2.2-0.9-2.6-2.2-1.1-1.2-0.4-0.2-1.1 0.1-0.7 0.3-3.7 4.2-2.1 2.8-1.4 0.9-10.2 4.2-3.5 2-2.8 1-1.9 0.5-1.8 0.3-1.4 0.8-3.4 2.9-1.3 0.6-1.2 0.2-0.8-0.1-0.8-0.2-0.4-0.3-0.3-0.2-0.8-0.6-4.6-1.8z" id="KHM1778" name="Batdâmbâng">
  </path>
  <path d="M35.4 398.6l-1.8-1.3-1.4-3.1-0.4-4.1 0.2-4.1 0.9-3 2.3-2.1 0.1 0 1.9-6.2 0.2-1.8-0.4-2.4-0.8-1.3-0.9-1.2-1.1-2-1.2-4-0.8-7.4-0.9-4.5-1.2-2.1-0.6-2.2 0.3-2 2.1-2.3 0.3-0.7-0.3-0.8-1.6-1.5-0.3-0.8 0.3-0.8 1-0.7 1.3-0.7 1-0.8 0.6-1 0.1-1 5-0.6 5.7 0 2.5-0.4 3.2-1.1 1.7-2.6 0.7-4.1 0-3.7 1-3.2 2.5-3.7 3.8-2.5 4-1.4 4.5 0.5 4.5 2.4 4.5 4.8 3.6 6.4 2.2 8.3 1.1 11.7 0 25.1-0.9 8.1-2.7 5-14.8 9.1-27 6.6-4 1.2z" id="KHM1783" name="Krong Pailin">
  </path>
  <path d="M812.8 49.1l-0.4 0.6-0.4 1-2.3 8.1-0.2 2.4 0 1.9 1.5 4.3 0.8 3.2 0.9 2.8 0.5 3.3 0.1 3.5-1 4.4-1.9 5.4-0.4 2.4-1.1 2.9-0.4 1.4-2.2 14.7-0.1 2.5 0.3 2.3 1.2 2.6 1.3 1.8 1.6 1.7 1.3 1.8 2.2 8.6 3 26.8 3.2 9.8 0.5 2.4-1.3 1.9 0.2 4.7-0.3 1.2-18 33.7-1.1 5.2-0.3 4.6 0.6 1.3 0.8 1.2 0.6 1.5 3.1 5 1.6 7.3 1.9 3 0.4 2 0.1 2-0.4 7.3 0.2 1.9 0.8 1.5 1.2 1.5 0.3 0.5 0.2 0.7 0.2 0.8 0.2 0.9-0.2 2.2-1.3 3.3-12.1-5.4-2.5-0.4-2.3-0.8-3.4-1.6-11.7-8.3-3.9-0.8-10.7 0.5-6.9 0.6-3.1 0.7-10.9 4.8-1.3 0.7-1 0.7-2 2.5-1.2 1.3-1.2 0.5-1.5 0.1-5-0.9-8.6 0.6-1.6 0.5-1.6 0.7-1.1 0.7-2.2 1.7-11.8 17.4-0.4 1.2-1.3 6.3-0.3 0.9-0.4 0.6-0.4 0.3-0.7 0.2-0.6 0.2-0.7 0-0.6 0-0.5-0.1-3-1.2-0.3-0.1-0.6-0.1-0.8 0-1.2 0.4-0.5 0.8-0.3 0.7 0 2.7-0.6 1.5-3.4 6.4-1.3 1.8-1 1.1-0.6 0.3-7.5 2.5-2.7 0.2-2.1 0.1-1.6-0.4-4.2-1.8-6-3.3-16.9-13.3-2.5-1.3-7.3-1.8-16.4-7.9-5-12.7-1-6.5 0.4-4.6-0.4-14.7 4-5.2 2.4-27.4-1.6-10.6-2-6-0.7-1.4-0.7-0.9-0.5-0.4-0.5-0.3-0.8-0.6-0.8-0.9-1.4-2-0.6-1.2-0.3-1 0-0.8 0.3-2.2-0.7-8.4 0.1-1.2 0.3-0.7 0.4-0.8 0.7-0.9 1.3-1.1 1.1-0.7 0.5-0.4 2.5-2.6 1.1-0.8 0.6-0.3 0.6-0.3 0.6-0.2 1.5-0.2 0.7 0.1 0.8 0.2 0.7 0.3 0.5 0.3 0.5 0.4 0.5 0.5 1.6 2.6 0.4 0.5 0.4 0.5 0.6 0.2 0.7 0.1 0.6-0.2 0.6-0.5 1.4-1.4 0.8-0.4 0.8-0.2 2.4-0.2 1.2-0.4 0.7-0.1 0.7 0.1 0.5 0.4 1 0.8 0.4 0.4 0.5 0.3 0.7 0 0.7-0.1 1.8-0.6 1.3-0.8 0.5-0.8 0.1-0.8-0.4-1.2-0.4-0.6-0.2-0.8-0.2-1 0.4-2 0.5-0.9 0.6-0.6 0.6-0.3 1.4-0.3 3.1-0.4 22.2-0.1 3.7-0.6 1.9-0.7 1.2-0.7 0.8 0.4 4.7 1.1 4.6-0.5 4.7-1.8 4.4 0.1 9.7 2.5 3.8-0.2 2.8-3.4-0.4-9.1 2.3-2.9 2.7-2.8 3.4-2.3 2.9-2.5 1.4-3.6-0.9-3.6-2.5-2.9-3-2.6-2.6-2.8-4.8-11.6-2.9-3.3-6.5-4.2-2.6-2.4-1.6-4 0.8-4.8-0.7-3.7-2.1-3.1-3.6-3-0.9-2.1-0.3-2.2 0.3-2.2 0.9-2.2 3.8 0.7 8.3 2.9 3.2-0.2 0.5-0.9 0.5-3.1 0.5-0.7 1-0.1 2 0.1 3-0.2 4.5 0.8 6.6 0.4 3.6-0.4 3-1.8 2.8-4.1 1.3-4.2 1.9-10.1 1.7-3.3 1.1 1.2 11.5 7.1 1.8 0.4 2.6 0.2 2.5-0.7 1.2-0.1 10.2-1.4 4.8-2 1.9-3.8 0.7-0.2 1.4-1.1 0.8-1.4-2.1-1.2-0.2-1.3 0.3-1.4 0.4-0.8 1.8-1 2 0.2 2.4 0.6 2.9 0.2 0-1.2-1.4-0.5-0.8-1-0.4-1.4-0.1-1.8 0.3-1.9 1-0.6 1.2-0.1 1.4-0.7 4-3.8 1.1 1.1 2.4 3.7 0.8 2.5 1 6.1 0.6 1.9 1.7 1 4.3 0.9 1.9 1.2 3.7 5.7 3.2 1.8z" id="KHM1792" name="Stœng Trêng">
  </path>
  <path d="M278.1 810l2.7 1.9 1.4 4-0.2 4.1-1.9 1.8-3.1 0-2.7-0.5-2.3-1.6-1.6-3.1 1.6-0.4 0.8-0.6 1.5-1.6-1.3-2.3 0.6-1.4 1.9-0.6 2.6 0.3z m25-19.3l-0.1-0.5-4.2-7.6-0.5-0.2-2.7 0.2-0.7-0.4 0.1-0.7 0.1-0.9-0.1-0.8-0.6-1.1-0.3-2.9-0.5-1.1-1.4 3.8 0.1 4.1 1.3 7.1-0.7 3.3-1.6 3.3-4.1 5.9-2.2 2.3-2.4 1.2-3.2 0.4-4.5 0-2.5-0.4-1.1-1-0.8-1.3-1.5-1.2-1.8-0.5-3.2-0.1-1.4-0.7 0 1.3 4 2.2 3.5 3.5 1 3.3-3.9 1.5-6.2-0.4-7.1 1.5-3.5 0.2-2.5-1.3-1.3-2.7-0.3-2.7 0.2-1.2-0.6-0.5-0.5-2.5-0.8-0.9-1.5-0.1-0.8 0.5-0.7 0.7-0.9 0.2-1.2-0.3-1.7-0.8-1.6-1.4-1.6-4.5-1.8-2-3.8-2.9-3.1 1.3-1-2.4 0.9-3.5 2.5-1.8 1.5-1.4 2-3.4 1.6-3.7 0.8-2.7 3.1-4.5 7.2-2.1 14.8-0.6 0.1 0 0.7-0.1 0-0.4 5.1-2.9 4.4-4 0.9-1.2 0.3-0.7 0.3-0.8 1.3-2.7 2.8-4.6 0.6-1.1 0.3-0.8 0.2-1.5 0-2.4 0.4-1.4 0.5-1.6 1.4-3.1 1.1-1.3 1.3-0.7 3.9 0.3 0.9-0.1 1.4-0.2 1.3-0.5 3.1-2.1 16.2-13.7 1.7 6.4-0.1 19.9-1.3 9 0.1 1.6 2 15.9 0.1 3.9-0.2 2.8-0.6 1.7-1.6 3.3-3.5 5.5-0.8 1.1-0.5 0.4z" id="KHM1800" name="Krong Preah Sihanouk">
  </path>
  <path d="M398.7 822.3l-0.4-0.2-2.8 1.1-6.6-6.8-1.7-1.1-5.8 0-3.2 1.2-1.8 0.5-1.6-0.4-1.4-3.2-0.7-8.2-2.3-1.7-1-0.6 2.7-4.5 1.4 0.4 2.3 0 1.8 0.4 7.8-0.5 4.1 1.6 2.3 2.2 3 5.5 1.4 3.5-0.2 5.8 0.3 1.5 1.3 1.1 0.7 0.7 0.4 1.7z" id="KHM1798" name="Kep">
  </path>
  <path d="M356.2 504l-3.5-14.6 1.3-7.9 0.8-2.8 5.4-7.4 0.6-0.6 0.4-0.2 1.2-0.5 5.7-1.2 0.8-0.4 1-0.7 3-2.8 1.6-1 1.3-0.5 0.7-0.1 1-0.4 3.4-2.1 1.4-1.2 0.9-1.1 0.4-0.7 1.1-2.4 1.7-5.1 1.1-1.7 5.2-5 0.8-1.4 0.4-1-1-3.4 0.2-2.6 1.5-6.9-0.1-2 0.6-7.8 5.5 4.1 2.1 0.7 3.2 0.6 7.8 0.7 3.1-4.1 0.8-1.5 0.5-1.3 0.4-0.6 1-0.8 3.9-2.2 3-1.3 2.6-1.6 3.3-1.4 4-0.9 1.1 0 7 2 19.6 8.8 11.2 2.4-1.2 6.2-0.1 1.7 0.9 2.2 1.3 2.4 1.1 2.8 4.5 7.8 0.5 1.3 0 1.4-0.7 4.2 0.5 0 0.5-0.2 4.8-2.6 1.9-0.1 0.6 0.2 0.6 0.4 0.2 0.6 0.5 2 0 0.8-0.1 0.9-1 2.5-0.8 1.6-1.2 1.7-5.3 5.7-3.4 1.4 0.9 3.7 0.4 1.2 2.3 4.5 3 3.1 2.4 7.9 0.3 2.6-0.3 1-3.1 7.4-1.3 5.7-1.7 4 0 1.1 0.2 0.8 1.4 1.3 2.8 3.1 0.3 0.8 0.2 1.2 0.2 7.7 0.3 1 0.2 0.4 1.7 0.4 0.9 0.8 0.2 0.7-0.4 0.5-0.9 0.2-4.6-0.9-0.8 0.1-0.9 0.3-0.8 0.4-0.9 0.7-0.8 0.9-1.4 2.3-6.1 13.7-3.1 1.3-2.8 0.7-1 0.8-2.7 5.4-1.3 5.1-4.1 0.9-3.2 1.4-0.8 0.1-1.4 0-1.4-0.1-3.5 0-1.7 0.2-8.9 2.8-13.4 6.2-5.5 4.4-1.2 0.6-0.7 0.2-0.8-0.7-0.5-0.3-2.1-1-6.6-2.1-0.6-0.3-5.3-3.8-2.3-1.1-6.8-0.6-2.2-0.8-1.4-1.9-7.9-7.5-0.6-0.9-0.2-0.7-0.4-3.7-0.3-1.4-6.9-9.7-1.3-3.1-1-4.1-0.5-3.7-1.7-2.8-0.3-0.3-0.9-0.8-4.8-3.3-1.4-1.3-0.9-1-0.1-0.6-0.2-1.5 0-4.8-0.4-2.4-1.7-5.4z" id="KHM1785" name="Kâmpóng Chhnang">
  </path>
  <path d="M395.1 418.5l-31-27-9.2-11.2 4.8-3.1 1.7-5.9 1-1.9 7.9-9 2.4-1.8 4.8-2.6 2.4-1.8 0.6-0.3 5.2-2.4 3.2-2 1.3-1.1 0.8-0.7 1.6-4.2 2.6-10 6.5-11.2 0.3-1.3 0.3-3.1 0.3-1.2 0.5-0.4 1 0 1 0.3 1.6 0.1 0.6-0.7 0.2-1.1-0.3-4.9 1.5-17 0.8-2.9 0.5-1.3 0.6-0.8 1.1-0.6 6.7-2.5 1.6-0.9 2.4-2.1 1-1.3 1.5-3.7 18.1-10 6.5-2.6 6.3-1.9 11.6 0.3 18.1 3.6 1.8 0.6 1.2 0.9 0.2 1.5-0.5 1.5-1.9 3.9-1.1 3.7-0.9 8.8 0.6 7.5 0.7 3.9 1.7 3.9 1 1.5 0.8 0.9 2.2 2 4.3 1.4 11.1 1.2 18.4-9.2 13.1-11.4 1.4-1.7 2.5-3.9 0.8-0.8 37.2-26.3 4.4-1.6 25.5-13.5 0.4 14.7-0.4 4.6 1 6.5 5 12.7 6.1 25.4 0.5 0.5 2.6 2.5 1.6 2.1 1.5 2.6 0.6 1.4 0.2 1.2-0.3 1.4-1.3 3.3-0.2 1.1 0.1 1.5 2 13.2 0.4 1.2 0.5 0.4 1 0.7 0.7 0.6 0.7 0.8 1 1.5 0.4 1 0.1 0.9-0.1 0.7-0.6 1.2-1.3 1.6-0.3 0.8-0.4 1.1 0.1 0.8 0.3 0.7 2.2 2.1 1.3 2.1 1.2 2.5 0.4 1.4 0.1 1.2-0.1 0.8-0.2 0.7-0.6 1.2-0.3 0.6-0.5 2.1 0.4 6.4-0.4 3.7 2.2 8 0.4 4.3 5.8 17.1 5 22.9-35.8 3.9-1 0.2-2.8 1.6-2.5 2.4-0.9 0.6-1.1 0.4-1.8 0.5-1.2-0.2-1.5-0.5-2.9-1.4-2.3-1.4-0.4-0.3-0.9-0.6-2.3-1-2.4-0.3-6.5 0.7-6.3 21.5-1.4 2.6-0.7 0.6-1.6 0.8-0.9 0-0.9-0.1-0.5-0.4-0.5-0.4-0.4-0.4-0.3-0.5-0.6-1.2-0.4-0.5-0.4-0.5-0.4-0.4-0.7-0.3-0.6-0.2-0.8-0.2-2.5-0.1-0.8-0.2-0.6-0.2-0.6-0.3-1.5-1.2-0.6-0.3-0.6-0.2-0.8-0.2-5.5 0.2-1.6-0.1-0.8-0.2-1.6-0.2-1.4 0.1-1.5 0.3-1.5 0.1-3-0.3-0.8 0.2-0.6 0.3-2.8 2.2-2.4 1.1-0.6 0.4 0 1 0.5 1.6 4.4 6.8 0.3 0.8 0.2 1.1 0.2 4.1 6.3 14.4 0.5 1.2 0.2 1.4 0.1 0.7-0.1 0.5-0.3 0.3-0.7 0.5-1.6-0.3-4.7-3.7-4.9 0.5-1.7 0.5-1 0.5-1 0.1-0.6-0.2-0.8-0.3-2.2-1.9-0.5-0.2-12.5-1.1-5.9-1.7-3.8-4.3-0.5-0.3-0.6-0.3-1-0.1-7-0.5-1.4 0.1-2.5 1.2-4.5 3.8-3-3.1-2.3-4.5-0.4-1.2-0.9-3.7 3.4-1.4 5.3-5.7 1.2-1.7 0.8-1.6 1-2.5 0.1-0.9 0-0.8-0.5-2-0.2-0.6-0.6-0.4-0.6-0.2-1.9 0.1-4.8 2.6-0.5 0.2-0.5 0 0.7-4.2 0-1.4-0.5-1.3-4.5-7.8-1.1-2.8-1.3-2.4-0.9-2.2 0.1-1.7 1.2-6.2-11.2-2.4-19.6-8.8-7-2-1.1 0-4 0.9-3.3 1.4-2.6 1.6-3 1.3-3.9 2.2-1 0.8-0.4 0.6-0.5 1.3-0.8 1.5-3.1 4.1-7.8-0.7-3.2-0.6-2.1-0.7-5.5-4.1z" id="KHM1788" name="Kâmpóng Thum">
  </path>
  <path d="M346 686.1l-5.9-17.1-1.2-1.5-1.7-1.8-0.4-0.5-0.6-1.1 0-1.4 0.1-2 0.8-4.5 0.6-2.1 0.8-1.5 1.5-1.3 0.6-0.8 0.4-1-0.3-2-0.9-2.6-2.6-4.9-1.6-2.4-2.5-2.6-0.7-1.2-2.8-5.6-0.3-1.6 0-1.6 1.1-2.3 2.1-3.1 0.1-1.2-0.1-1.1-3.6-3.5-5.2-1.8-3.3-1.9-3.4-0.8-2.2-0.1-1.5 0.3-1.9 0.6-0.9 0.2-2.6-0.6-0.7-0.3-0.7-0.6-1.4-2.5-1.9-1.6-13.3-8.6-3.8-3.6-1.4-0.4-1.9-0.7-0.7-0.4-0.5-0.7-0.6-1-0.3-1.3 0-1.6 0.1-3.2-0.2-2-3.6-13.6-0.3-3.6 0.2-2.1 0.5-2.4 1.2-3.7 0.2-2.3-0.2-1.8-0.4-1.4-0.3-1.4 0-1.5 0.1-1.2 0.3-0.7 0.3-0.5 0.4-0.2 0.8-0.4 13.2-2 3.9-4.4 0.7-0.6 0.9-0.6 0.8-0.2 1.7-0.9 1.8-1.9 2.9-3.7 1.4-1.4 1.3-0.5 1.1 0.3 1.3 0.5 1.3 0.9 1.1 1 2.4 3.2 1 0.8 1.2 0.3 2.3 0.1 2-0.6 9.9-5.2 0.7-0.5-0.4-0.5-2.2-2.5-0.2-1 0.6-1.1 3.6-3.7 1.1-1.6 2-6 1-1.6 1.6-1.9 1.6-0.6 4.1-0.5 1.6 0 3.2 0.9 1.7-0.7 1.1-0.8 3.1-3.4 1.7 5.4 0.4 2.4 0 4.8 0.2 1.5 0.1 0.6 0.9 1 1.4 1.3 4.8 3.3 0.9 0.8 0.3 0.3 1.7 2.8 0.5 3.7 1 4.1 1.3 3.1 6.9 9.7 0.3 1.4 0.4 3.7 0.2 0.7 0.6 0.9 7.9 7.5 1.4 1.9 2.2 0.8 6.8 0.6 2.3 1.1 5.3 3.8 0.6 0.3 6.6 2.1 2.1 1 0.5 0.3 0.8 0.7 0.7-0.2 1.2-0.6 5.5-4.4 13.4-6.2 8.9-2.8 1.7-0.2 3.5 0 1.4 0.1 1.4 0 0.8-0.1 3.2-1.4 4.1-0.9 0.1 7.8-0.5 2.4-0.8 0.9-1 0.8-1.1 0.6-1.8 0.8-1.8 1.5-1.8 2.1-0.8 1.2-0.5 1-1.4 7.8-5.7 13.7-0.7 7.9-2.9 24 2.9 4.2 5.1 1.8 15-0.3 2.1 0.2 0.6 0.8-8.1 10.7-5.8 5.3-1.6 1.7-0.5 2.1-2.6 16.3-1.1 5.7-1.8 8.6 0.1 9.3-6.4 0.6-2.1 0.5-1.1 0.7-1.2 0.4-0.7 0.2-9.7 0.1-1.1-0.3-4.2-2.5-1.9-0.5-2.1-0.3-5.4-0.1-2.4-0.5-6.2-2.3-5-2.1-13.7 0.5-14.4 2-14.9-3.3-2.4-1.1-1.7-1-3.1-2.7z" id="KHM1787" name="Kâmpóng Spœ">
  </path>
  <path d="M492.8 631.3l-2.7-0.6-3.8-3.3-1.1-0.3-1.3 0.2-1.6 1.1-2.1 2.8-0.8 0.6-1.1 0.6-3.9 1.1-2 0.1-1.4-0.1-5.1-4.6 2.9-10.1 0.2-1.8-0.7-1.4-1.2-1.8-0.4-1.2-0.2-1.6 0-5 0.9-3.9 5-9.2 10.2-0.1-0.9-2.8-0.8-1.8-0.1-0.9 0-0.6 2.2-0.5 8.4 0.5 0.9 0.3 0.6 0.7 0.1 3.9 1.8 5.5 1.3 5.8 0.5 5.7 0.4 0.7 0.4 0.4 3.7 1.5-0.5 8.4-0.4 2.2-2.4 2.4-2.4 1.9-1.6 4.5-0.5 0.5-0.5 0.2z" id="KHM1789" name="Phnom Penh">
  </path>
  <path d="M583.9 555.3l-11.1-4.5-3.6-0.8-2 0.4-1.6 0.7-1.9 1.1-3.4 2.7-1.7 1.7-7.3 6.8-15 10.1-15.4-3.1-3.7-1.8-0.2-0.9-0.2-3.3 0.1-0.8 0.2-0.8 0.4-0.7 0.5-0.3 0.6-0.2 1.7-0.2 0.8-0.4 0.3-0.8-0.3-1.1-0.6-0.7-0.6-0.5-7.1-3.5-5.8-8.2-3.5-0.9-0.8 4.1-0.8 0.8-0.9-0.6-0.7-0.2-1.2 0.2-0.8 0.7-0.7 1-2.9 7.4-0.8 1-0.7 0.4-0.7-0.2-0.9 0-1 0.3-1.6 0.9-0.9 0.3-0.8-0.1-1.2-1.1-3.6-0.8-0.6-0.6-1-1.1-0.5-0.2-0.4 0.2-0.4 0.5-0.4 0.3-1 0.2-0.6-0.6-0.2-1.1 0.1-1.4-0.6-3.5-3.9-6.5 6.1-13.7 1.4-2.3 0.8-0.9 0.9-0.7 0.8-0.4 0.9-0.3 0.8-0.1 4.6 0.9 0.9-0.2 0.4-0.5-0.2-0.7-0.9-0.8-1.7-0.4-0.2-0.4-0.3-1-0.2-7.7-0.2-1.2-0.3-0.8-2.8-3.1-1.4-1.3-0.2-0.8 0-1.1 1.7-4 1.3-5.7 3.1-7.4 0.3-1-0.3-2.6-2.4-7.9 4.5-3.8 2.5-1.2 1.4-0.1 7 0.5 1 0.1 0.6 0.3 0.5 0.3 3.8 4.3 5.9 1.7 12.5 1.1 0.5 0.2 2.2 1.9 0.8 0.3 0.6 0.2 1-0.1 1-0.5 1.7-0.5 4.9-0.5 4.7 3.7 1.6 0.3 0.7-0.5 0.3-0.3 0.1-0.5-0.1-0.7-0.2-1.4-0.5-1.2-6.3-14.4-0.2-4.1-0.2-1.1-0.3-0.8-4.4-6.8-0.5-1.6 0-1 0.6-0.4 2.4-1.1 2.8-2.2 0.6-0.3 0.8-0.2 3 0.3 1.5-0.1 1.5-0.3 1.4-0.1 1.6 0.2 0.8 0.2 1.6 0.1 5.5-0.2 0.8 0.2 0.6 0.2 0.6 0.3 1.5 1.2 0.6 0.3 0.6 0.2 0.8 0.2 2.5 0.1 0.8 0.2 0.6 0.2 0.7 0.3 0.4 0.4 0.4 0.5 0.4 0.5 0.6 1.2 0.3 0.5 0.4 0.4 0.5 0.4 0.5 0.4 0.9 0.1 0.9 0 1.6-0.8 0.7-0.6 1.4-2.6 6.3-21.5 6.5-0.7 2.4 0.3 2.3 1 0.9 0.6 0.4 0.3 2.3 1.4 2.9 1.4 1.5 0.5 1.2 0.2 1.8-0.5 1.1-0.4 0.9-0.6 2.5-2.4 2.8-1.6 1-0.2 35.8-3.9 2.2 7.2 2.7 14.9 0.6 9.8-0.3 1.3-0.6 1.8-1.2 1.8-4.7 2.5-0.3 3.6-7.5 0.8-12.8-2.2-7.8-1.4-5.2 2.4-3.7 5.2-2.2 6.7 0.7 8.6-0.5 5.9-0.8 9.3 2.5 8.8-1.7 4.3-4.2 0.1-4.5 1.1-1-1.6-2.6 4.2 0 5.9 0.1 6.2-2.6 6.6 1.3 3.2-1.9 1.7-1.7 10.3-4.9 2.6-2.3-3.2z" id="KHM1784" name="Kâmpóng Cham">
  </path>
  <path d="M661.8 593.8l0.1-0.1 0.1-0.9 1.9-4.6 0.2-3-0.3-1.2-1-0.5-6.8 1.1-0.5 0-2.2-0.4-1.6-0.5-1.3-0.6-1.6-0.9-4.6-3.5-5.2-5-13.7-0.1-23.3-4.2-6.9-0.6-1.3-0.4-2.1-0.8-0.7-0.4-0.5-0.5-0.9-1.1-0.6-1-2.2-5.3-2.9-4 2.3 3.2 4.9-2.6 1.7-10.3 1.9-1.7-1.3-3.2 2.6-6.6-0.1-6.2 0-5.9 2.6-4.2 1 1.6 4.5-1.1 4.2-0.1 1.7-4.3-2.5-8.8 0.8-9.3 0.5-5.9-0.7-8.6 2.2-6.7 3.7-5.2 5.2-2.4 7.8 1.4 12.8 2.2 7.5-0.8 0.3-3.6 4.7-2.5-0.6 0.8-1 1.1-0.9 0.7-0.5 1-0.3 0.8-0.4 5.8 0.7 0.1 1-0.5 9.4 2.1 3.4 0.2 0.8-0.1 0.9 0.7 1.7 7.9 5.2-1 0.7-0.2 1.4-1.2 0.7-0.2 0.7-0.1 0.8-0.1 1.1 0.2 1.5 0.4 5.8 2.3 6.3 1.2 2.6 1.2 5.1 3.6 0.5 0.7 0.4 0.6 1 3.7 2.5 0.7 0.6-0.1 0.9-0.1 0.8 0.4 0.9 0.9 1.4 2.3 0.6 1.3 0.3 1.1-0.1 0.8-0.2 0.7-0.3 0.7-0.6 1.1-0.5 0.5-0.4 0.4-0.2 0.5 0.4 0.6 0.8 0.6 2 0.8 3.3 1.8 0.8 0.3 2.4 0 0.7 0.1 1 0.5 3.3 2.5 2.2 1.3 1.2 0.5 0.6 0.3 1 1.1 1.2 1.7 3 5.9 0 0.2-0.1 0.6-0.2 0.6-0.5 0.9-1 1-0.5 0.4-0.4 0.4-0.4 0.5-0.3 0.6-0.2 0.6-0.2 0.7 0 0.7 0.2 0.7 2.2 0.9 8.9 0 1.1 1.4 0.4 0.5 0.5 0.3 0.6 0.3 1 0 1.4-0.2 5.3-2 0.9-0.1 1.2 0 4.4 1 1.6-0.1 13.1-3.1 1.3 0 1.5 4.4 5.6 10.5 1 4.7-0.5 0.5-2.7 4.5-0.3 1.3-0.1 3.7-0.2 1.6-1.3 2.8-1.6 2.5-1 2.7 0.2 3 5.1 8.8 1.6 4.3 0.1 0.2-1.7 2.9-2.5 0.1-2.3-1.3-4.2-3-2.6-0.9-1.9-0.3-2 0.2-10.6 2.8-2.5-0.4-1.7-1.4-2.7-4.2-1.4-1.7-3.7-2-13-4.1-7.8-0.1-9.8-3.1-8.6-1.4-4.4 4.6-0.2 2.7-0.4 2.6-1.1 2.3-5.3 5.6-1.7 4-2.2 2.7-5.4-0.3-9-3.3-3.2 0.7-3.8 3.2z" id="KHM1803" name="Tboung Khmum">
  </path>
 </g>
 <g id="points">
  <circle class="10.630214019250024|102.57827834065009" cx="50.9" cy="788" id="0">
  </circle>
  <circle class="12.345737213250024|105.22682468715008" cx="549.9" cy="458.1" id="1">
  </circle>
  <circle class="14.490141205750023|107.34566176435008" cx="949.1" cy="42.7" id="2">
  </circle>
 </g>
</svg>