<?xml version="1.0" encoding="UTF-8" standalone="no"?>
<svg
   xmlns:mapsvg="http://mapsvg.com"
   xmlns:dc="http://purl.org/dc/elements/1.1/"
   xmlns:cc="http://creativecommons.org/ns#"
   xmlns:rdf="http://www.w3.org/1999/02/22-rdf-syntax-ns#"
   xmlns:svg="http://www.w3.org/2000/svg"
   xmlns="http://www.w3.org/2000/svg"
   xmlns:sodipodi="http://sodipodi.sourceforge.net/DTD/sodipodi-0.dtd"
   xmlns:inkscape="http://www.inkscape.org/namespaces/inkscape"
   mapsvg:geoViewBox="-169.110266 83.600842 190.486279 -58.508473"
   width="418.67273"
   height="274.96301"
   version="1.1"
   id="svg258"
   sodipodi:docname="Caucasus.svg"
   inkscape:version="1.0.2-2 (e86c870879, 2021-01-15)">
  <metadata
     id="metadata264">
    <rdf:RDF>
      <cc:Work
         rdf:about="">
        <dc:format>image/svg+xml</dc:format>
        <dc:type
           rdf:resource="http://purl.org/dc/dcmitype/StillImage" />
        <dc:title></dc:title>
      </cc:Work>
    </rdf:RDF>
  </metadata>
  <defs
     id="defs262" />
  <sodipodi:namedview
     pagecolor="#ffffff"
     bordercolor="#666666"
     borderopacity="1"
     objecttolerance="10"
     gridtolerance="10"
     guidetolerance="10"
     inkscape:pageopacity="0"
     inkscape:pageshadow="2"
     inkscape:window-width="1278"
     inkscape:window-height="1360"
     id="namedview260"
     showgrid="false"
     inkscape:zoom="0.74235261"
     inkscape:cx="116.34667"
     inkscape:cy="253.60951"
     inkscape:window-x="1273"
     inkscape:window-y="0"
     inkscape:window-maximized="0"
     inkscape:current-layer="svg258" />
  <path
     d="m 262.25418,248.69763 -6.94431,-0.30068 -5.92772,2.23362 -2.23363,-0.44386 -1.4891,-3.96612 -1.27431,-3.22159 -3.78,-8.29023 1.01658,-3.39341 -2.10476,-1.96158 -5.06864,-3.53659 -1.30295,-1.46045 0.71591,-2.01886 0.50114,-3.67977 -0.48681,-2.97818 -1.37454,-0.90204 -2.53433,-0.0573 -3.0784,0.74453 -6.18544,2.87795 -4.29546,-1.83272 -2.47704,-1.84704 -1.44613,-1.54637 -3.22159,1.28864 -0.78751,-0.61568 -0.17182,-3.83726 -0.97364,-2.07614 -1.93294,-2.41977 -1.80409,-1.15978 -6.60067,2.39114 -3.96614,0.81614 -1.38885,-2.23365 -6.97295,-7.35953 -6.45751,-5.65567 -4.43862,-2.33387 -4.46727,0.24341 -6.92999,1.13114 -2.54863,-0.47251 -6.04227,-2.46271 -5.04001,-2.93524 0.68729,-1.21703 1.05953,-0.88773 -1.27431,-3.82295 -2.80636,-6.15681 0.30068,-1.93295 -0.88772,-2.66318 -0.97363,-2.01887 3.95181,-4.82522 1.80409,-3.88022 0.4009,-3.79432 -1.05953,-3.93748 -2.60592,-7.14477 -1.60364,-2.07614 -2.97817,-1.94727 -2.50568,-3.17863 -0.63001,-2.24795 2.10478,-0.44387 6.14249,-0.0573 5.95636,-0.77318 4.66771,-1.4891 6.75819,-1.24568 2.77772,-1.11681 3.25023,-0.52977 9.86522,1.1884 3.69409,-0.91636 11.11089,-0.17181 0.28637,-0.4725 -1.50342,-1.51773 0.0148,-0.57273 6.615,-0.95931 1.0309,-0.71591 0.85908,2.40544 2.49137,2.6775 2.70613,1.07386 1.46046,1.47477 0.0716,1.11683 -4.79657,1.36022 -0.32934,0.67295 0.31501,0.65865 1.43181,0.32931 6.72954,3.35045 3.83727,0.0716 2.01887,1.01658 1.00227,2.00455 3.20726,2.72044 2.56296,2.63455 0.15742,0.90205 -0.48681,1.33158 -7.1591,5.14023 -0.90204,1.77545 -0.1146,1.87568 3.13569,5.56977 4.62476,6.07091 6.67227,4.61044 9.20658,4.99704 0.1146,3.09273 -1.46047,3.66544 -1.24566,2.49136 -0.57273,1.68955 -1.11682,0.70159 -9.16364,-0.15757 -1.37454,0.60137 -0.60136,0.7159 -0.043,0.60136 3.29317,1.11683 5.14023,3.90885 2.96386,3.79432 3.07841,1.66091 3.45067,3.02112 2.7634,2.80638 4.30978,3.6368 4.79659,-1.1884 6.41452,3.2359 0.27205,2.19069 -0.40091,1.96158 -4.03771,2.13341 -0.50114,0.88772 v 0.74455 l 0.52977,1.04523 2.36249,1.74682 2.79205,2.59157 3.13567,3.86592 -1.40318,1.15976 -2.93521,0.17182 -2.27659,-0.4725 -0.80182,0.78751 0.043,1.25999 2.97819,2.93523 0.58704,2.1334 -0.12893,3.7084 z m -58.94789,-110.76535 0.20046,-1.41749 -0.3007,-1.27431 -1.07385,-0.40091 -1.31727,0.32931 -0.10028,1.41749 0.40091,1.34591 1.33158,0.60136 z m 21.24816,21.74929 -1.53205,0.87341 -1.43182,-0.38658 v -2.17636 l 1.03091,-0.87341 1.18841,0.043 1.13113,0.78749 z"
     title="Armenia"
     id="AM"
     style="stroke-width:14.3182" />
  <path
     d="m 345.92955,94.29051 3.69408,3.10705 6.40022,8.41907 9.12067,13.65954 2.23364,3.86591 1.47478,4.46726 1.27431,5.39795 2.09044,4.76795 9.24954,11.98431 3.99477,4.42432 6.51477,5.69863 2.31955,1.27431 3.03544,0.35795 5.59841,0.0148 5.15453,2.23365 2.54864,1.56067 2.63455,2.26228 2.36244,2.62023 2.3769,6.95862 -8.94889,-2.29091 -9.02045,0.35796 -5.08294,1.48908 -4.95408,2.0475 -4.73932,2.87795 -2.96385,5.5984 -2.49137,12.91499 -3.65113,12.04159 0.12892,5.55544 1.58933,5.34068 -0.18615,2.51999 -1.6609,1.07386 -2.09046,2.26228 -2.79204,10.96772 -1.38886,2.19067 -1.78977,1.36023 -0.48681,-1.28864 0.1146,-2.87795 -3.93749,-2.53431 -2.07613,2.84932 -1.44614,6.02794 -2.87795,6.31432 -0.14325,1.20272 0.71591,19.45838 -1.14545,-0.086 -8.23296,1.97591 -1.71817,-0.63 -7.04454,-8.96318 -1.46046,-0.98796 -3.03544,-0.4009 -1.78978,-1.47478 -1.44612,-2.40544 -0.83047,-1.78977 -7.28794,-4.86818 -1.07386,-1.78977 -0.15758,-1.575 1.07387,-1.4175 1.23137,-1.1884 3.56522,-1.21705 4.15226,-1.04523 1.3316,-0.75886 0.67296,-1.30295 -0.043,-2.09046 -0.67295,-2.06181 -5.97068,-3.73705 -0.65863,-1.61794 -0.18615,-1.97592 0.32934,-2.07613 0.93067,-1.61794 4.86818,-2.20501 2.60591,-2.2909 -1.61796,-2.54863 -5.25477,-5.8275 -6.24272,-6.41454 -4.16659,-0.0573 -4.79659,1.88999 -7.67454,5.46954 -4.23816,2.33387 -5.54114,3.8659 -6.02794,4.29545 -4.93978,4.55317 -3.0784,3.76569 -5.46954,1.63226 -2.79204,3.15 -9.17795,9.42135 -2.57727,-0.1146 -0.15741,-4.68205 0.12892,-3.7084 -0.58703,-2.1334 -2.97818,-2.93523 -0.043,-1.26 0.80182,-0.7875 2.27659,0.4725 2.93521,-0.17182 1.4032,-1.15977 -3.13569,-3.86591 -2.79205,-2.59159 -2.36249,-1.7468 -0.52976,-1.04523 v -0.74455 l 0.50113,-0.88773 4.03771,-2.13341 0.40091,-1.96158 -0.27204,-2.19068 -6.41453,-3.2359 -4.79659,1.1884 -4.30978,-3.63681 -2.76339,-2.80637 -3.45068,-3.02114 -3.07841,-1.6609 -2.96386,-3.79431 -5.14023,-3.90886 -3.29317,-1.11682 0.043,-0.60136 0.60136,-0.71591 1.37455,-0.60137 9.16363,0.15758 1.11682,-0.70159 0.57273,-1.68955 1.24568,-2.49137 1.46045,-3.66544 -0.1146,-3.09272 -9.20658,-4.99705 -6.67227,-4.61044 -4.62476,-6.0709 -3.13567,-5.56977 0.1146,-1.87568 0.90204,-1.77545 7.15909,-5.14023 0.48681,-1.33159 -0.15757,-0.90204 -2.56296,-2.63455 -3.20727,-2.72046 -1.00227,-2.00454 -2.01886,-1.01657 -3.83726,-0.0716 -6.72955,-3.35045 -1.43182,-0.32932 -0.31499,-0.65864 0.32932,-0.67296 4.79659,-1.36022 -0.0716,-1.11682 -1.46046,-1.47477 -2.70613,-1.07386 -2.49137,-2.6775 -0.85908,-2.40545 8.6625,-7.04454 2.56294,-1.4175 5.67,1.30295 11.78384,4.68205 -0.80182,2.59158 1.18842,1.46046 2.70613,1.97591 5.19749,2.00454 4.39568,1.0309 2.21932,-0.88772 3.37909,-0.74454 4.39568,2.31954 4.05204,2.93522 2.01886,1.18842 1.08817,0.35794 3.07841,-0.97363 3.69409,-3.77999 1.46046,-4.5675 0.40091,-2.205 -2.14773,-3.03544 -4.43864,-3.29318 -4.96841,-2.89228 -3.19293,-2.56294 -2.0475,-5.05433 -2.06183,-0.5584 -0.51544,-0.65863 -0.34364,-1.73251 0.086,-2.40545 0.70159,-1.86135 2.01886,-0.80182 2.03318,-0.28637 1.83273,-1.77545 2.30523,-3.47931 0.97363,-1.932971 4.32409,1.10252 0.58703,3.121341 0.77319,0.65865 1.78977,-0.37228 2.97818,-1.30295 2.37681,1.00227 3.0641,3.7084 4.22386,3.90887 2.29089,2.63454 0.90206,1.80408 2.16204,1.76115 3.16432,2.06181 2.51998,3.23591 2.24796,7.50272 2.27658,1.73249 8.14704,2.84932 2.86364,0.58705 8.00385,1.00227 2.82069,-0.71592 4.12363,-6.45748 3.7084,-6.65796 3.465,-1.38885 6.25703,-3.22159 3.75136,-3.04977 1.575,-3.29319 3.5366,-6.21407 z m -121.3751,65.39106 0.40091,-1.7468 -1.13115,-0.78751 -1.1884,-0.043 -1.0309,0.87341 v 2.17636 l 1.43181,0.3866 z m -21.24816,-21.74929 -0.87341,0.60136 -1.3316,-0.60136 -0.40091,-1.34591 0.10028,-1.41749 1.31728,-0.32931 1.07386,0.40091 0.30068,1.27431 z m 43.8279,112.24012 -7.74613,-1.54637 -13.93157,-3.33612 -3.83727,-1.71819 -3.6225,-4.62476 -2.16203,-2.23365 -3.19296,-2.86362 -2.63454,-1.08819 -1.99023,-2.00454 -1.13113,-2.96385 -1.67522,-2.66319 -2.86364,-3.13567 -6.51478,-10.66704 -0.84475,-1.11682 -1.36024,-1.77545 -0.60136,-0.98795 3.96614,-0.81614 6.60067,-2.39114 1.80409,1.15978 1.93294,2.41976 0.97364,2.07613 0.17182,3.83728 0.78751,0.61569 3.22159,-1.28864 1.44613,1.54636 2.47704,1.84705 4.29546,1.83272 6.18544,-2.87795 3.0784,-0.74455 2.53433,0.0573 1.37454,0.90204 0.48681,2.97818 -0.50114,3.67976 -0.71591,2.01887 1.30295,1.46044 5.06864,3.5366 2.10476,1.96158 -1.01658,3.39341 3.78,8.29022 1.27431,3.22158 z"
     title="Azerbaijan"
     id="AZ"
     style="stroke-width:14.3182" />
  <path
     d="m 259.80577,91.799159 -0.97363,1.918621 -2.30522,3.47933 -1.83274,1.77545 -2.03318,0.28636 -2.01886,0.81614 -0.70159,1.86135 -0.086,2.40545 0.34364,1.73251 0.51544,0.64432 2.06183,0.57271 2.03317,5.05433 3.19296,2.54863 4.98271,2.89226 4.42432,3.30751 2.16205,3.03544 -0.41523,2.20499 -1.44614,4.5532 -3.69409,3.7943 -3.07841,0.95932 -1.08817,-0.35796 -2.00455,-1.17409 -4.05204,-2.93522 -4.39568,-2.31954 -3.37909,0.75887 -2.2193,0.87339 -4.39568,-1.0309 -5.1975,-2.00454 -2.70614,-1.97591 -1.1884,-1.46045 0.80182,-2.59159 -11.78385,-4.68203 -5.68432,-1.30297 -2.56294,1.4175 -8.6625,7.04454 -1.0309,0.71592 -6.615,0.97363 -0.0148,0.57271 1.5034,1.51773 -0.28637,0.47251 -11.09658,0.15741 -3.69409,0.91637 -9.87953,-1.1884 -3.25022,0.52977 -2.77773,1.10249 -6.75816,1.26 -4.66773,1.47477 -5.95635,0.77318 -6.1425,0.0716 -2.10477,0.44386 0.086,-1.01659 -0.32931,-1.56068 -1.24569,-1.13114 -1.74681,-0.7159 -3.20727,0.27205 -2.96387,-0.75888 -2.10476,-1.9759 -0.48681,-1.51772 1.21703,-1.23137 -0.88772,-1.01658 -3.69409,-2.4341 -6.04227,-6.08521 -3.42204,-1.36024 -1.36022,-3.82295 -1.36024,-0.81612 -2.87795,-0.35797 -3.03544,0.37227 -0.65863,0.42955 -0.93069,0.61568 -2.37682,4.76796 -1.67522,1.61795 -4.095007,-0.75887 -3.39339,-1.1168 -2.76342,-0.63002 -5.36931,-0.4009 -6.09954,-0.086 -4.10931,3.39341 -1.77545,-0.44386 -3.12136,-1.66092 -5.04,-1.37454 -2.66317,-1.07387 7.70317,-10.06566 2.29091,-5.99931 0.0716,-3.636821 0.10027,-4.58181 -4.00908,-9.53591 -3.43635,-13.57362 -3.57956,-14.20362 -2.79203,-4.26681 -11.6693,-4.93976 -2.70615,-5.61273 -9.03476,-7.2593 -12.55702,-3.16432 -2.49137,-1.34591 -10.9104499,-9.16362 -8.53361999,-5.9134101 1.83271999,-3.57954 2.4341,-3.7799896 2.63453,-0.91637 7.7174999,1.4891 7.11613,1.7038596 5.18317,-1.2170496 6.17114,2.9781696 5.64136,3.40774 5.66998,2.4054501 11.05364,2.27658 4.12363,3.13567 4.8109,3.13569 18.85703,1.58931 1.51771,-0.48681 1.38887,-0.45818 6.32863,-1.13115 5.598404,0.20046 5.913413,3.80864 3.78,-0.22909 4.03771,-0.57272 5.1975,2.03317 4.08068,2.26226 0.34363,2.2766 3.57955,3.3218 10.39498,5.05433 8.43341,2.86362 2.62023,2.00454 6.41452,3.30751 0.64432,1.04523 -0.12892,1.36022 -1.83272,2.47704 -0.45819,2.19069 0.8591,1.27431 2.66317,1.20273 5.26908,0.27205 1.90432,-1.575 3.9375,-1.13115 3.90885,-2.03317 5.21183,-2.70613 7.08748,-2.46274 h 2.83501 l 2.72043,0.75888 1.90433,1.36022 3.19294,5.05431 3.19296,-7.07318 0.81614,-0.52977 2.92091,1.43181 5.14021,1.9616 3.56523,1.04523 1.93294,1.46045 5.44091,6.44318 8.80567,-0.32932 3.72273,0.98795 2.00454,1.05955 0.88773,1.24568 -1.575,6.3859 -2.17636,6.64363 0.18613,1.58931 3.52227,2.50569 4.81091,2.63453 2.57727,2.1191 1.76113,1.90431 3.79432,1.44614 4.48158,0.88772 2.11909,0.1146 2.21932,1.60363 5.77022,2.9925 z"
     title="Georgia"
     id="GE"
     style="stroke-width:14.3182" />
</svg>
