<?xml version="1.0" encoding="UTF-8" standalone="no"?>
<svg
   xmlns:dc="http://purl.org/dc/elements/1.1/"
   xmlns:cc="http://creativecommons.org/ns#"
   xmlns:rdf="http://www.w3.org/1999/02/22-rdf-syntax-ns#"
   xmlns:svg="http://www.w3.org/2000/svg"
   xmlns="http://www.w3.org/2000/svg"
   xmlns:sodipodi="http://sodipodi.sourceforge.net/DTD/sodipodi-0.dtd"
   xmlns:inkscape="http://www.inkscape.org/namespaces/inkscape"
   width="861mm"
   height="855.20001mm"
   viewBox="0 0 861 855.20003"
   version="1.1"
   id="svg8"
   inkscape:version="1.0.2-2 (e86c870879, 2021-01-15)"
   sodipodi:docname="EuropeDrawn.svg">
  <defs
     id="defs2" />
  <sodipodi:namedview
     id="base"
     pagecolor="#ffffff"
     bordercolor="#666666"
     borderopacity="1.0"
     inkscape:pageopacity="0.0"
     inkscape:pageshadow="2"
     inkscape:zoom="0.25"
     inkscape:cx="-21.535983"
     inkscape:cy="1605.3958"
     inkscape:document-units="mm"
     inkscape:current-layer="layer1"
     inkscape:document-rotation="0"
     showgrid="false"
     showguides="false"
     inkscape:window-width="2560"
     inkscape:window-height="1369"
     inkscape:window-x="-8"
     inkscape:window-y="-8"
     inkscape:window-maximized="1" />
  <metadata
     id="metadata5">
    <rdf:RDF>
      <cc:Work
         rdf:about="">
        <dc:format>image/svg+xml</dc:format>
        <dc:type
           rdf:resource="http://purl.org/dc/dcmitype/StillImage" />
        <dc:title></dc:title>
      </cc:Work>
    </rdf:RDF>
  </metadata>
  <g
     inkscape:label="Layer 1"
     inkscape:groupmode="layer"
     id="layer1">
    <path
       style="fill:none;stroke:#000000;stroke-width:2.63954px;stroke-linecap:butt;stroke-linejoin:miter;stroke-opacity:1"
       d="m 44.121587,683.56796 c 3.903285,1.23634 24.393114,-7.83633 25.173681,13.16342 -0.704519,2.88703 -13.198399,11.41119 -11.008719,19.16591 0.798497,2.18242 -7.496218,10.57251 -6.499222,13.49838 2.591724,3.10679 -11.82908,9.56936 -5.99926,18.99773 2.06137,1.13028 -8.696995,12.56702 -6.499212,20.66416 -4.316058,7.00939 -8.87319,16.14929 -11.165306,25.66355 -0.295022,2.81625 -26.3613312,-5.58549 -26.2039366,-9.34065 2.3682802,-14.4102 9.7791826,-17.84786 6.3730181,-27.82152 -1.492883,-4.1496 -4.767054,-9.01224 -3.241647,-11.84696 1.5720013,-2.73748 -1.2918439,-8.59263 1.5165434,-10.48205 14.4936371,-11.29228 14.9027841,-51.42965 19.2129321,-56.21505 7.41234,-8.09901 14.561417,3.50922 18.341128,4.55308 z"
       id="Portugal"
       sodipodi:nodetypes="ccccccccccccc" />
    <path
       id="Spain"
       style="fill:none;stroke:#000000;stroke-width:2.63954px;stroke-linecap:butt;stroke-linejoin:miter;stroke-opacity:1"
       d="m 53.611466,637.50255 c -0.618078,-0.052 -1.157759,0.0433 -1.593015,0.30412 -7.157472,4.80469 -16.814111,-0.97072 -20.997787,5.1347 l -6.06269,7.46499 c -3.533213,4.22673 8.274153,11.35335 0,20.29663 -1.752738,1.76069 0.0077,8.4231 1.634244,7.46494 12.363707,-5.26352 11.753179,4.91364 17.528239,5.39768 11.124517,0.53076 23.647119,-5.64299 25.173594,13.16678 0.318552,2.81798 -11.768909,11.00155 -11.006684,19.16249 1.115682,3.34422 -4.56488,5.45066 -6.500906,13.50189 -2.328635,3.78139 -10.3264,13.11669 -6.000848,18.99749 1.909158,2.0536 -8.464173,10.98591 -6.495733,20.66267 -6.54124,10.43417 -13.653597,25.91421 -11.166514,25.66336 8.561942,-1.05546 18.065674,10.48503 17.523061,19.40997 -0.564251,11.97727 14.943253,8.27995 21.941215,6.07299 11.570675,-3.1849 10.607113,0.30363 14.35252,-0.62892 9.436343,-4.28183 13.509397,-3.4689 19.492428,0.59283 6.59023,3.9434 20.93728,2.80306 23.89507,-0.75784 4.04825,-3.33334 8.50227,-7.07248 15.01241,-12.86777 6.53971,-4.03199 14.69835,2.6795 18.31184,-0.3301 3.51049,-3.55103 0.88548,-14.44152 4.94914,-15.67228 14.50556,-4.72833 17.43282,-13.94925 5.93898,-25.07567 -6.42307,-5.88354 33.13474,-40.85757 48.12527,-39.00029 4.45542,0.65346 12.9741,-11.37092 20.06465,-10.03232 6.62816,-3.62866 3.86005,-13.88387 -7.92892,-14.69791 -11.93536,-0.0192 -24.92759,-15.15109 -27.29764,-14.23398 -8.94336,2.63811 -16.60711,3.39672 -26.83363,-3.73245 -7.11251,-3.91001 -14.22944,-4.06202 -20.29667,-16.09505 -2.23741,-4.84267 -17.90334,-2.35546 -23.09601,-4.67074 -4.53352,-3.16386 -10.22738,-0.8599 -23.56513,-5.1296 -6.66517,-2.57863 -13.119539,-11.8881 -18.198418,-10.73347 -6.299245,0.70033 -13.994995,6.29775 -18.894412,2.09826 -5.37047,-4.02531 -13.681232,-11.36966 -18.007654,-11.73364 z M 250.91221,754.40036 c -1.02333,-0.13088 -2.2902,0.12271 -3.83558,0.91764 -4.0168,3.8604 2.86069,11.19475 6.10395,9.2384 2.01442,-1.84096 2.16611,-9.58981 -2.26837,-10.15604 z m -19.81202,2.48485 c -2.3823,-0.0659 -4.66389,1.45057 -6.78963,2.22712 -7.74188,2.77083 -13.68236,9.0068 -0.57739,7.34123 2.7064,-0.66559 2.33436,2.42326 3.21694,4.12429 3.06401,5.32035 5.30461,4.05355 7.5062,2.4746 3.72406,-3.08837 5.45314,-6.28722 4.0418,-8.90849 -2.53267,-5.54511 -5.01566,-7.19297 -7.39792,-7.25875 z m -28.73084,15.62074 c -1.135,-0.1304 -2.81417,0.17612 -5.1966,1.12389 -9.82763,5.99753 -1.7066,9.31976 1.7322,8.57853 3.04147,-0.36668 8.3828,-9.13773 3.4644,-9.70242 z" />
    <path
       id="France"
       style="fill:none;stroke:#000000;stroke-width:2.63954px;stroke-linecap:butt;stroke-linejoin:miter;stroke-opacity:1"
       d="m 241.92643,496.13229 c -9.66614,0.34646 -11.39958,7.09799 -13.82152,13.2957 -1.42815,10.73102 -12.85907,7.48304 -14.35252,11.21803 -4.35198,8.15681 -7.63955,19.36484 -18.31184,9.4034 -10.25684,-6.37402 -22.9541,-21.14295 -22.76607,8.41353 2.66805,8.21671 -5.30865,6.19829 -13.8576,3.62937 -8.15083,-1.41861 -15.16991,-3.94239 -19.8636,-5.53169 -5.55054,-1.8796 -11.15197,4.06294 -9.32089,7.75881 3.16666,6.39178 7.54422,19.68041 20.27603,21.36383 4.94062,-0.24349 12.00491,8.12158 11.71297,18.47678 0.60596,7.64872 19.52907,20.03505 13.19772,30.02483 -4.4193,7.58361 -3.72474,15.22274 -3.79434,26.89036 -1.79552,10.87109 -2.4931,11.31153 -3.4644,14.3525 -2.80151,5.17686 -6.41309,11.31317 -8.52182,14.88355 0,0 0.0747,5.98916 16.63121,13.4555 5.64324,2.81457 12.26794,7.80487 26.83363,3.73245 0,0 16.59592,14.92479 32.89635,15.3991 6.0223,-17.02347 7.84757,-29.25703 28.46276,-23.56519 6.28061,0.57166 6.91067,0.01 9.09919,-0.23194 12.46161,8.74584 22.2058,12.8541 29.62787,-0.93314 1.34942,-4.62198 11.42485,0.43164 22.16285,-8.39808 3.58544,-5.38136 -12.94082,-5.57971 -16.09501,-10.2643 -3.08495,-3.97488 -1.62279,-9.46494 -0.93314,-14.69795 -5.76184,-1.71094 -5.1041,-3.42381 -4.90272,-5.13475 8.93187,-2.70365 8.97634,-8.97157 1.63424,-14.23394 -0.31374,2.05514 11.93993,-15.96884 -11.51707,-15.21345 -1.60716,-7.13211 19.02441,-25.03011 24.81787,-27.4781 6.05975,-2.12814 -3.33686,-12.50004 1.39711,-16.56418 12.85949,-10.77379 7.242,-15.02771 -2.09821,-17.96638 -6.98856,-2.69398 -6.47412,-7.63861 -12.83168,-9.09923 -6.29192,-0.55564 -17.39255,0.17708 -19.20372,-4.61405 -2.11681,-10.93942 -10.38172,-12.6941 -16.33218,-13.69263 -2.02063,-7.83056 -9.49323,-12.20362 -14.02258,-13.36268 -2.91546,-7.66075 -5.60808,-11.31096 -8.0836,-11.05308 -1.7297,-0.23242 -3.27441,-0.3123 -4.65529,-0.26274 z m 101.5348,200.65693 c -0.52489,-0.0385 -1.08395,-0.0289 -1.67548,0.0433 -13.03797,2.49356 -8.8159,15.30666 -5.94932,24.49828 2.86052,6.55977 12.8709,12.3245 14.92993,-1.63424 1.1249,-10.222 0.56811,-22.3315 -7.30513,-22.90528 z"
       sodipodi:nodetypes="scccccssccccccccccccccccccccccccccsscccs" />
    <path
       style="fill:none;stroke:#000000;stroke-width:2.63954px;stroke-linecap:butt;stroke-linejoin:miter;stroke-opacity:1"
       d="m 124.66778,396.09251 c -18.61531,-0.90585 -12.53678,-7.57427 -5.27909,-14.51741 12.02712,-12.00907 0.32014,-6.97816 -3.29943,-7.75376 -6.49894,-1.12258 -8.08051,4.86812 -7.25874,12.20796 -2.83532,9.09393 -8.24598,-0.18142 -12.537838,1.31972 -3.535379,1.12605 -6.349083,3.13283 -12.372859,0.49482 -4.565384,-2.39107 0.605456,12.53185 -4.289259,14.84746 -5.915069,1.60902 13.223821,11.45868 9.073429,12.53781 -8.625768,0.59356 -48.73144,50.11767 8.413541,33.3243 9.616116,-1.78683 27.237346,4.71736 25.900526,-8.41358 5.40292,-6.84006 10.107,-15.03416 8.57852,-35.30384 -1.8338,-3.29518 -3.02779,-7.10212 -6.9288,-8.74348 z"
       id="Ireland"
       sodipodi:nodetypes="cccccccccccc" />
    <path
       id="United Kingdom"
       style="fill:none;stroke:#000000;stroke-width:2.63954px;stroke-linecap:butt;stroke-linejoin:miter;stroke-opacity:1"
       d="m 179.68578,301.82166 c -6.64743,0.35175 -12.626,3.92488 -13.28021,14.09472 l -7.75366,17.65197 c -3.62856,5.61364 -26.01756,14.44349 -2.14463,15.34237 -8.67241,5.76006 -7.74667,10.78183 -5.11412,15.67228 13.85423,-7.62971 10.84423,4.67121 10.88812,13.36268 13.13041,7.1782 20.95001,14.5495 10.06326,22.60112 16.76631,13.06424 4.39413,37.64823 -7.25874,28.54005 -15.84933,-4.51324 -11.48215,2.04455 -9.56835,7.25875 2.65016,4.79777 6.83035,9.64842 -2.80451,14.02259 -5.09647,-1.99119 -33.4618,2.17284 -6.10395,13.85759 l 9.40338,4.94915 c 21.74195,5.48333 10.47017,16.69368 -3.62938,9.07344 -6.33995,0.8872 -10.84744,4.70621 -15.0124,9.07341 -17.37562,5.95832 -13.01523,12.84443 5.93897,8.24862 4.62736,-0.37197 11.53098,3.20732 17.81692,-2.63956 2.52821,-2.91465 5.76104,0.4403 7.91863,0.65987 l 20.62144,1.64973 c 9.61546,1.16421 19.42517,4.21499 24.58075,2.63956 7.85394,-3.09554 18.19678,-8.75585 13.69264,-12.70282 -11.63144,-5.37501 -3.52007,-11.18869 4.12428,-16.99207 8.81978,-5.11622 5.68497,-12.36713 2.47458,-19.63161 -1.47342,-2.60972 -17.70876,1.6545 -17.98189,-3.13446 0.2085,-4.43187 -0.61663,-7.1016 1.81468,-14.35255 0.51822,-3.63044 -1.6159,-7.25697 -2.14463,-18.14683 -6.29069,-8.10758 -14.41996,-9.4123 -16.66212,-32.49938 0.22737,-6.51559 -4.73774,-11.851 -14.18755,-16.16724 0.66364,-4.17183 5.93908,-10.45741 17.15704,-19.46661 8.63851,-9.29118 3.32397,-14.55147 -7.75366,-18.14688 -23.46019,-0.22183 -10.41596,-7.83084 2.14463,-15.34237 6.77457,-1.69886 -6.16049,-10.06205 -17.23952,-9.47552 z m -47.25919,71.69557 c -2.04343,-0.0241 -4.47886,0.28775 -7.38247,1.00526 -3.79777,4.07862 -6.09932,6.91258 -8.04752,9.44979 -8.15532,8.28856 -2.06517,10.92672 7.67118,12.12028 3.97906,2.1725 5.72464,5.33772 6.9288,8.74348 5.40629,-0.64654 10.68707,-1.57193 14.5639,-5.58323 -4.19838,-8.90564 0.57011,-25.55749 -13.73389,-25.73558 z" />
    <path
       style="fill:none;stroke:#000000;stroke-width:2.63954px;stroke-linecap:butt;stroke-linejoin:miter;stroke-opacity:1"
       d="M 50.430608,83.801504 C 33.760654,84.534558 30.86326,60.734387 50.760517,70.933725 c 3.388026,2.027627 11.194586,-12.658497 15.342355,5.114117 1.017326,3.908253 -16.630436,0.638677 -7.093778,7.588683 -0.766575,3.574385 -0.867934,7.14877 0.98984,10.723154 3.421297,3.422125 2.611607,-9.180606 7.42372,-5.938979 11.132527,6.400817 1.440977,-4.611035 4.619207,-6.598858 3.345869,-2.498987 6.139012,0.529138 9.073429,2.14463 4.011085,2.07745 11.53257,-3.371685 11.71297,9.56835 0.185261,4.970138 6.374053,-3.584341 7.58869,-0.824833 1.58099,3.065683 10.68156,4.359043 9.40338,0.165002 -5.34577,-16.435152 9.25704,-4.541652 8.24858,0.165002 0.60087,3.445492 2.26548,5.675168 5.93897,5.609033 0.62072,3.974164 2.34498,9.465764 -0.32991,8.908444 4.39677,9.05001 5.68648,15.66838 0,16.8271 1.25238,7.06122 -3.47016,8.60707 -7.75366,10.55822 -6.98921,2.8099 -12.00143,3.64285 -16.82709,4.28924 -10.334728,1.09978 -17.571315,2.1996 -24.910696,3.29942 -9.562595,4.40218 -13.707957,1.22022 -19.1367,-0.16505 -10.051954,-4.85551 -9.211234,-19.96719 -13.032749,-21.77625 -16.618166,-2.91076 -10.326239,-5.77181 -4.28926,-7.91862 2.04701,-2.41763 5.975483,-11.33875 1.979662,-13.197724 -26.367023,-11.288695 -2.046303,-12.008271 5.609027,-6.268916 3.320238,3.105978 9.820032,-10.082643 5.114104,-9.403372 z"
       id="Iceland"
       sodipodi:nodetypes="ccccccccccccccccccccccccc" />
    <path
       style="fill:none;stroke:#000000;stroke-width:2.63954px;stroke-linecap:butt;stroke-linejoin:miter;stroke-opacity:1"
       d="m 295.24102,538.18563 c -1.77943,-3.35331 0.17641,-10.44181 0.34997,-15.74806 0.11992,-3.32839 5.29509,-1.6853 7.58245,4.31614 1.29375,4.76851 1.03684,8.76181 -1.39985,11.66516 -2.02295,0.38592 -3.91745,1.15737 -6.53256,-0.23338 z"
       id="Luxembourg"
       sodipodi:nodetypes="ccccc" />
    <path
       style="fill:none;stroke:#000000;stroke-width:2.63954px;stroke-linecap:butt;stroke-linejoin:miter;stroke-opacity:1"
       d="m 246.58174,496.39464 c 3.85274,-3.59665 9.203,-4.94694 18.31181,-0.65943 3.61781,2.2571 24.84938,-14.32926 28.70505,8.57843 2.92267,4.92221 10.62337,9.26804 2.47457,16.16729 -2.47224,10.16469 -2.26903,9.41335 -0.83212,17.70432 -9.56318,2.30021 -9.7697,-5.37997 -13.3554,-9.45575 -3.80628,-7.38353 -8.54093,-7.33983 -13.1977,-7.91934 -4.36721,-10.90083 -9.2353,-11.28343 -14.02257,-13.36268 -2.41423,-7.88888 -5.23796,-9.63543 -8.0836,-11.05308"
       id="Belgium"
       sodipodi:nodetypes="ccccccccc" />
    <path
       style="fill:none;stroke:#000000;stroke-width:2.63954px;stroke-linecap:butt;stroke-linejoin:miter;stroke-opacity:1"
       d="m 259.77944,493.0958 c 6.99471,-8.29703 17.93049,-16.05677 16.00223,-25.5706 5.68223,-11.27236 10.82962,-19.33563 13.03276,-9.7333 4.24945,18.96053 4.55638,4.12784 5.93897,-1.48478 -4.66485,-14.4333 6.64298,-9.0605 11.87792,-11.21809 15.00173,-0.67834 17.66255,5.57226 7.58871,18.97184 1.51471,2.75163 1.72807,6.43283 0.16505,11.38295 -3.79433,3.00648 -7.58866,5.6725 -11.38304,4.78421 -3.43276,5.79808 -3.77008,10.64377 -1.48473,14.68241 0.73156,11.22516 -4.64172,7.79856 -7.91864,9.4032 -1.81429,-17.74729 -16.43292,-10.91021 -28.70504,-8.57843 2.19559,1.13317 -1.27075,-0.65544 -5.11414,-2.63941 z"
       id="Netherlands"
       sodipodi:nodetypes="cccccccccccc" />
    <path
       id="Denmark"
       style="fill:none;stroke:#000000;stroke-width:2.63954px;stroke-linecap:butt;stroke-linejoin:miter;stroke-opacity:1"
       d="m 361.51528,345.86388 c -3.50051,0.36282 -9.00732,4.23963 -13.31114,8.49085 -2.63951,2.69552 -7.58866,0.31856 -9.89826,3.13447 -11.97563,10.54321 -11.81563,24.59212 -7.25875,33.48925 1.97839,3.30158 9.29469,11.83469 11.21803,19.96152 1.96603,3.07956 3.90934,-0.1049 10.88813,-0.16505 1.40144,-0.17612 7.51225,-6.10518 4.28929,-7.42371 -4.32196,-1.5596 -7.30865,-4.28043 -5.27911,-7.75366 2.83199,-4.35343 5.4982,-9.54838 9.7333,-11.54804 18.12095,-15.57705 -3.96029,-9.7642 -2.8045,-13.19768 1.81468,-6.1801 3.62937,-12.23971 5.44406,-17.98192 1.20953,-5.44383 -0.29834,-7.2882 -3.02105,-7.00613 z m 25.60153,32.5922 c -0.82304,0.0592 -1.54618,0.39458 -2.05182,1.0826 -3.45384,4.12298 7.13816,11.53582 8.98061,7.34642 2.09301,-3.76738 -3.36216,-8.68477 -6.92879,-8.42902 z m -11.71815,5.76883 c -1.37925,0.0948 -2.47089,0.58691 -3.05198,1.49507 -4.86769,6.85253 15.72833,23.39014 19.71413,17.96638 4.4798,-5.13633 -10.6853,-19.87259 -16.66215,-19.46145 z m -16.27545,8.63006 c -0.60222,0.064 -1.07514,0.28006 -1.35587,0.68051 -3.17238,4.01236 7.25341,15.70461 11.42942,11.78517 4.68999,-5.75751 -5.85813,-12.91324 -10.07355,-12.46568 z m 15.99708,14.67731 c -1.65483,0.11019 -2.89468,0.6614 -3.23758,1.75285 -2.4018,6.76894 16.12282,9.40393 16.44561,6.41324 0.46627,-4.86985 -8.24348,-8.4974 -13.20803,-8.16609 z"
       sodipodi:nodetypes="sccccccccccssccssccssccssccs" />
    <path
       style="fill:none;fill-opacity:1;stroke:#000000;stroke-width:2.63954px;stroke-linecap:butt;stroke-linejoin:miter;stroke-opacity:1"
       d="m 362.89944,296.01506 c -6.24607,1.04323 3.18201,17.92168 -16.91458,19.71433 -10.11956,15.18709 -20.49723,29.36462 -37.67874,6.2992 -4.87687,-5.45023 -9.88576,-10.79112 -2.44972,-21.23073 3.0889,-3.72792 2.66352,-11.6731 -0.46676,-22.8639 -7.56119,-20.76064 -12.01158,-40.34139 15.92399,-47.63782 11.08619,-2.95844 14.99086,-11.6231 19.79661,-18.97169 3.1759,-4.14965 10.92889,-4.52354 10.69484,-8.24372 5.58885,-14.98917 14.23869,-26.61964 27.74352,-37.61834 7.50291,-47.54096 30.06645,-46.71234 28.04514,-49.8214 -10.83756,-17.618718 8.53435,-21.324561 9.23839,-26.395428 -5.77166,-42.565806 11.9892,-23.688986 12.86777,-27.055325 -0.0977,-6.091961 11.40224,-14.578952 17.48703,-7.258752 3.02283,3.12194 2.6628,-12.993661 6.26888,-11.87795 9.87064,0.544402 19.39193,-29.362547 23.42599,-25.405606 4.35054,4.012211 1.3705,16.572751 4.61919,14.84743 2.82121,-1.280747 4.78574,-16.441234 7.25876,-15.177377 10.26719,8.181499 12.08298,-0.749314 17.15701,-6.9288 4.64802,-5.8752779 16.50041,3.05194 19.46665,9.568345 2.39896,4.314128 -17.00567,10.976475 4.28924,12.207891 -0.74624,1.306116 -2.69999,17.339486 -9.56835,17.486982 -6.6882,-24.052239 -31.2487,-22.438195 -28.04513,5.609027 2.81105,7.211479 -4.435,16.892448 -12.86777,10.228239 -2.15817,-2.770469 -16.35144,14.617293 -22.10621,-4.28926 -0.93655,-4.54143 -13.2244,7.320937 -10.55817,14.847436 3.27233,8.071097 -14.57897,1.392438 -14.51752,4.949143 0.18863,16.890287 -6.03397,9.275908 -9.56831,13.527658 -9.86823,15.318557 -0.66871,14.854637 -2.63955,19.466617 -6.14209,27.69988 -19.03753,21.63757 -18.14688,27.38527 6.23712,24.29219 -10.91709,29.39672 -5.60902,32.33443 18.71046,18.94345 -15.36455,16.42328 -13.19772,22.43612 3.16059,11.15317 -6.12481,20.61999 2.33192,34.77587 -1.46423,10.84107 3.06157,16.35784 6.9991,22.39733 2.35445,2.55833 -6.47738,14.44667 -2.33303,26.83007 -17.97634,16.1554 -3.90024,12.03304 -9.7988,24.03037 -7.70809,12.43874 -12.54969,-9.15283 -17.14796,-8.16566 z"
       id="Norway"
       sodipodi:nodetypes="cccccccccccccccccccccccccccccccccccc" />
    <path
       style="fill:none;stroke:#000000;stroke-width:2.63954px;stroke-linecap:butt;stroke-linejoin:miter;stroke-opacity:1"
       d="m 317.6383,447.08003 c 4.45501,-14.1093 11.30653,-6.65037 17.49789,-5.13268 2.04999,-5.60753 4.91427,-7.68658 8.28231,-7.58245 1.07306,-3.06032 0.6729,-6.85715 -1.98311,-11.7819 -1.7377,-9.92386 0.35464,-8.35771 0.82982,-11.64308 l 10.88813,-0.16457 6.47989,5.04222 c 4.56953,4.20464 8.6893,4.811 12.83177,5.59925 10.02477,16.18523 15.55429,0.005 23.33047,0 14.47795,0.97269 20.74886,5.73244 23.84136,11.9596 -3.25958,14.03395 -1.19173,25.50284 7.42375,33.81921 0.65544,10.03487 1.0481,20.39321 7.25876,23.59091 7.37669,3.43569 -8.04267,6.75489 -9.73336,13.19777 -2.84228,6.90421 -9.9137,7.70651 -13.36268,9.07334 -14.58939,2.13661 -25.42646,6.55501 -7.91861,28.21019 21.08073,14.37853 14.7925,20.75554 2.28958,29.46419 14.433,12.49734 0.9365,21.34019 -6.88246,11.31523 -6.86417,7.71666 -14.68669,5.37083 -22.39728,4.1995 -2.5757,2.60231 -7.76743,3.99032 -14.46491,5.13268 -4.80509,-0.35608 -15.54909,-13.96793 -19.36431,-11.89854 -7.18354,2.7356 -14.26776,6.76249 -22.04731,1.74982 -8.42214,-22.29508 4.21023,-12.94952 6.29925,-26.36345 -6.18819,-11.24864 -7.57418,-0.0698 -19.71428,-14.81483 l -5.24938,-1.63319 c 5.16695,-14.90053 -1.7553,-14.54007 -5.70039,-17.93799 9.56844,-6.14512 -6.0119,-16.25866 -2.47455,-16.16728 4.70546,0.11164 7.56589,-2.67521 7.91861,-9.40316 -2.9052,-5.57413 -1.81964,-10.35015 1.48478,-14.68241 5.06397,0.94474 8.11783,-2.13113 11.38304,-4.78426 1.78894,-3.97867 1.13134,-7.71281 -0.16505,-11.38294 1.15795,-5.64756 10.13342,-5.88301 3.41827,-16.98113 z"
       id="Germany"
       sodipodi:nodetypes="ccccccccccccccccccccccccccccccc" />
    <path
       style="fill:none;stroke:#000000;stroke-width:2.63954px;stroke-linecap:butt;stroke-linejoin:miter;stroke-opacity:1"
       d="m 320.43795,581.23067 c 5.76266,4.17607 13.20581,3.31073 22.04736,-1.74982 7.91453,3.60681 16.84,7.62802 10.33807,16.39224 5.02249,3.42776 22.00102,0.8779 8.90844,13.36268 -2.71053,6.69633 -9.43766,3.3511 -15.50732,1.64964 -3.76421,17.06736 -8.61063,20.24605 -15.01242,3.46447 -6.8019,4.84536 -11.62666,14.86166 -23.75589,5.77393 0.0717,-5.51745 -1.16363,-10.44413 -14.51748,-9.89821 2.21636,-11.88897 14.47965,-20.56302 27.49924,-28.99493"
       id="Switzerland"
       sodipodi:nodetypes="ccccccccc" />
    <path
       style="fill:none;stroke:#000000;stroke-width:2.63954px;stroke-linecap:butt;stroke-linejoin:miter;stroke-opacity:1"
       d="m 352.82338,595.87309 c 0.78209,-2.15686 1.75666,-4.50616 3.46438,-7.5887 2.02915,2.79344 4.42051,6.10595 20.02677,-2.03768 18.03668,2.86091 18.91048,-0.94074 22.39723,-4.19949 3.57236,7.88642 23.3645,4.43653 6.88251,-11.31524 -1.66027,-0.68734 11.29161,-6.90565 11.7819,-14.69858 9.47793,3.18273 21.38851,-6.76408 23.91378,-5.94922 10.73734,3.35062 22.43469,2.43451 30.56292,17.3812 3.60377,6.6292 -8.81788,14.00426 -9.33218,18.31448 -1.04088,11.92756 -10.38456,13.00871 -17.38125,16.5646 -7.23976,4.44044 -21.79244,3.34634 -26.13014,4.08291 -18.48689,2.84729 -25.74863,-10.67048 -30.67959,-10.73208 -6.96556,0.57864 -12.56972,7.24427 -21.11413,4.78271 -6.0546,-3.38113 -13.31586,-2.2647 -14.3922,-4.60491 z"
       id="Austria"
       sodipodi:nodetypes="cccccccccccccc" />
    <path
       id="Italy"
       style="fill:none;stroke:#000000;stroke-width:2.63954px;stroke-linecap:butt;stroke-linejoin:miter;stroke-opacity:1"
       d="m 388.32832,595.69775 c -9.70742,4.83559 -17.54067,7.39541 -21.1112,4.77905 -1.25096,2.87486 0.8841,5.49035 -5.4853,8.75893 -5.16911,6.0443 -10.33822,1.45446 -15.50732,1.64973 -6.45487,24.36634 -10.6971,13.33126 -15.01242,3.46437 -9.5004,10.96349 -17.33447,12.40472 -23.75589,5.77402 l -3.46438,5.11411 c 8.8864,6.70913 9.2932,11.68388 -1.17027,14.43503 0.14629,2.64157 1.25405,4.68218 4.90272,5.1347 -6.212,22.65992 14.28023,16.78278 18.01797,23.39505 19.63483,-21.75427 33.44623,-1.86002 34.66981,2.89733 2.95551,9.25514 2.13026,22.03899 13.69264,23.26098 5.6759,0.68037 8.20825,15.08941 12.86777,19.30166 l 20.62143,14.18754 c 21.27711,-0.25936 24.71507,13.3597 27.55027,15.34233 16.57012,3.29316 11.71027,5.07821 17.9819,13.52768 15.89786,9.41085 19.843,33.04409 10.39322,42.23268 5.51648,11.74933 11.34829,10.25646 17.48696,-4.12428 13.5861,-9.57379 19.30901,-19.83747 -2.3096,-32.49938 -3.56739,-27.20285 13.12122,-17.36191 27.10175,-7.87223 4.55005,-1.85256 10.23062,-3.01417 0.93309,-13.29565 -7.48703,-8.93221 -35.41673,-10.06158 -36.8608,-15.86307 -2.89083,-20.72172 -13.73507,-14.00388 -25.1994,-16.10016 -7.7988,-1.37791 -10.5587,-7.79423 -14.92994,-12.5997 -2.02223,-17.8865 -16.41332,-22.88753 -28.46277,-30.32899 -7.16078,-7.77897 1.21661,-17.44621 -0.23193,-20.99777 -6.94439,-15.55564 11.265,-13.06809 15.86307,-17.7293 1.17094,-2.90176 3.644,-4.8826 -2.33539,-12.83168 -0.0385,-2.56636 -0.57571,-5.13571 2.33539,-7.70212 -13.27616,0.31807 -19.68796,-6.8483 -28.58134,-11.31086 z m -42.56779,138.23584 c -3.48367,0.10779 -4.99285,4.52498 -8.1764,9.09403 -3.09332,3.63236 -9.73749,-2.27447 -12.48112,-1.0517 -3.82965,4.70278 -1.81224,8.17649 0.11837,11.66656 6.3747,8.13284 3.24514,15.96865 -0.11837,23.79718 -2.87814,7.19216 13.63715,15.31985 20.06463,5.4853 1.70137,-3.46346 16.24178,1.87975 7.46495,-13.06886 -3.00089,-5.08259 -1.27623,-8.32883 -0.35079,-13.87823 1.58915,-7.27136 5.13345,-14.54609 -4.89757,-21.81749 -0.58899,-0.17275 -1.12629,-0.24205 -1.62394,-0.22665 z m 73.96393,69.11275 c -14.32902,-0.63114 -14.32979,24.6131 3.37674,22.46706 9.81987,-0.72579 11.32968,3.66214 16.00224,6.10392 9.20352,7.06685 25.57267,9.99012 16.82712,-16.00223 4.15874,-7.65146 9.73624,-16.28041 -5.27906,-10.72317 -5.70122,3.93166 -12.22847,8.21508 -23.92092,0.16505 -2.62209,-1.30159 -4.95911,-1.92046 -7.00612,-2.01059 z" />
    <path
       style="fill:none;stroke:#000000;stroke-width:2.63954px;stroke-linecap:butt;stroke-linejoin:miter;stroke-opacity:1"
       d="m 450.5055,65.276496 c 1.48969,2.286698 12.47372,17.984177 23.79709,13.998316 9.01848,2.445662 12.89851,7.827569 8.86561,17.731168 -1.72495,11.23027 10.51726,12.94876 7.46571,14.46492 -6.29944,17.21701 18.17734,26.82703 6.06596,25.89683 -18.17858,3.82056 -30.94391,12.34837 -20.76415,40.82836 4.61438,6.87871 -41.73216,44.107 -38.26201,48.99407 4.5244,8.84829 2.69272,19.31109 -0.46676,26.83007 0.22664,9.2691 43.36644,33.74467 18.19781,39.42856 -39.28374,-14.31371 -5.00555,15.26091 1.16651,8.86556 -32.71637,24.12012 12.3924,66.60201 -32.896,76.52395 -13.63763,6.30189 0.74244,32.14223 -26.13017,12.36525 -12.05628,-20.5248 4.62497,-24.40666 -0.46676,-28.22991 -7.52942,-7.42145 -16.43233,-8.37864 -17.9645,-28.69654 -3.88918,-8.29703 -9.20721,-16.15443 -5.36602,-26.83006 7.35153,1.21737 7.76367,-6.18627 6.53253,-15.63148 5.52544,-7.16006 6.90628,-8.5177 9.56556,-11.66521 -2.05105,-7.52894 0.96153,-17.5898 2.33304,-26.83007 -7.12638,-7.46581 -7.18225,-14.93152 -6.99915,-22.39733 -8.15782,-10.1159 -0.52393,-17.60804 -2.33188,-34.77587 12.56274,-6.44784 28.73137,-9.59535 13.19773,-22.43612 h -5e-5 c -3.8336,-4.11399 11.50646,-12.35308 4.74561,-32.41594 -0.39747,-2.27178 17.36637,-7.39171 19.38942,-29.66595 -2.44972,-6.445 -3.15232,-5.39681 2.26042,-17.104427 11.98583,-1.182863 8.23967,-7.571847 9.07893,-13.295909 1.27887,-3.407241 23.72473,4.018486 13.76502,-7.932378 0.39266,-2.410818 0.17708,-5.609047 5.22017,-8.01986 z"
       id="Sweden"
       sodipodi:nodetypes="cccccccccccccccccccccccccccc" />
    <path
       style="fill:none;stroke:#000000;stroke-width:2.63954px;stroke-linecap:butt;stroke-linejoin:miter;stroke-opacity:1"
       d="m 424.58598,503.98426 c 39.44932,-7.31808 21.99907,30.37798 44.70731,7.58789 1.94235,-2.17818 6.86393,11.77743 17.48696,8.24857 3.51057,-1.36245 9.70554,11.92497 -0.65996,15.17732 -1.67538,0.46869 0.36907,14.54104 -13.52763,13.85759 -2.84589,0.69134 -5.57245,7.96833 -11.54799,6.59889 -10.56371,-3.08216 -16.40728,-3.80434 -21.77628,-4.28919 -7.29744,3.45735 -14.59483,6.59239 -21.89227,4.86759 5.65545,4.00904 -6.70018,-13.45714 -14.07148,-14.76561 -12.73005,-15.47037 -12.7415,-25.92012 7.91862,-28.21019 5.04361,-1.95283 10.61783,-2.94097 13.36268,-9.07339"
       id="Czech Republic"
       sodipodi:nodetypes="ccccccccccc" />
    <path
       style="fill:none;stroke:#000000;stroke-width:2.63954px;stroke-linecap:butt;stroke-linejoin:miter;stroke-opacity:1"
       d="m 416.90965,627.54241 0.6998,5.36505 c 0.81837,5.01594 9.34392,0.5387 13.76501,-2.33303 9.34912,0.0192 23.25802,7.70434 19.83094,-13.76501 7.71127,0.2815 15.79989,-6.86585 18.43108,-11.66531 2.5629,-7.58004 3.72311,-26.34333 -1.16652,-23.33042 -2.97995,1.6455 -4.21682,2.41946 -6.06591,3.49955 -1.65498,14.38931 -11.19701,12.0187 -17.26461,17.03122 -12.0845,5.83403 -18.92071,3.2707 -28.22979,4.6641 l -2.33539,7.70217 c 3.77984,3.73149 5.37828,7.85967 2.33539,12.83168 z"
       id="Slovenia"
       sodipodi:nodetypes="ccccccccccc" />
    <path
       style="fill:none;stroke:#000000;stroke-width:2.63954px;stroke-linecap:butt;stroke-linejoin:miter;stroke-opacity:1"
       d="m 417.84279,633.84065 c 1.00493,5.09683 -0.0986,11.24777 7.93233,12.83182 5.28089,-2.40391 10.44138,-11.83021 11.43197,-8.86571 3.37516,17.05996 8.87689,32.80865 20.29756,38.72861 4.91066,2.3557 11.6399,-5.18311 11.66526,3.4e-4 2.7267,13.28973 44.17377,20.06286 7.46571,-6.76581 l -15.86475,-14.23158 c -10.47137,-8.65056 -6.99463,-13.42682 4.89944,-15.8648 8.08424,-7.17662 17.8341,-4.3595 27.06335,-4.66607 30.49226,10.39461 27.56899,-13.08854 -0.23338,-15.39809 -8.94795,-2.8317 -16.4022,-7.90389 -22.8639,-14.46496 -4.24613,5.99682 -8.70022,11.76256 -18.43107,11.66531 2.08608,9.97183 3.63832,19.61318 -19.83094,13.76501 -3.92435,3.14029 -8.36382,4.47763 -13.53163,3.26593 z"
       id="Croatia"
       sodipodi:nodetypes="cccccccccccccc" />
    <path
       style="fill:none;stroke:#000000;stroke-width:2.63954px;stroke-linecap:butt;stroke-linejoin:miter;stroke-opacity:1"
       d="m 491.80043,687.50078 c 5.28382,1.42651 10.83115,5.88378 14.93152,-6.2992 7.17815,-6.40366 15.9481,-11.63071 9.33223,-28.22996 0.31374,-6.84608 2.08464,-15.1497 -3.4996,-16.09804 -8.16066,3.51225 -13.32452,-0.96668 -19.83092,-1.86613 -8.76543,0.7881 -16.06917,-2.80841 -27.06335,4.66607 -8.5268,2.34713 -17.06279,4.69031 -6.76586,14.93123 11.01444,10.97234 34.40039,23.71211 32.89598,32.89603 z"
       id="Bosnia and Herzegovina"
       sodipodi:nodetypes="cccccccc" />
    <path
       style="fill:none;stroke:#000000;stroke-width:2.63954px;stroke-linecap:butt;stroke-linejoin:miter;stroke-opacity:1"
       d="m 462.40405,585.31324 c 3.41144,-3.80573 6.72443,-6.82351 10.73202,-15.39819 l 6.99914,-3.03298 c 7.20741,5.94663 15.54178,7.58443 27.99659,-6.53243 2.7342,-2.6474 14.55171,7.92732 18.57153,-10.17365 3.09222,-4.07742 16.31121,-4.04316 25.73554,-0.98968 10.65995,7.53549 6.55034,14.52391 0.65987,21.4463 -9.33825,11.27804 -11.79923,21.26657 -11.21809,30.68469 0.57335,5.45663 -13.74176,6.75403 -22.43612,6.26889 -5.94022,-0.56267 -11.13738,13.94487 -16.16719,14.18759 -13.71347,-0.85595 -24.90465,-6.44105 -33.64096,-16.62919 1.83981,-6.71139 4.26128,-12.98652 1.30654,-23.2939 -7.58625,3.07629 -11.84566,4.80345 -8.53887,3.46255 z"
       id="Hungary"
       sodipodi:nodetypes="ccccccccccccc" />
    <path
       style="fill:none;stroke:#000000;stroke-width:2.63954px;stroke-linecap:butt;stroke-linejoin:miter;stroke-opacity:1"
       d="m 473.13607,569.91505 c -2.28433,-6.0368 -6.03709,-10.60533 -11.43192,-13.53167 l 10.88851,-7.52775 c 6.4858,-0.05 12.04713,-2.55871 13.60847,-13.70298 3.653,0.46388 4.57026,-3.17671 5.83263,-6.29929 l 12.36516,-0.46676 c 5.31549,10.18909 16.08327,5.1118 27.52997,-1.86647 6.29015,1.3039 11.82006,1.08732 19.83092,5.83273 2.16615,8.03584 0.75971,11.60593 0.67906,16.83326 -8.38528,-2.37533 -16.74554,-5.10092 -25.73554,0.98968 -1.32762,12.30645 -9.95874,11.22323 -18.57153,10.17364 -9.07108,5.70281 -17.75928,16.57419 -27.99663,6.53244 z"
       id="Slovakia"
       sodipodi:nodetypes="ccccccccccccc" />
    <path
       style="fill:none;stroke:#000000;stroke-width:2.63954px;stroke-linecap:butt;stroke-linejoin:miter;stroke-opacity:1"
       d="m 419.63683,433.37638 22.70294,-11.14336 c 14.24685,-18.54622 28.05661,-24.855 41.06171,-8.63223 19.88645,-2.18588 55.63381,-6.59013 58.09292,-3.03298 15.4772,18.31376 18.26871,32.85609 10.73202,44.32786 4.7856,8.1955 5.55465,13.522 6.06592,18.66445 19.93014,16.57223 6.87201,25.1472 -0.93319,34.99575 l -5.59929,23.79689 -19.83093,-5.83272 c -10.35708,7.3112 -19.80647,9.47889 -27.52996,1.86646 l -12.36516,0.46676 c 1.11859,-8.05397 -6.59504,-8.25699 -13.06506,-9.56546 l -9.33223,-8.3989 c -8.05619,14.45553 -14.6838,7.48304 -20.99743,-4.1995 -6.6656,-4.50755 -14.74831,-5.23613 -24.05311,-2.70576 l 10.98798,-10.35939 c -8.32941,-8.80965 -6.5358,-17.61917 -8.51338,-26.42877 -9.51152,-12.27835 -10.17287,-23.2924 -7.4237,-33.8192"
       id="Poland"
       sodipodi:nodetypes="cccccccccccccccccc" />
    <path
       style="fill:none;stroke:#000000;stroke-width:2.63954px;stroke-linecap:butt;stroke-linejoin:miter;stroke-opacity:1"
       d="m 502.94744,689.74181 c 4.89338,8.28091 16.31934,19.04484 19.96156,18.80679 3.27021,0.12271 0.23579,-12.01634 2.47456,-14.3526 3.24244,-4.38841 18.95225,0.22761 8.08361,-14.3525 -4.2058,-4.26142 -11.77054,-3.86679 -16.16723,-9.40339 -3.52265,5.69553 -7.0453,7.42293 -10.56799,10.76147 -0.63686,2.84671 -1.41727,5.69352 -3.78451,8.54023 z"
       id="Montenegro"
       sodipodi:nodetypes="ccccccc" />
    <path
       style="fill:none;stroke:#000000;stroke-width:2.63954px;stroke-linecap:butt;stroke-linejoin:miter;stroke-opacity:1"
       d="m 525.38356,694.196 c 10.51669,-1.6263 19.45578,-1.32454 18.91049,10.56934 -4.49385,17.7918 16.98137,24.99705 15.1648,27.0634 -9.31052,4.1481 -6.29337,23.59878 -10.96531,24.73027 -10.49032,1.53853 -18.90755,-7.12459 -21.11408,-16.21463 -1.83961,-12.10017 4.20527,-30.63831 0.34983,-31.14621 -7.50743,-1.01167 -4.68969,-0.63148 -4.82043,-0.64947 3.8986,-1.32065 0.68594,-8.39289 2.4746,-14.3527 z"
       id="Albania"
       sodipodi:nodetypes="ccccccccc" />
    <path
       style="fill:none;stroke:#000000;stroke-width:2.63954px;stroke-linecap:butt;stroke-linejoin:miter;stroke-opacity:1"
       d="m 517.29994,670.44011 c 3.47828,-6.79541 -0.22665,-11.7949 -1.23576,-17.46849 1.13384,-7.33781 -0.2815,-12.49061 -3.4996,-16.09804 1.61379,-6.50496 -0.95253,-11.70371 -9.28724,-15.0998 7.85183,-5.99032 9.9574,-17.08849 27.95165,-14.0633 l 8.39899,12.36516 c 6.19646,2.07333 12.76027,5.73432 18.19779,18.6644 2.60375,2.35849 10.32893,-2.10287 12.59844,16.56466 14.81118,22.39281 6.08276,20.62754 4.66607,24.49704 -1.39422,3.24143 -3.89601,6.72885 -11.8985,5.36601 -3.76151,-5.4291 -7.65492,-10.64715 -14.46495,-11.19864 -8.03377,2.24035 -8.5729,6.72929 -10.73198,10.73202 -2.18791,-7.93069 -15.9417,-7.54771 -20.69491,-14.26102"
       id="Serbia"
       sodipodi:nodetypes="ccccccccccccc" />
    <path
       style="fill:none;stroke:#000000;stroke-width:2.63954px;stroke-linecap:butt;stroke-linejoin:miter;stroke-opacity:1"
       d="m 525.12111,695.74165 c 4.65028,-2.42075 11.58846,-3.01142 12.87374,-11.04052 5.55392,-11.05813 12.29394,-17.44125 25.19693,0.46676 4.65577,6.42696 0.0385,10.49427 -3.06214,12.97758 -2.84979,-4.66168 -8.88952,1.22017 -16.09804,8.16533 0.9186,-15.42384 -10.36102,-12.98456 -18.91049,-10.56929 z"
       id="path974"
       sodipodi:nodetypes="cccccc" />
    <path
       style="fill:none;stroke:#000000;stroke-width:2.63954px;stroke-linecap:butt;stroke-linejoin:miter;stroke-opacity:1"
       d="m 563.19178,685.16775 c 4.2224,8.20122 0.73782,9.83127 -3.06214,12.97787 -0.74494,1.10376 0.73614,-8.76076 -16.09804,8.16532 -2.33207,14.57895 8.58527,18.39277 15.42725,25.5178 6.93871,0.01 11.98795,-2.75062 13.64837,-10.49879 6.95242,-5.29119 27.23528,-0.24734 8.9822,-25.08025 0.11597,-1.415 -5.7054,-9.14619 -18.89764,-11.08195"
       id="Macedonia"
       sodipodi:nodetypes="ccccccc" />
    <path
       style="fill:none;stroke:#000000;stroke-width:2.63954px;stroke-linecap:butt;stroke-linejoin:miter;stroke-opacity:1"
       d="m 568.79108,644.10606 c 25.36136,13.69456 49.76278,9.7909 73.25768,-10.73203 5.89499,-3.37497 23.7226,-4.14979 31.49628,6.53253 3.04395,4.09902 -13.1372,21.25887 -10.73203,25.66355 7.81896,9.28161 24.6731,20.70218 -6.06596,16.79799 l -7.06825,10.3667 -3.43055,5.03139 c -7.89898,18.15795 -20.90456,6.08444 -31.49613,5.36602 -8.03449,4.13545 -15.87909,9.98035 -24.49699,8.86561 l -8.16571,-15.74812 c -17.7687,-18.74842 -15.78434,-5.01185 -5.85933,-16.61239 1.28431,-1.50114 2.70158,-3.42655 4.22625,-5.90154 -3.06272,-7.83166 -6.5383,-13.18598 -10.03213,-18.43107 z"
       id="Bulgaria"
       sodipodi:nodetypes="ccccccccccsccc" />
    <path
       style="fill:none;stroke:#000000;stroke-width:2.63954px;stroke-linecap:butt;stroke-linejoin:miter;stroke-opacity:1"
       d="m 531.22899,607.71048 c 5.95562,-0.46195 12.04959,-0.66939 10.73202,-14.46491 6.09946,-24.60429 15.04023,-22.05309 18.43108,-35.4623 13.13921,-5.56994 25.42997,-4.35276 37.32881,0 8.4794,-4.05605 21.32099,-19.07097 27.53001,-20.76415 5.70661,-0.39122 10.06004,25.99784 30.32962,32.42931 5.589,1.02048 -14.03275,45.82463 29.1631,23.79714 5.70372,5.46586 -2.49645,14.50292 -7.69905,20.29754 0.09,7.79702 1.55162,23.3194 -2.79969,27.0634 -1.50952,2.18809 -4.55106,-14.30573 -32.19613,-7.23248 -26.49352,22.93777 -50.4867,22.53832 -73.25768,10.73203 -4.06746,-3.8503 -7.50228,-4.53749 -10.96536,-5.36602 -3.28912,-10.98172 -10.63843,-15.00303 -18.19774,-18.6644 l -8.39899,-12.36516"
       id="Romania"
       sodipodi:nodetypes="cccccccccccccc" />
    <path
       id="Greece"
       style="fill:none;stroke:#000000;stroke-width:2.63954px;stroke-linecap:butt;stroke-linejoin:miter;stroke-opacity:1"
       d="m 651.25169,691.45343 c -0.36475,-0.0337 -0.68133,0.13088 -0.91254,0.531 -12.61341,21.83832 -13.82021,16.31424 -35.58741,11.1459 -1.66514,-0.27524 -13.63735,10.17769 -24.49829,8.8672 -5.00237,9.03114 -16.22277,6.5077 -17.14671,9.33121 -2.87164,10.42055 -8.36935,10.00263 -13.64625,10.50144 -11.29354,7.56258 -4.0881,21.05254 -10.96546,24.73027 -7.96601,16.39961 10.05537,14.85867 11.31601,19.36354 3.87758,10.14612 9.24917,14.44277 24.37972,8.39808 12.66889,-6.52599 16.64329,-2.66588 18.19842,4.08305 7.32775,8.75094 8.16609,-2.21562 10.72827,0.7011 8.74767,6.32744 19.95671,-0.40998 4.55221,-10.38287 l -18.19841,-4.08305 c -10.29674,-2.87009 -11.31813,-7.2421 -0.46917,-13.53283 0.57407,-3.7733 1.64776,-7.38829 -6.53181,-13.87823 -2.45626,-1.68188 5.63491,-5.22127 8.05268,-8.1661 1.23504,-1.49893 12.06157,-5.4315 4.66559,-15.04845 -1.40375,-1.47131 5.29364,-6.69787 19.8275,-8.28471 20.46706,4.73078 20.95553,-6.78362 28.06063,-11.02214 5.62803,-3.35741 0.7268,-13.03364 -1.82498,-13.25441 z m -57.33277,95.29166 c -1.01047,-0.0241 -2.1766,0.0241 -3.53661,0.16505 -43.0025,3.16988 -10.09968,17.50602 -10.39316,19.87909 -1.60633,14.2538 -2.48635,19.33298 11.71294,10.88807 1.14953,4.70413 3.53468,6.57358 8.41358,2.72204 11.84792,-0.13474 8.44398,-8.4053 -0.16505,-18.88922 -2.76173,-3.20804 23.25064,2.9031 3.5469,-8.99097 -3.16556,-1.83547 -2.50521,-5.60954 -9.57865,-5.77397 z m 36.07207,51.30612 c -12.27181,0.48172 -9.36591,11.90258 11.23863,12.52751 4.96003,-0.0192 3.80097,2.66598 24.2663,2.68595 11.14066,-4.64822 15.19815,-9.22704 2.91793,-13.9968 -10.2313,-1.42459 -24.11126,2.05721 -27.52964,0.46387 -4.41772,-1.32146 -8.06129,-1.79183 -10.89322,-1.68068 z" />
    <path
       style="fill:none;stroke:#000000;stroke-width:2.63954px;stroke-linecap:butt;stroke-linejoin:miter;stroke-opacity:1"
       d="m 484.80128,202.22651 c -13.1791,25.97802 5.7016,24.2331 4.66611,34.99573 -0.31518,47.27644 33.7555,43.08055 52.26029,22.63057 l 8.86561,-6.76586 c 18.44503,1.11344 16.02062,-8.78766 19.83092,-15.39814 l 8.86557,-16.33128 c 7.82459,-18.73701 8.07832,-36.85781 -10.73203,-53.42685 -4.06558,-4.22827 11.06516,-4.78689 -8.86556,-21.23077 -8.51935,-7.57461 -8.18636,-17.04614 -11.14687,-25.8119 -1.17686,-4.01092 3.186,-6.70466 -12.88355,-22.015584 -2.2394,-1.596456 13.55222,-22.687833 -15.63143,-31.262869 -2.90156,-0.821546 -6.85151,-19.929673 -5.59934,-27.296681 -18.21016,-19.591858 -25.16407,6.705522 -22.37164,14.948532 2.4259,7.141094 -2.96427,16.148773 -12.86777,10.228258 -12.56659,5.528658 -18.05867,8.015861 -22.10621,-4.28926 1.60773,-1.00608 -5.5607,-1.465748 -6.57988,4.07609 6.61896,7.030198 11.34377,17.469922 23.79709,13.998292 8.79266,3.964577 13.10807,9.421566 8.86561,17.731192 -0.85759,5.49085 1.72475,10.29376 7.46571,14.46487 -3.51273,13.15028 4.8764,19.57343 10.96531,27.29668 25.99895,21.64643 2.34516,14.30689 3.96621,21.46406 -0.0529,25.34577 -10.95265,32.77154 -20.76415,41.99492 z"
       id="Finland"
       sodipodi:nodetypes="cccccccccccccccccccccc" />
    <path
       style="fill:none;stroke:#000000;stroke-width:2.63954px;stroke-linecap:butt;stroke-linejoin:miter;stroke-opacity:1"
       d="m 558.29234,473.56012 10.73202,-6.41593 c 9.8653,-11.89253 22.13191,-15.14032 36.39558,-11.1986 11.90432,1.9643 24.57427,6.99092 33.13408,-4.42267 8.82048,-2.87712 25.1376,3.24177 22.10621,-13.85759 4.94314,-6.75061 10.68964,-7.87781 16.4971,-8.57844 15.17294,-21.07957 28.47475,-15.0716 29.035,-5.93907 -0.26321,5.0324 4.36652,5.42737 5.85886,10.90473 2.77068,5.89288 13.37832,-2.03377 17.124,3.483 8.34332,9.31861 8.74185,24.76261 32.89074,4.96575 3.90765,-5.17387 9.35518,0.91283 12.42458,2.75278 11.17189,-2.29194 20.71036,-4.35126 34.89386,-0.61954 5.64675,2.9685 0.91182,11.97943 1.73005,18.10675 25.2375,22.13009 -0.45088,20.75618 -5.93902,28.70511 0.0698,6.36734 -1.65537,10.05484 -3.29942,13.85759 -7.77849,6.75489 -16.23552,12.96699 -19.79657,23.09599 -9.1768,0.99063 -15.05909,9.39449 -20.78633,18.14683 l -16.4972,6.92889 1.19972,4.52252 c 6.59157,-2.83872 15.49876,-2.77934 15.56671,7.75852 9.27621,-10.45789 22.85374,2.80754 2.28616,7.82888 -13.03763,22.12757 -20.30889,10.46145 -15.01323,0.50978 -14.09689,4.82847 -24.18695,4.77149 -7.00892,-10.72116 -3.73937,-5.76877 -7.47865,-3.21285 -11.21803,-2.30959 -8.41925,0.12559 -15.98871,-2.01574 -21.77626,-8.90849 -16.21174,2.99665 -18.68336,23.96113 -24.08816,41.08999 -13.0282,6.89636 -22.66743,6.596 -15.32832,-8.06259 2.39958,-4.90748 -9.97222,-12.23943 13.35099,-18.5099 4.04888,-1.69684 -20.81357,-32.53157 -32.00442,-33.6542 -9.79269,0.43115 -23.74103,-2.04672 -25.51101,4.00028 l -27.53002,20.76411 c -11.70063,-4.45391 -23.87716,-6.05239 -37.32876,0 l -7.95322,-8.5972 -0.67911,-16.83331 5.59935,-23.79689 c 7.83888,-9.84037 20.84119,-18.42891 0.93299,-34.99575 z"
       id="Ukraine"
       sodipodi:nodetypes="ccccccccccccccccccccccccccccccccccccc" />
    <path
       style="fill:none;stroke:#000000;stroke-width:2.63954px;stroke-linecap:butt;stroke-linejoin:miter;stroke-opacity:1"
       d="m 625.25091,537.01912 c 3.48358,-6.35348 16.49089,-3.18321 25.51121,-3.99995 9.87309,3.26728 27.77153,18.55349 32.00442,33.65421 -8.97451,2.47108 -18.28691,4.70287 -12.72115,17.47334 -2.53557,5.01696 -6.38519,10.17986 1.86642,13.99825 -8.65177,3.14264 -13.82314,0.58961 -15.63133,-7.46581 l -0.70034,-21.23073 c -15.1188,-3.56759 -20.16674,-19.59797 -30.32903,-32.42902"
       id="Moldova"
       sodipodi:nodetypes="cccccccc" />
    <path
       style="fill:none;stroke:#000000;stroke-width:2.63954px;stroke-linecap:butt;stroke-linejoin:miter;stroke-opacity:1"
       d="m 513.7311,389.10376 c -23.10657,-34.04629 12.0941,-25.54403 31.96279,-28.22992 7.79981,-6.70542 17.18704,-3.88667 26.83007,0.46676 18.05396,14.368 4.96008,19.71952 1.16652,27.76325 5.56672,13.07685 -2.76101,14.57486 -7.69905,18.89769 -5.02321,6.20719 -12.483,7.54122 -21.23077,6.2993 -6.62309,-10.08578 -11.49424,-1.53276 -11.19864,-6.99915 4.34751,-24.81977 -14.2463,-10.03169 -19.83092,-18.19803 z"
       id="Lithuania"
       sodipodi:nodetypes="cccccccc" />
    <path
       id="Russia"
       style="fill:none;stroke:#000000;stroke-width:2.63954px;stroke-linecap:butt;stroke-linejoin:miter;stroke-opacity:1"
       d="m 694.31439,2.0529743 c -11.89027,7.9076497 -16.20458,14.9390507 -5.27911,20.2141567 0.17178,27.858906 -6.48889,13.582456 -11.21804,11.218059 -14.73601,-1.137038 -10.85237,-9.515028 -10.55817,-16.49715 5.55604,-27.191841 -56.59606,4.905249 -19.79661,5.279091 l 14.5175,20.456462 c 25.03886,25.293273 -0.80701,24.917512 -5.27906,18.476813 -2.98491,9.993814 -6.48071,17.688953 -11.21808,19.796579 -14.25415,15.194272 0.43115,21.407215 10.55817,29.034995 -13.22511,17.70475 -16.86146,0.19055 -24.41576,2.63955 -28.54024,7.91231 1.07763,12.47757 7.25875,13.85759 18.71589,3.10848 -6.95652,22.7669 -13.19773,11.87795 -1.75223,-5.24182 -23.43258,14.53511 -25.73559,-21.11634 l -18.47678,-16.49717 c -31.78019,-12.017761 -9.3548,-20.647908 4.61919,-10.558172 19.89007,7.400435 33.11349,7.108609 41.57282,1.319773 2.61107,-3.241229 32.50982,-28.344138 -3.29942,-50.811224 -12.75781,-1.002578 -25.51558,0.10875 -38.2734,-7.918631 -7.22497,-5.871164 -18.98411,-3.969533 -32.33442,0.659884 -7.52076,-7.041539 -15.69004,-5.653403 -24.08581,-1.319772 -6.04334,14.770046 -4.30261,25.593943 -15.23925,8.15062 -1.07836,12.322739 1.49123,20.537055 5.36154,27.292466 25.33692,7.832424 17.58677,23.248099 15.86822,31.262098 7.66354,6.592798 12.91883,13.474918 12.83168,20.997798 3.9359,11.82911 4.27086,24.47389 19.13156,33.82946 6.91527,10.07678 -2.73002,11.87015 0.93308,14.23398 31.96675,28.852 6.90984,57.01653 1.39716,71.85537 l 6.76894,10.26435 c 28.93564,-5.05727 17.94502,13.45806 -0.46917,14.23389 -9.18772,1.23287 -3.84399,6.25676 -3.89745,9.87256 10.5382,0.55963 -1.56783,10.65653 0.0433,12.72341 6.05364,9.05954 9.17083,19.75995 7.75366,32.99429 l 10.88813,8.57853 c 2.08363,10.40491 7.23599,11.164 7.58866,13.52764 0.77299,8.13703 -2.30618,9.41388 -4.28924,11.54804 8.08063,-7.23369 15.29035,-7.06382 21.61125,0.65986 26.63456,-13.3148 24.22752,11.21871 25.90054,16.16724 4.38784,1.93128 18.79852,15.16538 18.64179,18.31183 22.62937,-0.86197 10.52506,19.88573 -1.48473,19.30165 9.1423,5.84 9.49906,14.76402 10.80045,23.35891 2.16245,-1.46317 4.75446,-1.85308 7.34638,-2.24256 16.84568,-23.715 29.1183,-12.78664 29.03501,-5.93898 1.1578,9.30533 3.40581,3.12422 5.85649,10.90358 2.74326,6.30218 11.2804,-2.48851 17.12607,3.48501 9.17209,13.05342 11.13753,22.42082 32.89122,4.96465 5.35013,-4.88395 8.4807,0.88612 12.42439,2.75292 44.86892,-8.05498 38.76591,3.14231 36.62367,17.48702 28.0871,22.73014 -6.5526,22.82138 -5.93893,28.70506 1.12543,6.84435 -1.48564,9.9523 -3.29946,13.85759 -1.50153,4.38664 -3.16748,8.54336 -1.64969,17.15701 4.40617,2.25373 4.45872,5.0517 3.95928,7.91867 -4.9491,5.23055 -9.8983,4.05417 -14.84741,16.49714 -5.71897,3.32319 -11.43808,4.21673 -17.15705,14.51751 l 4.28928,7.2587 c 0.68335,3.27993 12.40741,0.69436 32.99429,-6.59884 l 10.55817,11.21808 c 6.70885,-8.10859 13.41769,-4.99621 20.12653,-4.28929 l 17.48696,2.96952 V 2.0529743 Z M 513.73244,389.10188 c -0.9608,2.01559 0.42394,9.75679 -2.1034,8.86725 -15.64606,-5.45841 -14.76984,5.60343 -17.49727,13.06366 l 39.42823,-3.7325 c 0.75793,-8.99803 0.7714,-17.3875 -11.89859,-15.39905 z" />
    <path
       style="fill:none;stroke:#000000;stroke-width:2.63954px;stroke-linecap:butt;stroke-linejoin:miter;stroke-opacity:1"
       d="m 505.91695,369.03729 c -3.27844,-21.52122 -2.28054,-43.94791 17.15701,-34.64407 8.62164,14.44109 21.48859,24.6359 18.80674,-16.16719 4.31277,-1.10478 5.70367,-3.3052 16.49715,-1.97969 6.87639,2.99419 12.49479,11.85884 21.77625,3.62937 l 10.88813,8.57853 c 1.68529,4.847 1.81137,10.31753 7.58871,13.52768 -0.0144,7.61936 -1.63665,10.95969 -4.28929,11.548 1.92902,7.46181 -7.67388,11.07969 -12.86777,16.16718 l -8.94992,-8.3564 c -8.55413,-2.68571 -16.61889,-8.55221 -26.83011,-0.46676 -13.35051,2.42359 -29.58329,-4.52007 -39.7769,8.16344 z"
       id="Latvia"
       sodipodi:nodetypes="cccccccccccc" />
    <path
       id="Estonia"
       style="fill:none;stroke:#000000;stroke-width:2.63954px;stroke-linecap:butt;stroke-linejoin:miter;stroke-opacity:1"
       d="m 572.3592,274.15801 c -2.59654,-0.16457 -6.49043,0.15735 -12.16667,1.17542 -12.32531,4.69749 -27.4791,1.16661 -35.46884,18.47679 -1.69896,18.88349 6.98606,14.07211 12.0429,16.6621 2.02396,2.10571 4.71953,3.20395 5.11411,7.75366 5.49907,-2.78156 10.99813,-3.59617 16.49715,-1.97964 7.3431,3.57149 14.84231,11.51469 21.77625,3.62937 0.40854,-10.71306 0.85177,-21.42276 -7.75366,-32.99429 -1.90727,-2.14089 11.21033,-12.00989 -0.0433,-12.72341 z m -60.5961,20.21415 c -2.98294,-0.13233 -5.65632,1.73312 -4.85633,6.0369 1.50306,7.82406 13.67632,1.94071 10.88813,-2.3096 -1.20401,-2.31201 -3.71171,-3.62423 -6.0318,-3.7273 z m 5.83585,12.81623 c -5.92901,-0.18863 -13.98867,3.42819 -8.76922,14.84227 2.81937,4.5307 21.20425,-5.7721 13.41936,-13.53284 -0.93323,-0.76043 -2.67377,-1.24649 -4.65014,-1.30943 z" />
    <path
       style="fill:none;stroke:#000000;stroke-width:2.63954px;stroke-linecap:butt;stroke-linejoin:miter;stroke-opacity:1"
       d="m 544.76066,414.30093 c 8.60957,1.8413 15.70067,-0.22135 21.23077,-6.29929 5.2104,-3.65522 12.56139,-5.16978 7.69905,-18.89769 3.99744,-5.76748 10.71836,-10.17317 7.78335,-19.40685 5.24586,-4.5281 13.31297,-6.51718 12.86782,-16.16718 10.26887,-8.97562 16.25356,-5.09857 21.61125,0.65943 10.9759,-4.34068 22.73499,-11.93497 25.90054,16.16728 6.53263,5.36043 13.82934,8.93779 18.64179,18.31174 24.49622,-1.90294 7.19745,23.56385 -1.48478,19.30175 6.40237,4.05134 9.99859,11.84426 10.80166,23.36141 l -9.15188,6.33341 c 2.62127,15.8982 -11.99031,12.33999 -22.10621,13.85759 -8.58156,11.63466 -21.19593,6.63397 -33.13408,4.42268 -11.80259,-2.85225 -23.72418,-3.32449 -36.39558,11.19859 l -10.73202,6.41594 c -0.65992,-6.56198 -1.92248,-12.9733 -6.06592,-18.66445 5.10285,-11.44382 4.96157,-24.32973 -7.46576,-40.59436 z"
       id="Belarus"
       sodipodi:nodetypes="ccccccccccccccccc" />
    <path
       id="Turkey"
       style="fill:none;stroke:#000000;stroke-width:2.63954px;stroke-linecap:butt;stroke-linejoin:miter;stroke-opacity:1"
       d="m 791.13202,642.47235 c -6.40593,-0.01 -22.83008,13.48668 -40.59845,19.59552 -10.24549,8.72332 -6.79974,26.57436 -33.59232,24.26625 -33.9933,11.79783 -1.99369,7.50243 -2.33539,11.66661 4.02632,8.15734 -7.34219,2.96705 -9.80033,7.46494 -13.0514,15.63518 -22.82185,13.50021 -32.19522,9.21265 -13.80918,6.66539 -30.83391,23.66505 -6.53186,24.73542 2.00068,5.8578 -1.86107,11.22444 6.78964,17.63648 4.43172,2.90185 -11.50103,7.26115 6.59884,13.19772 2.11149,3.5163 -1.89096,6.37273 -2.96947,11.87795 -1.25602,5.91337 -2.3043,11.57696 12.20791,14.51745 l 9.23839,-2.96946 c 11.26245,16.14313 15.98429,-0.59856 20.12652,3.62938 13.70861,12.29461 29.96276,12.25063 32.33443,-10.88813 0.16938,-12.73159 18.43665,-2.35844 27.05531,0.65986 14.98359,17.30748 39.71488,-0.98448 44.46496,-21.88447 l 25.19944,-5.59872 10.2643,-1.86623 v -99.3902 c -13.17843,1.45644 -9.47028,-11.71179 -15.16192,-9.09918 -15.03806,5.01912 -24.5019,-7.4239 -27.53478,-3.03135 -7.40995,7.59059 -16.34668,-4.01053 -23.56,-3.73249 z m -115.78938,38.03107 c -5.74808,5.1257 -12.26276,2.58556 -18.59535,1.86627 -2.133,2.426 -3.98465,5.41365 -5.4956,9.08374 11.88723,9.69399 -0.51103,13.60621 -3.96448,20.47707 l 17.15701,2.6344 c 2.90609,-2.9006 5.15741,-2.30185 9.80033,-14.46596 7.58245,-1.42613 19.48841,3.63274 21.55457,-6.06784 -3.58877,-4.93472 -17.06852,-4.30652 -20.45648,-13.52768 z" />
    <path
       style="fill:none;stroke:#000000;stroke-width:2.63954px;stroke-linecap:butt;stroke-linejoin:miter;stroke-opacity:1"
       d="m 805.36225,822.11774 c -25.64031,1.27372 -7.64227,-14.33648 0.23338,-19.36431 2.56598,-0.05 4.71586,0.0597 8.74896,-0.58359 5.05069,-10.88159 20.8208,-14.44648 5.48266,1.74982 3.21025,5.38107 -0.54072,8.64363 -4.31614,11.89854 -4.03709,4.49813 -7.00141,5.06305 -10.14891,6.29954 z"
       id="Cyprus"
       sodipodi:nodetypes="cccccc" />
  </g>
</svg>
