<?xml version="1.0" encoding="UTF-8" standalone="no"?>
<svg
   xmlns:dc="http://purl.org/dc/elements/1.1/"
   xmlns:cc="http://creativecommons.org/ns#"
   xmlns:rdf="http://www.w3.org/1999/02/22-rdf-syntax-ns#"
   xmlns:svg="http://www.w3.org/2000/svg"
   xmlns="http://www.w3.org/2000/svg"
   xmlns:sodipodi="http://sodipodi.sourceforge.net/DTD/sodipodi-0.dtd"
   xmlns:inkscape="http://www.inkscape.org/namespaces/inkscape"
   width="274mm"
   height="236mm"
   viewBox="0 0 274 236"
   version="1.1"
   id="svg8"
   inkscape:version="1.0.2-2 (e86c870879, 2021-01-15)"
   sodipodi:docname="German Empire.svg">
  <defs
     id="defs2" />
  <sodipodi:namedview
     id="base"
     pagecolor="#ffffff"
     bordercolor="#666666"
     borderopacity="1.0"
     inkscape:pageopacity="0.0"
     inkscape:pageshadow="2"
     inkscape:zoom="0.98994949"
     inkscape:cx="282.6292"
     inkscape:cy="504.07758"
     inkscape:document-units="mm"
     inkscape:current-layer="layer1"
     inkscape:document-rotation="0"
     showgrid="false"
     inkscape:window-width="2560"
     inkscape:window-height="1369"
     inkscape:window-x="-8"
     inkscape:window-y="-8"
     inkscape:window-maximized="1" />
  <metadata
     id="metadata5">
    <rdf:RDF>
      <cc:Work
         rdf:about="">
        <dc:format>image/svg+xml</dc:format>
        <dc:type
           rdf:resource="http://purl.org/dc/dcmitype/StillImage" />
        <dc:title></dc:title>
      </cc:Work>
    </rdf:RDF>
  </metadata>
  <g
     inkscape:label="Alsace–Lorraine"
     inkscape:groupmode="layer"
     id="layer1"
     style="display:inline">
    <path
       style="display:inline;fill:none;stroke:#000000;stroke-width:1.2;stroke-linecap:butt;stroke-linejoin:miter;stroke-miterlimit:4;stroke-dasharray:none;stroke-opacity:1"
       d="m 140.42487,124.49591 c 0,0 -0.29466,-1.0816 0.56696,-1.37017 l 7.27604,-0.75595 2.07887,-0.94494 h 5.48066 c 0,0 5.87472,-3.97973 4.25223,-7.55952 -1.48828,-3.28367 -1.29929,-3.68527 -1.29929,-3.68527 -0.21458,-1.42863 2.31691,-3.75487 4.84281,-2.38598 0,0 3.80392,0.87425 4.56627,0.18444 0.77169,-0.69827 2.78731,-0.2577 3.32399,0.31166 0.93383,1.12474 0.82971,2.49207 1.51191,3.40178 1.24801,1.22327 2.31232,2.4798 4.13006,2.28981 1.21408,-0.2103 2.39208,-0.28528 3.42946,0.16704 1.5867,0.50247 6.43105,5.57197 7.27604,5.38616 2.48603,-0.66178 4.68846,-3.95641 6.3311,-3.77976 0.69187,0.0534 1.40837,0.0379 1.79539,0.94494 1.91181,2.61705 3.4422,5.05981 5.69327,7.39416 0.40846,0.54977 1.85235,-0.60062 2.33872,0.63783 0.50859,1.2238 0.34679,2.66916 0.42523,4.13412 0.10633,0.98398 1.25057,0.85237 1.86625,0.99218 0.99669,0.1305 1.7689,-0.43596 2.52772,-0.77957 1.49235,-0.16943 2.01225,0.42096 2.52771,1.22842 1.27549,0.62738 1.73998,0.98208 2.62222,0.85045 1.239,0.0418 2.51776,2.79173 4.06324,3.827 0.75808,0.57319 -0.13019,1.54309 1.08668,2.31511 0.92461,0.6191 1.45707,0.48634 2.17336,0.47247 0.97879,-0.007 2.54889,2.61383 3.28367,4.37035 0.50563,1.08441 -1.08543,4.27658 -0.25986,5.64602 1.78331,2.15157 3.93605,4.48786 4.53572,6.04762 0.0546,2.30169 -0.29222,4.38037 -1.03944,6.23661 -1.23162,1.71792 -2.1052,2.23905 -3.1183,2.07886 -2.18118,-0.52152 -4.56373,-0.68215 -7.54283,-0.49441 -0.54472,-0.0307 -1.65695,1.7582 -2.31272,2.29504 -0.96795,0.61283 -2.45737,1.07792 -2.99564,0.27825 -3.01766,-4.10097 -6.90889,-5.83913 -8.3823,-6.93671 -0.52983,-0.26172 -0.44018,-0.90134 -0.21666,-1.47326 2.05158,-1.51331 1.89612,-2.29093 2.17336,-3.21279 0.002,-1.2003 -1.45801,-0.50129 -2.17435,-0.34981 -1.47662,0.99835 -2.89206,2.27201 -4.53472,2.52317 -1.56882,0.13508 -2.69248,-0.74157 -3.77977,-1.70089 -0.4478,-1.52633 -1.18467,-2.33 -1.88988,-3.2128 -0.33054,-0.81287 -1.0812,-1.12161 -2.07887,-1.13393 -1.01978,-0.0361 -1.47604,0.51958 -1.6064,1.41741 0.95259,3.13105 1.09484,4.91152 1.41742,6.99256 -1.45918,2.00609 -2.67211,1.98068 -3.96875,2.64583 -1.3403,-2.43077 -3.04968,-4.30792 -5.10268,-5.66964 -0.87974,-0.46106 -1.79427,-0.45293 -2.74033,-1.03943 -0.95356,-0.59846 -1.13461,-1.19693 -1.6064,-1.79539 -0.26592,-0.92891 2.15521,-1.55986 3.96875,-3.77976 0.28691,-1.34299 -0.57576,-1.89564 -1.70089,-2.26786 -1.18222,0.77693 -2.20598,0.76154 -3.2128,0.66146 -2.17651,-0.66114 -4.70572,-0.43821 -5.66964,-1.32292 -0.44391,-0.54371 -0.80718,-2.65208 -1.572,-2.72411 -3.69188,-0.96084 -4.44522,0.0811 -5.51505,-0.2052 -2.89521,-0.84239 -1.80187,-6.2976 -3.77977,-5.38616 -0.89683,0.18447 -2.15011,-0.45599 -2.85844,-0.94495 l -1.86626,-1.88988 c -0.64967,-0.61419 -1.75245,-0.86589 -2.83482,-1.13392 -1.05714,-2.30547 -2.40131,-4.35261 -4.34673,-5.85863 -2.43852,-0.41978 -7.51557,0.56057 -7.55952,-0.28349 -0.11824,-0.53433 0,-1.65365 0,-1.65365 z"
       id="Silesia"
       sodipodi:nodetypes="cccccsccscccccccccccccccccccccccccccccccccccccccccccccccccccc"
       inkscape:label="path52"
       name="Silesia" />
    <path
       style="display:inline;fill:none;stroke:#1f1010;stroke-width:1.2;stroke-miterlimit:4;stroke-dasharray:none;stroke-opacity:1"
       d="m 8.2617315,171.1812 c 2.0292805,1.91158 2.6792055,7.60544 6.0239755,9.49631 1.71982,0.97268 3.623114,0.71166 5.419332,1.33668 4.265539,0.76832 9.163613,1.55273 11.988226,4.34628 2.026337,0.6757 7.431314,-0.199 8.175771,2.26133 0.645964,2.13483 -3.717985,4.05711 -5.571732,5.87708 -1.349872,1.32527 -1.24662,3.53419 -1.808511,4.47321 -1.924274,3.21611 -4.590728,7.74166 -5.1927,11.4433 -0.491953,3.02485 0.02,5.72002 -0.864515,8.71871 -0.595379,2.01838 -0.569277,3.52672 -0.845933,5.44919 -0.309895,2.15353 -0.813346,6.4039 -4.248355,5.59142 -4.132995,-0.97758 -4.921167,-4.19969 -5.554744,-7.77109 -0.385422,-2.1726 -2.061812,-4.29887 -1.587678,-6.53903 1.267483,-5.98758 5.673211,-8.87347 4.157136,-15.80267 -1.156591,-5.28626 -6.266518,-4.43237 -10.0688025,-6.61477 -2.87336,-1.64893 -5.486739,-5.58107 -6.577341,-8.64297 -1.05354697,-2.95837 -0.04605,-6.27256 -0.668507,-9.26363 -0.25758297,-1.23751 -0.66011497,-2.89733 0.469666,-3.79917 2.311167,-1.8451 3.945707,-0.56018 6.754712,-0.56018"
       id="Alsace–Lorraine"
       sodipodi:nodetypes="ccccsscssssscsccccc"
       name="Alsace–Lorraine" />
    <path
       style="fill:none;stroke:#000000;stroke-width:1.2;stroke-linecap:butt;stroke-linejoin:miter;stroke-miterlimit:4;stroke-dasharray:none;stroke-opacity:1"
       d="m 208.83856,129.07887 c -2.32389,-3.56003 2.02831,-7.78939 1.37016,-8.31548 -2.98229,-2.73376 -5.03138,-7.38884 -6.14211,-11.67001 -1.81421,-1.19345 -8.78425,-7.40139 -0.25196,-10.222651 2.61346,-1.432978 1.23532,-3.719569 5.07812,-4.409946 3.77145,-4.276101 2.99359,-5.909511 3.54132,-8.886713 -1.55417,-3.266999 -3.35079,-7.746262 -7.88445,-9.087164 -1.09969,-0.541506 -0.4295,-2.499479 -0.93544,-2.80633 -0.67558,-0.344077 -1.87089,0.813709 -2.80633,0.200454 -1.06908,-1.514528 0.84442,-3.52515 0,-4.543584 -1.7376,-1.314858 -3.07548,-1.411416 -3.87541,-0.935442 -3.16844,2.56636 -6.26003,5.363266 -10.28988,5.34539 -0.824,-0.0166 -5.34885,5.510506 -6.74855,5.746295 -6.48032,0.30872 -6.60019,-2.27747 -8.88672,-0.935442 -1.24611,0.893216 -1.22218,5.016563 -1.34781,9.711449 -0.37484,1.874167 -7.37889,2.603073 -9.14252,3.050669 -2.53284,5.098608 4.98562,11.002215 7.2831,16.637525 0.53852,1.75158 2.76687,-1.3465 3.34087,0.13365 2.30392,6.18355 5.90167,6.94974 9.44389,6.05728 4.12301,4.55806 6.55431,8.6373 13.79891,1.74953 2.06027,1.24386 4.72569,4.90836 7.29689,8.19597 3.09864,-0.90757 3.10533,2.30745 3.06945,5.57923 0.81976,0.54491 4.85231,0.74461 4.08847,-0.59468 z"
       id="Poznan"
       sodipodi:nodetypes="ccccccccccccccccccccccc"
       name="Poznan" />
    <path
       style="fill:none;stroke:#000000;stroke-width:1.2;stroke-linecap:butt;stroke-linejoin:miter;stroke-miterlimit:4;stroke-dasharray:none;stroke-opacity:1"
       d="m 212.43409,85.574068 c 1.93411,-1.151806 1.53692,-1.405998 5.21176,-9.554882 1.77483,-0.553272 3.28986,-1.201016 6.94901,-1.069078 l 2.80632,-1.870887 c 0.69357,0.108676 1.35386,0.483579 1.87089,2.00452 1.77768,-0.378074 3.164,-1.408411 4.40995,-2.672694 -0.89439,-0.455912 -1.55524,-0.211224 -2.93997,-2.138156 -0.6779,-0.85813 0.7997,-2.696036 2.00452,-4.409948 -1.48906,-0.366543 -2.60847,-0.880949 -3.20723,-1.603615 0.41453,-1.279225 -0.31923,-2.367071 -0.93544,-3.474506 -2.70861,-1.311917 -5.34338,-2.605375 -7.34991,-3.741772 -0.40225,-1.661652 -0.21463,-2.875684 0.0668,-3.340871 2.83975,-1.545704 2.41601,-4.396803 2.73951,-6.949007 -0.67053,-3.773606 -2.51531,-1.206218 -4.00904,-0.534538 -1.86971,-2.290033 3.65592,-7.242388 5.7463,-10.958052 -3.98813,-2.292265 -7.81309,3.247336 -11.62623,9.354433 -3.0565,-1.102515 -5.26946,-3.178346 -6.01356,-6.949006 2.17092,-1.25716 3.84254,0.0089 4.94449,-0.935444 -4.63818,-3.860576 -9.41689,-7.462281 -17.37252,-5.211755 8.91577,6.938996 2.80218,10.378002 -0.66818,14.432555 1.58306,8.616232 -1.25205,7.159011 -4.00904,5.879928 -2.36956,1.726409 -5.06953,3.03979 -8.15172,3.875408 -2.42697,3.335119 -0.85024,5.669314 0.13363,8.151722 2.46724,4.364204 0.40984,6.585159 -3.87541,7.750815 -2.0934,-0.728565 -3.96286,-2.502135 -6.5481,-0.935442 -2.26808,3.253924 -2.58751,4.982603 -2.6727,6.815373 6.23099,1.112794 8.79871,2.113694 9.9558,2.00452 1.65425,-1.889113 3.99699,-3.950347 6.34765,-6.013564 4.31106,0.798851 7.39976,-2.476821 10.69078,-5.078121 1.3618,0.03183 2.69015,0.197438 3.87541,0.935442 -0.51459,1.385881 -0.889,2.806806 0,4.543584 0.93544,-0.144329 1.87089,-0.233699 2.80633,-0.200456 0.49603,0.567014 0.96376,1.190625 0.93544,2.806332 6.14837,0.68224 5.52752,5.877292 7.88445,9.087162 z"
       id="West Prussia"
       sodipodi:nodetypes="cccccccccccccccccccccccccccccccccc"
       name="West Prussia" />
    <path
       style="fill:none;stroke:#000000;stroke-width:1.2;stroke-linecap:butt;stroke-linejoin:miter;stroke-miterlimit:4;stroke-dasharray:none;stroke-opacity:1"
       d="m 157.0322,135.31548 c 0.2059,9.31456 -3.96085,3.52358 -6.21299,4.34672 0.37832,-1.34101 0.3349,-2.56152 -1.03943,-3.40178 -1.38591,-1.30378 -2.77183,-0.67045 -4.15774,-0.56697 -0.62987,0.66155 -0.2831,2.29973 0.85045,4.7247 l -10.11087,2.74033 c -1.02664,1.58178 -1.71774,4.17019 -3.68526,2.92932 -8.11331,4.44217 -5.67879,4.97774 -7.74851,7.18154 -1.79035,-0.56984 -3.83728,-0.99307 -7.37054,-0.56696 l -3.68527,3.2128 c -2.26674,-1.20707 -4.62326,-2.61164 -5.66964,-1.13393 -1.01959,-3.40751 -3.59568,-7.76246 0.85045,-7.84301 1.15879,-0.012 2.04819,0.4474 4.15773,-1.22842 0.2408,-0.809 0.5985,-1.52447 -0.37797,-3.30729 5.1842,-2.06528 7.73565,-4.56935 -0.56697,-8.88244 -1.12951,-4.235 -3.73584,-9.62377 2.83483,-7.84301 1.09042,0.002 2.22906,-0.0508 5.29166,-2.26785 1.77934,1.5162 3.26298,4.15605 6.23661,1.13392 1.49523,1.42667 3.70206,1.78595 6.70908,0.94494 3.46018,1.63199 7.05637,3.43884 7.08705,0.66147 l 7.55952,0.28349 4.34673,5.85863 z"
       id="Saxony"
       sodipodi:nodetypes="ccccccccccccccccccccccc"
       name="Saxony" />
    <path
       style="fill:none;stroke:#000000;stroke-width:1.2;stroke-linecap:butt;stroke-linejoin:miter;stroke-miterlimit:4;stroke-dasharray:none;stroke-opacity:1"
       d="m 233.68202,72.411047 c 2.64143,0.98074 4.92374,2.203469 8.08435,-4.603463 3.14626,0.864423 4.87955,0.988953 5.90924,0.795093 3.7691,-6.401273 8.24694,-8.975324 13.79612,-5.764135 8.72832,-5.406234 13.63402,-10.858523 7.65403,-16.441965 1.00174,-2.27035 1.57839,-4.429804 -0.28348,-5.953125 1.81469,-3.860063 6.07358,-4.53676 1.4174,-8.126489 1.16533,-1.827092 1.60888,-5.097718 2.17337,-8.126487 -0.80559,-1.823832 -2.26999,-1.934766 -3.68528,-2.173363 -0.82435,-3.711361 -2.25695,-6.814469 -7.55951,-6.047619 -2.51984,-0.931171 -5.03968,-2.52294 -7.55952,-1.322917 -0.29074,-2.167145 -1.44168,-3.596971 -3.49628,-4.252232 -0.85342,-4.8972932 -2.6033,-12.2209502 -8.40997,-8.5044641 1.27377,13.5995631 -2.4718,16.9640191 -6.99256,23.7180051 0.0106,-0.097 -14.3823,-0.323653 -5.85863,6.898066 2.1128,-0.159926 4.54618,-0.640434 5.48065,0.377976 -0.22932,1.884974 -2.30599,2.743639 -4.06324,3.779763 l -6.99256,8.126487 c 1.80005,5.060396 -0.35786,6.756522 -1.97536,8.912 -3.28913,2.728935 2.02891,4.903734 7.28311,7.082644 0.28896,2.120522 0.15406,4.407113 4.14267,5.078121 -2.74439,3.143223 -2.55595,5.3647 0.93545,6.548104"
       id="East Prussia"
       sodipodi:nodetypes="cccccccccccccccccccccc"
       name="East Prussia" />
    <path
       style="fill:none;stroke:#000000;stroke-width:1.2;stroke-linecap:butt;stroke-linejoin:miter;stroke-miterlimit:4;stroke-dasharray:none;stroke-opacity:1"
       d="m 195.72974,31.51881 c -11.67459,2.461157 -18.33895,9.097511 -23.64937,16.862142 -6.75807,4.556711 -12.08507,4.820186 -17.85937,6.425594 -7.2435,2.223755 -5.75788,9.960641 -6.70908,16.158482 -2.41784,-3.336338 -3.73838,-8.240249 -8.44331,-8.309319 -0.6614,2.62815 -0.49592,5.256301 0.26726,7.884451 l 2.80634,1.603619 c 0.45823,16.695539 21.80617,12.021928 16.57071,3.741771 3.99566,-4.797288 7.56695,-0.682707 11.2253,1.603619 0.95754,-4.9604 1.80283,-10.079959 9.2208,-5.879931 4.28524,-1.323211 6.34266,-3.584451 3.87541,-7.750815 -1.46211,-2.818495 -3.48069,-5.676739 -0.13363,-8.151722 l 8.15172,-3.875408 c 4.54356,1.95995 5.87995,2.9e-5 4.00904,-5.879928 4.79984,-3.871956 9.44811,-7.775004 0.66818,-14.432555"
       id="Pomeriania"
       sodipodi:nodetypes="ccccccccccccccc"
       name="Pomerania" />
    <path
       style="fill:none;stroke:#000000;stroke-width:1.2;stroke-linecap:butt;stroke-linejoin:miter;stroke-miterlimit:4;stroke-dasharray:none;stroke-opacity:1"
       d="m 139.06861,62.655709 c -3.97982,-0.185922 -3.81208,-3.257096 -3.80859,-6.214017 -1.17511,-0.885561 -2.45545,-1.876359 -3.8086,-2.939963 -6.08847,1.00456 -7.24836,-3.285596 -8.31625,-7.698798 -0.19055,-0.787508 -1.0097,-0.325916 -1.30545,-1.121098 -3.78415,3.550317 -5.53186,3.794629 -7.01582,3.942225 4.75641,2.001383 7.39836,7.256145 10.35669,11.759859 -3.3709,2.531531 -2.17438,4.640152 4.07586,6.280836 2.36885,-1.624366 3.9855,-2.135685 9.82216,-4.009044 z"
       id="Anklam"
       sodipodi:nodetypes="cccsccccc"
       name="Anklam" />
    <path
       style="fill:none;stroke:#000000;stroke-width:1.2;stroke-linecap:butt;stroke-linejoin:miter;stroke-miterlimit:4;stroke-dasharray:none;stroke-opacity:1"
       d="m 129.24645,66.664753 c -0.25426,5.414121 -4.9818,5.639966 -7.88445,9.554884 0.46343,6.110037 5.2012,4.858734 8.61944,5.879931 -0.72063,-1.693586 -1.74486,-3.420905 -0.93544,-4.944486 1.69817,-0.622803 3.29071,-0.400585 4.81085,0.400902 2.11357,-7.305128 2.79196,-4.652703 5.21176,-14.900275 -2.82443,1.111534 -6.29741,2.54735 -9.82216,4.009044"
       id="Pasewalk"
       sodipodi:nodetypes="ccccccc"
       name="Pasewalk" />
    <path
       style="fill:none;stroke:#000000;stroke-width:1.2;stroke-linecap:butt;stroke-linejoin:miter;stroke-miterlimit:4;stroke-dasharray:none;stroke-opacity:1"
       d="m 129.98144,82.099568 c -3.44397,-0.72967 -6.0414,0.717487 -11.09168,-4.142679 -3.47898,0.808087 -5.30354,-2.354406 -7.61718,-4.34313 -2.91395,3.320995 -4.94315,8.038952 -12.42804,4.142679 -1.48762,1.011081 -2.34282,1.705951 -2.40542,2.00452 l 13.16302,8.953529 c 0.26582,3.816706 2.34779,4.455127 3.94223,5.946748 0.3473,2.114751 0.43009,4.196434 2.13815,6.481285 -2.98269,4.25624 -3.99064,7.99905 1.87089,9.95579 l 3.20723,-2.00452 c 2.3335,2.95876 5.81852,4.19025 10.28988,3.94222 -4.20744,6.7354 0.26114,9.05668 6.08038,10.69079 -0.11819,1.43362 0.19308,2.81952 1.67044,4.07586 2.01107,-0.97073 1.96939,-2.88416 2.19049,-4.67692 l 9.35491,-1.70089 c 5.02201,-0.72533 11.73657,0.86367 8.4336,-11.24479 0.7178,-2.86411 2.49034,-3.2942 4.84281,-2.38598 6.6846,2.33591 3.98743,-1.19319 1.30378,-4.71385 -4.035,-6.126568 -9.64797,-12.954452 0.53454,-12.762125 2.88987,-0.900753 5.98899,-1.641353 4.34313,-6.013563 0.75934,-4.593908 1.30465,-9.036157 -3.87541,-9.421252 -2.95994,-1.833577 -5.63116,-2.538515 -7.21627,1.002258 3.54053,11.173309 -16.0822,10.499156 -16.57071,-3.741769 l -2.80634,-1.603619 c -2.88994,-2.979377 -4.02804,2.800405 -5.47902,7.015824 -4.34409,-1.562243 -6.87489,-1.296659 -3.87541,4.543584"
       id="Mecklenburg-Strelitz"
       sodipodi:nodetypes="cccccccccccccccccccccccccc" />
    <path
       style="fill:none;stroke:#000000;stroke-width:1.2;stroke-linecap:butt;stroke-linejoin:miter;stroke-miterlimit:4;stroke-dasharray:none;stroke-opacity:1"
       d="m 114.8139,48.624056 c -2.72731,4.267675 -6.98383,5.954802 -12.56167,5.41221 -3.61521,5.907691 -5.07496,4.704375 -7.2831,2.873148 -6.11905,0.711259 -6.55157,-0.734443 -2.3386,-3.942225 4.79776,-4.10067 3.0951,-5.336746 -2.60588,-4.810853 -0.839,2.999147 -2.4592,3.766312 -4.543582,3.207234 0.09715,3.887382 -0.467096,4.96385 -1.069078,5.879931 1.081586,4.494025 3.753888,7.844452 7.68399,10.557147 -3.76423,1.62865 -6.193553,3.808364 -4.276305,6.1472 4.796365,0.254886 6.577995,3.147668 8.619445,5.81311 l 2.40542,-2.00452 c 6.04156,4.062558 8.9195,-0.943916 12.42804,-4.142679 2.32463,1.930175 3.99056,5.342434 7.61718,4.34313 0.99933,2.09946 2.8018,2.592658 4.67721,2.939965 -3.56934,-3.268605 -3.39828,-6.140763 3.00679,-8.352174 4.26605,-4.618532 4.0636,-7.8428 -3.34087,-8.819893 1.02829,-2.779688 3.80488,-5.918002 -1.73726,-7.34991 -0.86321,-3.488951 -1.90315,-4.326818 -2.93996,-5.211758 -1.62466,0.411664 -2.62508,-1.257474 -3.74177,-2.539063"
       id="Mecklenburg-Vorpommern"
       sodipodi:nodetypes="ccccccccccccccccccc" />
    <path
       style="fill:none;stroke:#000000;stroke-width:1.2;stroke-linecap:butt;stroke-linejoin:miter;stroke-miterlimit:4;stroke-dasharray:none;stroke-dashoffset:0;stroke-opacity:1"
       d="m 108.2024,154.78125 c 1.614,-4.79608 -9.32759,-2.53565 -9.75876,-2.99115 -1.84239,-1.94633 -3.56569,-4.56309 -4.40995,0.66817 -1.04438,4.49825 -5.00447,4.20639 -8.418989,4.81085 -0.97135,-3.70485 -2.758739,-3.53351 -4.409945,-4.00904 -2.301208,-6.69309 -6.127214,-5.50805 -10.557148,-1.20271 -4.965567,3.42271 -4.401962,6.92491 -15.768902,6.68173 0.740113,11.7146 0.249461,14.66828 3.875408,13.22985 l 3.474506,-4.14268 c 9.603102,2.01601 7.226573,4.93614 8.018084,7.61718 1.823312,0.86579 4.856381,-0.94717 4.409948,4.94449 0.397577,3.67597 0.695779,8.04756 1.603615,8.15172 4.884812,3.58103 5.350614,6.90834 0.163279,8.03429 -0.757048,5.14642 -2.947091,4.68232 -5.909574,6.9328 -0.573496,0.6615 -1.306845,1.25905 -0.668173,2.40542 0.657591,0.94603 1.387696,1.81954 1.069078,3.74178 -0.344583,3.0425 0.200234,5.41794 1.870887,6.94901 -0.29129,7.33866 -2.20448,9.40614 -5.34539,7.48354 -5.57955,2.52273 -3.790354,3.65513 0,4.40995 6.763673,7.66037 11.944036,9.94756 11.693043,0.0668 4.465692,-0.63491 7.389595,2.32768 10.891233,3.94223 1.30813,-0.80664 3.05824,-0.83983 5.07812,-0.4009 4.12806,-2.89816 8.07177,-3.58421 12.02713,-4.40995 1.65604,-1.00098 3.77655,-3.24057 4.94449,-2.93996 1.11938,1.98499 3.25866,1.63879 5.61265,0.80181 2.6167,3.45372 12.75885,8.27618 7.21628,-1.06908 1.79358,-1.53722 2.12065,-3.27441 0,-5.34539 -4.69243,-5.0341 -2.22635,-6.82982 0.40091,-8.55263 5.7295,0.15357 7.94513,-2.82685 7.08264,-8.55262 3.8754,2.71723 5.79084,1.69272 5.74629,-3.0736 0.77697,-3.3859 0.10311,-6.39979 -6.01356,-8.01809 -3.27348,-4.71604 -5.44775,-7.01384 -7.88445,-9.88897 -2.67319,0.56069 -5.19805,-0.0405 -6.81537,-7.75082 -2.78551,-1.66867 -1.71558,-5.07228 -1.06908,-8.28535 -7.97039,-4.28861 -7.30611,-7.13811 -8.1483,-10.23869"
       id="Bavaria"
       sodipodi:nodetypes="csccccccccccccccccccccccccccccccccc"
       name="Bavaria" />
    <path
       style="fill:none;stroke:#000000;stroke-width:1.2;stroke-linecap:butt;stroke-linejoin:miter;stroke-miterlimit:4;stroke-dasharray:none;stroke-opacity:1"
       d="m 70.246704,175.44345 c -5.784676,4.93216 -8.527432,3.78048 -11.759859,3.60814 -4.487186,3.41448 -9.416613,6.70729 -8.285354,13.63074 -1.088357,0.74038 -3.905206,-0.40108 -5.813112,-1.13589 -2.168724,4.31732 -3.599401,7.05812 -5.41221,6.74855 1.694386,3.21579 1.590073,5.78919 0.801808,8.11832 2.003378,2.20725 3.697184,4.06191 4.276313,5.64606 1.402675,-0.27685 2.995311,1.5678 5.545844,3.67496 1.495868,-0.0789 2.387337,-2.40261 3.274052,-4.74403 6.287766,2.67038 6.396214,7.40054 6.414468,12.16076 1.24531,1.65011 3.168743,2.6221 4.81085,3.87541 0.878628,-3.35076 3.501352,-3.34749 6.68174,-2.27179 l 2.004518,-8.15172 c -3.453173,-0.34293 -0.544597,-7.60469 -2.939963,-10.69079 -1.712377,-3.56959 5.857543,-1.24336 6.577745,-9.33822 3.732915,-1.28276 5.595561,-3.25457 -0.163279,-8.03429 l -1.603613,-8.15172 c 0.379391,-3.69221 -1.410281,-4.98703 -4.409948,-4.94449 z"
       id="Württemberg"
       sodipodi:nodetypes="cccccccccccccccccc"
       name="Württemberg" />
    <path
       style="fill:none;stroke:#000000;stroke-width:1.2;stroke-linecap:butt;stroke-linejoin:miter;stroke-miterlimit:4;stroke-dasharray:none;stroke-opacity:1"
       d="m 76.260267,148.61627 c -1.213664,-0.38995 -2.401242,-0.80599 -2.505651,-2.3052 -5.219165,-0.85944 -1.940472,-3.59129 -0.06682,-6.01356 -0.875334,-3.62497 0.558707,-3.51942 1.169302,-4.74404 0.04912,-0.0371 1.673081,-2.45763 4.744035,-3.40768 1.856361,1.47676 3.318453,3.74206 7.216278,1.13589 0.37288,5.09868 2.278849,5.90472 4.409949,6.08038 -0.30734,-3.32435 0.15382,-6.06101 4.34313,-5.94674 l 1.87089,-1.87089 c 3.04605,1.12096 4.17411,1.74158 5.21175,2.33861 3.20417,1.91013 6.40834,5.60318 9.61251,-0.36295 6.93753,3.50311 7.73512,6.51283 0.56697,8.88244 1.39099,5.44377 -3.18055,4.24358 -5.83635,5.17807 -0.17547,2.22858 1.1217,5.50352 -3.54132,4.54358 -5.76377,0.37478 -5.66488,-1.69322 -7.21627,-3.0736 -2.30248,2.13819 -4.11722,10.10683 -10.623973,8.21854 -0.267812,-2.93924 -1.876031,-4.09127 -4.409945,-4.00904 -1.098066,-5.39861 -2.978011,-5.32406 -4.944485,-4.64381 z"
       id="Thuringia"
       sodipodi:nodetypes="cccccccccccccccccc"
       name="Thuringia" />
    <path
       style="fill:none;stroke:#000000;stroke-width:1.2;stroke-linecap:butt;stroke-linejoin:miter;stroke-miterlimit:4;stroke-dasharray:none;stroke-opacity:1"
       d="m 90.02465,48.156336 c -1.974733,-0.557635 -3.882667,-1.716467 -5.679478,-3.875407 -3.085367,2.165473 -4.629595,1.077429 -6.1472,-0.06682 0.683257,-1.71875 -1.202163,-2.79533 -2.53906,-4.009041 3.297859,-2.64576 1.140629,-4.901871 -3.006783,-7.015826 1.105733,-1.31705 1.36613,-3.118108 -2.268432,-6.717522 4.66537,-4.821202 3.577123,-7.280314 -2.208332,-8.450023 l -5.545844,-1.269531 c -0.878542,2.809312 -2.133182,4.699272 -4.142676,4.744034 -0.249449,3.891447 -0.282736,8.085521 -1.737251,10.289877 1.46393,3.870904 3.104684,7.352797 5.813112,8.485806 -0.182727,2.495901 -0.744611,4.576533 -3.541323,4.209497 -3.567037,1.563395 -4.429434,2.774011 0.668176,3.207235 -0.344227,1.666906 -2.745227,3.392576 0.935442,4.944485 -3.101172,2.671918 -1.211218,3.517815 0.734991,4.34313 2.679928,-0.261932 5.173171,1.062955 7.349911,5.078122 1.219926,0.622148 2.473519,1.69879 3.942226,5.679477 1.522761,-1.192579 2.798986,1.312886 4.075861,3.808589 3.78009,1.713288 7.557776,3.400134 11.091685,2.405428 -1.071333,-1.889699 -0.544718,-3.881395 4.276305,-6.147202 -3.17744,-2.682896 -6.238751,-5.523401 -7.68399,-10.557145 l 1.069078,-5.879931 c 1.569562,-0.54625 3.300092,0.436697 4.543582,-3.207234"
       id="Schleswig-Holstein"
       sodipodi:nodetypes="ccccccccccccccccccccccc"
       name="Schleswig-Holstein" />
    <path
       style="fill:none;stroke:#000000;stroke-width:1.2;stroke-linecap:butt;stroke-linejoin:miter;stroke-miterlimit:4;stroke-dasharray:none;stroke-opacity:1"
       d="m 96.43912,79.760958 c 3.49031,5.401495 3.54218,8.819268 -6.0016,6.701094 -5.197776,1.773196 -1.17233,7.179783 1.6064,12.095237 -2.28478,2.371981 -4.167883,4.141461 -5.953128,5.764141 -1.360494,2.55034 -0.611894,7.6316 -0.850447,11.52827 8.382695,-1.7749 9.640575,0.1551 12.000745,1.51191 3.37779,0.80196 5.83958,-1.44941 8.50446,-3.02381 3.16202,2.60487 6.05854,-1.42785 8.97694,-4.91369 -2.90141,-3.65537 -0.43787,-5.82047 0.96003,-8.28159 l -2.13815,-6.481287 c -3.0862,-0.653156 -3.85886,-3.041471 -3.94223,-5.946746 z"
       id="Brunswick"
       sodipodi:nodetypes="cccccccccccc"
       name="Brunswick" />
    <path
       style="fill:none;stroke:#000000;stroke-width:1.2;stroke-linecap:butt;stroke-linejoin:miter;stroke-miterlimit:4;stroke-dasharray:none;stroke-opacity:1"
       d="m 59.288654,223.15106 c -2.485695,-0.24395 -3.89977,0.31582 -5.412208,0.80181 -3.740654,0.84884 -7.481309,-1.27745 -11.221963,-2.23601 1.059214,4.36309 0.307265,6.13387 -4.9182,3.58382 -2.851758,1.18537 -4.155703,1.69939 -5.375034,0.12219 -2.204974,2.37008 -4.409948,0.1848 -6.614922,-0.86863 -0.196405,-5.27327 2.780516,-9.25593 1.002261,-13.96483 4.812814,-7.29436 3.476142,-7.20933 4.276314,-9.68852 1.138105,-1.9736 2.890938,-3.60568 3.006781,-6.1472 2.319515,-1.83134 5.903821,-2.27744 5.813113,-6.74855 1.943789,-2.7911 6.166418,-3.37688 4.610399,-9.55489 0.825336,-1.73095 0.685409,-3.6374 2.739511,-5.14494 1.587073,-4.73401 2.716838,-2.26543 3.808593,0.80181 1.816265,-0.31224 1.984583,0.0347 1.937702,0.46772 -0.04125,1.62577 -1.910112,5.21974 2.605879,1.93771 l 3.207234,-4.54358 3.474506,-4.14268 c 3.844962,1.2247 8.17805,1.90211 8.018084,7.61718 -3.155443,2.83367 -6.72835,4.77675 -11.759859,3.60814 -5.337494,4.07049 -9.087446,8.43257 -8.285356,13.63074 l -5.81311,-1.13589 c -1.278796,2.64042 -0.654559,6.69705 -5.41221,6.74855 2.936976,3.31791 2.074836,5.7652 0.801806,8.11832 l 4.276315,5.64606 5.545844,3.67496 c 2.319295,-0.01 2.37644,-2.9147 3.274052,-4.74403 5.983878,3.34516 7.172985,7.57358 6.414468,12.16076"
       id="Baden"
       sodipodi:nodetypes="ccccccccccccccccccccccccccc"
       name="Baden" />
    <path
       style="fill:none;stroke:#000000;stroke-width:1.2;stroke-linecap:butt;stroke-linejoin:miter;stroke-miterlimit:4;stroke-dasharray:none;stroke-opacity:1"
       d="m 19.599128,181.92473 c 0.941857,-0.7434 1.153236,-1.17627 2.472245,-5.07811 1.43675,-1.0864 2.322567,-0.24454 5.078119,-5.94675 4.393719,-0.5785 6.783145,-5.62866 7.951269,-5.14494 2.86344,2.48583 5.100148,5.84909 9.621702,6.01356 1.671647,0.34075 0.431916,3.80083 -0.267268,6.68176 1.224496,4.56561 -1.242977,7.28524 -4.610399,9.55489 -4.94174,-2.40678 -7.411357,-2.48685 -9.354434,-2.07136 -0.725772,-2.73058 -5.819888,-3.36435 -10.891234,-4.00905 z"
       id="Rhineland-Palatinate"
       sodipodi:nodetypes="ccccccccc"
       name="Rhineland-Palatinate" />
    <path
       style="fill:none;stroke:#000000;stroke-width:1.2;stroke-linecap:butt;stroke-linejoin:miter;stroke-miterlimit:4;stroke-dasharray:none;stroke-opacity:1"
       d="m 35.100761,165.75493 c 1.605241,-2.67418 2.400872,-5.83067 9.696132,-5.11505 2.573999,-0.99237 1.231707,-1.07998 10.081813,-1.90078 0.307401,3.88905 1.721246,6.19747 0.879496,11.72816 5.329565,1.50081 1.501129,3.87381 -0.211322,6.04529 -3.959722,2.89481 -3.460886,0.68254 -2.605879,-1.93771 -1.962414,0.66336 -2.819319,-1.73749 -3.891875,-3.54061 -2.072844,3.56604 -3.589309,4.2018 -4.326663,0.73426 -4.318221,0.21745 -6.838983,-3.16001 -9.621702,-6.01356 z"
       id="Hessen"
       sodipodi:nodetypes="ccccccccc" />
    <path
       style="fill:none;stroke:#000000;stroke-width:1.2;stroke-linecap:butt;stroke-linejoin:miter;stroke-miterlimit:4;stroke-dasharray:none;stroke-opacity:1"
       d="m 75.926181,134.35076 c -0.196921,-2.02607 0.661642,-2.5041 -2.004521,-8.15172 3.877636,-0.73924 6.768288,-2.28602 6.748555,-6.21402 1.523377,-2.19909 3.046753,-3.35414 4.57013,-4.13532 4.974305,-1.55238 8.612045,-0.28312 12.000745,1.51191 3.78959,1.11378 6.30459,-0.60488 8.50446,-3.02381 3.0975,1.41243 6.05625,-1.1987 8.97694,-4.91369 2.26381,3.03191 4.15364,1.38416 6.03815,-0.33032 2.4588,3.87794 6.27739,4.16603 10.28988,3.94222 -2.32947,4.72527 -2.20749,8.79681 6.08038,10.69079 l 1.67044,4.07586 -5.46352,-2.31457 c -2.50367,0.70971 -4.73995,0.39441 -6.70908,-0.94494 -3.18405,2.80753 -4.46987,0.14374 -6.23661,-1.13392 -2.86138,2.5843 -5.38205,3.76037 -6.91458,0.85211 -5.79652,1.31066 -2.2111,5.71049 -1.21191,9.25875 -1.61229,4.08369 -4.40156,2.7105 -6.93981,2.5011 -1.75417,-1.04806 -2.99283,-3.0756 -5.54584,-2.60587 -1.16206,-3.07417 -2.7034,-1.31239 -4.2095,0 -5.94385,-0.46418 -4.0184,3.35346 -4.34313,5.94674 -2.48259,-0.85217 -4.998444,-1.66575 -4.409951,-6.08038 -2.699615,1.60715 -5.017331,0.63648 -7.216277,-1.13589 z"
       id="Saxony-Anhalt"
       sodipodi:nodetypes="ccccccccccccccccccccccc"
       name="Saxony-Anhalt" />
    <path
       style="fill:none;stroke:#000000;stroke-width:1.2;stroke-linecap:butt;stroke-linejoin:miter;stroke-miterlimit:4;stroke-dasharray:none;stroke-opacity:1"
       d="m 47.867949,159.69494 c 2.772973,-6.33521 -0.997583,-7.05548 -4.204983,-13.32366 1.303541,-2.51458 3.350626,-5.02917 2.663116,-7.54375 l 2.338607,-6.74856 c 3.789711,-2.3032 6.963996,-5.62151 9.153983,-9.02035 1.109533,1.11189 2.229403,2.14935 4.209494,-3.00678 0.606294,-2.0532 2.814433,-3.0385 5.545844,-3.67496 -1.792289,9.58726 1.215294,11.42087 6.34765,9.82216 l 2.004521,8.15172 c -2.302127,1.5246 -2.964841,3.53139 -2.238386,5.94675 -3.18349,2.74431 -3.690268,4.87092 0.06682,6.01356 2.867118,1.0649 0.370637,2.77344 -0.968852,4.34313 -5.195998,4.61948 -10.410711,9.96883 -15.434815,7.88445 z"
       id="Kassel"
       sodipodi:nodetypes="cccccccccccccc"
       name="Kassel" />
    <path
       style="fill:none;stroke:#000000;stroke-width:1.2;stroke-linecap:butt;stroke-linejoin:miter;stroke-miterlimit:4;stroke-dasharray:none;stroke-opacity:1"
       d="m 36.570744,163.14905 c -8.816681,-10.00753 -3.767203,-16.21774 -2.873148,-21.18111 3.011892,-0.37863 5.713467,-0.75726 9.554885,-1.13589 3.94434,0.61818 1.764959,3.21175 0.410485,5.53923 3.597199,4.31925 6.896311,8.65505 4.204983,13.32366 l -3.071056,0.94494 c -3.007948,-0.67037 -5.752737,0.1505 -8.226149,2.50917 z"
       id="Hessen-Nasau"
       sodipodi:nodetypes="ccccccc"
       name="Hessen-Nassau" />
    <path
       style="fill:none;stroke:#000000;stroke-width:1.2;stroke-linecap:butt;stroke-linejoin:miter;stroke-miterlimit:4;stroke-dasharray:none;stroke-opacity:1"
       d="m 8.2617315,171.1812 c -0.423789,-3.0049 1.250883,-3.91133 2.5175035,-5.22582 -0.585709,-1.92512 -2.6996115,-4.73631 -5.4122085,-7.34991 2.174844,-1.98888 -2.12076,-4.98297 -2.071339,-10.08942 1.450748,-3.29329 2.908264,-6.57981 1.403165,-12.82894 -0.01912,-0.75659 -0.167791,-1.35772 0.668174,-3.14042 -3.476173,-3.22158 0.07878,-4.26108 1.336348,-6.01356 0.285353,-2.71221 1.3835,-4.88255 3.272463,-6.52569 -4.372936,-9.5969 -3.886542,-14.5238 5.4334075,-10.96131 1.698114,3.52615 4.152612,5.35045 7.276041,5.66964 0.162048,4.47815 2.027691,8.50799 5.575149,12.09524 2.062062,2.15879 3.937683,5.18299 6.331101,7.74851 2.550306,1.3971 3.140072,4.10123 3.590774,6.89807 l -4.484714,0.51035 c -3.592823,8.67202 -2.079117,15.53548 2.873148,21.18111 -3.707334,3.71744 -6.782158,6.16986 -9.421252,7.75082 -1.286359,2.56275 -2.574227,5.12334 -5.078119,5.94675 l -2.366335,5.16757 c -6.936014,-0.95737 -9.584298,-3.9654 -8.324447,-8.84253 L 8.2617315,171.1812"
       id="Rhineland"
       sodipodi:nodetypes="cccccccccccccccccccc"
       name="Rhineland" />
    <path
       style="fill:none;stroke:#000000;stroke-width:1.2;stroke-linecap:butt;stroke-linejoin:miter;stroke-miterlimit:4;stroke-dasharray:none;stroke-opacity:1"
       d="m 15.409245,109.04613 c 1.408162,-1.25351 3.119409,0.4228 4.189883,-4.09502 1.277021,-1.86004 3.187256,-3.31713 5.144939,-4.74403 2.327612,0.22243 4.561266,0.6453 9.48807,-4.67722 1.80538,1.114933 0.84462,1.74481 6.34765,4.276309 -3.745676,8.383841 10.590386,11.361011 6.481286,-3.942222 -0.28196,-2.255521 1.504888,-2.097434 2.605879,-2.739512 2.130752,1.244831 5.068928,2.578264 7.933088,5.534384 3.92507,-3.394503 6.836655,-4.550266 5.029481,3.285511 -1.340999,1.65431 -0.142211,2.99115 0.400905,4.40995 -1.042751,4.49514 3.315729,5.77198 6.375329,6.39825 1.160779,4.16038 -0.947142,2.87294 -1.831745,3.62435 -6.812852,3.26755 -6.708597,5.3918 -7.216278,7.61719 -1.511187,-0.91875 -3.191696,-1.88615 -5.479026,4.40994 -3.622402,0.53563 -4.77325,2.16972 -6.214017,3.67496 l -2.338607,6.74856 c 0.276404,2.20565 -0.580296,3.07217 -3.073601,2.00452 l -5.070171,0.62554 c -0.376033,-2.6642 -0.981177,-5.22657 -3.590774,-6.89807 l -9.513382,-12.43634 -2.392868,-7.40741 c -3.76057,-0.38775 -5.474045,-3.07849 -7.276041,-5.66964 z"
       id="Lippe"
       sodipodi:nodetypes="cccccccccccccccccccccc"
       name="Lippe" />
    <path
       style="fill:none;stroke:#000000;stroke-width:1.2;stroke-linecap:butt;stroke-linejoin:miter;stroke-miterlimit:4;stroke-dasharray:none;stroke-opacity:1"
       d="m 49.666952,93.124435 c -3.055165,-3.680816 -0.587744,-5.200621 2.028007,-6.662383 -1.535012,-3.204819 1.404543,-5.514725 6.142114,-7.465028 -3.324919,-5.434192 -8.010205,-2.175196 -4.630208,-10.866816 -2.859607,-8.068749 -0.159722,-12.6183 6.898063,-8.220982 2.651853,1.051123 5.514164,2.786235 9.165923,7.087052 0.771222,0.838967 2.091456,0.762915 3.381278,0.73755 2.188719,-0.805717 2.854304,2.196401 4.075861,3.80859 3.585146,1.057998 6.394357,3.889562 11.091685,2.40543 11.821895,3.850884 15.709475,17.313888 2.617845,12.514204 -5.509218,3.763093 -0.25747,8.004451 1.6064,12.095237 -7.075158,4.405551 -7.86714,10.586781 -6.803575,17.292411 l -4.570132,4.13532 c -0.4393,8.70977 -18.213774,10.53266 -13.096203,-3.60814 5.633361,-1.73034 0.908157,-3.93583 -1.326968,-4.68492 -3.959329,-0.49606 -3.706196,-2.86433 -3.216616,-5.33768 l -0.400907,-4.40995 c 1.321067,-6.95404 -0.814885,-7.151177 -5.029481,-3.285511 -2.209754,-0.830708 -4.97128,-2.948887 -7.933086,-5.534384 z"
       id="Hamburg"
       sodipodi:nodetypes="ccccccccccccccccccc"
       name="Hamburg" />
    <path
       style="fill:none;stroke:#000000;stroke-width:1.2;stroke-linecap:butt;stroke-linejoin:miter;stroke-miterlimit:4;stroke-dasharray:none;stroke-opacity:1"
       d="m 47.061073,95.863947 c -1.787434,-0.822603 -3.327544,-1.954361 -3.006783,-5.412209 -1.460498,0.122711 -2.482572,-1.289061 -3.608139,-2.338607 -5.191072,2.251108 -4.170233,-1.709695 -1.403164,-7.416728 -2.020358,-1.880444 -4.452387,-3.697553 0.267268,-6.614922 0.0117,-3.801922 5.053224,-6.775567 0.734992,-9.287616 -1.248337,-5.771969 7.251148,-8.100133 6.013566,-0.334086 -0.529062,1.980195 -1.172812,4.003398 1.069078,4.944485 1.595223,0.110964 2.546036,-1.138494 2.539061,-4.409948 1.860227,-0.451267 2.493074,1.797703 3.539913,3.135892 l -1.000855,5.617186 c 8.776868,4.508695 6.779254,5.938694 -0.200451,9.020347 l -0.3106,3.694311 c -2.317797,1.656427 -5.213297,3.114269 -2.028007,6.662383 -2.014359,-0.43475 -3.584788,-0.347229 -2.605879,2.739512 z"
       id="Bremen"
       sodipodi:nodetypes="ccccccccccccccc"
       name="Bremen" />
    <path
       style="fill:none;stroke:#000000;stroke-width:1.2;stroke-linecap:butt;stroke-linejoin:miter;stroke-miterlimit:4;stroke-dasharray:none;stroke-opacity:1"
       d="m 24.744067,100.20708 c 0.926825,-3.285517 -0.327868,-4.908924 -3.140416,-5.345394 -1.866366,-1.790714 -3.148445,-3.654464 0.601356,-6.147199 0.263384,-2.706851 1.055017,-4.555295 4.142679,-2.672694 1.793483,-3.311102 3.295222,-7.643308 3.674954,-15.902537 -4.798849,-0.817971 -2.719841,-3.308934 -1.135894,-5.679477 0.443924,-4.879512 6.571516,-2.891259 10.95805,-3.006784 l 0.200451,3.34087 c 4.858094,2.280201 0.03693,6.030923 -0.734992,9.287616 -0.909037,1.963813 -4.855491,3.034268 -0.267268,6.614922 -0.906274,3.261558 -5.385888,8.575886 1.403164,7.416726 l 3.608139,2.338607 c 0.578854,2.333329 1.048148,4.803608 3.006783,5.412211 5.676604,12.809123 -9.109452,13.701353 -6.481286,3.942222 l -6.34765,-4.276309 c -2.751854,3.366749 -5.846408,5.22562 -9.48807,4.67722"
       id="Oldenburg"
       sodipodi:nodetypes="cccccccccccccccc"
       name="Oldenburg" />
  </g>
</svg>
