<?xml version="1.0" encoding="UTF-8" standalone="no"?>
<svg
   xmlns:mapsvg="http://mapsvg.com"
   xmlns:dc="http://purl.org/dc/elements/1.1/"
   xmlns:cc="http://creativecommons.org/ns#"
   xmlns:rdf="http://www.w3.org/1999/02/22-rdf-syntax-ns#"
   xmlns:svg="http://www.w3.org/2000/svg"
   xmlns="http://www.w3.org/2000/svg"
   xmlns:sodipodi="http://sodipodi.sourceforge.net/DTD/sodipodi-0.dtd"
   xmlns:inkscape="http://www.inkscape.org/namespaces/inkscape"
   mapsvg:geoViewBox="-169.110266 83.600842 190.486279 -58.508473"
   width="392.5"
   height="365"
   version="1.1"
   id="svg2463"
   sodipodi:docname="MiddleEast.svg"
   inkscape:version="1.0.2-2 (e86c870879, 2021-01-15)">
  <metadata
     id="metadata2469">
    <rdf:RDF>
      <cc:Work
         rdf:about="">
        <dc:format>image/svg+xml</dc:format>
        <dc:type
           rdf:resource="http://purl.org/dc/dcmitype/StillImage" />
        <dc:title></dc:title>
      </cc:Work>
    </rdf:RDF>
  </metadata>
  <defs
     id="defs2467" />
  <sodipodi:namedview
     pagecolor="#ffffff"
     bordercolor="#666666"
     borderopacity="1"
     objecttolerance="10"
     gridtolerance="10"
     guidetolerance="10"
     inkscape:pageopacity="0"
     inkscape:pageshadow="2"
     inkscape:window-width="2560"
     inkscape:window-height="1369"
     id="namedview2465"
     showgrid="false"
     inkscape:zoom="1.4142136"
     inkscape:cx="242.4436"
     inkscape:cy="157.65366"
     inkscape:window-x="-8"
     inkscape:window-y="-8"
     inkscape:window-maximized="1"
     inkscape:current-layer="svg2463" />
  <path
     d="m 321.05273,222.0178 0.66609,0.90864 0.0941,6.15772 0.15205,0.43803 -0.35477,0.0652 -0.39821,0.46699 -0.46698,0.72039 -0.64076,0.37287 -0.51404,0.41992 -0.48509,0.52129 -0.43441,0.11223 -0.56111,-0.66248 -0.38735,-0.67695 0.0941,-0.14842 0.2715,-0.0471 0.10136,-0.35115 -0.1629,-0.50681 -0.38011,-0.19186 -0.47785,-0.0145 -0.45974,0.22806 -0.48871,0.44889 -0.27513,0.48147 -0.0398,0.96656 0.12671,1.08602 -0.004,0.52852 -0.26789,0.65524 -0.0941,0.96293 0.19186,0.74573 0.17377,0.44527 0.0181,0.37649 -0.45613,1.18738 0.39458,0.22444 1.30685,0.0833 0.38372,0.80366 0.26065,0.55025 -0.0724,0.3258 -0.92674,0.24255 -1.16566,0.26788 -0.83623,-0.076 -1.51319,0.36201 -0.80727,0.55749 0.2353,0.34752 0.27875,0.26789 0.1267,0.73487 -0.23531,1.04258 -0.42716,1.00999 -0.53215,1.25978 -0.61541,1.44441 -0.84348,2.17204 -0.71315,1.70504 -0.076,1.22721 0.0181,0.80003 -0.0796,1.59645 -0.67695,0.87967 -0.15204,0.0253 -0.80728,-0.10498 -0.2715,-0.0362 -0.77108,-0.10136 -1.19462,-0.15567 -1.553,-0.20634 -1.83537,-0.23892 -2.04534,-0.27151 -2.18652,-0.2896 -2.26253,-0.29685 -2.25892,-0.29684 -2.19014,-0.28961 -2.04533,-0.26788 -1.83538,-0.24255 -1.54938,-0.20634 -1.19462,-0.15566 -0.77107,-0.10136 -0.27151,-0.0362 -0.85433,-0.11223 -0.45975,-0.59369 -0.55749,-0.71677 -0.56111,-0.72039 -0.55749,-0.72039 -0.55749,-0.7204 -0.55749,-0.72039 -0.55749,-0.72039 -0.55749,-0.72039 -0.55749,-0.72039 -0.55749,-0.72402 -0.55749,-0.72039 -0.56111,-0.72401 -0.55748,-0.72401 -0.55749,-0.72402 -0.55749,-0.72401 -0.55749,-0.72401 -0.55749,-0.72401 -0.37649,-0.48509 -0.20634,-0.54663 -0.0398,-1.43354 v -0.31495 l 0.37648,-0.57921 0.18101,0.41269 0.41992,0.56111 0.71316,-0.13757 0.33304,0.0941 0.24617,1.98741 0.5249,0.70591 0.63713,0.28237 2.16118,0.15566 1.34304,-0.26789 2.64627,-1.29598 1.3901,-0.46698 3.84451,0.0796 3.08067,0.53939 4.79658,0.31856 0.93036,-0.0833 2.58834,-1.04258 1.58559,-0.91949 0.94483,-0.26427 0.62265,-0.89053 0.40907,-1.15842 0.36563,-0.7566 0.46699,-0.362 0.44164,-0.64437 0.35839,-1.0462 0.89053,-1.05706 3.56938,-2.57386 2.08516,-2.17928 0.18462,-0.70591 1.13308,-1.05706 0.90864,-1.15842 4.25357,-3.31597 0.85071,-1.37201 0.50319,-1.53852 0.0615,-0.10861 0.36563,-0.0652 0.52129,0.23169 0.0543,1.15118 -0.19186,1.08601 -0.0217,1.15118 -0.076,0.62265 0.39459,0.51043 0.67333,0.22083 0.29323,-0.0253 z m -0.16652,4.64454 0.0615,-0.48147 -0.10498,-0.24978 -0.43441,-0.0326 -0.181,0.41631 -0.0615,0.59731 0.30046,0.0507 z m -18.44783,8.82571 -0.0905,0.2172 -0.28598,-0.0181 -0.71677,-0.19548 -0.23169,-0.31132 0.44889,-0.37287 0.1991,-0.0181 0.28599,0.39097 z m -11.51542,2.04172 -0.75297,0.0615 -0.68057,-0.41993 1.43716,-0.56111 0.38735,-0.2534 0.41992,-0.51767 0.33667,0.44526 -0.37287,0.69868 -0.26426,0.30046 z m -7.26908,-0.32943 -0.17015,0.0796 -0.181,-0.59731 0.0109,-0.18824 0.46699,-0.27151 0.28598,0.48871 z m 13.3182,1.23082 0.004,0.37649 -1.03171,-0.1086 -0.27513,0.19548 -0.84709,-0.1086 -0.829,-0.27151 0.56111,-0.45251 1.46251,-0.53214 0.60817,0.48508 z"
     title="United Arab Emirates"
     id="AE"
     style="stroke-width:3.62006" />
  <path
     d="m 221.41416,62.843705 -1.75573,-0.07602 -1.4987,0.56473 -0.56473,-0.112222 -0.37649,-1.002757 -0.32218,-0.814514 -0.9557,-2.096015 0.25702,-0.857955 -0.53215,-0.495948 -1.2815,-0.894155 -0.32942,-0.369247 0.181,-0.510428 0.1267,-0.930356 -0.12308,-0.752973 -0.34753,-0.228064 -0.64075,-0.01448 -0.77831,0.188243 -1.56387,0.727633 -1.08601,-0.463368 -0.62628,-0.466988 -0.36562,-0.390967 -0.81452,0.325806 -0.1991,-0.155663 -0.0434,-0.970176 -0.24616,-0.524909 -0.48871,-0.611791 -0.45613,-0.293225 -1.66885,0.604551 -1.00275,0.206343 -0.35115,-0.564729 -1.76297,-1.860712 -1.63265,-1.429924 -1.12222,-0.59007 -1.12946,0.06154 -1.75211,0.285985 -0.64437,-0.119462 -1.52766,-0.622651 -1.27426,-0.742112 0.17376,-0.307706 0.26788,-0.224443 -0.32218,-0.966557 -0.70953,-1.556626 0.076,-0.488708 -0.22445,-0.673332 -0.24616,-0.510429 0.99914,-1.21996 0.45612,-0.981037 0.10137,-0.959316 -0.26789,-0.995517 -0.65885,-1.806411 -0.40545,-0.524907 -0.75297,-0.492329 -0.63351,-0.803653 -0.15928,-0.56835 0.53215,-0.112222 1.553,-0.01448 1.50595,-0.195483 1.18014,-0.376487 1.70867,-0.314945 0.70229,-0.282365 0.82175,-0.133942 2.49422,0.300465 0.93398,-0.231684 2.80917,-0.04344 0.0724,-0.119462 -0.38011,-0.383726 0.004,-0.144803 1.67247,-0.242544 0.26065,-0.181003 0.2172,0.60817 0.62989,0.676952 0.68419,0.271504 0.36925,0.372867 0.0181,0.282365 -1.21272,0.343905 -0.0833,0.170143 0.0796,0.166523 0.362,0.08326 1.70143,0.847095 0.97018,0.0181 0.51043,0.257025 0.2534,0.506808 0.8109,0.687811 0.64799,0.666091 0.0398,0.228064 -0.12308,0.336666 -1.81004,1.299602 -0.22806,0.448887 -0.029,0.474228 0.79279,1.408204 1.16928,1.534906 1.68695,1.16566 2.3277,1.263401 0.029,0.781934 -0.36924,0.926735 -0.31495,0.629891 -0.1448,0.427167 -0.28237,0.177383 -2.31684,-0.03982 -0.34752,0.152043 -0.15204,0.181003 -0.0109,0.152043 0.83261,0.282364 1.2996,0.988277 0.74935,0.959316 0.77832,0.419928 0.87243,0.763833 0.69867,0.709532 1.08964,0.919495 1.21272,-0.300465 1.62179,0.818134 0.0688,0.553869 -0.10136,0.495949 -1.02086,0.539389 -0.1267,0.224444 v 0.188243 l 0.13394,0.264264 0.59731,0.441648 0.70591,0.655231 0.7928,0.977416 -0.35477,0.293225 -0.74211,0.04344 -0.57559,-0.119462 -0.20272,0.199104 0.0109,0.318565 0.75297,0.742113 0.14842,0.539389 -0.0326,0.937596 z m -14.90379,-28.004794 0.0507,-0.358386 -0.076,-0.322185 -0.27151,-0.101362 -0.33304,0.08326 -0.0253,0.358386 0.10136,0.340286 0.33667,0.152043 z m 5.37217,5.498872 -0.38735,0.220824 -0.362,-0.09774 v -0.550249 l 0.26064,-0.220824 0.30047,0.01086 0.28598,0.199104 z"
     title="Armenia"
     id="AM"
     style="stroke-width:3.62006" />
  <path
     d="m 242.5698,23.804964 0.93398,0.785553 1.61816,2.128597 2.30598,3.453538 0.56473,0.977417 0.37287,1.129459 0.32218,1.364763 0.52853,1.20548 2.33856,3.029991 1.01,1.118599 1.64713,1.440784 0.58645,0.322185 0.76745,0.0905 1.41544,0.0036 1.30323,0.56473 0.64437,0.394586 0.66609,0.57197 0.59731,0.662471 0.60093,1.75935 -2.26254,-0.57921 -2.28064,0.0905 -1.28512,0.376486 -1.25254,0.517669 -1.19824,0.727632 -0.74935,1.415444 -0.62989,3.265296 -0.92312,3.044471 0.0326,1.404584 0.40183,1.350283 -0.0471,0.637131 -0.41993,0.271504 -0.52853,0.57197 -0.70591,2.772967 -0.35115,0.553869 -0.4525,0.343906 -0.12309,-0.325805 0.029,-0.727633 -0.99551,-0.640751 -0.52491,0.720393 -0.36563,1.524046 -0.72763,1.596447 -0.0362,0.304085 0.181,4.919663 -0.2896,-0.02172 -2.08154,0.499568 -0.43441,-0.159282 -1.78107,-2.266159 -0.36924,-0.249784 -0.76746,-0.101362 -0.4525,-0.372866 -0.36563,-0.60817 -0.20996,-0.452508 -1.84261,-1.230821 -0.27151,-0.452508 -0.0398,-0.398206 0.27151,-0.358386 0.31132,-0.300466 0.9014,-0.307705 1.04981,-0.264264 0.33667,-0.191864 0.17014,-0.329425 -0.0109,-0.528529 -0.17014,-0.521289 -1.50957,-0.944836 -0.16652,-0.409067 -0.0471,-0.499568 0.0833,-0.524909 0.23531,-0.409067 1.23082,-0.55749 0.65885,-0.579209 -0.40907,-0.644371 -1.32856,-1.473365 -1.57835,-1.621788 -1.05344,-0.01448 -1.21272,0.477848 -1.94035,1.382863 -1.07154,0.590071 -1.40096,0.977416 -1.52405,1.086018 -1.24892,1.15118 -0.77831,0.952076 -1.38287,0.412687 -0.70591,0.796414 -2.32046,2.382 -0.65161,-0.02896 -0.0398,-1.18376 0.0326,-0.937595 -0.14842,-0.53939 -0.75297,-0.742112 -0.0109,-0.318566 0.20272,-0.199103 0.57559,0.119462 0.74211,-0.04344 0.35477,-0.293225 -0.7928,-0.977416 -0.70591,-0.655231 -0.59731,-0.441648 -0.13394,-0.264264 V 56.16467 l 0.1267,-0.224444 1.02086,-0.539389 0.10136,-0.495949 -0.0688,-0.553869 -1.62179,-0.818134 -1.21272,0.300465 -1.08964,-0.919496 -0.69867,-0.709532 -0.87243,-0.763833 -0.77832,-0.419927 -0.74935,-0.959316 -1.2996,-0.988277 -0.83261,-0.282364 0.0109,-0.152043 0.15204,-0.181003 0.34752,-0.152043 2.31684,0.03982 0.28237,-0.177383 0.1448,-0.427167 0.31495,-0.629891 0.36924,-0.926736 -0.029,-0.781933 -2.3277,-1.263401 -1.68695,-1.16566 -1.16928,-1.534906 -0.79279,-1.408204 0.029,-0.474228 0.22806,-0.448888 1.81004,-1.299602 0.12308,-0.336665 -0.0398,-0.228064 -0.64799,-0.666091 -0.8109,-0.687811 -0.2534,-0.506809 -0.51043,-0.257024 -0.97018,-0.0181 -1.70143,-0.847095 -0.362,-0.08326 -0.0796,-0.166523 0.0833,-0.170143 1.21272,-0.343906 -0.0181,-0.282364 -0.36925,-0.372867 -0.68419,-0.271504 -0.62989,-0.676952 -0.2172,-0.60817 2.19013,-1.78107 0.64799,-0.358386 1.43355,0.329425 2.97931,1.18376 -0.20272,0.655231 0.30046,0.369247 0.68419,0.499568 1.31408,0.506809 1.11136,0.260644 0.56111,-0.224444 0.85434,-0.188243 1.11136,0.58645 1.02447,0.742113 0.51043,0.300465 0.27513,0.0905 0.77831,-0.246164 0.93398,-0.955696 0.36924,-1.1548 0.10136,-0.557489 -0.54301,-0.767453 -1.12221,-0.832614 -1.25617,-0.731253 -0.80727,-0.647991 -0.51767,-1.277881 -0.52129,-0.141183 -0.13032,-0.166522 -0.0869,-0.438028 0.0217,-0.60817 0.17738,-0.470608 0.51043,-0.202724 0.51405,-0.0724 0.46337,-0.448887 0.58283,-0.879675 0.24616,-0.488709 1.09326,0.278745 0.14842,0.789173 0.19549,0.166523 0.4525,-0.09412 0.75298,-0.329426 0.60093,0.253404 0.77469,0.937596 1.06792,0.988277 0.57921,0.666091 0.22806,0.456128 0.54663,0.445268 0.80003,0.521288 0.63714,0.818134 0.56834,1.896912 0.57559,0.438028 2.05982,0.720392 0.72401,0.148423 2.02362,0.253404 0.71315,-0.181003 1.04258,-1.632648 0.93759,-1.683328 0.87606,-0.351146 1.58196,-0.814514 0.94846,-0.771073 0.39821,-0.832614 0.89415,-1.571107 z m -30.68726,16.532819 0.10136,-0.441647 -0.28598,-0.199104 -0.30047,-0.01086 -0.26064,0.220824 v 0.550249 l 0.362,0.09774 z m -5.37217,-5.498872 -0.22082,0.152043 -0.33667,-0.152043 -0.10136,-0.340286 0.0253,-0.358386 0.33304,-0.08326 0.27151,0.101362 0.076,0.322185 z m 11.08101,28.37766 -1.95846,-0.390967 -3.52232,-0.843474 -0.97017,-0.434407 -0.91588,-1.16928 -0.54663,-0.56473 -0.80727,-0.724012 -0.66609,-0.275125 -0.50319,-0.506808 -0.28599,-0.749353 -0.42354,-0.673331 -0.72401,-0.792794 -1.64713,-2.696945 -0.21359,-0.282365 -0.3439,-0.448888 -0.15204,-0.249784 1.00275,-0.206344 1.66885,-0.60455 0.45613,0.293225 0.48871,0.611791 0.24616,0.524908 0.0434,0.970177 0.1991,0.155663 0.81452,-0.325806 0.36562,0.390967 0.62628,0.466988 1.08601,0.463367 1.56387,-0.727632 0.77831,-0.188243 0.64075,0.01448 0.34753,0.228064 0.12308,0.752973 -0.1267,0.930356 -0.181,0.510428 0.32942,0.369246 1.2815,0.894156 0.53215,0.495948 -0.25702,0.857955 0.9557,2.096015 0.32218,0.814514 z"
     title="Azerbaijan"
     id="AZ"
     style="stroke-width:3.62006" />
  <path
     d="m 263.24035,219.40774 -0.32942,0.85795 -0.31495,-0.30046 -0.79641,-1.48423 0.23892,-1.04258 -0.37287,-1.49146 0.17739,-0.42717 0.95569,-0.1991 0.22083,0.0652 -0.28599,0.47785 0.52853,0.83261 0.0796,1.37201 z"
     title="Bahrain"
     id="BH"
     style="stroke-width:3.62006" />
  <path
     d="m 484.61275,644.9594 -0.051,0.023 -0.127,-10e-4 -0.043,0.006 -0.063,0.047 -0.02,-0.02 -0.023,-0.036 -0.01,-0.094 0.028,-0.105 0.041,-0.049 0.072,-0.043 0.058,-0.025 0.056,-0.01 0.03,0.003 0.105,0.077 0.008,0.055 -0.016,0.068 -0.017,0.049 z"
     title="Bouvet Island"
     id="BV" />
  <path
     d="m 99.218991,104.9595 -5.29615,3.74314 -0.343906,1.11136 0.235304,0.76745 0.745733,0.93036 0.195483,0.24254 0.267885,0.70592 -1.1548,0.20996 -1.158419,0.0688 -0.644371,-0.0941 -0.608171,0.0434 -1.878811,2.01637 -1.009998,0.6842 -1.20186,0.40544 -1.223581,0.24255 -0.61541,0.0326 -0.543009,0.2534 -0.380107,0.46699 -0.0072,0.45251 -0.162903,0.37286 -0.673331,-0.076 -0.278745,-0.73125 -0.477848,-0.31495 -1.191,0.16291 -0.57921,-0.0217 -1.904152,-0.69506 -0.57559,-0.2896 -0.358386,-0.59731 -0.981037,-2.15756 -0.162902,-1.60368 0.912255,0.41268 0.854335,-0.49957 0.821754,-0.81451 0.981036,-0.33305 0.611791,0.14481 0.60817,0.1448 1.093258,-0.26064 0.470608,-1.20911 0.155663,-1.3901 1.846231,0.39821 1.875192,0.20634 1.531286,0.0688 1.513186,-0.22444 4.630058,-1.48785 1.310462,-0.89053 0.814514,-0.30409 1.408204,-0.73487 1.473368,-0.40907 z"
     title="Cyprus"
     id="CY"
     style="stroke-width:3.62006" />
  <path
     d="m 96.525665,156.75172 0.148423,0.35838 0.333045,0.9919 0.843475,2.51956 0.738492,1.96932 0.901396,2.72228 0.282364,1.04258 0.119462,0.72039 1.310458,2.98293 0.77832,2.44354 0.56835,1.9838 0.80365,2.88881 0.34753,1.00637 -0.56835,0.52491 -1.1367,1.87157 -1.21272,5.92604 -1.734012,4.60834 -0.195483,2.87795 -0.278745,1.03534 -0.825374,1.45526 -0.999137,1.42269 -1.77745,-0.73488 -2.896049,-2.50508 -1.686949,-2.382 -1.81003,-1.54214 -1.708669,-2.04534 -0.466988,-1.47336 0.0181,-0.94846 -0.745733,-2.31322 -0.553869,-1.09688 -2.085155,-2.46526 -0.59731,-1.3177 -0.456128,-0.58283 -0.459748,-0.83262 -0.756593,-3.21823 -0.825374,-2.04896 -0.941216,0.56835 0.166523,0.86158 -0.821754,1.191 -0.495948,1.37924 0.380106,1.12584 1.705049,1.71229 0.343906,0.74935 0.398207,1.61817 -0.06516,2.19738 0.275124,0.74211 1.277882,1.62903 0.456128,0.96655 0.275124,0.83262 0.423547,0.75297 1.267022,1.41183 1.820891,2.68608 1.726769,1.81003 1.248921,0.87244 0.528529,0.87243 0.119462,2.24806 -0.09412,1.07154 1.096878,2.01637 0.405447,1.01724 1.057058,0.82899 0.485088,0.94484 0.445268,1.53853 0.669711,4.53593 0.919496,1.11136 2.841748,5.93328 2.39648,3.73952 1.15842,2.78745 1.77021,3.38114 3.4644,7.3994 2.05981,2.2734 0.82176,1.27788 1.49146,0.98104 1.61455,1.41907 -1.53853,-0.13757 -0.39096,0.0833 -0.53939,0.24255 -0.25703,0.86157 -0.11222,0.7023 0.18824,3.71056 0.42355,1.88967 1.3539,3.56576 1.01,1.06792 0.49233,0.69143 0.68781,0.50319 3.211,1.21634 1.87881,2.563 4.22099,3.23634 0.41269,0.89415 0.0109,0.20635 -3.33408,0.004 h -3.33408 -3.33407 -3.33408 -3.33046 l -3.33769,0.004 h -3.33046 -3.334074 -3.334077 -3.334076 -3.334077 -3.330456 l -3.334077,0.004 H 77.017197 73.68312 70.349044 68.448511 l 0.325806,-0.97018 0.199103,-0.68419 -0.224443,-0.47785 -0.647991,-0.11946 -0.423548,0.15204 -0.995516,2.03086 -0.521289,0.0796 h -1.18376 -3.880706 -3.884326 -3.880706 l -3.880706,-0.004 H 45.569682 41.688976 37.80827 33.927564 l -3.880706,-0.004 H 26.162532 22.281826 18.40112 14.520415 10.639709 l -3.8843255,-0.004 h -3.880706 v -2.44716 -2.45441 -2.45802 -2.45802 -2.46526 -2.46888 -2.47251 -2.47612 -2.48336 -2.48336 -2.4906 -2.49785 -2.49784 -2.50508 -2.5087 -2.51233 -2.51956 -2.52318 -2.5268 -2.53043 -2.54128 -2.54128 -2.54853 -2.55214 -2.55938 -2.56301 -2.57024 -2.57386 -2.58111 -2.58472 -2.59196 -2.59559 l -0.086881,-0.48509 -0.5647296,-1.77021 -0.5104287,-2.25168 -0.5574894,-2.77296 -0.072401,-0.9014 -0.93397587,-2.86709 -0.08688147,-0.81451 0.23530399,-0.57921 1.53490605,-2.42182 0.4633678,-1.18014 0.3873466,-1.41544 0.1303222,-1.15118 -0.4525077,-1.76659 -0.5285289,-1.58921 -0.177383,-1.62903 -0.076021,-1.60369 0.7855533,-1.09687 0.9412159,-1.0281 0.351146,-0.62989 0.5574894,-0.70953 0.3909667,-0.33305 0.7638329,1.44078 1.592827,0.24617 5.1911683,-1.2815 5.730557,1.29236 3.160313,0.49233 4.872603,1.09688 2.96483,1.95483 0.814514,0.24616 2.132216,-0.0398 1.397344,1.1548 5.560415,0.55387 2.96845,1.27064 1.683328,1.01362 1.009998,0.31132 0.894155,-0.0507 1.20548,-0.3801 1.524046,-0.71315 1.654368,-0.9919 3.435438,-2.55214 1.216341,-0.44889 0.792793,0.11946 0.966557,-0.0362 0.401826,-0.69143 0.510429,-0.47423 0.318565,-0.53939 0.521289,-0.65161 1.788311,-0.181 3.58024,-1.11498 -0.401826,0.52853 -3.261676,1.24892 1.397344,0.15566 1.429924,-0.42717 1.632648,-0.2715 0.296845,-0.53215 0.213583,-0.99552 0.311326,-0.14118 1.129459,0.18824 3.355797,1.53491 0.836234,0.029 2.3639,-0.83623 0.503189,-0.17739 0.767453,0.46337 1.744869,1.90777 -0.60817,-0.0398 -1.867952,-1.63627 -0.166523,0.81814 -1.064298,1.43354 1.328563,0.61903 1.082398,0.23169 0.57921,0.80003 0.365626,0.70953 1.067918,-0.31132 0.763833,-0.96656 -0.398207,-0.53939 -0.267884,-0.55749 0.347526,-0.0145 0.742112,0.45975 2.124976,1.83537 0.716773,0.38011 0.825374,-0.0652 1.726769,-0.51405 0.481468,0.0796 2.316839,-0.67695 0.271505,0.49595 0.383726,0.49232 1.867952,-0.55025 2.92863,0.007 2.4001,-0.59731 2.780207,-1.45526 z"
     title="Egypt"
     id="EG"
     style="stroke-width:3.62006" />
  <path
     d="m 220.79513,23.175073 -0.24616,0.485089 -0.58283,0.879675 -0.46337,0.448887 -0.51405,0.0724 -0.51043,0.206344 -0.17738,0.470608 -0.0217,0.60817 0.0869,0.438028 0.13032,0.162902 0.52129,0.144803 0.51405,1.277882 0.80727,0.64437 1.25979,0.731253 1.11859,0.836234 0.54663,0.767453 -0.10498,0.557489 -0.36562,1.15118 -0.93398,0.959316 -0.77831,0.242544 -0.27513,-0.0905 -0.50681,-0.296845 -1.02447,-0.742113 -1.11136,-0.58645 -0.85434,0.191864 -0.56111,0.220823 -1.11136,-0.260644 -1.31408,-0.506809 -0.68419,-0.499568 -0.30046,-0.369246 0.20272,-0.655232 -2.97931,-1.18376 -1.43717,-0.329425 -0.64799,0.358386 -2.19013,1.78107 -0.26065,0.181003 -1.67247,0.246164 -0.004,0.144803 0.38011,0.383726 -0.0724,0.119462 -2.80555,0.03982 -0.93398,0.231684 -2.49784,-0.300465 -0.82175,0.133942 -0.70229,0.278745 -1.70867,0.318565 -1.18014,0.372866 -1.50595,0.195484 -1.553,0.0181 -0.53215,0.112222 0.0217,-0.257024 -0.0833,-0.394587 -0.31495,-0.285985 -0.44165,-0.181003 -0.81089,0.06878 -0.74935,-0.191863 -0.53215,-0.499568 -0.12308,-0.383727 0.3077,-0.311325 -0.22444,-0.257025 -0.93398,-0.61541 -1.52767,-1.538526 -0.86519,-0.343906 -0.34391,-0.966556 -0.3439,-0.206344 -0.72763,-0.0905 -0.76746,0.09412 -0.16652,0.108602 -0.2353,0.155663 -0.60093,1.20548 -0.42355,0.409067 -1.03534,-0.191863 -0.85795,-0.282365 -0.69867,-0.159283 -1.35753,-0.101361 -1.54214,-0.02172 -1.03896,0.857955 -0.44889,-0.112222 -0.78917,-0.419927 -1.27426,-0.347526 -0.67334,-0.271505 1.9476,-2.544903 0.57921,-1.516806 0.0181,-0.919495 0.0253,-1.15842 -1.01362,-2.410961 -0.86881,-3.431818 -0.90502,-3.591101 -0.70591,-1.078778 -2.95035,-1.248921 -0.68419,-1.4190642 -2.28426,-1.8353711 -3.1748,-0.8000336 -0.62989,-0.3402857 -2.75848,-2.3168393 -2.15756,-1.4950853 0.46337,-0.9050154 0.61541,-0.95569617 0.66609,-0.23168393 1.95121,0.37648638 1.79917,0.4307873 1.31047,-0.30770521 1.56024,0.75297273 1.42631,0.8615746 1.43354,0.6081703 2.79469,0.5755898 1.04258,0.7927934 1.21634,0.7927935 4.76762,0.4018268 0.38372,-0.1230821 0.35115,-0.115842 1.60007,-0.2859848 1.41544,0.050681 1.49509,0.9629364 0.95569,-0.057921 1.02086,-0.1448025 1.31408,0.5140487 1.03172,0.5719697 0.0869,0.5755898 0.90502,0.8398542 2.62816,1.2778817 2.13222,0.724012 0.66247,0.506809 1.62179,0.836234 0.1629,0.264264 -0.0326,0.343906 -0.46337,0.626271 -0.11584,0.553869 0.2172,0.322186 0.67333,0.304085 1.33219,0.06878 0.48146,-0.398207 0.99552,-0.285985 0.98828,-0.514048 1.3177,-0.684192 1.79193,-0.622651 h 0.71677 l 0.68781,0.191864 0.48147,0.343906 0.80728,1.277881 0.80727,-1.78831 0.20634,-0.133942 0.7385,0.362006 1.2996,0.495948 0.90139,0.264265 0.48871,0.369246 1.37562,1.629027 2.22634,-0.08326 0.94122,0.249784 0.50681,0.267885 0.22444,0.314945 -0.39821,1.614548 -0.55025,1.679708 0.0471,0.401827 0.89053,0.633511 1.21634,0.666091 0.65161,0.535769 0.44527,0.481468 0.95932,0.365626 1.13308,0.224444 0.53576,0.02896 0.56111,0.405446 1.45889,0.756593 z"
     title="Georgia"
     id="GE"
     style="stroke-width:3.62006" />
  <path
     d="m 112.67114,139.90757 -0.53577,0.0724 -1.25254,0.56111 -0.17014,0.17014 -0.22083,0.32581 -0.0398,0.24978 -0.17738,2.69333 -0.68057,-0.076 -0.829,-0.58645 -0.1629,-0.50681 -0.24978,-0.17376 -0.59369,-0.0652 -1.12222,-0.25703 -1.30323,0.88692 -0.55386,1.4625 -0.11223,0.68419 -0.44164,1.43355 0.15566,0.88329 0.076,1.14032 0.11222,0.93036 -0.11584,0.56111 -0.24978,0.29684 0.0724,0.21359 0.22444,0.0796 0.71315,-0.25341 0.74936,0.25341 0.72039,0.48147 0.0579,0.31132 -0.51043,0.18462 -1.20548,0.72764 -0.85072,0.84347 -0.22082,0.77831 -0.57559,1.65799 0.0796,0.34029 0.27875,0.1991 1.96207,-0.17738 1.78469,-0.66971 1.34304,-0.71316 0.42355,0.0434 -0.28236,1.82452 0.007,0.007 -0.23169,1.11497 0.0905,0.18825 0.30409,0.97017 -0.57559,1.77021 -0.63713,1.44079 -0.22445,0.68057 -0.62265,1.51681 -0.63713,1.75573 -0.34028,1.2091 0.076,0.42716 -0.15566,2.21186 0.0905,0.62627 -0.74573,1.91501 -0.14843,0.94484 -0.30046,1.27788 -0.51405,2.70057 -0.70229,0.90501 -0.34753,-1.00637 -0.80365,-2.88881 -0.56835,-1.9838 -0.77832,-2.44354 -1.310458,-2.98293 -0.119462,-0.72039 -0.282364,-1.04258 -0.901396,-2.72228 -0.738492,-1.96932 -0.843475,-2.51956 1.046198,-0.99914 0.0181,-0.82537 1.78107,-1.93311 -0.01448,-0.18825 -0.474228,-0.51405 0.06878,-0.0869 1.972937,-3.6092 1.27426,-3.58386 1.19824,-5.00654 0.85433,-2.55215 0.72402,-1.69419 0.31856,-1.40458 1.16566,-0.0977 0.86882,0.14842 1.04257,0.0471 0.83262,-0.52853 0.39821,-1.58196 0.47422,-0.25703 0.24255,0.37649 0.24616,-0.41631 1.08964,-0.69867 0.53939,-0.44889 0.53939,-0.55387 0.2896,-0.1991 -0.181,0.74211 -0.1448,0.48509 v 0.63351 l 0.22082,0.34753 0.30047,0.68781 0.18462,0.68781 -0.39097,0.56835 0.0362,0.59369 0.10499,0.49957 0.31856,0.58283 -0.57197,1.04981 -0.56473,0.96294 z"
     title="Israel"
     id="IL"
     style="stroke-width:3.62006" />
  <path
     d="m 203.88582,85.501669 v 0.09412 l 0.33667,0.901396 0.83623,3.348556 0.47785,0.423548 0.54301,0.354766 0.38373,0.495948 0.15204,0.499568 -0.0471,0.774694 0.0181,0.897775 0.22444,0.687811 0.31133,0.521289 0.2896,0.260645 0.43441,0.02534 0.52129,0.126702 0.35115,0.517669 1.1186,3.775724 0.10498,0.492328 0.47061,0.159283 0.77107,-0.0724 0.79279,0.390969 0.8471,0.60817 0.79641,1.14756 0.53577,0.18462 1.67971,-0.17014 2.29512,0.18462 1.07515,0.59007 -0.1086,0.36563 -0.82899,0.40544 -1.45889,0.47785 -0.43078,0.80728 -0.24255,1.04619 0.0434,0.58645 0.35839,0.64437 1.0281,1.28151 0.0579,0.46336 0.18462,0.64437 0.19186,0.44165 -0.21358,0.85072 -0.93398,0.59007 -1.2272,0.63713 -2.46526,2.83813 -0.18462,0.61179 0.0145,1.67246 -0.24616,0.47785 -0.77832,-0.007 -0.60817,-0.0869 -0.0326,0.58283 -0.38735,0.78193 -0.22082,0.67696 0.90502,1.59644 0.1629,0.8471 -0.1448,0.77107 -0.83986,1.32494 -0.49595,0.89054 0.11947,0.1991 0.65523,0.35477 2.03447,2.90691 0.65523,1.02085 0.86158,-0.26788 0.32218,0.0181 0.24979,0.1629 0.15566,0.34391 v 0.4344 l -0.2172,0.65162 1.09687,0.26426 0.39459,0.65885 1.27788,2.25168 -0.0471,0.66971 -0.61179,1.06068 -0.007,0.70229 0.13032,0.62989 0.19911,0.22083 1.88605,0.0905 0.80003,0.2534 1.95846,1.14394 2.22995,1.75573 1.82089,1.43716 1.55301,1.21997 1.66523,-0.0869 0.45251,0.22083 0.41992,0.3801 0.47785,1.00276 0.95208,2.26254 0.81089,0.74935 1.24892,1.80641 1.1729,1.69057 -0.77107,2.29512 -0.75659,2.382 v 3.06257 1.64351 l 1.59282,0.0688 1.77021,0.0796 0.0145,1.95846 0.0145,1.96569 0.0145,2.2372 0.52129,0.0941 0.82538,0.48147 0.35476,0.72401 0.44165,0.39459 0.53939,0.0652 0.52853,0.35476 0.52491,0.64799 0.19186,0.48509 -0.14118,0.33667 0.11222,0.58645 0.36563,0.83985 0.44526,0.39459 0.69144,0.48509 -0.9376,0.27874 -1.01362,-0.21358 -2.16117,-0.98104 -0.7023,-0.029 -0.91587,0.37287 -0.0398,0.33304 -2.28426,-1.09688 -0.82175,-0.22082 -0.29685,-0.0217 -1.31046,0.0109 -1.86433,0.1991 -1.09688,0.44527 -0.76021,0.47061 -0.34753,0.46337 -0.12308,0.24978 -0.59369,1.36476 -0.68781,1.74849 -0.71316,1.57111 -1.38648,2.20824 -0.76745,1.01724 -1.64713,1.88967 -1.78107,0.3801 -4.13049,-0.37286 -4.57938,-0.41631 -4.55766,-0.40907 -3.39199,-0.3077 -0.26065,-0.10136 -3.35579,-2.70057 -2.64989,-2.13946 -3.31236,-2.67522 -3.38113,-2.74039 -3.43182,-2.78382 -2.49422,-2.02724 -3.02637,-2.61368 -2.75487,-2.38562 -2.17566,-1.88968 -2.79107,-1.65074 -2.17927,-1.29599 -3.17842,-1.88605 -2.53766,-1.50956 -2.17566,-1.29598 -3.34855,-1.99828 -1.11136,-0.54301 -3.47164,-0.66971 -3.29064,-0.56473 -3.40647,-0.58645 -2.26616,-0.39097 1.49508,-1.4263 -0.45975,-1.2815 -1.08963,0.2353 -1.00276,0.30409 -0.60817,-1.99466 0.77469,-0.24978 -0.71677,-2.61006 -0.73487,-2.69333 -0.70953,-2.61006 -0.72764,-2.67523 2.87795,-1.71953 2.15032,-1.28512 3.00827,-1.80279 2.89967,-1.74125 2.76211,-1.66161 3.04447,-1.83537 2.72228,-1.64351 2.49423,-0.66971 0.52852,-0.51767 1.1367,-2.25168 0.9738,-1.92587 0.0471,-0.44527 0.004,-2.74038 0.17014,-3.22548 0.32219,-1.72677 0.56111,-1.53128 0.51405,-1.1186 0.0543,-1.0462 -0.0688,-1.0643 -0.53215,-1.61092 -0.55387,-1.683333 0.0615,-1.621787 0.10136,-0.868815 0.34753,-1.393724 0.59369,-1.020857 0.63713,-0.629891 2.36752,-0.651611 1.4082,-0.387346 1.88243,-1.810031 1.1186,-1.078778 1.55663,-1.708669 1.14756,-1.259782 0.0905,-0.438027 v -0.170143 l 0.98466,-0.257024 1.82089,-1.531286 1.07516,-1.429924 0.34028,-0.126703 0.95932,0.466988 0.68781,0.130322 1.58197,-0.543009 0.94121,0.285985 0.7928,0.362006 0.44164,0.02534 2.12498,0.890535 0.53215,0.108602 1.09326,0.108601 1.63264,0.05068 1.05344,-0.58283 0.74212,-0.561109 0.52128,0.01448 0.50681,0.133942 0.42717,0.238925 0.35839,0.419927 0.17014,0.60093 -0.0688,1.915012 0.15928,0.503189 0.28961,0.362006 0.36562,0.06878 0.44527,-0.416307 0.77469,-0.60455 0.9557,-0.658851 0.70953,-0.604551 0.40907,-0.228063 0.64075,0.03258 0.62627,0.104982 z"
     title="Iraq"
     id="IQ"
     style="stroke-width:3.62006" />
  <path
     d="m 204.41435,53.1166 0.21359,0.282365 1.64713,2.696945 0.72401,0.792794 0.42354,0.673331 0.28599,0.749353 0.50319,0.506809 0.66609,0.275124 0.80727,0.724012 0.54663,0.56473 0.91588,1.16928 0.97017,0.434407 3.52232,0.843474 1.95846,0.390967 0.56473,0.112222 1.4987,-0.56473 1.75573,0.07602 0.65161,0.02896 2.32046,-2.382 0.70591,-0.796414 1.38287,-0.412687 0.77831,-0.952076 1.24892,-1.151179 1.52405,-1.086019 1.40096,-0.977416 1.07154,-0.59007 1.94035,-1.382864 1.21272,-0.477848 1.05344,0.01448 1.57835,1.621788 1.32856,1.473365 0.40907,0.644371 -0.65885,0.57921 -1.23082,0.557489 -0.23531,0.409067 -0.0833,0.524909 0.0471,0.499568 0.16652,0.409067 1.50957,0.944836 0.17014,0.521289 0.0109,0.528529 -0.17014,0.329426 -0.33667,0.191863 -1.04981,0.264264 -0.9014,0.307706 -0.31132,0.300465 -0.27151,0.358386 0.0398,0.398207 0.27151,0.452507 1.84261,1.230821 0.20996,0.452508 0.36563,0.60817 0.4525,0.372866 0.76746,0.101362 0.36924,0.249784 1.78107,2.266159 0.43441,0.159282 2.08154,-0.499568 0.2896,0.02172 0.0181,0.55387 0.31133,3.207374 0.23892,1.654368 0.35839,1.603687 0.56111,1.462505 0.66609,1.386484 0.91949,0.854334 2.04172,1.028098 0.9919,0.296845 2.61006,0.206343 2.57748,0.452508 1.52043,0.481468 0.46699,0.340286 0.38372,0.521288 1.25978,2.418201 1.9838,1.71953 4.00379,2.573863 1.94035,0.854335 6.53783,1.614547 4.35131,-0.0905 12.02585,-3.116873 3.99655,-0.778313 h 1.50232 l -0.89415,0.61903 -1.50233,0.354766 0.90502,0.438027 1.40096,0.0724 0.64799,-0.0724 0.47061,-0.394586 0.076,-0.655231 -0.0688,-0.647991 -0.66247,-2.90691 -0.38373,-2.056194 2.82003,0.141182 1.09688,-0.267885 1.61454,-0.687811 1.22358,-0.416307 0.61542,-0.05792 0.60817,-0.322186 0.46698,-0.405447 1.04982,-2.820027 0.52491,-0.709532 1.78107,-1.592827 1.51319,-1.009998 1.58558,-0.897775 2.00914,-0.62627 2.66798,0.06516 2.12498,0.220823 1.23082,-0.01086 0.58283,0.06516 0.43803,-0.0905 0.2534,-0.184623 0.27513,-1.238061 0.4344,-0.405447 0.74936,-0.347526 h 1.04981 l 1.2815,-0.0905 1.0643,0.08326 1.33943,0.474228 1.74849,0.03982 1.16566,-0.08326 0.67695,0.474228 0.4887,0.633511 0.23531,0.528529 0.0543,0.724012 -0.0109,0.550249 0.18462,0.213584 0.70953,0.329426 0.98828,0.246164 1.92225,0.296845 1.80641,0.57197 0.9376,0.387346 1.30322,0.60455 1.55301,1.502326 0.57559,0.235304 0.69505,0.152042 0.49595,-0.03982 1.16566,-0.633511 1.01362,0.466988 0.51404,-0.06154 1.16566,-0.347526 1.23807,0.434407 3.08429,1.643508 0.34028,-0.0362 0.27875,0.166522 0.25702,0.376487 0.18101,0.463368 0.22806,1.411824 0.89053,1.031717 1.08964,0.937596 1.27064,0.514049 2.65351,1.2272 1.15842,0.995517 1.1729,1.686949 1.44802,2.219098 0.20997,0.202723 3.72142,-0.06878 4.18479,0.0036 0.51043,0.886915 -0.0941,1.75573 0.14842,1.79917 0.37649,1.241681 0.004,1.14394 -0.30047,0.579209 -0.2353,0.662472 -0.0688,0.289605 0.53577,0.41268 0.4706,0.94846 0.0688,1.32132 -0.23169,0.69867 0.0326,0.57921 0.23531,0.49233 0.20272,0.82176 -0.0362,0.49595 -0.33667,0.49232 -0.20272,0.61541 -0.26789,0.77832 -0.0977,0.61541 -0.50681,0.28598 -0.40182,0.20635 0.0688,0.77831 0.20272,0.65523 0.23531,0.77469 -0.26789,0.53215 -0.17014,0.61179 -0.37287,0.98104 0.10136,0.81451 -0.40182,0.69144 -0.50681,0.61179 -0.33667,0.4887 -0.0688,0.69144 -0.36924,0.24254 -0.70592,0.56835 -0.4344,0.40545 -0.64075,0.12308 -0.13395,0.3258 0.10137,0.32219 0.26788,0.20272 0.41631,0.70229 0.86881,1.2091 -2.50508,0.15205 -0.73487,1.06792 -0.85796,1.52766 0.41993,3.08429 -0.41993,1.58197 0.25341,0.88692 0.64075,0.61179 0.82175,0.34028 1.54215,0.0217 1.02085,0.23893 0.10137,0.40906 -0.58645,0.59731 -0.9376,1.1186 -0.49957,0.48871 -1.59645,2.24444 0.0145,0.95569 0.14842,0.77108 0.68781,2.41458 0.67333,2.33494 1.20548,4.19927 -0.0217,0.9738 -0.37649,2.15755 -0.0253,1.31046 0.17015,1.69781 -0.12671,0.87606 0.29685,1.96207 0.33667,0.14118 2.61006,0.38011 2.39286,0.35115 3.18927,0.46336 0.96656,1.14756 0.60093,2.51595 -0.0362,1.87881 -0.2715,0.95931 -2.28064,2.73315 -2.31684,2.76573 -2.31322,2.75486 -2.39648,2.84899 -0.24979,0.30047 1.93674,2.2734 1.19824,1.40458 1.69057,1.97293 0.21358,0.47423 -0.0145,0.77469 1.73401,2.99742 0.61179,1.56024 0.55025,0.91588 1.372,1.42992 1.33942,1.39373 1.45165,0.63713 0.9919,0.14118 2.25891,0.73487 0.82538,0.58645 1.32494,1.47699 1.55663,-0.20273 h 0.32218 l 0.0869,0.10498 0.0471,0.47423 -0.22806,2.2915 0.43079,2.30598 0.30046,3.4644 -0.11222,0.59731 -0.37287,0.99914 -0.0181,0.64075 -0.0977,0.39458 0.10136,0.17377 0.49595,0.2353 1.05706,0.1267 2.55214,-0.38734 0.29685,0.0977 0.61179,0.40906 0.45975,0.64076 0.0398,0.30408 -0.64437,0.53215 -0.10499,0.90139 0.19187,1.35029 -0.0869,0.1629 -0.56473,0.30409 -0.18463,1.94759 -0.10136,0.17738 -0.65885,0.19911 -3.11325,-0.13395 -0.35477,0.0543 -1.16928,0.51405 -2.00551,0.36925 -0.55025,0.20996 -0.73849,0.58645 -0.53215,0.71315 -0.10136,0.65886 -0.10499,0.13756 -1.14756,-0.13394 -0.37648,0.57197 -2.22634,0.85433 -0.27512,0.18462 -0.32943,0.68057 -0.29684,1.90778 -0.26789,1.71229 -0.17014,0.24978 -0.70229,0.58645 -0.0688,0.1991 0.0941,0.66247 -0.31857,1.20549 -0.24978,3.34131 -0.27875,0.93398 -0.55387,0.076 -0.4344,0.46699 -0.79642,0.57559 -1.71953,-0.44527 -1.36476,-0.46699 -4.51784,-1.09688 -0.49595,-0.53215 -0.28236,-0.93759 -0.78193,-0.26427 -1.12222,1.40459 -3.81555,-0.8109 -1.29598,0.24979 -0.80003,-0.43803 -2.0562,-0.0253 -1.62179,-0.87606 -2.32769,0.60093 -1.839,0.11585 -2.52318,-1.53491 -2.71142,-0.42355 -2.201,0.13033 -1.13308,-0.11947 -1.83537,-0.55025 -0.86882,-0.56835 -1.42992,0.43441 -0.64437,-0.80727 -4.04361,-0.74935 -0.74935,-1.42993 -0.56111,-1.32856 -0.0434,-1.36838 -0.98466,-2.39648 -0.32943,-3.48612 -0.36562,-1.36477 -0.54663,-1.18738 -0.72763,-1.00999 -0.98828,-1.0824 -0.86157,-0.43079 -3.77935,-0.82537 -0.72763,0.1086 -1.69057,0.53939 -1.79917,1.19824 -2.95397,0.68057 -0.59369,0.51405 -0.74211,1.15842 -0.96294,0.67333 -1.3177,-0.17376 -1.41907,0.68419 -2.63178,1.90777 -1.38648,0.58283 -1.16204,-0.0434 -1.24892,-0.90502 -2.79107,-1.21634 -1.80641,-0.40544 -2.50509,0.27874 -1.18738,-0.20272 -2.01637,-1.42993 -0.52853,-1.03895 -1.15118,-0.69506 -3.64902,-1.56024 -2.95397,-2.06344 -0.54301,-0.78193 -0.36201,-1.1548 -1.28512,-1.40458 -2.88519,-1.14756 -1.63626,-1.22358 -1.91864,-0.27513 -1.78469,0.0398 -0.78555,-0.22082 -0.71315,-0.52491 -2.4363,-2.53404 -0.029,-1.00276 -1.50233,-2.48336 -0.35114,-0.88692 -0.32219,-2.46526 -0.41631,-0.64437 -1.56748,-1.01724 -0.24255,-0.66609 0.33305,-0.88691 v -0.67334 l -0.81452,-0.63351 -1.22358,-0.33666 -0.29684,-0.76022 0.22444,-1.4806 -0.18462,-0.93036 -1.07878,-1.48784 -1.59283,-1.52405 -1.5892,-2.25892 -0.62265,-0.56473 -0.40545,-1.4806 -0.58283,-1.75935 -0.89778,-0.1267 -4.35131,2.11049 -1.27064,-1.18738 -3.81555,-2.06343 -0.26426,-0.31133 -0.26789,-0.47422 0.48147,-0.27513 0.47785,-0.11222 0.95932,0.36924 0.57559,-0.4344 -0.22807,-0.70229 -0.95931,-0.43441 -1.30323,0.0326 0.35839,0.65885 -1.21996,0.62265 -0.26064,0.81451 0.17738,1.01 0.10498,1.41183 -0.49595,0.68057 -0.38372,0.31494 -1.63989,0.0833 -0.76745,0.62265 -0.49595,0.14843 -0.69144,-0.48509 -0.44526,-0.39459 -0.36563,-0.83985 -0.11222,-0.58645 0.14118,-0.33305 -0.19186,-0.48871 -0.52491,-0.64799 -0.52853,-0.35476 -0.53577,-0.0652 -0.44527,-0.39459 -0.35476,-0.72401 -0.829,-0.47785 -0.52128,-0.0941 -0.0145,-2.24082 -0.0145,-1.96569 -0.0145,-1.95846 -1.77021,-0.0796 -1.59282,-0.0688 v -1.64351 -3.06619 l 0.75659,-2.382 0.77107,-2.29512 -1.1729,-1.69057 -1.24892,-1.80641 -0.81089,-0.75297 -0.95208,-2.26254 -0.47423,-1.00276 -0.41992,-0.3801 -0.45251,-0.22083 -1.66161,0.0869 -1.55301,-1.21996 -1.82089,-1.43354 -2.22633,-1.75573 -1.96208,-1.14756 -0.80003,-0.2534 -1.88605,-0.0869 -0.19911,-0.22082 -0.13032,-0.62989 0.004,-0.70229 0.61179,-1.06068 0.0471,-0.66971 -1.27788,-2.25168 -0.39459,-0.65885 -1.09325,-0.26426 0.2172,-0.65162 v -0.4344 l -0.15566,-0.34391 -0.25341,-0.1629 -0.32218,-0.0181 -0.85796,0.26788 -0.65523,-1.02085 -2.03809,-2.90691 -0.65523,-0.35477 -0.11947,-0.1991 0.49595,-0.89416 0.83986,-1.32494 0.1448,-0.76745 -0.15928,-0.8471 -0.90502,-1.59645 0.22083,-0.67695 0.38734,-0.77831 0.0326,-0.58645 0.60817,0.0869 0.77832,0.007 0.24616,-0.47785 -0.0145,-1.67246 0.18462,-0.6118 2.46888,-2.83812 1.22721,-0.63713 0.93397,-0.58645 0.21358,-0.85434 -0.19186,-0.44165 -0.18462,-0.64437 -0.0579,-0.46336 -1.0281,-1.28151 -0.35839,-0.64437 -0.0434,-0.59007 0.24255,-1.04258 0.43078,-0.81089 1.45889,-0.47785 0.82899,-0.40544 0.11223,-0.36563 -1.07516,-0.59007 -2.29512,-0.18462 -1.67971,0.17014 -0.53577,-0.18462 -0.79641,-1.14394 -0.8471,-0.60817 -0.79279,-0.390968 -0.77107,0.0724 -0.46699,-0.155663 -0.1086,-0.492328 -1.11498,-3.775724 -0.35115,-0.517669 -0.52129,-0.126702 -0.43802,-0.02534 -0.28961,-0.260644 -0.31132,-0.521289 -0.22445,-0.684192 -0.0145,-0.901395 0.0471,-0.774693 -0.15204,-0.499568 -0.38373,-0.495949 -0.54301,-0.358386 -0.47784,-0.419927 -0.83624,-3.348557 -0.33666,-0.901395 v -0.09412 l 0.0145,-0.177383 -0.0833,-0.771073 0.38735,-0.669711 -0.0253,-0.264265 -0.80365,-0.847094 -1.12946,-0.847094 -0.30409,-0.148423 -0.007,-0.905015 0.0398,-0.684192 -0.10136,-0.61903 -0.2172,-0.354766 -0.007,-0.278745 0.45251,-0.666091 -0.29323,-0.438028 -1.66161,-1.082398 -0.62265,-0.543009 -1.15118,-0.108602 -0.11946,-0.358386 0.181,-0.756593 0.39459,-0.919496 0.62265,-0.905015 0.1991,-0.477848 0.24255,-0.814514 0.0833,-0.57921 0.69867,-0.814513 0.004,-0.213584 -0.19548,-0.293225 -0.55749,-0.162903 -0.57197,-0.06878 -0.21358,-0.148423 -0.076,-0.438027 0.0724,-1.78107 -0.18101,-1.071538 -0.2353,-0.778313 0.14842,-1.75573 -0.39821,-0.354766 -0.62627,-0.923116 -0.26788,-0.781933 0.1448,-0.293225 0.13394,-0.514049 0.0869,-0.676951 -0.0254,-0.477848 -0.57559,-0.466988 -0.42716,-0.492329 -0.0507,-0.543009 -0.17015,-0.666091 -0.24254,-0.528529 -0.1086,-0.343906 0.20996,-0.202723 0.81452,-0.159283 1.18376,0.112222 0.96655,0.0072 0.54663,-0.340286 0.67695,-3.210994 0.61903,-0.847095 0.71678,-0.492328 1.40096,1.143939 0.57921,0.401827 z m 115.5234,154.58024 -0.94845,1.35752 -1.42993,1.13308 -0.60817,-0.35114 -0.47423,0.0145 -1.02085,0.4344 -0.73488,0.076 -1.3358,0.77108 -1.21634,0.38734 -0.84347,-0.029 -0.29323,-0.0796 -0.16652,-0.52491 0.0145,-0.20996 0.51405,0.1086 1.87881,-0.70229 2.34218,-1.15118 0.22444,-0.51405 -0.37648,-0.83623 0.10136,-0.18825 1.52042,0.42717 1.69781,-0.83261 1.41907,-0.22807 0.66609,0.57921 z"
     title="Iran"
     id="IR"
     style="stroke-width:3.62006" />
  <path
     d="m 146.79022,147.22009 -1.50595,1.39373 -0.35476,0.15204 -1.95846,0.57559 -4.00379,1.18014 -2.68246,0.78917 -3.43182,1.00638 -2.84899,0.83986 -2.82003,0.82537 -2.61368,0.76745 1.49147,1.61455 2.27701,2.46526 1.52043,1.63989 1.79193,2.10688 1.60007,1.87881 1.69781,1.98741 -1.191,0.67333 -1.96208,1.10774 -0.1991,0.20272 -0.17014,0.20635 -0.8109,1.97293 -0.63713,1.55301 -0.22082,0.19186 -2.73677,0.57197 -2.76934,0.57197 -1.74487,0.36563 -0.52491,0.3982 -1.1367,1.9295 -1.17652,1.98379 -1.96208,1.62179 -2.17927,1.79555 -0.53939,0.11584 -1.57473,-0.27513 -2.69332,-0.4706 -2.60283,-0.45613 -1.78107,-0.30771 -2.16118,-0.3801 0.31495,-1.51681 -0.0869,-0.82175 0.51405,-2.70057 0.30046,-1.27788 0.14843,-0.94484 0.74573,-1.91501 -0.0905,-0.62627 0.15566,-2.21186 -0.076,-0.42716 0.34028,-1.2091 0.63713,-1.75573 0.62265,-1.51681 0.22445,-0.68057 0.63713,-1.44079 0.57559,-1.77021 -0.30409,-0.97017 -0.0905,-0.18825 0.23169,-1.11497 -0.007,-0.007 0.28236,-1.82452 0.15204,-0.98465 0.34391,-1.30684 0.60817,-1.10774 -0.28237,-2.61007 0.0326,-1.41182 0.3801,-1.60731 -0.20996,-1.88605 0.17738,-2.69333 0.0398,-0.24978 0.22083,-0.32581 0.17014,-0.17014 1.25254,-0.56111 0.53577,-0.0724 1.09326,0.25341 0.62627,0.56472 1.0462,1.59645 1.62902,0.46337 0.65523,0.45251 0.89054,0.84347 1.08964,0.30771 3.4463,0.52491 2.74762,-1.77383 2.32408,-1.50233 2.63903,-1.70867 1.79555,-1.16566 3.06257,-1.98741 2.01999,-1.25616 2.65351,-1.66161 2.62092,-1.63989 0.72764,2.67523 0.70953,2.61006 0.73487,2.69333 0.71677,2.61006 -0.77469,0.24978 0.60817,1.99466 1.00276,-0.30409 1.08963,-0.2353 0.45975,1.2815 z"
     title="Jordan"
     id="JO"
     style="stroke-width:3.62006" />
  <path
     d="m 1003.3637,470.6364 0.092,0.053 0.07,0.072 0.034,0.1 v 0.025 l -0.054,-10e-4 -0.065,-0.031 -0.047,-0.042 -0.024,-0.011 -0.01,-0.009 0.056,0.006 0.064,0.042 0.048,0.019 v -0.049 l -0.058,-0.085 -0.034,-0.029 -0.044,-0.025 -0.05,-0.017 -0.034,0.015 -0.019,0.007 -0.01,-0.02 0.01,-0.018 0.018,-0.018 0.06,0.016 z m 1.719,1.031 -0.013,0.021 -0.02,-0.018 0.014,-0.033 0.012,-0.028 0.019,0.015 z m -0.416,3.71 -0.027,0.013 -0.032,-0.004 -0.021,-0.019 v -0.03 l 0.026,-0.021 0.037,0.007 0.021,0.027 v 0.027 z m -2.754,0.133 0.018,0.019 0.041,-0.005 0.036,-0.003 -0.022,0.019 -0.074,0.008 -0.036,-0.048 0.045,-0.037 0.04,-0.006 v 0.01 0.011 h -0.019 l -0.03,0.009 v 0.023 z m -6.44995,0.459 0.033,0.037 v 0.018 l -0.016,-0.003 -0.048,-0.011 -0.016,-0.022 0.035,0.015 0.015,-0.003 -0.032,-0.033 -0.028,-0.024 -0.021,-0.01 v -0.012 l 0.026,0.006 z m -967.750002,-23.994 0.224,0.236 -0.043,0.119 -0.162,-0.011 -0.074,-0.042 0.126,-0.021 0.021,-0.044 -0.058,-0.069 -0.077,-0.048 h -0.053 l -0.013,0.095 -0.087,-0.074 0.051,-0.074 0.062,-0.049 z m 932.620002,2.219 -0.178,0.093 -0.054,-0.015 0.211,-0.132 -10e-4,0.016 z m -0.352,0.217 -0.208,0.108 -0.056,-0.058 0.075,-0.002 0.14,-0.104 0.169,-0.008 -0.02,0.058 z m -926.664002,3.337 0.467,0.323 -0.198,0.023 -0.488,-0.156 -0.446,-0.319 0.133,-0.069 0.065,0.115 0.203,0.107 0.12,-0.225 0.079,-0.051 -0.356,-0.232 0.141,0.012 0.337,0.158 z m 927.153002,0.027 0.014,0.064 -0.16,-0.175 -0.095,-0.113 0.006,-0.049 0.043,0.031 0.053,0.055 0.035,0.044 z m 0.031,0.358 -0.102,0.012 0.076,-0.04 0.021,-0.055 -0.012,-0.173 0.04,0.014 0.014,0.071 0.007,0.104 z m 0.024,1.047 -0.075,0.01 0.049,-0.057 0.321,-0.063 0.028,-0.018 0.052,0.035 -0.001,0.033 -0.023,0.017 -0.159,10e-4 -0.125,0.03 z m -0.016,0.917 0.151,0.11 -0.02,0.076 -0.051,0.087 -0.197,0.222 -0.06,-0.021 0.192,-0.201 0.074,-0.133 -0.11,-0.102 -0.044,0.022 h -0.018 l -0.038,-0.095 h 0.038 z m 4.143,5.06 -0.091,0.076 -0.035,-0.069 0.045,-0.085 -0.076,-0.353 -0.126,-0.048 -0.075,-0.106 h 0.036 l 0.126,0.097 0.101,0.044 0.059,0.232 z m -13.913,0.2 -0.026,0.006 -0.053,-0.029 0.007,-0.036 0.037,-0.016 0.047,0.027 z m 14.655,0.943 0.017,0.144 -0.064,-0.019 -0.021,-0.056 -0.021,-0.145 -0.067,-0.142 0.076,0.038 0.063,0.111 z m -925.381002,8.027 -0.008,0.017 -0.034,-0.022 -0.066,-0.041 -0.056,-0.045 -10e-4,-0.019 0.079,-0.027 0.101,-0.021 0.022,0.029 -0.019,0.041 z m -2.547,4.305 -0.065,0.015 h -0.076 l -0.038,-0.037 -0.002,-0.03 h 0.026 l 0.024,0.005 0.108,0.005 0.028,0.022 z m 11.454,16.4 -0.023,0.045 -0.044,-0.016 -0.026,-0.057 -0.009,-0.062 0.017,-0.05 0.029,0.002 0.033,0.062 z"
     title="Kiribati"
     id="KI" />
  <path
     d="m 236.53154,172.49536 -0.0507,0.43079 0.3258,1.28512 0.72764,1.40097 0.59731,1.13308 0.076,0.53214 -0.54663,-0.076 -0.41631,-0.21358 -0.80003,-0.22444 -1.54577,1.50232 -0.93398,0.81813 -0.0253,0.27875 1.24531,0.31494 0.91587,-0.007 0.63713,-0.22082 0.53939,0.35115 0.35477,0.92673 0.14118,0.75298 0.84709,2.67522 0.7023,0.9014 0.87605,1.59282 0.32581,0.82538 0.18824,0.69143 0.53577,1.02086 -1.76659,0.0253 -2.22634,0.0362 -1.80641,0.0217 -2.03809,0.0253 -0.89778,-1.08964 -0.30046,-1.19462 -0.32581,-1.2272 -0.89416,-1.75211 -2.99017,-0.42355 -1.5892,-0.22806 -2.61731,-0.33305 -1.96207,-0.24978 1.65075,-1.88967 0.76745,-1.01724 1.38648,-2.20462 0.71316,-1.57473 0.68781,-1.74849 0.59369,-1.36114 0.12308,-0.24978 0.34391,-0.46337 0.76021,-0.47423 1.09688,-0.44527 1.86433,-0.19548 1.31046,-0.0109 0.29685,0.0217 0.82537,0.22082 z m 3.01551,4.17393 -0.58283,0.26065 -0.39097,-0.11222 -0.37648,-0.62627 -0.61903,-1.55663 0.33666,-0.58283 -0.0109,-0.24978 0.0688,-0.18825 0.19187,-0.11946 0.1991,-0.73487 0.26788,-0.22445 0.43441,0.49595 1.22358,1.79193 -0.007,0.73126 -0.0724,0.29322 z"
     title="Kuwait"
     id="KW"
     style="stroke-width:3.62006" />
  <path
     d="m 113.50375,131.49455 -0.2896,0.1991 -0.53939,0.55387 -0.53939,0.44889 -1.08964,0.69867 -0.24616,0.41631 -0.24255,-0.37649 -0.47422,0.25703 -0.39821,1.58196 -0.83262,0.52853 -1.04257,-0.0471 -0.86882,-0.14842 -1.16566,0.0977 0.47423,-0.9195 0.49233,-1.19824 0.48509,-1.61454 0.85795,-1.34305 1.77745,-4.57575 1.0281,-1.8571 0.36562,-2.64264 1.58921,-2.31322 1.18738,-0.68781 0.57559,-0.66247 -0.0145,-1.00638 1.77383,0.007 1.14394,-0.0507 0.32943,-0.56473 0.89415,0.25702 0.49595,0.54301 -0.44889,0.57559 -0.63351,0.65523 0.0362,0.17015 0.47423,0.0543 0.80365,0.35476 0.49233,0.41631 0.82176,2.58473 -0.50681,1.06067 -0.78918,0.94846 -0.35114,0.0833 -0.69143,0.47061 -0.57921,0.64437 -0.20273,0.40545 0.0434,0.3801 0.81814,0.47423 0.0253,0.19186 -0.17014,0.15205 -0.66248,-0.10498 -0.85433,-0.0507 -0.50319,0.004 -0.58283,0.0941 -0.74573,0.57921 -0.33305,0.38372 -0.17738,0.24617 -0.26788,0.78555 0.30046,0.53939 0.55749,0.3077 0.0796,0.15567 -0.1267,0.2715 -0.55387,0.34029 -0.41631,0.4163 -0.11946,0.42355 z"
     title="Lebanon"
     id="LB"
     style="stroke-width:3.62006" />
  <path
     d="m 321.05273,222.0178 -0.1991,0.25703 -0.29323,0.0253 -0.67333,-0.22083 -0.39459,-0.51043 0.076,-0.62265 0.0217,-1.15118 0.19186,-1.08601 -0.0543,-1.15118 -0.52129,-0.23169 -0.36563,0.0652 0.85072,-1.6254 0.33666,-0.24979 0.31495,0.10498 0.78555,-0.17376 0.41269,-0.88329 0.32942,-0.48147 0.35115,0.0579 0.17014,0.2715 -0.12308,1.34305 -0.0145,1.1186 -0.43441,3.41733 -0.44888,0.59007 -0.22807,0.47785 z m -0.16652,4.64454 -0.41993,0.30047 -0.30046,-0.0507 0.0615,-0.59731 0.181,-0.41631 0.43441,0.0326 0.10498,0.24978 z m -32.46833,92.97766 -0.61541,-1.39011 -0.61541,-1.3901 -0.61903,-1.3901 -0.61541,-1.39373 -0.43079,-0.97741 -0.72401,-0.34391 -0.44165,-1.03172 -0.44889,-1.05705 -0.44889,-1.05706 -0.44888,-1.05706 -0.44889,-1.05706 -0.45251,-1.06068 -0.44889,-1.06067 -0.44888,-1.06068 -0.44889,-1.06068 -0.45251,-1.06068 -0.44889,-1.06068 -0.44888,-1.06429 -0.44889,-1.0643 -0.44889,-1.0643 -0.45251,-1.0643 -0.44889,-1.0643 -0.44888,-1.06429 1.43354,-0.50319 1.74487,-0.61179 1.74849,-0.61179 1.74487,-0.61179 1.74849,-0.61179 1.74487,-0.6118 1.74487,-0.61541 1.74849,-0.61179 1.74487,-0.61179 1.74849,-0.61541 1.74487,-0.61541 1.74487,-0.61179 1.74849,-0.61541 1.74487,-0.61541 1.74487,-0.61541 1.74849,-0.61541 1.74486,-0.61541 1.0824,-0.38011 0.44889,-1.43354 0.37287,-1.191 0.37286,-1.191 0.37287,-1.19462 0.37649,-1.19462 0.37286,-1.19462 0.37287,-1.19462 0.37287,-1.19824 0.37648,-1.19824 0.37287,-1.19824 0.37286,-1.19824 0.37287,-1.20186 0.37287,-1.20186 0.37648,-1.20186 0.37287,-1.20186 0.37287,-1.20548 0.37286,-1.20549 0.34391,-1.10411 -0.64437,-1.0643 -0.86158,-1.43355 -0.90501,-1.4987 -0.8471,-1.41183 -0.61903,-1.02809 -0.74573,-1.24168 0.0796,-1.59645 -0.0181,-0.80003 0.076,-1.22721 0.71315,-1.70504 0.84348,-2.17204 0.61541,-1.44441 0.53215,-1.25978 0.42716,-1.00999 0.23531,-1.04258 -0.1267,-0.73487 -0.27875,-0.26789 -0.2353,-0.34752 0.80727,-0.55749 1.51319,-0.36201 0.83623,0.076 1.16566,-0.26788 0.92674,-0.24255 0.0724,-0.3258 -0.26065,-0.55025 -0.38372,-0.80366 -1.30684,-0.0833 -0.39459,-0.22444 0.45613,-1.18738 -0.0181,-0.37649 -0.17377,-0.44527 -0.19186,-0.74573 0.0941,-0.96293 0.26789,-0.65524 0.004,-0.52852 -0.12671,-1.08602 0.0398,-0.96656 0.27513,-0.48147 0.48871,-0.44889 0.45975,-0.22806 0.47784,0.0145 0.38011,0.19186 0.1629,0.50681 -0.10136,0.35115 -0.2715,0.0471 -0.0941,0.14842 0.38735,0.67695 0.56111,0.66248 0.43441,-0.11223 0.48509,-0.52129 0.51404,-0.41992 0.64076,-0.37287 0.46698,-0.72039 0.39821,-0.46699 0.35477,-0.0652 1.03533,2.92501 1.53491,2.73315 1.3539,1.50594 1.40821,2.04172 2.13945,1.87519 0.98104,0.64075 3.97845,1.31408 2.17565,0.49233 2.99741,0.47061 2.0743,1.02085 0.69505,0.0652 1.08602,-0.30409 0.79279,0.0253 1.9838,1.3901 0.58283,1.31771 0.82537,0.69505 0.72763,1.09326 0.47423,1.14394 1.67609,1.74125 1.18014,1.95845 1.20186,1.44802 1.07516,0.9014 1.62903,0.35476 1.29598,0.40545 0.1448,0.96656 -0.13394,1.25978 -0.24617,0.93036 -1.2091,1.81003 -0.2896,1.11497 -1.36838,1.839 -1.48423,3.08067 -0.68057,0.68781 -2.39286,1.58559 -1.75935,1.90777 -2.08516,3.30873 -1.58558,3.27254 -0.60817,1.0462 -1.27789,0.2172 -0.83623,-0.0905 -0.57921,-0.3077 0.22806,-0.89416 0.13757,-0.99552 -0.77108,0.10498 -0.67695,0.20635 -1.58196,2.44354 -0.86882,1.07154 -0.18462,1.35752 -0.41993,1.75211 -0.61903,1.61093 -0.27513,1.3539 0.0109,0.76745 0.46336,1.87158 0.0326,1.91501 0.26789,1.14756 0.2172,1.37562 -0.74211,0.42355 -0.63713,0.20996 -2.51956,0.15204 -2.55215,0.44165 -2.22996,0.79642 -1.33218,0.79279 -1.73401,1.77021 -1.06068,4.48525 -1.6978,1.88968 -1.15118,0.39458 -2.76935,0.16653 -3.89881,0.52128 -1.36838,0.45251 -2.2734,2.72953 -0.17738,0.85795 0.43803,0.61903 0.1448,0.6842 -0.20634,0.64075 -1.03172,1.72677 -1.11498,1.25254 -2.96845,0.78555 -1.08964,-0.46699 -0.99552,-0.2353 -1.92587,-0.0253 -3.13497,0.29684 -1.1548,0.92674 -1.82089,0.65523 -1.67971,1.01 -3.17118,0.38372 z m 57.26213,-38.01065 -0.64075,0.16291 -0.18463,-0.076 0.004,-1.36114 1.49147,-1.71591 0.98104,-1.98379 0.67695,1.77383 -1.17652,0.9919 -0.63713,1.69418 z"
     title="Oman"
     id="OM"
     style="stroke-width:3.62006" />
  <path
     d="m 98.053331,157.10286 -1.046198,0.99914 -0.333045,-0.9919 -0.148423,-0.35838 1.922253,-1.90778 0.915875,-1.20186 0.474228,0.51405 0.01448,0.19187 -1.78107,1.92949 z m 12.018599,-8.21754 0.27875,2.61369 -0.60455,1.10774 -0.34391,1.30684 -0.15204,0.98465 -0.42355,-0.0434 -1.34304,0.71316 -1.78469,0.67333 -1.96207,0.17376 -0.27875,-0.1991 -0.0796,-0.34029 0.57559,-1.65799 0.22082,-0.77831 0.85072,-0.83985 1.20548,-0.72764 0.51043,-0.18462 -0.0579,-0.31132 -0.72039,-0.48147 -0.75298,-0.24979 -0.71315,0.24979 -0.22444,-0.076 -0.076,-0.21359 0.24978,-0.30046 0.11584,-0.55749 -0.11222,-0.93398 -0.076,-1.1367 -0.15566,-0.88329 0.44526,-1.43355 0.11223,-0.68419 0.55386,-1.4625 1.29961,-0.88692 1.12584,0.25703 0.59369,0.0652 0.24978,0.17376 0.1629,0.50681 0.829,0.58645 0.68057,0.076 0.20996,1.88605 -0.3801,1.61093 z"
     title="Palestinian Territories"
     id="PS"
     style="stroke-width:3.62006" />
  <path
     d="m 269.95194,233.66354 -0.91587,0.22806 -0.85796,0.24255 -0.71677,-0.007 -0.57921,-0.0941 -0.38372,-0.23531 -0.7385,-0.94121 -0.52129,-1.21996 0.32219,-0.68058 0.1086,-0.42354 -0.70591,-3.22186 -0.22806,-2.47974 0.0833,-0.50681 0.40182,-0.58645 0.67334,-1.29598 0.35838,-1.24892 1.00638,-2.88881 1.06792,-1.11498 1.56386,-0.81813 1.28875,1.60006 1.56386,1.21996 0.30047,1.36477 -0.45975,1.11136 -0.42717,1.75935 0.25703,0.81089 0.0941,0.70229 0.42355,1.17652 0.41268,1.52405 0.0688,1.06068 -0.22082,0.98103 -0.54663,0.82538 -1.07154,2.47612 -0.31856,0.25702 z"
     title="Qatar"
     id="QA"
     style="stroke-width:3.62006" />
  <path
     d="m 221.83047,182.79444 1.96207,0.24978 2.61731,0.33305 1.5892,0.22806 2.99017,0.42355 0.89416,1.75211 0.32581,1.2272 0.30046,1.19462 0.89778,1.08964 2.03809,-0.0253 1.80641,-0.0217 2.22634,-0.0362 1.76659,-0.0253 0.56835,1.08239 0.24978,1.07878 1.04982,2.55215 1.49871,1.98741 0.35838,0.72401 0.23893,1.08964 -0.26065,0.40545 -0.10136,0.46699 1.11136,1.08601 1.83175,0.9195 0.71677,0.23168 0.81452,0.40545 -0.63352,0.62627 1.0824,1.44803 1.25616,1.47336 1.34667,0.33305 1.81727,2.22271 2.74038,1.43717 1.66161,1.88243 -0.15566,0.0362 -0.48871,-0.19186 -0.61179,-0.25703 -0.18462,0.23169 0.0326,0.78917 0.1629,0.92674 0.8471,0.80003 0.75297,0.57559 0.29322,1.08964 -0.59369,2.34218 h -0.20634 l -0.39821,-0.20273 -0.42354,-0.0471 -0.22807,0.13395 0.50319,1.68332 0.50319,1.28875 0.60093,1.02085 0.50319,1.49147 0.43078,0.63713 1.76297,1.58197 0.54301,1.32132 0.50319,2.45802 1.10774,1.36838 0.59731,1.05344 0.80003,0.89416 0.52129,1.21996 0.7385,0.93759 0.38372,0.23531 0.57559,0.0977 0.71677,0.004 0.85796,-0.24255 0.91587,-0.22806 0.71316,0.47423 0.73849,-0.0724 0.076,0.44164 -0.49595,0.60093 -0.60817,1.51319 0.8652,0.23892 0.82899,0.11947 0.58645,0.24254 h 0.34391 v 0.31495 l 0.0398,1.43354 0.20634,0.54663 0.37649,0.48509 0.55749,0.72401 0.55749,0.72401 0.55749,0.72401 0.55748,0.72402 0.55749,0.72401 0.56111,0.72401 0.55749,0.72039 0.55749,0.72402 0.55749,0.72039 0.55749,0.72039 0.55749,0.72039 0.55749,0.72039 0.55749,0.7204 0.55749,0.72039 0.56111,0.72039 0.55749,0.71677 0.45975,0.59369 0.85433,0.11223 0.27151,0.0362 0.77107,0.10136 1.19462,0.15566 1.54938,0.20634 1.83538,0.24255 2.04533,0.26788 2.19014,0.28961 2.25892,0.29684 2.26253,0.29685 2.18652,0.2896 2.04534,0.27151 1.83537,0.23892 1.553,0.20634 1.19462,0.15567 0.77108,0.10136 0.2715,0.0362 0.80728,0.10498 0.15204,-0.0253 0.67695,-0.87967 0.74573,1.24168 0.61903,1.02809 0.8471,1.41183 0.90501,1.4987 0.86158,1.43355 0.64437,1.0643 -0.34391,1.10411 -0.37286,1.20549 -0.37287,1.20548 -0.37287,1.20186 -0.37648,1.20186 -0.37287,1.20186 -0.37287,1.20186 -0.37286,1.19824 -0.37287,1.19824 -0.37649,1.19824 -0.37286,1.19824 -0.37287,1.19462 -0.37286,1.19462 -0.37649,1.19462 -0.37287,1.19462 -0.37286,1.191 -0.37287,1.191 -0.44889,1.43354 -1.0824,0.38011 -1.74487,0.61541 -1.74848,0.61541 -1.74487,0.61541 -1.74487,0.61541 -1.74849,0.61541 -1.74487,0.61179 -1.74487,0.61541 -1.74849,0.61541 -1.74487,0.61179 -1.74849,0.61179 -1.74487,0.61542 -1.74487,0.61179 -1.74849,0.61179 -1.74487,0.61179 -1.74849,0.61179 -1.74487,0.61179 -1.43354,0.50319 -2.38562,0.33666 -2.31684,0.32581 -2.60645,0.36924 -3.13135,0.44527 -2.45802,0.34753 -3.58386,0.5068 -3.21824,0.45251 -3.01551,0.42717 -3.01551,0.42717 -2.56662,0.362 -1.53129,0.41993 -1.79917,0.92312 -2.76211,1.41544 -2.8164,1.43716 -1.45889,0.74574 -1.52766,1.91139 -0.7747,0.96656 -1.39734,1.74849 -1.05706,1.3177 -1.2634,1.57472 -0.55025,1.39735 -0.85071,2.15755 -0.73488,0.54301 -1.20186,0.7023 -1.09326,0.49956 -1.70504,-0.0724 -0.9738,-1.32494 -1.03172,-1.4082 -0.51767,-0.56473 -0.46337,-0.029 -1.71228,0.17738 -2.06344,0.2172 -2.43268,-0.22806 -2.80555,-0.26789 -2.63178,-0.24978 -1.31047,-0.18824 -1.72676,-0.91226 -0.44527,-0.181 -0.45251,-0.0434 -2.04895,-0.0217 -2.03086,-0.0217 -2.03447,0.2896 -1.9476,-0.10498 -2.01999,0.16652 -0.70953,0.34753 -0.78918,-0.0181 -0.49232,0.3077 -0.43441,0.14481 -0.51405,-0.26427 -0.62989,0.0579 -0.92674,-0.22806 -0.60455,-0.59731 -0.57197,-0.52491 -0.59007,-0.2896 -0.65885,-0.18101 -0.57197,-0.004 -0.73125,0.31857 -0.44527,0.3077 -1.12946,1.03172 -0.0471,0.36925 0.51405,0.61541 -0.15566,0.2896 -0.66609,0.36201 -0.20635,0.97379 -0.0977,0.53215 -0.0977,1.27427 0.29685,1.00275 0.39458,0.36925 0.0181,0.43079 -0.2172,0.86157 -0.61179,0.26426 -0.44889,0.81814 -0.27512,0.38011 -0.47785,0.4344 -1.90053,1.44441 -0.0941,-0.83986 -0.60455,-1.2453 -0.0434,-0.87967 -0.28236,-0.8833 -0.52129,-0.68057 -0.96294,-0.70953 -0.0869,-0.96294 -0.70229,-0.95207 -0.93036,-0.76746 -0.51766,-1.41906 -0.39097,-1.88605 -2.4544,-2.48337 -3.06981,-2.29511 -0.93398,-1.29237 -1.52767,-2.63902 -0.77107,-2.08878 -2.05257,-2.40734 -0.0869,-0.92673 -0.30408,-1.12946 -0.47423,-1.25978 -0.28598,-0.9919 -2.05982,-4.36579 -0.66609,-0.69506 -0.57197,-0.97741 -0.14842,-0.7566 -0.18101,-0.41268 -1.45526,-0.71677 -1.35752,-1.839 -4.07981,-2.93225 -1.99828,-0.29322 -1.58196,-1.04982 -1.16566,-1.372 -1.24168,-2.36752 -2.18652,-2.563 -1.85347,-3.64179 0.58283,-1.32856 -0.0362,-0.93397 -0.57197,-1.57473 -0.61903,-1.21634 -0.42717,-1.15118 0.33667,-1.65437 0.13032,-1.85347 0.36562,-0.98466 0.26427,-1.0824 -0.34391,-2.17927 -0.61541,-1.16928 0.0615,-0.77832 -0.69867,-0.3801 -0.56473,-0.8471 h 0.59007 l -1.07154,-1.17652 -0.39458,-0.65523 -0.40545,-1.60007 -0.51767,-1.22358 -1.66161,-2.7802 -0.79641,-1.69781 -1.78107,-2.19738 -1.93311,-1.62541 -1.2272,-0.73849 -0.59369,-0.67333 -1.00276,-0.0217 -1.09326,-0.96294 -0.76383,-0.0362 -0.96656,-0.15566 -1.1367,-1.85709 -0.93759,-1.74125 -1.60007,-2.26978 0.40183,-0.59369 0.46698,-0.96656 -0.23168,-1.26702 -0.2534,-0.86157 -0.70592,-1.57111 -2.32046,-3.91691 -0.61541,-0.57559 -0.98827,-0.66247 -0.60817,-1.70143 -0.27875,-1.52766 -1.58921,-0.74211 -2.73314,-5.52422 -1.58559,-1.93673 -0.62627,-1.30322 -1.83175,-2.1467 -0.9014,-2.13945 -1.84623,-1.97656 -1.60006,-3.43544 -2.47251,-3.44267 -1.03895,-0.59732 -2.54853,-0.24616 -1.07153,-0.2534 -0.98466,0.75659 -0.0869,-0.95932 0.68057,-1.32856 0.98104,-2.79469 0.19548,-2.4544 1.54214,-7.31976 2.1648,0.37648 1.78107,0.31133 2.60283,0.45613 2.69332,0.4706 1.57473,0.27513 0.53939,-0.11946 2.17927,-1.79555 1.96208,-1.62179 1.17652,-1.98741 1.1367,-1.9295 0.52129,-0.3982 1.74487,-0.36201 2.76934,-0.57559 2.74039,-0.56835 0.22082,-0.19548 0.63713,-1.55301 0.8109,-1.97293 0.16652,-0.20635 0.1991,-0.20272 1.96208,-1.10774 1.191,-0.67333 -1.69781,-1.98741 -1.60007,-1.87881 -1.79555,-2.10688 -1.52043,-1.64351 -2.27701,-2.46164 -1.49147,-1.61455 2.61006,-0.76745 2.82365,-0.82899 2.84899,-0.83624 3.4282,-1.00638 2.68246,-0.78917 4.00379,-1.18014 1.95846,-0.57559 0.35476,-0.15204 1.50595,-1.39735 2.26616,0.39097 3.40647,0.59007 3.29064,0.56473 3.46802,0.66971 1.11136,0.54301 3.34855,1.99828 2.17566,1.29598 2.54128,1.50956 3.1748,1.88605 2.17927,1.29237 2.79107,1.65436 2.17566,1.88606 2.75486,2.38562 3.02638,2.61368 2.4906,2.02724 3.43182,2.78744 3.38113,2.74039 3.31236,2.67523 2.64988,2.13945 3.3558,2.70057 0.26065,0.10136 3.39199,0.30408 4.55766,0.41269 4.57938,0.41269 4.13411,0.37286 z m -100.94903,38.52469 -0.0941,0.15204 -0.42717,-0.39458 0.0253,-0.8652 0.36925,-0.49233 -0.029,0.67334 0.15928,0.68057 z m 3.11325,3.69246 h -0.26788 l -0.71316,-0.75659 -0.4163,-0.55749 -0.42717,-0.37649 -1.94759,-0.75659 -0.26427,-0.48871 0.29685,-0.4887 0.20996,0.48508 0.35477,0.28599 1.61092,0.68419 1.79555,1.49147 0.30771,0.12308 z m 51.67276,93.9225 0.78555,0.0615 -0.32581,-0.33667 -0.0688,-0.1629 0.34029,-0.48509 1.12222,0.99914 -0.0326,1.18376 -0.0941,0.2715 -0.30409,-0.2534 -0.1991,-0.24979 -0.0615,-0.26788 -0.31133,-0.28961 -1.09326,0.18825 -0.68057,-0.32219 -0.9738,-0.99552 -0.26064,-0.72039 0.40545,-0.14118 0.43078,-0.34753 0.27151,-0.56835 -0.24979,-0.59007 0.57921,0.0941 0.31133,0.60455 0.0615,1.372 0.0869,0.2896 -0.15928,0.31495 z"
     title="Saudi Arabia"
     id="SA"
     style="stroke-width:3.62006" />
  <path
     d="m 179.43955,85.932456 v 0.170143 l -0.0905,0.438027 -1.14756,1.259782 -1.55663,1.708669 -1.1186,1.078778 -1.88243,1.810031 -1.4082,0.387346 -2.36752,0.651611 -0.63713,0.629891 -0.59369,1.020857 -0.34753,1.393724 -0.10136,0.868815 -0.0615,1.621787 0.55387,1.683333 0.53215,1.61092 0.0688,1.0643 -0.0543,1.0462 -0.51405,1.1186 -0.56111,1.53128 -0.32219,1.72677 -0.17014,3.22548 -0.004,2.74038 -0.0471,0.44527 -0.9738,1.92587 -1.1367,2.25168 -0.52852,0.51767 -2.49423,0.66971 -2.72228,1.64351 -3.04447,1.83537 -2.76211,1.66161 -2.89967,1.74125 -3.00827,1.80279 -2.15032,1.28512 -2.87795,1.71953 -2.62092,1.63989 -2.65351,1.66161 -2.01999,1.25616 -3.06257,1.98741 -1.79555,1.16566 -2.63903,1.70867 -2.32408,1.50233 -2.74762,1.77383 -3.4463,-0.52491 -1.08964,-0.30771 -0.89054,-0.84347 -0.65523,-0.45251 -1.62902,-0.46337 -1.0462,-1.59645 -0.62627,-0.56472 -1.09326,-0.25341 0.1448,-0.57197 0.56473,-0.96294 0.57197,-1.04981 -0.31856,-0.58283 -0.10499,-0.49957 -0.0362,-0.59369 0.39097,-0.56835 -0.18462,-0.68781 -0.30047,-0.68781 -0.22082,-0.34753 v -0.63351 l 0.1448,-0.48509 0.181,-0.74211 0.46337,-0.40545 0.11946,-0.42355 0.41631,-0.4163 0.55387,-0.34029 0.1267,-0.2715 -0.0796,-0.15567 -0.55749,-0.3077 -0.30046,-0.53939 0.26788,-0.78555 0.17738,-0.24617 0.33305,-0.38372 0.74573,-0.57921 0.58283,-0.0941 0.50319,-0.004 0.85433,0.0507 0.66248,0.10498 0.17014,-0.15205 -0.0253,-0.19186 -0.81814,-0.47423 -0.0434,-0.3801 0.20273,-0.40545 0.57921,-0.64437 0.69143,-0.47061 0.35114,-0.0833 0.78918,-0.94846 0.50681,-1.06067 -0.82176,-2.58473 -0.49233,-0.41631 -0.80365,-0.35476 -0.47423,-0.0543 -0.0362,-0.17015 0.63351,-0.65523 0.44889,-0.57559 -0.49595,-0.54301 -0.89415,-0.25702 -0.32943,0.56473 -1.14394,0.0507 -1.77383,-0.007 -0.78193,-2.74401 -0.11946,-1.191 0.0217,-1.37924 0.53939,-2.01999 -0.25341,-0.9376 -0.0217,-0.63351 -0.13756,-0.86881 -1.40096,-1.8752 0.76383,-3.46078 0.53939,-0.83985 0.76021,0.0796 1.62179,0.98466 0.26788,-0.029 0.49233,-1.29598 0.47785,-0.43803 0.99914,-0.387348 0.28598,-2.099636 0.46699,-0.401826 0.56473,-0.217204 0.86881,-0.04344 0.75298,-0.123082 0.0471,-0.369246 -1.05706,-2.436302 0.0941,-0.61903 0.51043,-2.454402 0.32218,-0.962936 0.30771,-0.314945 1.19824,0.123082 1.67609,0.434407 0.44527,0.705912 0.82175,0.629891 1.2272,-0.04344 1.42268,0.119462 1.10774,0.03982 0.88692,-0.441648 2.00189,-0.825374 0.98828,-0.275124 0.90139,-0.365627 2.89605,-1.353903 1.16204,0.104982 0.7928,0.177383 0.60817,0.217204 1.36114,0.923116 1.12584,0.933975 0.79279,0.278745 1.41907,-0.02172 2.05257,0.181003 2.51956,-0.01448 1.47337,-0.260645 1.87881,-0.459748 3.35218,-1.104118 4.40923,-2.31322 2.59197,-1.125839 1.11859,-0.133942 1.45527,-0.01086 1.45526,0.293225 1.65075,0.209963 0.76384,-0.0181 1.78469,-0.231684 2.31683,-0.470608 1.45527,-0.383726 1.75935,-0.629891 1.09688,-1.049818 0.35476,-0.108602 0.45613,0.191864 0.21359,0.0724 0.44888,0.59369 z"
     title="Syria"
     id="SY"
     style="stroke-width:3.62006" />
  <path
     d="m 33.70312,22.110775 -0.275125,1.553007 0.640751,1.708669 1.498705,2.3639 1.509567,1.191 6.099803,2.93949 1.122219,0.249784 -0.253404,1.20186 -0.369246,1.064298 -0.401827,0.709532 -1.788311,0.456128 -4.930523,-1.306842 -1.248922,-0.123082 -0.879675,0.260644 -1.629028,0.948456 -1.80641,-0.304085 -2.519563,0.535769 -0.702292,1.78469 -1.748489,2.038094 -2.877949,1.643508 -2.056195,0.879675 -3.091532,3.142213 -1.400964,1.828131 -0.59007,0.354766 -0.702292,0.282365 0.235304,-0.879675 0.347526,-0.803654 -0.07964,-0.60817 0.01448,-0.883295 1.028097,-1.002757 0.937596,-0.727632 2.769347,-1.321323 0.731252,-1.100498 -2.172036,0.02534 -2.208238,0.242544 -1.386483,-0.155662 -1.209101,0.0905 -0.380106,-0.962936 -0.293225,-0.57921 0.314945,-0.181003 0.398207,-0.126702 0.709532,-1.028098 0.633511,-0.756592 0.912255,-0.955696 0.231684,-0.571969 v -0.532149 l -0.220824,-0.369247 -0.04344,-0.441647 -0.02896,-0.619031 0.05068,-1.285121 2.092395,-1.404584 0.669712,-0.148423 0.228064,-0.644371 -0.152043,-1.491465 -0.289605,-1.20548 -0.376486,-0.07964 -0.503189,-0.351146 -0.329425,-0.409066 -0.528529,-0.445268 -0.908636,-0.275125 -0.02896,-0.380106 0.09412,-0.380107 0.336666,-0.390966 1.534906,-0.336666 0.181003,-0.275125 0.206344,-0.680571 0.304085,-0.695052 0.362006,-0.228064 0.647991,0.02172 1.230821,-0.159283 0.857954,-0.228064 0.850715,-0.477848 0.438027,-0.434407 1.846231,-0.249785 0.517669,-0.220823 0.514049,0.188243 0.691432,0.742112 1.136699,1.064298 0.60817,0.354766 0.456128,-0.162902 0.825374,-0.387347 h 0.789173 l 0.637131,0.06878 0.307705,-0.336665 0.481468,-0.0724 z m 137.10982,6.125144 0.67334,0.271505 1.27426,0.347526 0.78917,0.419927 0.44889,0.112222 1.03896,-0.854335 1.54214,0.02172 1.35753,0.09774 0.69867,0.159283 0.85795,0.282365 1.03534,0.191863 0.42355,-0.409067 0.60455,-1.20548 0.2353,-0.152043 0.16652,-0.108602 0.76746,-0.09412 0.72763,0.0905 0.3439,0.206344 0.34391,0.966556 0.86519,0.343906 1.52767,1.538526 0.93398,0.61541 0.22806,0.257025 -0.3077,0.311325 0.12308,0.383727 0.53215,0.499568 0.74935,0.188243 0.81089,-0.06878 0.44165,0.181003 0.31495,0.282365 0.0833,0.398207 -0.0217,0.253404 0.15928,0.56835 0.63351,0.803653 0.75297,0.492329 0.40545,0.524907 0.65885,1.806411 0.26789,0.995517 -0.10137,0.959316 -0.45612,0.981037 -0.99914,1.21996 0.24616,0.510429 0.22445,0.673331 -0.076,0.488709 0.70953,1.556626 0.32218,0.966557 -0.26788,0.224443 -0.17376,0.307706 1.27426,0.742112 1.52766,0.622651 0.64437,0.119462 1.75211,-0.285985 1.12946,-0.06154 1.12222,0.59007 1.63265,1.429924 1.76297,1.860712 0.35115,0.564729 0.15204,0.249784 0.3439,0.448888 -0.35838,-0.0072 -0.57921,-0.401827 -1.40097,-1.143939 -0.71677,0.492328 -0.61903,0.847094 -0.67695,3.210995 -0.54663,0.340286 -0.96656,-0.0072 -1.18376,-0.112221 -0.81451,0.159282 -0.20996,0.202724 0.1086,0.343906 0.24254,0.528528 0.17015,0.666092 0.0507,0.543009 0.42716,0.492328 0.57559,0.466988 0.0253,0.477848 -0.0869,0.676952 -0.13394,0.514049 -0.1448,0.293224 0.26788,0.781934 0.62627,0.923115 0.39821,0.354766 -0.14842,1.75573 0.2353,0.778313 0.181,1.071538 -0.0724,1.781071 0.076,0.438027 0.21359,0.148423 0.57197,0.06878 0.55749,0.162903 0.19548,0.293225 -0.004,0.213583 -0.69867,0.814514 -0.0833,0.57921 -0.24255,0.814514 -0.1991,0.477848 -0.62265,0.905015 -0.39459,0.919496 -0.181,0.756592 0.11946,0.358386 1.15118,0.108602 0.62265,0.54301 1.66161,1.082398 0.29322,0.438027 -0.4525,0.666092 0.007,0.278744 0.2172,0.354766 0.10136,0.619031 -0.0398,0.684191 0.007,0.905016 0.30409,0.148422 1.12946,0.847095 0.80365,0.847094 0.0253,0.264264 -0.38735,0.669712 0.0833,0.771073 -0.0145,0.177383 -0.34753,-0.289605 -0.62627,-0.104982 -0.64437,-0.03258 -0.40545,0.228064 -0.70953,0.60455 -0.9557,0.658851 -0.77469,0.60455 -0.44527,0.416307 -0.36924,-0.06878 -0.28599,-0.362006 -0.15928,-0.506809 0.0688,-1.915012 -0.17014,-0.60093 -0.36201,-0.419927 -0.42717,-0.238924 -0.50681,-0.133943 -0.5249,-0.01448 -0.74212,0.56111 -1.05343,0.582829 -1.63265,-0.04706 -1.09688,-0.108602 -0.52853,-0.108602 -2.12498,-0.890535 -0.44164,-0.02172 -0.7928,-0.362006 -0.94121,-0.285985 -1.58559,0.54301 -0.68419,-0.130323 -0.95932,-0.470608 -0.34028,0.126703 -1.07154,1.433544 -1.82451,1.531286 -0.98466,0.257024 -0.46699,-1.538526 -0.4525,-0.59731 -0.21359,-0.0724 -0.45613,-0.191863 -0.35476,0.108601 -1.09688,1.049818 -1.75935,0.629891 -1.45527,0.383726 -2.31683,0.466988 -1.78831,0.231684 -0.76022,0.0181 -1.65075,-0.209964 -1.45526,-0.293225 -1.45527,0.01086 -1.11859,0.133942 -2.59197,1.12584 -4.40923,2.313219 -3.35218,1.104118 -1.87881,0.459748 -1.47337,0.260645 -2.51956,0.01448 -2.05257,-0.177383 -1.42269,0.0181 -0.78917,-0.278745 -1.12584,-0.933975 -1.36114,-0.923116 -0.60817,-0.217204 -0.7928,-0.177383 -1.15842,-0.104981 -2.89605,1.353902 -0.90139,0.369247 -0.9919,0.275124 -2.00189,0.825374 -0.88692,0.441648 -1.11136,-0.03982 -1.41906,-0.115842 -1.23082,0.03982 -0.82175,-0.626271 -0.44527,-0.705912 -1.67609,-0.434407 -1.19824,-0.126702 -0.30771,0.314945 -0.31856,0.962937 -0.51043,2.458021 -0.0941,0.615411 1.05706,2.436301 -0.0471,0.369246 -0.75298,0.126702 -0.86519,0.04344 -0.56473,0.217204 -0.46699,0.401827 -0.28236,2.099635 -1.00276,0.383727 -0.47785,0.43803 -0.49233,1.29598 -0.26788,0.029 -1.62179,-0.98104 -0.76021,-0.0796 0.65523,-1.017236 -0.70953,-2.016374 -0.7747,-1.889672 0.73126,-1.2091 1.51318,-1.462505 1.58921,-1.715909 v -1.060678 l -0.0833,-0.810894 -0.45613,-0.56111 -0.87606,-0.745732 -1.46612,0.796413 -1.0462,0.879675 -0.68419,0.177383 -0.74211,0.499569 -0.36201,0.905015 -0.89777,0.702292 -1.46613,0.275125 -2.20462,-0.752973 -2.36752,-1.14394 -1.33942,-0.930355 -1.09326,-0.224444 -1.03896,0.409067 -3.066187,2.273398 -2.805548,3.315977 -0.695051,0.571969 -2.642645,1.422684 -1.74487,0.474228 -0.821754,-0.108601 -3.478879,0.62265 -1.726769,0.0905 -1.368383,0.749352 -2.653505,-0.810893 -1.585587,-1.038958 -0.955696,-1.057058 -1.556627,-2.277019 -1.104118,-1.082398 -2.479742,-0.977416 -4.322354,-2.374761 -1.136699,-0.260644 -2.95035,-0.340286 -3.109633,-0.217204 -0.62989,0.865195 -0.238924,3.420958 -0.532149,0.937596 -0.228064,1.77021 -0.380107,0.506809 -0.59731,0.333045 -0.933976,-0.557489 -0.647991,-0.246164 -1.509565,0.727632 -2.986551,1.017237 -1.017237,0.144803 -3.460779,-1.281502 -1.267021,-0.825374 -0.818134,-0.912256 -0.275125,-1.545766 -0.514048,-0.879675 -0.07602,-0.60455 -0.202723,-0.695052 -0.698672,-0.275124 -0.749353,0.528529 -0.803653,-0.02172 -1.006377,-0.322185 -2.378381,-1.299602 -1.824511,-0.104982 -1.100499,1.585587 -0.854334,0.503188 -0.933976,0.152043 -0.0543,-0.448888 0.709532,-1.028097 -2.848988,0.188243 -1.502326,0.781933 -1.1729,-0.123082 -0.879675,-0.351146 0.130323,-0.430787 0.890535,-0.159283 0.774693,-0.351146 3.084292,-0.285984 0.720392,-0.285985 0.789174,-1.118599 1.433544,-0.962937 0.184623,-0.412687 -1.104119,-0.0036 -4.7278,0.278745 -3.243575,-0.152042 -0.383726,0.477848 -0.488709,0.06878 -0.133942,-1.299602 0.514049,-0.60455 0.687812,0.05792 1.697808,-0.524908 -0.152042,-1.082399 -1.212721,-0.731252 -0.246164,-0.434408 -0.883295,-0.101361 -0.713152,-0.517669 -0.155663,-1.303222 -0.568349,-1.433544 -0.810894,-0.691432 0.101362,-0.380107 1.487845,-0.485088 0.307705,-2.009134 -0.228064,-1.234441 -0.749352,-0.104982 -2.182897,-0.977416 -0.662472,0.104982 -0.724012,-1.075159 -1.267021,-0.771073 -0.626271,0.282365 -0.394587,0.351146 -0.58645,-0.166523 -0.981036,-0.669711 -0.966557,-0.362006 -0.427167,-0.448888 0.535769,-1.19824 0.738493,0.02896 0.133942,-0.937595 -0.58283,-1.567487 0.05792,-0.807274 0.644371,-0.220823 0.734872,0.152042 0.742113,0.937596 0.242544,0.905015 -0.155662,0.883295 0.470607,0.854335 0.336666,0.217203 0.224444,-0.901395 0.314945,-0.170143 0.434408,0.390967 0.930355,0.195483 2.410961,-0.550249 0.463368,-0.466988 -1.76659,0.0543 -0.644371,-0.438028 -0.702292,-0.981036 -0.430787,-0.890535 -0.07602,-0.438028 -0.242544,-0.640751 0.267884,-0.343905 1.209101,-0.514049 1.060678,-1.444405 -0.445268,-0.416307 -0.506808,-0.199103 -0.55025,0.148423 -0.521289,-0.495949 -0.06878,-0.687812 0.416307,-0.557489 0.04344,-0.767453 -1.364763,-1.893292 -0.380107,-0.412687 0.296846,-0.619031 1.042577,-1.038957 0.991897,-1.288742 -0.119462,-0.423547 -0.734872,-0.173763 -3.4825,0.553869 -1.353902,0.477848 -2.414581,0.220824 -0.173763,-0.702292 0.0543,-0.62989 0.543009,-1.15118 -0.05068,-2.845368 0.322185,-1.545766 1.343043,-0.463368 1.647128,-2.277019 2.667985,-2.693326 2.787448,0.05068 1.114978,-0.745732 1.654368,-0.04344 0.300466,0.539389 0.188243,0.517669 1.451644,0.745733 2.563004,-0.119462 0.62265,-0.293225 0.604551,-0.409067 -1.187381,-1.324943 0.376487,-0.376486 1.075158,-0.04344 1.16566,0.311325 0.0543,0.304085 -0.307705,0.416308 -0.362007,0.727632 0.343906,0.141182 3.315977,-0.441647 3.468019,0.354766 1.104119,-0.191863 2.725906,0.01448 0.488708,-0.456124 -0.825374,-0.57559 -0.807274,-0.199103 -0.543009,-0.278745 -0.543009,-0.409067 1.730389,-1.285122 0.977417,-0.246164 4.608338,-0.792794 3.428198,-0.394586 0.04344,-0.296845 h -0.495949 l -4.427335,-0.658851 -1.067918,-0.506809 -1.480605,-1.212722 -0.322185,-0.343906 -0.372867,-0.59369 0.224444,-1.263401 0.275125,-1.017238 0.546629,-0.59007 1.77021,-0.0905 6.067223,1.035337 4.322353,-0.61903 4.72418,1.505946 4.521457,-0.304086 0.930356,-0.676951 1.133079,-2.182897 6.385788,-3.634542 2.233578,-1.900532 2.396481,-1.042578 4.108769,-1.158419 3.435439,-1.534906 0.981036,-0.177383 8.2465,0.734872 5.665394,0.09412 2.59921,-1.451645 1.50956,0.488708 -0.14118,0.517669 -0.27513,0.445268 0.0833,0.894155 0.8833,1.314082 0.9014,0.894155 2.64264,1.281502 3.67436,-1.078778 0.59369,0.119462 0.74936,0.300465 1.29598,3.464399 1.00637,1.21996 1.28875,0.828994 1.06067,0.162903 0.78556,-0.865195 0.60817,-0.347525 1.32856,-0.148423 2.17566,1.18738 0.75297,1.223581 3.70332,0.944836 3.39924,0.474228 1.46612,1.035338 4.78573,1.035339 1.78831,-0.159283 2.99741,-1.086019 5.83554,-1.191 3.87708,1.661608 1.04982,0.217204 0.90501,-0.144802 1.30323,0.456127 1.3901,-0.246164 4.28977,-1.962073 1.34305,-1.114979 1.42268,-0.285985 1.25978,-0.669711 3.35942,-2.190137 z m -157.881732,18.473172 -2.334939,0.409067 -0.7240127,-0.401827 0.7312527,-0.800033 1.361143,-0.495949 0.441647,-0.05792 0.59731,0.796414 z"
     title="Turkey"
     id="TR"
     style="stroke-width:3.62006" />
  <path
     d="m 288.41788,319.64 -5.12239,1.87519 -1.35028,0.83261 -1.2272,1.0281 -0.9195,1.28512 -0.64437,2.2553 0.48871,2.05982 -0.0471,1.10411 -1.32132,0.73126 -1.23445,0.52491 -1.372,0.80365 -0.83261,0.1991 -0.68057,0.63713 -0.7928,0.44527 -2.85623,1.15842 -3.12049,0.89416 -4.95948,1.07153 -1.91502,1.16204 -1.74124,0.79642 -2.64627,0.23892 -3.63454,1.10412 -2.02,0.88329 -2.5087,1.43717 -0.55387,0.45251 -0.44164,1.05705 -0.77108,0.91226 -1.50956,1.49509 -1.13308,0.76745 -0.7566,0.0398 -1.46974,0.41993 -1.74125,0.0869 -2.92501,-0.52491 -0.75297,0.36562 -0.61903,0.58283 -2.2553,1.02448 -2.2915,2.04534 -1.67609,0.54301 -2.71142,0.64075 -1.89692,0.85071 -1.27426,0.34029 -1.63989,0.17738 -3.03723,-0.0869 -2.87795,0.3077 -2.66798,0.57559 -1.25254,1.08964 -1.42993,1.72677 -2.33494,0.71315 -0.55025,0.61903 -0.72039,1.27065 -1.50956,0.32942 -1.36839,0.21358 -1.39734,-0.55386 -2.6354,1.5349 -0.99552,0.25341 -1.51319,0.0615 -1.07516,0.32218 -0.77107,-0.0905 -0.95932,-0.60093 -2.04171,-0.72763 -1.49146,0.47423 -0.12671,-1.45165 -2.4725,-4.43819 0.51405,-3.86985 v -0.54663 l -0.49233,-1.73039 -1.47336,-1.58196 0.0434,-2.00552 -0.49233,-1.43354 -0.39097,-1.47699 0.1267,-0.39096 0.0217,-0.35477 -0.75297,-2.27702 -0.24978,-0.45975 -0.0941,-0.47785 0.24616,-0.36562 -0.007,-0.42355 -0.39821,-0.69867 -0.42354,-1.33218 -2.00914,-1.0462 0.40907,-0.98104 0.39097,0.34391 0.52852,0.29322 0.10861,-0.63351 0.007,-0.47423 -0.83986,-2.96483 1.2453,-3.96034 -0.40906,-3.573 1.90053,-1.44441 0.47785,-0.43441 0.27512,-0.3801 0.44889,-0.81814 0.61179,-0.26426 0.2172,-0.86157 -0.0181,-0.43079 -0.39458,-0.36925 -0.29685,-1.00276 0.0977,-1.27426 0.0977,-0.53215 0.20635,-0.97379 0.66609,-0.36201 0.15566,-0.2896 -0.51405,-0.61541 0.0471,-0.36925 1.12946,-1.03172 0.44527,-0.3077 0.73125,-0.31857 0.57197,0.004 0.65885,0.18101 0.59007,0.2896 0.57197,0.52491 0.60455,0.59731 0.92674,0.22806 0.62989,-0.0579 0.51405,0.26427 0.43441,-0.14481 0.49232,-0.3077 0.78918,0.0181 0.70953,-0.34753 2.01999,-0.16652 1.9476,0.10498 2.03447,-0.2896 2.03086,0.0217 2.04895,0.0217 0.45251,0.0434 0.44527,0.181 1.72677,0.91226 1.31046,0.18824 2.63178,0.24978 2.80555,0.26789 2.43268,0.22806 2.06344,-0.2172 1.71229,-0.17738 0.46336,0.029 0.51767,0.56473 1.03172,1.4082 0.9738,1.32494 1.70504,0.0724 1.09326,-0.49956 1.20186,-0.7023 0.73488,-0.54301 0.85071,-2.15755 0.55025,-1.39735 1.2634,-1.57472 1.05706,-1.3177 1.39734,-1.74849 0.7747,-0.96656 1.52766,-1.91139 1.45889,-0.74574 2.8164,-1.43716 2.76211,-1.41544 1.79917,-0.92312 1.53129,-0.41993 2.56662,-0.362 3.01551,-0.42717 3.01551,-0.42717 3.21824,-0.45251 3.58386,-0.5068 2.45802,-0.34753 3.13135,-0.44527 2.60645,-0.36924 2.31684,-0.32581 2.38562,-0.33666 0.44888,1.06429 0.44889,1.0643 0.45251,1.0643 0.44889,1.0643 0.44889,1.0643 0.44888,1.06429 0.44889,1.06068 0.45251,1.06068 0.44889,1.06068 0.44888,1.06068 0.44889,1.06067 0.45251,1.06068 0.44889,1.05706 0.44888,1.05706 0.44889,1.05705 0.44889,1.05706 0.44165,1.03172 0.72401,0.34391 0.43079,0.97741 0.61541,1.39373 0.61903,1.3901 0.61541,1.3901 z m -106.62891,14.1291 -0.31856,0.23168 -0.0977,-0.40545 0.20997,-0.91225 0.33304,-0.26427 0.22445,0.67696 -0.14481,0.37286 z m 2.00189,13.89741 -0.13394,0.22083 -0.18462,-0.0471 -0.62989,-0.55387 0.69143,-0.61903 0.36925,0.57558 z m -0.32218,2.78021 -0.67333,0.31856 0.45975,-0.82537 0.4706,-0.17014 0.13033,0.0326 z m 111.83093,11.06653 0.62989,0.12308 0.95208,-0.35839 2.72953,-0.0471 3.29063,1.15118 -0.62265,0.30046 -0.36924,0.41631 -1.44441,0.38011 -1.44078,0.88691 -4.17031,0.43079 -1.22358,-0.23893 -1.00638,-0.85795 -1.86433,-1.11498 0.73487,-0.71315 0.15928,-0.3258 0.27513,-0.31133 1.05344,-0.53939 1.05343,0.0869 z"
     title="Yemen"
     id="YE"
     style="stroke-width:3.62006" />
</svg>
