<svg width="358" height="573" viewBox="0 0 358 573" fill="none" xmlns="http://www.w3.org/2000/svg">
<path fill="black" name="Chile" d="M1 147.658C1.997 145.599 2.546 144.19 4.113 142.436C4.813 141.653 5.353 140.714 6.199 140.07C6.812 139.603 8.144 138.977 8.2 138.077C9.194 138.361 10.242 142.425 9.378 142.933C8.749 143.303 8.031 142.97 7.578 143.615C7.061 144.35 7.177 145.352 8.2 145.497C7.355 146.623 7.733 148.335 9.066 146.898C10.236 145.637 10.683 146.235 11.794 147.177C12.746 147.985 13.836 146.76 14.586 147.976C15.356 149.226 15.381 151.296 17.168 151.633C18.677 151.918 18.839 152.103 19.346 150.456C19.751 149.142 21.2 148.814 21.266 147.472C21.355 145.656 21.639 144.012 22.385 142.327C22.768 141.461 23.286 140.836 23.3 139.84C23.309 139.208 24.043 137.459 24.401 139.157C24.642 138.767 24.689 138.357 24.542 137.928C24.484 137.375 25.292 136.777 25.587 136.386C26.355 135.365 27.316 134.608 28.475 134.077C30.997 132.921 33.949 132.496 36.251 130.898C41.093 127.536 44.446 122.503 45.499 116.767C45.893 117.184 46.372 117.35 46.938 117.267C46.225 115.607 46.971 114.138 45.98 112.721C45.59 112.163 43.651 110.466 43.771 109.777C44.588 109.916 45.541 110.195 46.315 109.736C47.082 109.282 46.839 109.134 47.704 109.455C49.196 110.008 50.3 110.6 51.33 111.841C52.669 113.456 53.426 114.052 54.067 116.117C54.335 116.978 54.002 117.682 55.189 117.785C56.34 117.885 56.039 118.345 56.835 119.056C58.379 120.437 59.516 119.702 60.054 122.059C60.471 123.885 60.393 124.324 62.34 124.907C64.438 125.535 62.457 127.983 63.528 129.203C64.109 129.864 65.015 130.089 65.863 130.054C66.392 129.983 66.924 129.936 67.458 129.912C68.166 129.914 68.993 130.33 69.621 130.308C71.064 130.254 72.773 129.214 73.399 127.955C74.06 126.626 75.886 129.167 76.676 129.228C77.867 129.32 79.706 127.597 80.554 128.218C81.231 128.714 81.828 129.466 82.48 129.913C83.106 130.343 84.578 130.226 84.963 130.635C86.537 132.305 86.561 132.907 85.331 134.855C84.346 136.415 82.432 139.084 82.159 140.899C81.832 143.07 84.333 141.37 85.272 142.19C86.03 142.851 86.621 143.738 87.157 144.58C87.773 145.545 87.356 147.092 86.473 145.638C86.28 145.878 86.087 146.118 85.893 146.358C84.771 144.834 82.284 143.842 80.869 145.629C79.256 147.667 75.744 147.129 73.426 147.743C72.212 148.065 71.625 149.413 70.422 149.788C69.158 150.183 69.569 150.69 68.727 151.448C66.709 153.267 65.311 152.745 65.281 155.863C65.27 156.944 65.336 157.85 64.703 158.791C64.1 159.686 63.38 160.583 63.62 161.73C63.869 162.92 64.895 164.612 63.565 165.53C62.446 166.301 61.388 166.695 60.471 167.77C59.802 168.554 59.454 169.445 59.668 170.478C59.783 170.978 59.957 171.459 60.189 171.918C59.63 172.161 59.049 172.466 58.628 172.919C57.004 174.667 61.796 176.184 59.829 177.387C60.832 178.042 61.526 179.238 61.738 180.402C61.862 181.083 62.331 181.32 62.823 181.717C63.439 182.213 63.381 182.969 63.788 183.587C64.503 184.67 65.881 185.18 66.383 186.434C66.982 187.929 65.833 188.842 65.012 189.917C66.789 190.847 69.401 190.011 71.166 191.184C72.312 191.945 73.37 193.923 72.932 195.317C75.319 195.617 78.379 196.134 80.502 194.681C81.842 193.764 83.589 190.449 85.393 190.427C85.182 191.294 84.508 191.338 85.038 192.234C85.6 193.185 84.66 194.134 84.72 195.22C84.874 198.044 84.971 200.94 85.313 203.747C86.24 202.934 86.867 204.596 87.833 204.502C89.165 204.372 90.099 203.302 91.468 203.335C92.726 203.365 93.462 203.3 94.1 204.487C95.069 206.288 96.063 208.066 97.057 209.855C98.058 211.656 99.036 213.471 100.085 215.245C100.854 216.544 101.504 217.875 100.092 219.089C98.865 220.144 99.192 221.523 99.329 222.99C99.477 224.584 98.952 226.962 99.506 228.406C99.842 229.281 100.676 230.106 100.717 231.078C100.719 231.138 99.884 233.444 99.817 233.505C98.941 234.297 98.278 235.59 97.871 236.695C97.127 238.714 99.261 239.028 99.266 240.597C99.269 241.711 98.251 242.634 98.043 243.714C97.86 244.664 98.525 245.847 98.873 246.707C99.197 247.507 99.729 249.033 100.732 249.215C101.216 249.303 103.769 249.5 102.218 250.496C101.178 251.164 102.125 252.777 101.468 253.142C100.225 253.834 99.999 255.698 99.046 256.645C98.631 257.058 98.065 257.282 97.728 257.779C97.09 258.72 98.071 258.423 98.536 259.044C99.748 260.666 97.281 261.032 96.804 262.037C96.267 263.166 97.487 264.509 96.731 265.805C96.08 266.921 94.705 267.316 93.49 267.316C92.126 267.316 91.076 266.297 90.151 265.425C89.06 264.398 87.866 263.917 86.686 263.081C84.592 261.598 84.749 258.9 82.239 257.87C79.268 256.65 77.266 253.748 74.121 252.974C72.649 252.612 71.137 251.595 69.858 250.799C68.327 249.847 66.671 249.528 65.111 248.687C63.584 247.862 62.288 246.602 60.757 245.73C59.035 244.75 57.32 243.789 55.581 242.836C54.112 242.031 53.227 240.185 52.071 238.996C50.539 237.42 48.38 236.592 47.309 234.636C46.705 233.532 45.936 232.206 44.876 231.541C43.949 230.959 45.18 228.735 43.556 229.015C43.575 228.734 43.646 228.467 43.772 228.215C44.014 228.359 44.254 228.506 44.492 228.655C45.132 225.457 43.749 223.799 42.146 221.179C40.69 218.799 39.701 216.282 37.66 214.347C37.048 213.766 36.423 213.46 36.59 212.665C36.782 211.75 36.246 210.723 35.809 209.961C35.38 209.212 34.861 208.409 34.196 207.844C33.584 207.323 32.539 207.076 32.15 206.318C32.102 205.921 32.138 205.527 32.257 205.138C32.136 204.275 31.589 203.287 31.196 202.523C30.443 201.058 29.415 199.76 28.58 198.344C27.793 197.01 27.351 195.412 26.794 193.975C25.494 190.619 23.398 188.035 22.456 184.79C21.169 180.361 17.408 177.665 15.701 173.29C13.748 168.286 9.71 164.72 4.814 162.656C4.383 162.474 2.768 162.086 2.713 161.489C2.637 160.657 2.462 159.269 3.657 159.417C5.783 159.681 4.976 157.671 4.288 156.624C3.317 155.147 2.351 154.53 2.3 152.693C2.497 152.457 2.689 152.217 2.876 151.973C2.84 151.693 1.991 150.919 1.802 150.705C0.808 149.585 1.416 148.925 1 147.658" stroke="white"/>
<path fill="black" name="Uruguay" d="M204.622 88.6849C205.91 88.6249 206.938 86.4169 207.377 85.4479C208.195 83.6389 207.389 81.6259 208.623 79.9779C210.086 78.0249 208.742 76.5849 207.496 75.0299C206.204 73.4169 206.256 70.5369 206.132 68.5689C205.988 66.2759 206.322 64.9729 207.995 63.3759C208.618 62.7809 209.394 62.1239 209.594 61.2449C209.853 60.1059 210.147 58.6829 211.762 59.2929C212.81 59.6889 213.529 60.5369 214.643 60.8419C215.846 61.1729 217.307 61.1539 218.325 61.9679C219.519 62.9249 221.106 66.5699 222.981 66.4369C222.666 66.8989 222.45 67.4029 222.332 67.9499C222.864 65.5539 226.969 69.6649 224.632 71.2619C225.764 70.8449 225.106 69.7869 225.67 69.0329C226.526 67.8869 227.191 70.5579 227.257 71.1269C227.569 73.8249 225.499 76.6809 224.096 78.8289C222.484 81.2969 221.363 83.3859 220.312 86.1669C219.922 87.1989 219.419 88.0719 218.552 88.7739C218.192 89.0659 217.547 89.7379 217.073 89.8629C216.292 90.0699 215.677 89.4449 214.842 89.8389C215.186 88.8579 214.571 88.8539 213.834 89.0819C212.804 89.4009 211.924 88.9819 210.945 88.6509C210.451 88.4839 208.53 89.8759 208.223 90.2409C207.653 90.9179 204.999 89.0819 204.622 88.6849" stroke="white"/>
<path fill="black" name="Guyana" d="M93.3821 203.528C95.2891 203.652 97.2051 203.817 99.1071 203.96C99.9791 204.025 99.5321 204.17 99.6621 204.69C99.8971 205.63 101.253 204.667 101.634 204.502C102.074 204.311 102.949 204.129 103.232 203.683C103.667 202.997 103.806 202.027 104.458 201.49C105.902 200.301 107.052 202.218 107.837 200.301C108.52 198.632 110.642 198.553 111.953 197.628C113.174 196.766 113.793 194.985 115.309 194.543C117.118 194.016 119.139 193.159 121.059 193.426C123.184 193.722 122.714 193.914 124.123 192.588C127.178 194.7 123.902 198.723 124.79 201.437C125.012 202.117 125.574 202.506 125.81 203.107C126.074 203.78 125.426 204.474 125.269 205.086C124.802 206.913 126.585 207.897 126.989 209.258C127.28 210.238 127.188 210.124 128.032 210.843C128.555 211.289 128.424 212.4 128.907 212.68C129.557 213.057 130.045 212.594 130.611 213.29C131.274 214.105 131.913 214.176 132.681 214.768C132.786 214.849 133.107 215.825 133.28 216.014C133.794 216.579 134.426 216.68 135.143 216.848C136.117 217.077 136.654 217.475 137.611 216.943C138.396 216.507 139.187 216.713 139.9 217.21C140.479 217.613 140.961 218.14 141.559 218.519C142.385 219.041 142.544 217.957 143.204 218.149C144.449 218.511 144.485 220.848 146.1 221.029C147.511 221.187 148.492 222.305 149.891 222.381C151.831 222.486 152.115 225.361 153.736 225.778C155.069 226.121 156.35 225.896 157.663 225.695C159.528 225.41 161.414 226.893 162.961 227.769C165.494 229.204 163.875 230.569 164.789 232.646C165.796 234.935 166.179 236.954 166.674 239.389C166.049 239.371 165.425 239.394 164.804 239.459C164.882 241.233 167.143 242.259 167.441 244.166C167.664 245.591 167.509 247.263 168.133 248.59C168.924 250.271 172.003 249.699 173.517 249.849C176.366 250.131 179.323 250.545 182.154 249.898C182.195 251.167 181.453 251.942 181.357 253.087C181.278 254.032 181.662 255.228 181.907 256.141C182.295 257.583 183.979 259.828 185.547 260.12C186.346 260.269 186.766 259.736 187.127 260.744C187.401 261.509 187.765 262.213 188.07 262.969C188.873 264.955 189.914 266.061 189.454 268.215C189.223 269.298 188.315 271.16 188.689 272.269C189.215 273.83 188.101 275.159 187.497 276.662C186.682 278.688 186.64 279.616 188.288 281.006C189.513 282.039 187.548 282.68 186.694 283.309C187.285 281.356 186.001 280.012 184.468 279.034C182.859 278.007 180.754 276.155 178.905 275.739C173.781 274.587 167.743 277.276 162.779 278.154C160.409 278.572 159.121 278.53 158.737 281.11C158.417 283.254 156.583 284.681 156.234 286.761C155.906 288.719 156.961 290.556 156.561 292.578C155.994 295.446 155.779 298.39 155.085 301.23C153.646 300.078 153.907 298.995 151.9 299.072C150.354 299.131 148.581 298.962 147.136 299.535C145.446 300.205 145.513 298.489 144.596 300.823C143.811 302.82 143.423 304.603 143.204 306.711C141.016 303.665 141.377 300.716 137.171 300.044C135.458 299.77 132.952 300.587 131.427 299.845C130.092 299.195 129.319 297.576 127.794 297.271C127.583 299.439 127.706 300.122 125.527 300.913C124.436 301.31 123.287 303.431 122.638 304.442C121.649 305.984 121.299 306.728 119.299 306.94C118.614 307.012 117.818 307.024 117.182 306.716C116.039 306.162 116.786 304.898 116.418 303.997C115.969 302.899 115.944 301.577 115.342 300.552C114.801 299.631 114.205 299.016 113.903 297.954C113.374 296.093 112.929 293.621 111.848 292.008C111.239 291.099 110.29 290.69 109.653 289.862C108.95 288.949 109.778 288.027 109.317 287.091C108.925 286.297 107.85 286.243 107.447 285.439C106.996 284.539 108.058 283.927 106.844 282.802C108.984 281.509 108.808 281.711 107.301 279.678C107.082 279.382 107.916 278.114 108.065 277.857C108.816 276.556 108.018 276.149 107.006 275.331C105.021 273.726 104.17 272.286 103.519 269.838C103.225 268.73 101.52 265.897 102.595 264.872C99.3101 264.213 100.139 258.97 97.4851 258.393C97.6061 257.727 98.0981 257.371 98.6081 257.007C99.3901 256.45 99.6381 255.54 100.178 254.778C100.646 254.117 100.985 253.513 101.618 253.004C101.714 252.927 101.65 251.734 101.701 251.533C101.862 250.894 103.632 249.174 101.649 249.122C100.186 249.083 99.7741 248.731 99.1191 247.288C98.6851 246.333 97.8351 244.801 98.0431 243.721C98.2411 242.691 99.6881 241.252 99.1711 240.179C98.3591 238.491 97.0901 238.18 98.1421 236.088C98.8201 234.738 99.5231 233.725 99.9771 232.388C100.516 230.802 100.837 230.866 99.9051 229.187C99.0491 227.644 99.6811 226.404 99.5281 224.749C99.4041 223.415 98.5911 220.679 99.5991 219.546C100.6 218.42 101.521 217.654 100.658 216.183C98.2151 212.017 95.6171 207.799 93.3821 203.528" stroke="white"/>
<path fill="black" name="Paraguay" d="M58.0959 173.938C58.7989 173.217 58.4809 172.715 59.5169 172.223C60.6819 171.67 59.3569 170.418 59.6509 169.162C60.2179 166.744 62.8329 167.057 63.8239 165.401C64.5239 164.232 63.9289 163.103 63.6499 161.91C63.3949 160.816 63.9629 159.83 64.5749 158.968C65.8039 157.236 64.4989 154.72 65.7529 153.198C66.3989 152.413 67.7749 152.362 68.5359 151.617C69.2109 150.956 69.2859 150.223 70.2219 149.899C71.4269 149.481 72.0569 148.274 73.2169 147.798C74.2909 147.358 75.9519 147.388 77.1149 147.146C78.4969 146.858 79.6469 146.924 80.6659 145.843C80.8299 145.67 82.2979 144.063 82.6209 144.604C82.9229 145.11 83.5119 144.98 84.1019 144.898C84.7779 144.804 85.5059 145.837 85.8889 146.357C86.0829 146.117 86.2759 145.878 86.4689 145.637C87.5119 147.356 88.0309 143.927 88.1209 143.319C88.5339 140.545 88.9429 137.769 89.2249 134.978C89.6079 131.19 90.2459 127.445 90.7789 123.677C91.0039 122.086 91.8609 120.624 91.4829 118.988C91.1199 117.415 90.1109 116.43 90.0609 114.747C90.0089 113.008 88.9659 112.58 87.6759 111.733C86.0259 110.65 86.3879 108.967 86.3879 107.254C86.3879 106.258 86.0549 105.006 86.5899 104.089C86.8929 103.569 88.8399 102.955 89.3819 103.157C90.2569 103.481 90.5679 102.353 91.7159 102.962C92.8929 103.587 93.3039 103.233 93.2109 101.874C93.0649 99.7429 89.8089 98.3919 87.9769 99.6309C88.1599 98.1479 87.4659 95.7149 88.1219 94.3719C88.7659 93.0529 91.0999 93.8719 92.0179 93.8719C94.2129 93.8719 96.3959 93.8839 98.5869 93.9739C98.9749 93.9899 100.24 94.1179 100.357 93.5119C100.418 93.1979 100.633 91.6509 101.129 91.6899C101.976 91.7559 101.587 94.5709 103.123 93.5389C104.116 92.8719 104.665 91.7069 105.509 90.8859C106.672 89.7539 107.885 91.6389 108.369 92.5519C109.286 94.2799 109.159 95.3749 108.968 97.2399C108.923 97.6789 108.752 98.6659 109.551 98.5189C110.669 98.3129 110.823 98.2859 111.703 99.1729C112.778 100.256 113.782 101.543 115.2 102.198C117.105 103.077 117.714 101.22 119.164 100.458C121.894 99.0219 120.3 102.448 120.946 103.23C121.656 102.999 122.924 101.154 123.355 100.534C124.089 99.4799 124.41 98.8929 125.692 98.3969C126.764 97.9819 127.545 97.7319 128.361 96.9319C128.941 96.3629 130.155 95.3359 130.095 96.8969C130.951 95.4749 131.907 94.9549 132.325 93.2969C132.655 91.9929 133.188 91.9109 134.408 91.5999C134.822 91.4949 136.966 90.3669 137.24 90.0049C138.741 88.0179 136.532 87.4819 134.903 87.5719C134.104 87.6159 133.387 87.5069 132.743 86.9839C132.364 86.6769 133.015 85.5899 132.936 85.1709C132.514 82.9349 130.83 81.5369 131.315 79.0399C131.666 77.2299 130.301 76.6539 129.201 75.5549C128.571 74.9249 126.556 72.6489 127.505 71.6959C128.155 71.9809 128.417 72.9729 129.121 73.0419C130.084 73.1359 131.968 72.4149 132.38 73.8269C132.714 74.9699 133.048 75.2249 134.159 74.6699C135.248 74.1249 136.463 75.8829 137.365 75.0259C138.933 73.5359 140.021 78.4039 142.06 77.8829C143.36 77.5509 142.148 74.9669 142.696 74.1079C143.097 73.4809 144.176 73.7999 144.762 73.0989C145.615 72.0779 146.483 73.3359 147.402 73.2419C148.933 73.0829 151.827 72.2369 152.339 70.8579C152.306 70.9449 154.433 69.7439 154.247 69.7019C155.23 69.9259 155.819 69.8899 156.513 69.0199C157.701 67.5319 161.079 65.6109 158.385 63.7759C159.478 63.6109 160.409 63.8549 161.513 63.5419C162.409 63.2869 163.396 63.3539 163.818 64.3029C164.66 66.1929 163.019 67.5439 163.134 69.2549C163.196 70.1639 165.459 70.2029 166.054 70.7969C166.303 71.0459 165.741 71.7699 165.954 72.2679C166.3 73.0759 166.709 73.8049 167.157 74.5389C167.653 75.3519 165.074 77.3819 164.894 78.0539C164.714 78.7229 164.978 79.5149 164.802 80.2379C164.479 81.5639 163.692 82.8179 163.532 84.1769C163.296 86.1929 164.105 87.4609 164.96 89.1109C165.356 89.8769 164.806 92.9499 166.093 92.8669C165.998 93.1069 165.901 93.3469 165.803 93.5869C167.252 93.7809 168.234 95.5359 169.032 96.5589C169.683 97.3939 170.938 96.9139 171.502 97.8039C172.015 98.6139 172.275 98.5959 173.02 98.1839C173.491 97.9229 175.22 97.5249 174.848 96.7659C174.159 95.3589 177.666 95.6449 178.154 95.4779C178.827 95.2479 179.353 94.4439 180.018 94.1109C180.958 93.6399 181.567 94.4369 182.381 93.4549C183.458 92.1559 184.643 90.8239 186.23 91.9859C187.758 93.1049 189.062 91.6509 190.658 92.0829C191.702 92.3659 194.146 93.7089 194.536 91.9339C194.895 90.3009 192.249 89.9299 193.277 88.4619C194.516 86.6939 195.117 87.8229 196.859 87.7389C197.992 87.6839 198.932 87.5019 199.864 87.1049C201.842 86.2669 201.385 86.5089 202.884 87.7529C203.181 87.9989 203.088 87.1859 203.447 87.7419C203.893 88.4329 204.545 88.7459 205.196 89.2389C206.038 89.8769 206.874 89.8839 207.749 90.3609C208.74 90.9019 208.349 89.9289 209.145 89.7689C209.851 89.6269 210.046 88.8959 210.619 88.5779C211.109 88.3059 211.725 88.9569 212.246 89.0039C212.888 89.0619 215.299 88.5179 214.835 89.8409C215.543 89.5069 216.668 90.3409 217.252 89.8169C218.077 89.0759 219.115 88.5629 219.735 87.6089C220.61 86.2629 221.33 84.6709 221.738 83.1189C222.815 79.0179 225.697 76.0509 228.295 72.7769C228.386 73.3539 228.63 73.8589 229.025 74.2899C228.696 73.3539 227.91 72.1959 228.735 71.2659C230.921 72.6199 231.204 74.7979 230.965 77.1699C231.089 76.4719 231.156 75.7109 231.755 75.2259C231.672 78.3609 231.997 81.6329 233.104 84.5819C233.556 85.7879 235.412 89.4459 234.055 90.5609C235.103 90.2149 235.278 91.3469 235.608 92.0339C236.251 93.3719 237.77 92.8349 238.885 93.2969C241.429 94.3519 240.939 97.3519 238.735 98.3369C239.308 98.1749 239.951 98.2769 240.395 98.6959C239.426 99.6649 237.744 100.535 237.353 101.944C237.151 102.669 236.326 102.997 235.936 103.59C235.345 104.488 235.084 105.487 234.364 106.316C233.388 107.438 232.134 108.254 231.041 109.248C229.691 110.477 228.987 112.128 227.851 113.53C226.798 114.829 226.411 115.831 226.559 117.503C226.641 118.44 224.913 118.606 224.852 119.893C224.77 121.628 223.502 120.693 222.614 120.664C221.801 120.637 219.245 121.89 218.946 122.671C219.665 122.504 223.548 121.766 222.466 123.541C223.201 122.732 224.347 122.806 225.237 122.282C226.276 121.671 227.074 121.007 228.197 120.525C229.659 119.897 231.819 118.076 232.627 116.7C234.519 117.798 232.713 120.639 233.945 122.158C234.44 122.767 233.963 124.398 234.779 124.639C235.46 124.839 236.639 124.443 236.226 125.631C237.824 125.944 240.684 123.031 240.976 126.351C240.833 125.328 241.843 125.138 242.608 124.991C242.99 125.003 243.262 124.832 243.424 124.477C243.721 123.686 244.569 123.98 245.225 123.831C244.373 126.505 243.579 128.252 243.705 131.03C244.925 129.455 244.204 126.028 246.252 125.062C247.615 124.42 247.84 124.229 248.647 122.913C249.979 120.738 250.343 122.348 251.695 123.181C251.667 122.724 251.55 122.29 251.345 121.881C252.098 121.829 252.835 121.658 253.575 121.521C252.815 121.139 251.962 121.455 251.195 121.591C251.001 120.54 251.745 120.496 252.334 119.932C253.227 119.076 252.263 117.175 253.363 116.089C254.659 114.809 254.293 115.888 255.155 115.551C255.761 115.315 257.03 113.787 257.175 115.331C258.369 114.166 258.436 115.793 259.545 115.4C259.068 114.99 258.957 114.373 259.255 113.82C259.936 114.019 261.561 114.416 261.205 115.47C261.441 115.342 261.681 115.222 261.925 115.11C262.022 115.377 262.118 115.644 262.215 115.911C262.837 115.417 262.935 115.413 262.935 116.261C263.511 116.071 263.915 115.585 263.945 114.971C263.583 115.903 264.856 116.077 264.515 116.992C264.604 116.406 264.981 116.028 265.595 116.262C265.586 116.881 265.179 117.349 264.585 117.492C265.613 116.895 266.549 118.356 267.535 117.422C267.403 118.776 268.403 117.975 268.695 117.272C268.282 118.912 269.658 118.233 269.555 119.293C269.941 119.139 270.231 118.876 270.425 118.503C270.292 119.431 271.449 119.092 271.645 119.942C271.891 119.708 272.131 119.468 272.365 119.222C272.412 119.761 272.606 120.241 272.945 120.662C273.183 120.47 273.42 120.277 273.655 120.082C273.778 120.802 274.062 121.145 274.735 120.441C274.21 120.816 274.072 121.413 274.455 121.951C274.604 121.397 275.031 120.971 275.604 120.871C274.791 121.603 275.08 123.164 275.825 123.832C276.15 123.223 275.759 122.197 276.581 121.879C278.075 121.299 277.406 122.372 278.125 122.602C278.083 122.001 278.441 121.53 278.985 121.312C278.735 121.784 278.615 122.288 278.625 122.822C280.334 121.797 278.401 124.856 280.215 123.753C279.965 123.982 279.725 124.223 279.495 124.473C280.078 124.675 280.611 124.389 280.934 123.903C280.443 124.967 282.173 124.385 281.424 125.812C280.755 127.087 281.07 128.149 279.424 128.653C280.016 128.281 280.479 128.613 280.644 129.223C280.686 128.308 281.693 126.902 282.537 128.089C283.439 129.36 281.859 129.757 281.362 130.712C280.938 131.526 280.184 134.036 280.475 134.919C280.797 135.896 279.247 136.707 279.925 137.434C280.015 136.061 281.644 135.645 282.225 134.554C282.802 133.47 282.423 131.654 283.051 130.762C283.372 130.304 284.821 129.263 285.29 130.053C286.06 131.349 283.622 132.04 283.456 133.114C284.166 132.657 284.406 132.827 284.176 133.624C285.015 133.218 286.194 129.932 286.626 131.604C286.697 130.45 288.922 129.824 289.786 130.314C289.694 128.042 294.403 130.558 295.238 131.039C295.83 131.38 299.091 132.707 299.146 133.334C299.856 132.871 301.739 134.042 301.386 132.544C302.329 132.753 302.967 133.458 303.826 133.834C304.816 134.266 305.878 134.2 306.706 134.994C306.69 133.609 307.545 133.756 308.621 133.717C310.778 133.64 312.684 132.775 314.881 133.244C318.903 134.102 322.624 137.536 325.759 139.996C326.803 140.815 328 140.953 328.866 141.984C329.695 142.972 330.336 144.076 331.121 145.09C332.006 146.234 333.191 146.744 334.003 147.868C334.87 149.068 336.464 149.2 337.418 150.441C338.376 151.687 339.772 151.183 340.865 152.256C342.13 153.499 344.352 152.997 345.904 152.803C349.472 152.358 352.108 153.692 353.145 157.232C353.547 158.603 354.149 159.968 354.173 161.42C354.18 161.858 353.808 162.591 354.146 162.759C354.533 162.95 354.748 163.481 354.902 163.849C355.55 165.398 356.649 168.848 355.815 170.482C356.045 170.131 356.258 169.772 356.455 169.402C356.299 171.04 357.496 173.013 355.815 174.222C356.081 174.286 356.344 174.359 356.605 174.442C355.932 175.797 356.998 177.429 356.175 178.657C355.323 179.929 355.959 181.643 355.292 182.979C354.516 184.53 354.247 186.272 353.528 187.847C352.738 189.58 351.016 190.711 350.345 192.512C350.095 192.334 349.855 192.144 349.625 191.942C349.678 192.672 349.45 193.581 348.755 192.372C348.876 192.832 349.166 193.073 349.625 193.093C348.575 195.164 347.037 197.866 345.298 199.433C344.581 200.079 343.613 200.337 342.883 200.979C342.122 201.648 341.529 202.524 340.625 203.023C340.776 202.408 340.382 201.975 339.825 201.803C339.756 202.472 340.596 202.688 340.475 203.313C340.318 204.118 339.623 205.192 338.825 204.183C339.22 204.699 340.15 205.197 339.588 205.975C339.263 206.426 337.906 207.92 338.455 206.263C338.004 206.98 338.098 207.883 337.455 208.503C337.744 208.413 338.031 208.316 338.315 208.213C336.731 210.474 334.213 221.866 330.105 221.173C330.861 219.451 329.114 219.13 328.595 217.782C328.561 218.563 327.698 220.758 327.015 219.083C327.227 219.784 328.311 220.072 328.279 220.827C328.221 222.154 326.544 223.101 327.015 224.553C325.861 223.773 326.098 225.761 326.076 226.573C326.159 226.201 326.278 225.841 326.435 225.494C326.822 226.504 326.831 227.379 326.795 228.443C326.515 228.221 326.252 227.981 326.005 227.723C326.63 228.252 327.189 229.962 326.945 230.753C327.141 230.249 327.331 229.742 327.515 229.232C327.614 232.261 326.649 235.006 327.086 238.08C327.461 240.717 328.608 243.478 328.739 246.107C328.971 250.775 326.041 255.123 327.339 259.911C328.064 262.581 326.375 262.909 325.231 264.916C323.912 267.229 323.71 270.103 324.04 272.698C324.275 274.55 325.372 278.281 323.18 279.244C321.113 280.153 322.773 284.199 320.316 284.531C322.061 286.075 319.106 288.009 318.109 288.959C317.255 289.773 317.502 290.387 317.2 291.479C316.755 293.09 316.022 294.542 316.281 296.259C316.416 297.152 317.063 298.547 316.393 299.362C315.288 300.707 313.598 300.665 312.209 301.494C311.267 302.057 310.296 303.106 309.873 304.122C309.599 304.779 309.918 305.388 310.109 306.015C310.306 306.658 309.479 306.993 309.806 307.712C308.823 306.624 306.003 307.169 304.766 307.427C304.042 307.578 302.879 307.977 302.176 307.572C301.133 306.971 301.874 305.958 301.816 305.052C299.5 305.323 301.401 306.289 301.092 307.454C300.786 308.607 296.158 308.16 295.115 308.722C295.822 307.968 297.043 308.306 297.925 308.002C296.977 307.155 295.917 306.694 294.742 307.41C293.699 308.045 293.231 307.54 292.153 307.662C291.371 307.75 290.071 307.84 289.798 308.768C289.543 309.633 290.877 310.014 291.376 310.382C290.239 311.31 288.725 310.334 287.981 311.431C287.341 312.375 286.314 312.487 285.429 313.102C284.647 313.644 285.61 314.479 284.826 314.993C283.742 315.704 281.895 313.691 280.355 314.993C280.193 315.13 279.126 317.09 278.743 316.606C278.409 316.186 278.672 315.569 277.835 315.712C278.276 317.021 276.582 317.171 275.642 317.798C274.488 318.568 273.955 319.663 273.044 320.652C272.051 321.728 270.523 322.028 269.447 322.998C268.529 323.828 268.005 325.085 266.964 325.782C267.203 325.93 267.443 326.077 267.684 326.222C266.876 327.058 266.07 328.032 265.594 329.102C265.52 328.557 265.663 328.078 266.024 327.663C265.272 327.985 264.493 327.778 263.794 327.442C264.119 328.936 263.288 329.8 261.854 328.592C261.839 329.453 263.874 330.339 264.654 330.252C264.116 330.752 263.929 331.428 263.794 332.122C263.687 332.676 262.567 332.5 262.214 332.772C262.696 332.757 263.176 332.78 263.654 332.842C263.437 333.523 263.718 334.221 263.52 334.899C263.287 335.696 262.439 335.833 262.214 334.932C262.492 335.521 262.364 336.322 263.017 336.602C263.871 336.968 263.372 338.779 263.574 339.472C263.896 340.576 265.265 342.193 264.654 343.572C265.71 343.321 265.602 344.567 264.734 344.722C265.685 345.448 264.942 348.523 265.703 349.795C266.416 350.987 265.151 353.949 265.094 355.162C264.716 354.885 264.403 354.548 264.154 354.151C264.413 354.768 264.39 355.501 265.164 355.742C264.36 356.876 263.082 357.553 262.052 358.449C260.955 359.404 260.197 360.682 259.518 361.95C257.867 365.035 257.385 368.323 256.508 371.663C255.685 374.8 254.128 377.648 252.32 380.316C250.579 382.885 248.047 384.72 246.013 387.061C246.375 386.133 245.858 385.001 245.653 384.101C246.713 384.392 247.131 384.484 248.07 383.831C248.905 383.251 249.371 381.917 250.126 381.493C251.169 380.907 251.345 380.421 251.341 379.216C251.338 378.439 251.476 377.077 252.424 378.2C252.069 377.057 252.605 376.623 253.277 375.826C253.828 375.172 253.944 374.421 253.823 373.592C253.736 372.99 253.097 370.976 254.433 372.221C254.466 371.908 254.037 369.977 253.54 370.148C253.224 370.256 251.495 371.559 251.483 371.941C251.008 371.403 250.736 370.762 250.031 370.511C249.199 370.215 249.359 369.031 248.602 368.631C248.536 370.601 249.47 370.523 250.252 371.941C248.599 372.345 249.801 374.255 249.682 375.321C249.567 374.795 249.351 374.316 249.033 373.882C248.796 374.563 249.44 375.437 249.099 376.007C248.948 376.26 248.417 376.213 248.491 376.606C248.802 378.245 247.407 379.12 246.245 379.783C245.328 380.306 245.695 381.45 245.432 382.311C245.211 383.033 243.391 384.798 245.142 384.971C244.212 385.55 244.873 386.826 245.792 386.12C245.94 387.037 245.264 387.889 244.894 388.662C244.289 389.929 244.335 391.457 244.142 392.82C243.762 395.505 242.123 397.106 240.732 399.282C239.601 401.051 237.994 400.664 237.761 398.624C237.659 397.729 237.32 396.706 237.346 395.823C237.38 394.705 238.659 393.764 239.102 392.802C239.806 391.273 237.898 390.702 236.888 390.234C235.712 389.689 235.124 388.73 234.52 387.64C233.198 385.253 230.926 385.254 228.987 383.687C227.965 382.86 227.41 381.542 226.142 381.01C225.633 380.925 225.127 380.828 224.622 380.72C224.047 380.445 223.828 379.763 223.252 379.5C222.363 379.094 221.912 379.577 221.094 378.505C220.224 377.365 219.42 376.14 217.932 375.75C218.505 376.989 215.58 378.927 215.441 376.465C215.324 374.382 212.849 373.044 211.377 371.934C210.284 371.11 207.966 368.278 206.318 369.472C205.769 369.87 205.926 370.889 205.03 370.799C203.993 370.695 203.187 370.908 202.452 369.989C203.998 369.378 204.063 367.222 205.364 366.225C206.833 365.1 207.53 363.422 208.072 361.751C208.684 359.869 210.302 358.456 211.223 356.728C211.69 355.853 212.601 353.398 213.822 354.658C214.114 354.072 213.853 353.56 213.252 353.357C214.223 352.182 215.393 351.006 216.731 350.256C218.1 349.488 218.281 348.695 219.22 347.677C220.167 346.649 221.338 346.4 222.51 345.802C223.366 345.364 224.908 343.416 225.993 343.927C226.241 342.15 226.179 340.722 226.131 338.948C226.073 336.796 225.866 335.665 225.136 333.659C224.619 332.241 224.294 330.605 222.715 330.045C221.803 329.721 220.075 329.592 219.873 330.897C219.02 330.357 217.92 329.846 218.277 328.621C218.774 326.923 218.91 325.802 219.105 324.055C219.239 322.857 218.937 321.201 219.474 320.105C220.034 318.961 218.223 317.861 219.513 316.928C218.63 316.324 217.92 315.125 216.773 314.989C215.567 314.845 214.734 315.997 213.683 316.348C210.785 317.317 210.049 314.411 209.433 312.178C209.063 310.837 208.724 309.369 208.476 308.003C208.247 306.735 208.427 305.282 207.408 304.344C206.455 303.467 206.998 302.164 205.448 301.756C204.238 301.438 203.162 301.536 202.171 300.631C201.21 299.754 200.626 300.327 199.809 301.074C198.981 301.831 197.825 301.312 196.873 301.19C195.503 301.014 194.072 301.029 192.843 300.36C192.189 300.004 190.019 300.626 189.821 299.795C189.618 298.946 189.902 298.053 189.852 297.197C189.805 296.398 189.263 295.268 189.565 294.491C190.096 293.122 189.53 291.877 189.811 290.556C190.026 289.542 188.238 289.13 189.202 287.988C188.369 287.936 188.2 287.096 188.134 286.427C188.028 285.355 187.462 285.099 186.877 284.28C185.562 282.44 190.166 282.397 188.296 280.953C186.034 279.207 186.8 277.858 187.869 275.411C188.158 274.75 189.205 273.506 188.855 272.875C188.262 271.806 188.684 270.889 188.958 269.695C189.179 268.73 189.857 267.281 189.772 266.306C189.685 265.311 188.643 264.592 188.262 263.716C187.798 262.652 187.72 260.388 186.449 260.264C184.744 260.097 182.751 258.841 182.189 257.12C181.815 255.975 181.35 254.602 181.315 253.391C181.28 252.181 182.183 251.165 182.142 249.895C179.709 250.451 177.172 250.188 174.719 249.937C173.162 249.778 169.569 250.25 168.448 249C167.426 247.859 167.666 245.581 167.424 244.162C167.102 242.276 164.867 241.169 164.792 239.455C165.414 239.39 166.037 239.367 166.662 239.385C166.241 237.31 166.108 235.135 165.164 233.203C164.8 232.458 164.315 231.927 164.502 231.052C164.714 230.058 164.867 229.426 164.096 228.611C161.547 225.919 157.729 225.21 154.288 225.991C153.327 226.209 151.63 223.657 151.163 223.03C150.652 222.346 150.288 222.669 149.611 222.615C149.001 222.566 147.627 221.711 147.197 221.282C146.815 220.9 146.141 221.25 145.687 220.935C144.994 220.453 144.618 219.512 144.128 218.852C143.491 217.995 143.228 218.154 142.362 218.54C141.343 218.995 140.932 217.879 140.24 217.425C138.443 216.242 137.789 217.569 135.965 217.14C133.875 216.65 133.671 216.488 132.534 214.891C131.998 214.138 130.124 212.886 129.241 212.794C128.375 212.704 128.639 211.472 128.121 210.897C127.744 210.48 126.885 210.554 126.892 209.902C126.906 208.483 125.568 207.653 125.41 206.044C125.324 205.169 126.035 204.213 125.853 203.432C125.69 202.73 124.884 202.586 124.765 201.769C124.67 201.112 124.715 200.426 124.545 199.779C124.318 198.919 125.266 198.321 125.41 197.544C125.686 196.057 125.485 193.535 124.11 192.584C123.776 192.898 123.492 193.703 122.939 193.659C121.555 193.548 120.49 193.562 119.095 193.722C117.567 193.897 114.964 193.947 114.03 195.424C112.682 197.554 110.731 197.549 108.966 198.988C108.446 199.412 107.64 200.07 107.514 200.779C107.319 201.88 106.198 200.999 105.557 200.937C104.541 200.837 104.105 201.93 103.777 202.675C103.326 203.7 102.422 204.257 101.425 204.707C101.16 204.827 99.3869 205.43 99.5079 204.597C99.6619 203.536 98.4409 203.755 97.6619 203.733C95.6329 203.674 92.5959 202.771 90.6619 203.361C89.6669 203.665 88.7379 204.752 87.6089 204.404C86.9359 204.197 86.0219 203.108 85.2979 203.744C84.9759 201.108 85.0729 198.441 84.7419 195.81C84.5819 194.539 84.8669 194.14 85.2419 193.053C85.2629 192.701 85.1569 192.386 84.9219 192.108C84.5499 191.386 85.2199 191.071 85.3779 190.424C83.4829 190.447 81.7279 193.46 80.4599 194.59C78.5369 196.301 75.2229 195.604 72.9179 195.314C73.3099 194.068 72.3179 192.012 71.3929 191.217C69.7359 189.794 66.8109 190.863 64.9979 189.915C67.1069 187.152 66.4199 186.371 64.1489 184.04C63.6649 183.543 63.6089 183.069 63.4099 182.435C63.1979 181.761 62.4319 181.588 62.0199 181.065C61.0709 179.863 61.2909 178.349 59.8139 177.384C61.3229 176.47 58.5769 174.663 58.0959 173.938" stroke="white"/>
<path fill="black" name="Ecuador" d="M63.4961 29.4289C65.4661 27.1049 66.4521 24.6109 67.0731 21.6809C67.6691 18.8719 68.6081 16.8339 70.0721 14.3779C71.2651 12.3779 73.3281 11.7879 74.4721 9.68988C75.7761 7.29988 78.4281 7.56088 80.5591 6.24588C79.6911 8.36388 76.9891 6.89488 75.7351 8.40488C74.6671 9.69088 76.1631 12.7539 77.5351 13.3009C76.2941 13.2389 77.4911 15.9919 77.6111 16.5119C77.9791 18.1109 76.4421 19.7299 75.3771 20.7379C73.9901 22.0499 73.3141 23.6449 74.1731 25.3669C74.5061 26.0329 74.6171 26.8749 75.2561 27.3479C75.9641 27.8719 76.0781 27.6409 75.9571 28.5929C75.7021 30.5939 77.2371 31.0449 78.8451 30.1309C80.5051 29.1869 81.1621 27.7909 81.3761 25.9479C81.6511 23.5839 80.5891 22.2609 79.4021 20.3319C78.9301 19.5659 78.5151 18.7039 78.2351 17.8469C77.9831 17.0749 78.6401 16.0209 78.0391 15.3899C78.9411 15.4959 79.7231 14.1319 80.4151 13.7339C81.6811 13.0049 82.8661 12.0479 84.3411 11.7889C85.6171 11.5639 86.6371 11.3899 87.7571 10.7149C88.1791 10.4609 89.4351 9.44588 89.9881 9.70288C89.9141 9.30088 89.7241 8.96487 89.4181 8.69388C89.9681 8.91788 91.6461 10.3219 92.2181 9.65889C92.6061 9.20889 92.2041 8.10289 91.7041 7.89489C90.8491 7.53989 89.7031 8.34789 88.8381 8.40589C89.0071 7.41389 88.1731 2.15488 91.1131 3.36388C92.4511 3.91388 92.1761 6.81789 92.3831 7.95489C92.8421 10.4779 95.5541 8.80289 97.3501 9.42889C99.3601 10.1299 101.865 10.6719 102.744 13.0059C103.282 14.4349 101.884 17.6409 104.264 18.1459C107.095 18.7469 110.68 17.4359 113.485 17.0629C115.89 16.7429 118.391 16.2299 119.864 18.3789C120.474 19.2689 121.328 19.9959 122.348 20.3549C123.179 20.6479 124.041 20.8419 124.891 21.0669C124.801 21.0429 127.681 21.6549 126.347 21.6549C128.611 22.8819 129.688 20.2279 131.478 20.0619C132.566 19.9609 132.815 18.8279 133.718 18.4059C134.963 17.8259 136.383 18.9339 137.656 18.1999C136.56 17.0429 133.984 18.2819 133.256 16.8319H135.145C136.031 16.8319 136.291 16.2859 136.936 16.2559C137.254 16.3659 137.562 16.4979 137.861 16.6529C138.743 16.8129 139.659 16.7039 140.533 16.5559C144.267 15.9259 148.092 16.6299 151.766 15.8949C151.192 17.0589 149.353 16.8399 148.296 17.3959C146.638 18.2689 144.685 16.8829 143.126 18.1989C143.628 17.6979 144.149 17.7649 144.346 18.4859C143.73 18.4349 143.287 18.8219 143.196 19.4229C144.561 18.6179 145.608 19.4359 145.578 21.0369C145.554 22.3049 143.428 21.4559 142.766 21.4389C143.243 23.2179 146.171 21.9659 145.866 20.3589C146.655 20.4709 146.991 21.3759 147.055 22.0569C147.14 22.9629 147.98 23.9829 147.876 24.8229C148.437 24.2249 148.719 23.3959 148.456 22.5919C149.18 23.2999 149.289 24.6679 148.666 25.4719C149.431 24.9259 149.115 23.8549 149.026 23.0959C149.418 23.1879 149.801 23.3079 150.176 23.4559C150.102 23.3749 147.725 22.1069 149.124 22.2829C150.452 22.4499 152.182 23.8439 151.476 25.3279C151.792 24.7539 152.246 24.8049 151.906 24.2479C152.441 23.9809 152.994 23.9339 153.566 24.1029C152.347 22.7509 154.32 23.9699 154.765 24.6899C155.582 26.0119 157.023 25.4699 158.081 26.2909C160.906 28.4819 157.591 28.4919 156.876 30.5119C157.104 30.2599 157.344 30.0199 157.596 29.7919C157.795 30.8269 156.672 32.6219 156.183 33.4829C155.881 34.0149 155.968 34.4709 155.281 34.4709C154.673 34.4709 152.812 33.9269 152.416 34.4709C153.299 34.9709 154.725 35.1189 155.226 36.1269C155.797 35.3829 156.602 34.8549 156.736 36.0549C157.563 35.1449 158.183 34.7149 159.396 34.4709C160.529 34.2429 160.969 35.4489 162.024 34.4319C163.847 32.6739 167.129 37.0379 166.103 37.5559C165.082 38.0719 164.495 38.8169 163.664 39.6079C162.887 40.3489 161.541 40.7049 160.926 41.3559C160.485 41.8229 160.126 42.4659 159.729 42.9779C158.925 44.0159 160.097 44.6709 160.01 45.7979C159.955 46.4989 160.217 47.2779 161.03 46.8329C162.002 46.3019 162.682 47.5809 161.947 48.2889C161.138 49.0679 159.935 49.3429 159.152 50.1249C158.777 50.4999 158.125 49.9559 157.739 49.9179C157.395 49.8839 157.199 50.5559 156.866 50.6859C153.836 51.8699 156.917 53.7479 155.313 55.5249C154.905 55.9769 153.278 56.9999 153.855 57.7889C154.836 59.1299 155.843 60.4869 156.898 61.7689C158.149 63.2899 160.7 65.6979 158.309 67.4419C157.501 68.0309 157.005 68.9469 156.193 69.5319C155.743 69.8569 154.115 69.6579 154.015 69.8229C153.577 70.5419 152.268 70.3799 152.244 71.1259C152.216 72.0119 150.65 72.0219 150.034 72.3169C148.857 72.8809 147.41 73.6209 146.108 72.9699C145.225 72.5289 144.41 73.6339 143.491 73.8139C142.372 74.0349 142.353 75.2089 142.615 76.1269C142.993 77.4529 141.886 78.4739 140.773 77.4649C140.02 76.7809 139.648 75.8709 138.958 75.1479C138.042 74.1869 137.454 75.4799 136.557 75.1539C135.325 74.7049 134.865 75.0689 133.624 74.9359C132.658 74.8319 132.874 75.2069 132.498 74.0189C132.143 72.8969 130.697 72.7999 129.734 72.9919C128.459 73.2459 128.496 72.1299 127.504 71.6959C126.675 72.5289 128.207 74.4059 128.712 75.0219C130.165 76.7939 131.364 77.1119 131.406 79.6379C131.42 80.4579 131.447 81.2709 131.66 82.0689C131.93 83.0769 132.99 84.1139 132.848 85.1749C132.607 86.9779 132.601 87.7709 134.793 87.8259C135.428 87.8419 137.908 87.3769 137.706 88.5269C137.331 90.6549 136.428 89.8069 135.173 91.1129C134.511 91.8019 132.734 91.6339 132.419 92.3689C132.062 93.2029 132.32 94.0349 131.746 94.8429C131.234 95.5629 130.555 96.1319 130.094 96.8949C130.17 94.9189 127.427 97.7259 126.552 98.0449C125.259 98.5179 124.331 99.0849 123.522 100.21C122.98 100.964 121.85 102.932 120.944 103.228C120.348 102.507 121.116 101.601 120.924 100.818C120.6 99.4939 118.655 100.779 118.143 101.148C115.211 103.258 113.304 101.287 111.391 98.7739C110.497 97.5999 110.259 95.9019 109.847 94.5269C109.375 92.9479 108.22 90.7529 108.292 89.0999C108.348 87.7989 105.092 83.4749 103.524 84.6539C103.474 83.1939 105.615 81.7109 106.63 80.9119C108.401 79.5169 107.22 78.0329 105.971 76.6039C103.212 73.4509 104.153 67.5759 104.162 63.7899C104.165 62.4359 104.765 62.0979 105.638 61.2259C106.226 60.6389 105.68 59.5159 105.974 58.8069C106.295 58.0349 107.486 57.5879 107.395 56.6419C107.266 55.3119 107.396 55.0449 105.979 54.4979C104.431 53.8999 101.735 55.2519 100.004 55.3939C98.8621 55.4879 97.7381 55.4839 96.6051 55.3039C94.8981 55.0329 95.1751 55.8529 93.8041 56.1429C94.0621 56.0879 92.0951 55.7269 92.2941 55.8549C91.4981 55.3459 90.8471 53.7169 90.3451 52.9519C89.6361 51.8699 88.9651 50.8039 88.3171 49.6869C87.9851 49.1139 87.5191 48.2029 86.6981 48.4509C85.1671 48.9139 84.4751 47.5759 83.0291 47.4249C82.0981 47.3269 81.4031 48.1519 80.5541 48.3679C79.3011 48.6879 78.1251 47.8129 76.8721 48.0429C76.0691 48.1889 75.5921 47.6709 74.7541 48.0939C73.9281 48.5109 72.8251 48.0149 72.3611 47.2589C72.0031 46.6759 71.8941 46.0369 71.7331 45.3919C71.5101 44.4969 70.1891 44.8029 69.7411 44.1629C68.8811 42.9339 69.9831 40.3259 70.7181 39.3129C72.1121 37.3919 69.3001 35.5039 68.6741 34.1119C68.0141 32.6449 68.7331 29.2379 66.5861 29.7929C66.6251 29.2729 66.5531 28.7689 66.3701 28.2799C65.5291 29.0149 64.6431 29.4619 63.4961 29.4289" stroke="white"/>
<path fill="black" name="Suriname" d="M18.5679 95.0979C18.3039 95.0259 18.0399 94.9539 17.7759 94.8819C18.0569 93.1619 19.9029 92.6189 21.3039 93.4419C22.0629 91.9739 20.1749 90.5899 20.9229 89.0929C21.8809 87.1719 24.0339 87.2699 25.8399 86.9629C26.1829 86.9049 26.0629 86.0739 26.5299 86.3549C26.8729 86.5609 27.6519 86.7419 27.6569 86.1369C27.6669 84.9299 29.2459 83.4289 28.2879 82.6429C30.0049 82.5969 30.3219 80.3869 30.8279 79.2149C31.2279 78.2889 32.0089 77.6479 32.8239 77.0989C31.8099 76.2709 33.0129 76.1459 33.3279 75.2989C32.6209 75.3269 31.7179 75.9099 31.4559 74.8669C32.0099 74.7229 32.4159 74.3159 32.3919 73.7149C31.8469 73.5239 30.7409 74.9819 30.6279 73.8589C30.5099 72.6809 31.1819 72.4469 32.1039 71.9859C30.6569 71.9999 31.3179 70.0739 31.5159 69.2819C31.9029 67.7269 31.5629 65.6429 31.4129 64.0589C31.2989 62.8599 30.7669 61.7159 30.6839 60.5209C30.6389 59.8669 32.7309 59.6099 32.3759 58.0829C32.1639 57.1689 30.0609 55.0699 31.4569 54.5409C32.7119 54.0659 31.6349 51.4029 31.0899 50.7949C29.9909 49.5679 29.8559 47.7329 28.6689 46.6989C27.8879 46.0189 28.6679 45.1619 29.1219 44.5399C29.6699 43.7909 29.1429 42.8139 29.7989 42.1779C30.1599 42.6049 30.4239 43.0849 30.5909 43.6179C32.1269 42.5429 34.3119 40.4429 33.6019 38.3569C32.8739 36.2199 31.5159 35.7669 32.8229 33.7529C33.5659 34.7139 34.3739 36.0259 35.0149 37.0939C35.6759 38.1959 37.2989 38.5319 35.8469 39.8729C37.7969 42.1109 36.8399 35.6929 36.5639 35.0059C36.1679 34.0159 40.7309 31.7339 41.3139 30.9339C42.0469 29.9269 42.5709 28.2369 43.7959 27.7059C44.4899 27.4059 46.1339 27.5769 46.5239 26.7979C47.0789 25.6909 46.0039 25.2909 46.2299 24.6089C46.6309 23.3959 46.7979 21.8719 47.5109 20.7939C46.4519 20.6859 46.7389 20.3349 47.4579 19.9669C48.1149 19.6309 47.8609 18.7269 47.8429 18.1629C47.8009 16.8389 50.0309 16.4679 50.0309 16.0049C50.0309 15.3119 52.7469 12.6339 53.3799 12.6509C54.6339 12.6829 55.6929 13.7959 56.9429 13.8099C55.8869 13.6699 56.0369 14.8149 55.0709 14.8179C55.8049 17.5389 57.4109 13.9179 57.7789 12.9369C58.6959 10.4879 59.7779 10.6639 62.3569 11.0939C65.8759 11.6809 66.9959 9.39291 69.7709 7.72991C71.2969 6.81491 75.7359 5.72591 74.3669 3.08291C74.9499 2.90891 76.5989 2.3829 75.6629 3.58691C76.7429 3.42191 76.0629 2.34891 77.2469 1.81091C78.6729 1.16391 79.9259 1.16291 81.1439 2.18091C85.2989 5.65391 76.3539 7.06091 75.0139 8.77091C74.2979 9.68392 74.0269 11.0169 73.1789 11.8099C72.5899 12.3609 71.6319 12.2549 71.1069 12.8519C70.1179 13.9759 69.0809 15.6919 68.4449 17.0399C67.4959 19.0489 67.4559 21.1109 66.9179 23.2279C66.3879 25.3069 64.8769 27.8059 63.4949 29.4359C64.6419 29.4689 65.5279 29.0219 66.3749 28.2839C66.5579 28.7719 66.6299 29.2769 66.5909 29.7969C68.7709 29.2339 68.0399 33.1009 69.1459 34.5069C70.7249 36.5149 71.1589 37.6949 70.2349 40.1619C69.7709 41.4019 69.0259 44.0549 70.7029 44.6839C72.6059 45.3969 71.5979 47.6629 73.5559 48.1249C74.3479 48.3119 75.1059 47.8079 75.8799 47.7249C77.1429 47.5889 78.2939 48.4359 79.5619 48.3199C80.6909 48.2169 81.6369 47.4149 82.7889 47.4369C83.8129 47.4569 84.5749 48.4459 85.5429 48.6739C86.2539 48.8409 86.9169 48.2439 87.5659 48.8129C88.4199 49.5609 88.9979 50.9289 89.6279 51.8559C90.2119 52.7159 90.7479 53.5889 91.2739 54.4829C91.9539 55.6369 92.2349 55.3139 93.2619 55.6109C94.7569 56.0439 96.1319 54.8599 98.0809 55.6419C98.6769 55.8809 99.9899 55.2269 100.634 55.2129C102.045 55.1809 103.245 55.2929 104.483 54.5419C105.885 53.6919 108.201 55.3639 107.465 56.8389C107.044 57.6819 106.019 58.3289 105.835 59.2719C105.608 60.4329 106.076 61.0419 104.973 61.7929C103.504 62.7939 104.086 66.8179 103.941 68.4499C103.768 70.3889 104.571 72.4509 104.935 74.4979C105.209 76.0399 108.165 78.0769 107.686 79.6499C107.096 81.5849 103.449 82.3399 103.529 84.6599C104.851 83.6669 108.081 87.3009 108.499 88.4039C108.407 88.7029 108.33 89.0049 108.266 89.3109C108.437 89.8719 108.971 90.4269 108.972 91.0279C108.974 92.2769 109.7 93.5969 110.009 94.8339C110.253 95.8129 111.292 98.2799 110.039 98.4319C108.848 98.5759 109.125 97.2999 109.222 96.5449C109.372 95.3669 108.003 89.8609 106.278 90.4779C105.35 90.8099 102.621 95.6079 101.871 92.7999C101.591 91.7549 100.247 91.2789 100.395 92.7959C100.562 94.5009 98.3959 93.8769 97.2359 93.8769H92.0209C90.8709 93.8769 89.6289 93.1999 88.4979 93.6989C86.8079 94.4429 88.1529 98.2369 87.9799 99.6369C89.3489 98.7119 92.5599 99.5139 93.1759 101.025C93.4039 101.584 93.5329 103.466 92.4669 103.369C91.8079 103.309 91.4089 102.433 90.6989 102.56C89.1319 102.84 86.3919 103.271 86.2769 105.1C86.1369 107.328 85.9409 110.446 87.8649 111.903C88.8359 112.638 89.9689 113.273 89.9189 114.663C89.8709 115.997 90.5499 116.508 91.0709 117.634C92.2539 120.189 90.7219 123.684 90.3609 126.297C89.4929 132.588 89.6339 139.431 87.6909 145.504C87.2239 144.347 86.3069 143.297 85.4799 142.38C84.5379 141.336 83.4169 142.378 82.3269 141.758C81.3159 141.183 83.9339 137.211 84.2859 136.611C84.9729 135.443 87.2469 133.077 86.1999 131.956C85.7469 131.472 84.9189 130.172 84.1959 130.453C82.9699 130.929 81.9249 129.064 81.0859 128.56C79.6749 127.711 79.4989 128.416 78.1719 129.067C76.9159 129.684 75.6229 128.616 74.6419 127.976C73.4929 127.226 71.4849 129.663 70.1629 130.178C69.3639 130.49 67.7819 130.007 66.7629 130.139C65.3569 130.323 64.6859 130.036 63.5799 129.177C62.7169 128.506 63.5529 126.864 63.2429 125.844C62.8199 124.452 60.6139 125.207 60.3669 123.81C60.1909 122.815 59.9799 121.609 59.5799 120.681C59.1599 119.706 57.6789 119.91 57.0779 119.051C56.4269 118.12 55.9379 118.142 55.0669 117.849C53.9589 117.477 53.5929 115.767 53.5089 114.767C53.3499 112.861 49.5769 110.024 47.8019 109.504C47.4599 109.403 47.1019 108.793 46.7989 109.275C46.4709 109.796 46.4789 110.017 45.7799 109.699C44.7389 109.225 43.1379 108.664 42.2609 107.978C41.5799 107.445 38.1389 103.321 37.7649 106.156C37.5709 107.629 32.3019 105.894 31.1489 105.688C29.2789 105.354 30.6549 103.772 29.2769 103.183C28.0679 102.666 28.6029 101.636 27.0459 101.617C25.8219 101.603 23.6169 99.9599 22.7119 99.2119C21.1889 97.9559 19.7399 96.6989 18.5679 95.0979" stroke="white"/>
<path fill="black" name="Argentina" d="M109.942 361.998C110.079 361.276 110.907 361.1 111.072 360.429C111.296 359.514 110.76 358.16 110.802 357.178C110.921 354.385 112.474 353.233 113.489 350.862C114.149 349.321 114.139 347.738 114.489 346.131C114.66 345.344 114.848 344.458 115.299 343.776C115.75 343.094 116.59 343.643 117.291 343.32C120.271 341.948 117.199 340.136 116.201 338.571C115.065 336.791 117.074 335.679 116.442 333.948C115.992 332.716 112.456 326.392 115.483 326.288C115.177 325.507 113.555 323.672 113.793 322.903C114.354 321.092 115.526 319.82 117.241 319.058C118.757 318.385 121.201 317.784 121.925 316.108C122.652 314.423 122.529 312.162 122.819 310.369C122.934 309.66 123.423 308.502 123.12 307.793C122.913 307.308 121.645 306.564 121.763 306.051C121.895 305.476 123.022 303.655 123.489 303.459C124.762 302.924 124.23 301.505 125.427 300.907C127.445 299.898 127.559 299.69 127.795 297.268C129.421 297.594 130.247 299.248 131.703 299.888C133.378 300.624 135.345 299.683 137.094 299.951C141.256 300.587 141.083 303.754 143.205 306.709C143.344 305.373 143.314 304.106 143.851 302.845C144.14 302.165 144.612 299.741 145.308 299.464C145.838 299.253 146.833 299.361 147.455 299.207C148.6 298.924 149.915 299.148 151.083 299.148C151.774 299.148 153.301 298.775 153.52 299.557C153.816 300.613 155.937 301.871 156.711 302.645C157.604 303.538 158.231 303.66 158.788 304.822C159.226 305.737 159.797 306.649 160.422 307.446C161.868 309.289 164.29 310.589 166.176 311.938C167.257 312.711 167.777 313.808 168.765 314.629C169.682 315.391 170.95 315.344 172.012 315.765C173.444 316.333 174.381 316.709 175.971 316.709C177.177 316.709 178.036 317.803 179.032 318.314C181.614 319.642 183.632 322.15 186.485 323.068C187.324 323.339 188.324 323.424 188.997 324.048C189.976 324.958 190.4 324.426 191.402 325.025C192.369 325.603 193.651 325.692 194.376 326.609C194.888 327.257 195.456 327.845 195.962 328.501C196.961 329.794 195.067 331.159 194.813 332.656C194.433 334.885 192.438 335.473 192.899 338.095C193.321 340.495 191.537 341.236 191.016 343.277C190.757 344.294 190.398 343.932 190.946 345.147C192.414 344.576 193.984 344.566 195.513 344.862C198.218 345.385 200.757 346.973 203.406 346.115C204.237 345.846 204.632 347.12 205.489 346.508C206.313 345.92 207.193 347.269 207.866 347.527C208.335 346.547 208.408 345.194 209.736 345.007C210.753 344.864 211.275 346.025 212.156 345.907C213.553 345.721 213.333 344.036 213.675 343.104C214.068 342.034 216.334 342.144 216.221 341.523C216.185 341.326 217.524 339.393 217.681 339.419C218.675 339.58 218.482 337.252 218.6 336.432C218.835 334.796 218.812 333.016 218.391 331.409C217.961 329.771 218.991 330.33 219.886 330.897C220.089 329.592 221.816 329.722 222.728 330.045C224.307 330.605 224.632 332.24 225.149 333.659C225.879 335.665 226.086 336.796 226.144 338.948C226.174 340.07 226.456 341.082 226.286 342.215C226.188 342.785 226.095 343.356 226.006 343.927C225.649 343.79 225.309 343.826 224.987 344.037C223.794 344.713 223.023 345.613 221.724 346.143C221.075 346.409 218.933 347.154 218.857 348.021C218.74 349.34 217.284 349.46 216.392 350.034C215.873 350.367 215.781 351.089 215.334 351.529C214.682 352.172 213.851 352.648 213.265 353.357C213.866 353.56 214.127 354.072 213.835 354.658C212.511 353.29 209.899 358.735 209.156 359.796C207.861 361.647 207.521 365.419 205.101 366.393C204.012 366.831 204.092 368.303 203.561 369.17C203.28 369.628 202.843 369.899 202.314 369.989C202.612 370.76 202.33 371.285 201.758 371.794C200.132 373.24 201.877 373.708 202.034 375.249C202.112 376.014 201.49 375.866 201.454 376.469C201.412 377.18 201.864 377.854 201.932 378.554C202.001 379.257 201.864 380.031 201.549 380.663C200.911 381.942 202.195 381.131 202.086 382.364C201.948 383.926 201.054 384.219 201.347 385.921C201.598 387.38 202.472 387.927 201.998 389.406C201.57 390.74 202.477 392.38 203.143 393.493C204.303 395.434 201.693 394.725 201.795 395.851C201.929 397.323 201.056 398.817 201.747 400.3C202.134 401.13 205.26 405.621 202.744 405.489C203.885 406.416 204.008 407.615 205.373 408.468C206.857 409.396 208.334 410.112 209.92 410.846C212.508 412.045 216.14 414.075 214.736 417.274C213.725 419.579 216.778 424.224 219.529 423.079C220.614 422.626 221.093 425.889 221.321 426.473C222.002 428.222 220.83 430.19 220.115 431.759C219.457 433.202 217.771 435.251 217.721 436.845C217.668 438.535 217.832 439.034 216.272 440.148C213.446 442.163 210.203 443.196 206.838 443.875C202.777 444.694 198.842 445.885 194.676 446.074C193.068 446.147 191.719 446.115 190.14 445.972C188.339 445.809 187.12 444.663 185.393 444.439C185.633 444.906 185.956 445.306 186.359 445.641C186.804 446.048 186.313 446.93 186.566 447.436C186.708 447.718 189.99 450.147 187.913 449.339C188.87 450.038 189.326 450.532 189.537 451.724C189.689 452.584 189.82 454.009 188.493 453.299C188.69 454.167 188.938 455.052 188.906 455.95C188.881 456.677 188.135 457.308 188.675 457.957C189.069 458.431 189.616 458.76 190.071 459.169C190.764 459.791 190.405 460.798 191.373 460.279C190.783 463.813 187.188 464.349 184.212 464.617C180.265 464.972 177.035 462.306 173.153 461.719C174.76 461.406 173.075 460.822 172.56 461.088C171.882 461.438 171.475 462.307 171.446 463.04C171.365 465.156 173.946 466.691 174.341 468.774C174.662 470.463 174.701 472.555 176.578 473.273C177.536 473.639 180.168 473.844 179.424 475.468C179.824 475.567 183.521 475.98 183.272 475.02C183.069 474.236 181.362 474.205 180.784 473.888C182.014 474.076 182.672 472.808 183.814 472.739C184.991 472.668 186.206 474.307 186.404 475.329C186.588 476.275 187.784 477.666 187.124 478.639C186.667 479.312 184.984 479.522 184.258 479.433C183.049 479.286 183.245 477.912 182.645 477.314C181.662 476.335 180.314 475.939 179.111 476.745C175.925 478.878 181.182 480.615 183.024 480.149C182.87 481.154 181.798 481.483 180.991 481.815C179.397 482.472 179.463 483.195 178.846 484.614C178.205 486.091 178.103 486.593 179.121 487.974C179.474 488.453 179.968 489.037 180.029 489.66C179.91 490.081 179.902 490.503 180.004 490.927C180.43 491.321 180.655 491.807 180.678 492.385C180.63 492.656 180.766 493.638 180.369 493.744C179.806 493.892 179.033 494.134 178.954 494.84C178.822 496.026 180.621 496.212 180.429 497.145C180.219 498.164 173.06 496.713 174.594 499.31C171.503 498.657 170.684 502.366 170.257 504.62C169.54 508.395 172.018 509.893 174.86 511.814C176.256 512.758 177.462 514.007 179.026 514.693C181.019 515.567 183.431 514.387 185.321 515.506C187.962 517.069 188.365 522.3 184.245 521.77C185.004 522.075 185.549 521.4 186.265 521.34C187.353 521.249 187.78 521.993 188.425 522.71C187.795 522.785 187.591 523.153 187.915 523.71C186.727 523.469 184.336 526.537 183.6 527.266C182.636 528.217 181.893 529.142 181.18 530.308C180.699 531.095 180.231 531.561 180.274 532.532C180.308 533.305 180.387 534.039 179.705 534.591C180.292 534.695 180.753 534.376 180.865 533.791C180.94 535.932 183.293 539.647 180.093 540.669C177.736 541.42 176.98 537.836 174.955 537.471C175.476 537.667 176.85 538.717 176.395 539.411C176.058 539.927 174.674 539.482 174.165 539.911C176.138 539.103 176.974 540.413 178.705 540.781C178.491 542.105 176.402 542.036 175.921 543.505C175.274 545.482 176.665 546.762 175.535 548.771C176.995 546.959 179.11 550.935 179.641 551.975C180.457 553.573 177.143 552.637 176.325 553.311C177.183 553.029 179.202 553.837 179.569 553.622C180.75 552.928 181.664 554.514 182.564 555.227C184.31 556.611 186.178 557.619 186.985 559.641C186.561 558.918 185.589 558.952 184.873 558.875C183.59 558.739 182.418 558.043 181.192 557.686C178.103 556.786 174.777 556.401 171.575 556.401H167.317C166.123 556.401 163.608 556.887 162.577 556.243C160.97 555.239 159.619 552.991 157.535 552.731C158.191 551.765 157.587 550.195 156.754 549.589C155.652 548.787 156.506 547.737 155.913 546.75C155.547 546.142 154.413 544.562 153.511 544.975C152.805 545.296 152.192 544.842 151.485 545.021C150.961 545.153 150.687 545.781 150.238 546.04C149.29 546.588 147.949 544.071 147.652 543.476C147.061 542.292 144.682 541.481 144.492 540.277C144.392 539.64 144.057 539.622 143.773 539.09C143.548 538.67 143.731 538.133 143.565 537.682C143.33 537.047 142.578 536.815 142.345 536.172C142.083 535.447 142.308 534.683 142.195 533.942C143.397 534.136 143.487 533.435 143.785 532.503C143.955 531.972 143.636 531.538 144.065 531.063C144.446 530.642 145.193 530.939 145.586 530.483C146.361 529.584 145.53 528.119 144.93 527.324C144.239 526.41 146.057 526.34 146.156 525.594C146.265 524.766 145.05 523.72 144.46 523.302C143.261 522.453 143.086 521.911 143.094 520.467C143.099 519.475 143.339 515.957 145.076 516.224C144.725 515.434 143.757 515.358 143.798 514.527C143.824 513.994 143.277 513.566 143.512 513.009C143.679 512.614 144.105 512.416 144.296 512.029C145.08 510.438 142.382 507.967 141.266 507.154C142.244 507.108 142.83 505.244 141.756 504.939C140.989 504.721 139.744 502.955 140.564 502.2C141.261 501.557 141.478 501.987 141.967 500.947C142.381 500.067 142.523 500.047 141.738 499.286C141.048 498.616 140.285 497.997 139.501 497.44C138.39 496.649 136.82 497.481 135.808 496.373C134.949 495.432 140.526 495.835 140.976 495.205C140.727 495.553 141.001 493.372 141.116 493.694C140.271 491.321 136.439 493.742 135.501 491.418C135.266 491.04 135.036 490.658 134.813 490.272C134.653 489.651 135.61 489.098 135.196 488.507C134.669 487.754 133.353 487.323 134.091 486.49C135.013 485.449 130.447 484.63 132.098 483.15C132.981 482.358 131.871 481.718 131.064 481.58C129.527 481.317 128.932 480.74 128.454 479.254C128.089 478.119 128.05 476.767 127.655 475.693C127.355 474.879 126.134 474.186 127.297 473.364C128.018 472.855 129.278 473.266 128.368 472.042C127.592 470.997 125.903 469.547 126.051 468.125C126.306 465.664 123.779 463.38 123.354 461.153C123.182 460.25 123.245 459.051 123.655 458.241C124.309 456.948 122.463 456.629 122.257 455.534C123.972 456.111 122.865 453.624 122.372 453.055C121.378 451.909 121.664 451.333 123.047 451.284C122.169 450.428 122.62 447.935 122.214 446.747C121.59 444.926 123.416 444.573 124.522 443.569C125.726 442.476 123.114 440.724 122.748 439.379C122.285 437.679 119.65 435.6 119.918 433.922C120.098 432.795 118.968 430.06 118.442 428.981C117.879 427.823 117.587 425.273 118.504 424.269C118.999 423.727 119.445 424.308 119.741 423.651C119.963 423.156 119.912 422.438 120.288 422.021C120.585 421.691 121.373 421.487 121.414 420.994C121.512 419.819 121.091 418.574 120.638 417.513C120.255 416.617 119.789 415.759 119.353 414.888C119.246 414.673 118.367 414.091 118.366 413.995C118.359 413.208 119.335 413.555 119.433 412.663C119.53 411.787 119.356 410.903 119.271 410.034C119.188 409.187 119.395 405.229 120.682 405.459C121.928 405.681 120.164 402.553 120.059 402.302C119.572 401.137 120.195 397.122 118.823 396.678C118.044 396.426 118.516 397.694 117.446 396.363C116.661 395.386 116.884 394.915 117.051 393.829C117.182 392.977 116.565 392.666 115.987 392.245C115.239 391.7 115.483 391.184 115.245 390.415C114.723 388.729 113.023 387.682 112.536 385.983C114.146 386.724 112.358 384.522 111.742 384.208C110.27 383.458 109.777 381.041 109.714 379.591C109.637 377.81 110.994 378.47 110.606 376.574C110.322 375.183 111.731 372.644 110.736 371.513C113.17 373.139 112.251 368.936 111.922 368.039C111.44 366.729 109.166 363.258 109.942 361.998" stroke="white"/>
<path fill="black" name="Colombia" d="M181.072 77.9569C180.249 77.4679 178.5 74.4959 178.511 73.5159C178.526 72.0809 180.907 69.4189 180.259 68.1219C179.056 65.7149 182.248 65.6089 183.848 65.4679C184.764 65.3869 185.986 63.2889 184.392 62.8369C186.016 60.8899 185.373 56.6269 188.902 57.1149C190.013 57.2689 195.963 57.7869 195.402 59.7399C196.179 58.2059 194.97 57.1379 197.443 57.1479C198.358 57.1519 201.244 57.0279 201.302 58.4449C201.779 57.8419 202.705 58.1799 203.322 58.1559C203.17 58.0509 201.179 57.3159 201.474 57.1139C202.79 56.2129 206.23 57.5979 207.651 57.8369C210.136 58.2539 210.025 59.9899 208.942 61.8289C207.759 63.8349 206.131 64.9759 206.226 67.5239C206.309 69.7519 206.068 72.4049 207.149 74.4349C208.007 76.0469 210.13 77.4059 208.986 79.4819C208.594 80.1929 207.982 80.7419 207.782 81.5569C207.587 82.3529 207.987 83.1939 207.788 84.0319C207.418 85.5939 206.326 87.4499 205.208 88.5829C204.809 88.9869 202.371 87.4249 202.093 87.0759C201.126 85.8589 199.049 87.3349 197.658 87.5889C196.536 87.7939 196.342 88.0419 195.337 87.4929C194.28 86.9159 194.477 87.4719 193.891 88.1089C192.413 89.7139 194.259 89.6309 194.574 91.3989C194.972 93.6299 191.318 92.3899 190.447 91.8379C189.812 91.4359 188.805 91.3549 188.316 90.8069C187.767 90.1929 187.603 89.3399 187.262 88.6149C186.602 87.2099 184.735 84.9779 184.733 83.4489C184.733 82.8719 184.502 79.7029 183.759 79.6059C183.228 79.5369 182.308 80.2839 181.875 79.7169C181.452 79.1619 181.735 78.4249 181.072 77.9569" stroke="white"/>
<path fill="black" name="Venezuela" d="M3.23096 127.778C4.77196 128.275 4.80196 125.971 4.71496 125.042C4.64596 124.295 4.32396 123.735 4.07096 123.041C3.64296 121.867 4.95696 120.99 4.48896 119.857C3.97796 118.615 2.59696 116.957 4.88596 116.733C5.84096 116.64 6.21196 116.256 6.39796 115.328C6.63896 114.121 7.28096 114.398 8.26996 114.248C6.59796 114.086 6.42796 111.915 7.44096 110.901C8.98196 109.359 10.018 108.273 10.147 105.973C10.184 105.317 9.20596 102.337 9.82496 101.966C10.517 101.552 13.212 99.5299 13.239 101.508C12.81 100.32 14.284 99.7799 15.139 99.4879C16.038 99.1799 17.964 97.9769 18.135 99.1269C18.504 98.1909 18.883 97.1949 19.503 96.3909C21.532 98.2449 24.631 101.653 27.626 101.633C28.558 101.627 28.597 102.761 29.49 103.043C30.686 103.421 29.635 105.81 31.714 105.785C33.274 105.767 34.497 106.524 36.135 106.548C36.676 106.556 37.86 107.247 38.094 106.291C38.168 105.988 37.614 105.689 38.021 105.489C39.532 104.747 40.669 106.041 41.537 107.092C42.879 108.716 44.695 108.76 46.359 109.857C45.489 110.067 44.63 109.924 43.767 109.777C43.663 110.376 45.545 112.178 45.904 112.66C46.98 114.102 46.201 115.557 46.935 117.267C46.369 117.35 45.889 117.184 45.496 116.767C44.443 122.503 41.091 127.536 36.248 130.898C33.926 132.51 30.931 132.966 28.371 134.094C27.076 134.665 26.338 135.51 25.507 136.607C25.192 136.921 24.919 137.268 24.688 137.649C24.519 138.253 24.886 138.59 24.399 139.158C23.909 136.831 22.897 141.36 22.767 141.59C21.98 142.979 21.21 144.946 21.297 146.568C21.401 148.513 19.981 148.44 19.497 149.965C19.001 151.526 19.106 151.814 17.62 151.774C15.823 151.725 15.379 149.735 14.813 148.424C14.083 146.732 13.271 148.048 12.159 147.438C11.381 147.012 10.523 145.406 9.53796 146.391C8.20096 147.73 6.79796 147.361 8.19996 145.498C7.17296 145.352 6.95496 144.043 7.70696 143.426C8.15496 143.059 8.96296 143.291 9.45896 142.896C10.247 142.269 9.10196 138.396 8.19996 138.008C9.32496 137.424 10.249 137.736 10.937 136.446C11.533 135.33 11.657 134.047 12.021 132.852C12.47 131.381 12.499 131.313 12.015 129.947C11.552 128.638 11.388 127.359 12.303 126.197C10.686 126.978 11.716 128.771 11.476 130.1C11.083 132.275 9.58396 130.337 11.151 130.227C10.367 130.176 10.299 129.518 10.575 128.937C10.052 129.465 8.23496 131.668 8.63096 132.467C7.44396 131.653 6.57696 130.365 5.30696 129.682C4.41896 129.204 3.40996 128.933 3.23096 127.778" stroke="white"/>
<path fill="black" name="Brazil" d="M155.082 301.228C155.781 298.367 156.176 295.382 156.517 292.459C156.705 290.84 156.471 289.34 156.363 287.733C156.259 286.178 157.071 284.814 157.738 283.47C158.689 281.553 158.6 278.804 161.042 278.442C164.067 277.994 167.149 277.364 170.071 276.46C174.824 274.99 178.244 275.341 182.543 277.737C184.253 278.69 186.583 279.942 186.716 282.159C186.796 283.489 187.822 287.561 189.213 287.989C188.32 289.047 189.761 289.431 190.003 290.218C190.186 290.816 190.001 292.703 189.903 293.384C189.745 293.862 189.655 294.352 189.632 294.855C189.716 295.521 190.193 296.179 189.967 296.874C189.699 297.702 189.627 298.828 189.719 299.687C189.774 300.197 194.942 300.987 195.719 301.002C196.86 301.023 197.968 301.618 199.08 301.563C200.156 301.508 200.625 299.494 201.701 300.261C202.755 301.011 203.432 301.394 204.735 301.574C205.707 301.708 206.773 302.241 206.959 303.306C207.148 304.392 208.045 305.129 208.199 306.411C208.397 308.055 209.274 309.491 209.464 311.126C209.68 312.991 210.131 316.774 212.683 316.526C214.104 316.388 215.066 315.322 216.422 315.059C217.677 314.815 218.63 316.318 219.522 316.929C218.969 317.329 218.916 317.872 219.209 318.447C219.782 319.572 219.169 320.183 219.465 321.261C219.776 322.393 219.329 323.58 219.123 324.685C218.925 325.751 219.234 326.708 218.669 327.68C217.69 329.362 218.582 333.029 218.767 334.928C218.829 335.558 218.848 339.155 217.984 339.319C217.56 339.399 216.019 341.24 216.196 341.648C216.375 342.061 214.783 342.011 214.552 342.128C214.094 342.36 213.841 343.097 213.645 343.524C213.466 343.916 212.526 346.673 211.757 345.972C209.842 344.226 208.734 345.706 207.861 347.528C207.292 347.311 206.856 346.379 206.217 346.379C205.389 346.379 204.944 346.813 204.145 346.337C203.364 345.871 202.872 346.646 202.102 346.669C201.364 346.691 200.638 346.276 199.942 346.089C197.609 345.462 195.265 344.45 192.797 344.702C191.628 344.822 190.92 345.642 190.513 344.232C190.435 343.964 191.385 341.94 191.648 341.767C194.138 340.127 191.444 335.693 193.792 334.539C194.88 334.004 195.149 331.769 195.74 330.667C196.807 328.679 195.236 327.177 193.584 326.077C192.237 325.18 190.44 325.267 189.301 324.308C188.625 323.738 187.764 323.533 186.918 323.371C185.879 323.173 185.163 322.34 184.283 321.835C182.313 320.705 180.618 319.727 178.814 318.282C176.838 316.7 175.008 317.069 172.792 316.183C171.418 315.634 168.451 315.292 167.99 313.554C167.535 311.846 163.651 310.541 162.351 309.37C160.976 308.132 160.134 306.67 159.189 305.117C158.123 303.367 156.266 302.843 155.082 301.228" stroke="white"/>
<path fill="black" name="Bolivia" d="M153.642 57.3649C155.093 55.7709 155.89 55.1859 155.385 53.0249C155.03 51.5069 155.645 50.7959 157.106 50.6839C157.762 50.6329 157.086 49.7439 158.039 50.0279C159.045 50.3299 159.34 49.6939 160.226 49.4279C160.944 49.2129 161.802 48.7199 162.136 48.0119C162.409 47.4339 161.813 46.3699 161.089 46.6289C159.283 47.2739 160.395 45.6609 159.633 44.6639C158.941 43.7569 159.832 42.8149 160.412 42.0999C161.141 41.1999 161.168 41.5529 162.212 41.0199C163.613 40.3039 164.222 38.5659 165.451 37.8629C167.14 36.8949 165.926 36.3239 165.162 34.9719C166.338 36.3469 167.907 37.2549 169.262 38.4279C168.607 37.4239 167.253 37.1859 166.742 36.0519C168.407 36.8049 170.149 37.8979 171.381 39.2629C172.374 40.3639 173.634 42.4979 174.866 43.2159C176.239 44.0159 176.595 46.5919 176.109 47.9459C175.745 48.9609 175.219 49.6549 175.091 50.7709C174.98 51.7359 174.956 52.7879 174.383 53.6209C176.287 53.2719 174.849 48.6149 177.784 49.6569C179.987 50.4389 182.694 52.0109 183.232 54.5559C184.667 53.2639 185.683 55.9319 185.884 56.9589C186.235 58.7469 185.552 61.4439 184.392 62.8359C186.32 63.3819 184.175 64.3459 184.672 65.3559C183.487 65.5849 179.364 65.3009 180.009 67.5139C180.595 69.5249 178.983 70.8359 178.671 72.8099C178.461 74.1379 179.875 76.7699 180.846 77.6689C181.838 78.5869 181.175 79.6899 182.661 79.8999C182.972 79.9439 183.779 79.5589 183.969 79.8559C184.581 80.8149 184.66 82.0049 184.829 83.0959C185.143 85.1319 187.261 86.7909 187.261 88.7929C187.261 90.8269 189.562 90.7649 190.291 91.9969C187.828 93.5739 185.435 90.3969 183.077 92.3349C182.682 92.6589 182.447 93.0989 182.094 93.4579C181.445 94.1189 180.624 93.8329 179.838 94.1059C178.396 94.6069 178.332 95.3239 176.632 95.3459C176.104 95.3529 175.802 95.7639 175.46 96.1009C175.199 96.1449 174.959 96.2409 174.74 96.3889C174.804 96.6879 174.843 96.9899 174.857 97.2959C174.483 98.0449 172.399 98.3779 171.64 98.1179C171.112 97.9369 171.453 97.3259 170.703 97.3199C170.106 97.3149 168.91 96.8699 168.684 96.2569C168.321 95.2659 166.902 93.7289 165.809 93.5819C165.907 93.3429 166.004 93.1029 166.099 92.8619C165.088 92.9269 165.205 92.0199 165.328 91.3289C165.541 90.1269 165.227 89.6639 164.502 88.7889C163.3 87.3389 163.356 84.5749 163.729 82.8559C164.016 81.5309 164.998 80.3149 165.004 78.9159C165.009 77.7049 165.346 77.7949 166.046 76.7729C166.485 76.1329 167.421 75.0089 167.008 74.2459C166.676 73.6349 165.808 72.7819 165.808 72.0529C165.808 71.3509 166.178 70.6799 165.369 70.3279C164.809 70.0849 163.385 70.0629 163.042 69.4859C162.719 68.9439 163.847 67.3139 163.958 66.6839C164.143 65.6339 164.005 64.4199 163.17 63.6659C161.923 62.5409 159.977 64.3119 158.466 63.5649C156.669 62.6779 154.457 59.1269 153.642 57.3649" stroke="white"/>
<path fill="black" name="French Guiana" d="M200.952 373.018C201.601 372.103 202.811 371.28 202.312 369.989C203.275 370.691 204.259 371.217 205.45 370.605C206.105 370.269 206.121 369.242 206.969 369.126C208.525 368.915 210.058 370.817 211.102 371.718C212.472 372.9 215.085 373.912 215.329 375.938C215.417 376.67 215.279 377.887 216.322 377.629C217.074 377.442 218.402 376.742 217.942 375.748C219.211 376.08 221.66 380.063 222.689 379.692C223.65 379.345 223.833 380.108 224.612 380.594C225.647 381.239 226.67 381.24 227.591 382.181C228.263 382.869 228.827 383.703 229.644 384.237C230.708 384.932 232.007 385.046 232.993 385.898C234.801 387.46 235.347 389.458 237.608 390.579C240.166 391.847 238.946 392.585 237.73 394.481C236.845 395.861 237.463 399.463 238.842 400.354C239.724 400.922 238.271 404.294 237.675 405.299C237.176 406.14 235.524 409.671 234.063 408.367C234.834 409.346 233.123 409.864 232.496 410.117C230.711 410.838 230.108 410.889 228.186 410.485C226.65 410.162 225.006 409.381 223.5 410.14C222.861 410.461 222.163 410.878 221.431 410.944C220.316 411.044 220.384 410.266 219.663 409.878C218.414 409.207 216.834 409.452 215.628 408.721C213.965 407.712 213.308 406.676 211.183 406.784C209.817 406.853 208.724 407.431 207.72 406.315C206.373 404.816 204.332 403.829 203.251 402.114C202.497 400.918 201.309 395.805 203.022 395.334C204.793 394.846 203.478 392.79 202.962 391.857C202.594 391.192 202.319 390.458 202.028 389.758C201.783 389.171 202.57 388.684 202.279 387.859C202.026 387.139 200.745 385.043 201.365 384.322C202.74 382.725 200.961 381.771 201.547 380.695C201.954 379.947 201.44 376.468 201.609 376.348C202.872 375.451 201.238 374.202 200.952 373.018" stroke="white"/>
<path fill="black" name="Peru" d="M92.8721 267.538C94.4571 266.64 96.3511 267.449 96.9821 265.227C97.2731 264.204 95.8691 262.702 96.6731 261.838C96.8641 261.714 97.0701 261.681 97.2931 261.738C97.9371 261.73 98.5031 260.669 98.8521 260.257C98.8601 261.507 100.185 262.061 100.525 263.17C100.856 264.247 101.523 264.652 102.592 264.866C101.601 265.81 103.053 268.453 103.395 269.445C104.284 272.028 104.801 273.544 107.003 275.325C108.994 276.935 108.114 277.45 107.255 279.484C107.106 279.838 108.715 280.853 108.709 281.539C108.7 282.397 107.383 282.469 106.842 282.796C107.921 283.795 107.045 284.872 107.712 285.966C108.044 286.51 108.885 286.361 109.222 286.896C109.682 287.628 109.137 287.695 109.222 288.417C109.479 290.607 112.463 291.651 112.707 294.177C113.004 297.236 115.053 299.794 115.912 302.667C116.571 304.866 116.559 307.667 119.699 306.667C122.945 305.633 123.135 307.654 122.815 310.315C122.57 312.358 123.154 315.631 121.412 317.144C119.653 318.67 116.538 318.28 115.336 320.527C114.89 321.361 113.755 321.774 113.662 322.814C113.579 323.747 115.123 325.373 115.481 326.288C113.208 326.366 114.766 329.984 115.245 331.038C115.664 331.96 116.167 332.84 116.503 333.8C117.02 335.277 115.634 335.606 115.723 336.946C115.847 338.815 118.947 340.887 118.502 342.47C118.233 343.425 116.594 343.914 115.802 343.519C114.843 343.041 114.64 345.948 114.526 346.409C113.826 349.209 112.977 351.254 111.481 353.693C110.191 355.796 111.697 358.204 110.912 360.42C110.521 361.524 109.523 361.677 109.927 363.07C110.266 364.24 111.098 365.202 111.436 366.364C111.633 367.039 111.645 367.749 111.844 368.423C112.025 369.036 112.582 369.313 112.768 369.869C113.144 370.993 111.744 372.184 110.731 371.508C111.57 372.461 110.511 374.367 110.511 375.453C110.511 376.208 111.265 377.343 110.526 377.992C109.984 378.468 109.582 378.355 109.523 379.341C109.422 381.012 110.61 382.713 111.419 384.095C111.813 384.767 112.655 384.54 113.098 385.169C113.482 385.714 113.277 386.322 112.531 385.978C113.077 387.882 115.142 389.083 115.489 391.022C115.628 391.799 115.652 392.508 116.457 392.911C117.526 393.446 116.635 394.559 116.851 395.409C117.42 397.653 119.608 395.639 119.58 398.193C119.558 400.216 119.594 401.846 120.701 403.608C120.873 403.882 121.593 405.757 120.602 405.476C119.679 405.214 119.784 405.659 119.809 406.423C119.836 407.281 119.428 408.074 119.292 408.912C119.127 409.926 119.402 410.907 119.44 411.916C119.481 412.981 118.724 412.765 118.582 413.408C118.398 414.236 118.863 413.908 119.175 414.534C120.16 416.509 120.633 418.552 121.473 420.517C121.743 421.148 121.442 421.589 120.8 421.661C120.204 421.727 120.112 422.697 119.954 423.129C119.581 424.149 117.624 423.828 118.058 425.254C118.322 426.119 117.667 426.899 117.974 427.787C118.266 428.634 118.956 429.339 119.046 430.258C119.193 431.76 119.631 433.155 119.922 434.59C120.249 436.205 121.883 437.106 122.545 438.528C122.98 439.464 123.095 440.545 123.76 441.371C124.075 441.763 125.078 442.567 124.808 443.195C124.221 444.562 121.639 444.466 122.096 446.381C122.381 447.574 122.175 450.434 123.041 451.278C122.045 451.313 121.385 451.431 122.002 452.562C122.252 453.019 124.337 456.23 122.251 455.528C122.459 456.633 123.539 456.679 123.814 457.491C124.034 458.14 123.387 458.818 123.261 459.418C122.856 461.328 124.451 462.51 124.983 464.314C125.421 465.799 125.672 467.676 126.29 469.04C126.902 470.39 128.019 471.428 128.801 472.669C128.224 473.214 126.924 472.962 126.716 473.9C126.533 474.723 127.719 476.033 127.835 477.016C127.966 478.129 128.518 480.412 129.491 481.079C130.37 481.681 132.467 481.263 132.542 482.749C132.606 484.037 130.662 483.088 132.598 484.665C132.987 484.981 133.566 485.423 133.918 485.813C134.703 486.683 133.45 486.392 133.701 486.989C133.942 487.559 134.771 487.779 135.105 488.306C135.626 489.128 134.416 489.653 134.823 490.385C135.341 491.316 135.458 492.229 136.496 492.427C137.896 492.694 139.742 492.156 140.814 493.273C141.097 493.568 141.057 495.122 140.785 495.367C139.759 496.293 137.948 495.354 136.796 495.399C134.289 495.497 136.983 497.02 138.089 497.118C140.454 497.326 143.166 499.799 141.401 502.039C141.168 502.336 140.641 501.979 140.406 502.34C139.995 502.971 140.903 503.914 141.041 504.489C141.168 505.015 141.937 504.967 142.231 505.354C142.712 505.987 141.978 507.115 141.261 507.148C142.279 507.89 145.122 510.47 144.295 511.936C143.907 512.624 143.038 512.79 143.514 513.745C143.649 514.016 143.526 514.952 143.838 515.093C144.373 515.334 144.825 515.668 145.07 516.219C143.967 516.05 143.052 518.97 143.107 519.794C143.171 520.745 142.89 521.643 143.523 522.464C144.07 523.175 146.385 524.71 146.107 525.762C145.936 526.409 144.89 526.332 144.71 526.932C144.408 527.937 146.622 528.797 145.76 530.189C145.31 530.915 144.1 530.757 143.793 531.562C143.397 532.595 144.071 534.244 142.19 533.939C142.346 534.954 142.314 535.999 142.907 536.886C143.397 537.62 144.199 539.217 144.291 540.052C144.42 541.232 146.724 542.006 147.381 542.939C148.018 543.842 148.366 545.418 149.456 545.913C150.205 546.254 150.39 545.793 150.948 545.397C151.609 544.928 152.198 545.233 152.922 545.24C154.479 545.256 154.619 544.976 155.608 546.491C156.296 547.546 155.712 548.905 156.707 549.482C157.576 549.986 158.1 551.894 157.533 552.729C159.029 552.916 161.453 554.872 162.307 556.011C163.289 557.323 167.652 556.399 169.069 556.399C174.944 556.399 180.506 557.618 186.183 559.07C184.707 559.097 183.368 558.464 181.943 558.2C179.345 557.719 180.661 559.133 179.853 560.22C179.141 561.178 177.711 560.272 176.875 561.197C175.866 562.313 174.04 562.098 172.723 562.52C173.596 563.677 173.668 565.122 173.962 566.483C174.249 567.811 175.072 568.558 175.695 569.692C177.354 572.71 173.399 571.688 171.892 571.377C170.083 571.002 165.97 569.868 165.276 567.878C164.579 565.878 168.457 567.024 166.823 568.351C167.753 568.376 167.464 567.244 167.823 566.756C168.081 566.405 170.118 568.198 169.123 569.151C170.698 568.612 167.827 566.183 170.788 565.658C171.299 565.568 171.412 564.172 171.413 563.809C171.416 562.784 169.694 563 169.123 562.452C169.164 563.519 167.631 564.498 166.893 565.042C165.64 565.965 164.521 564.535 163.293 565.332C164.187 565.16 164.886 565.935 165.522 566.412C165.002 566.527 164.499 566.476 164.012 566.262C164.207 566.807 164.134 567.314 163.792 567.783C164.701 567.902 165.407 568.544 166.032 569.152C163.857 569.703 160.167 567.34 158.612 565.982C159.685 566.494 161.191 566.44 162.352 566.413C162.165 565.446 159.883 565.373 159.802 563.486C159.753 562.354 161.734 561.894 161.352 563.312C162.613 562.942 162.801 563.061 163.683 561.997C164.577 560.92 166.938 562.519 168.182 561.663C167.384 560.626 162.107 559.875 161.852 561.663C161.143 561.412 160.635 561.107 161.782 560.652C161.104 560.675 158.376 560.713 158.972 562.022C159.454 561.557 159.958 561.534 160.482 561.953C160.277 562.504 159.821 562.927 159.262 563.102C159.636 563.729 160.783 565.257 159.319 565.384C158.412 565.463 156.398 564.318 158.182 563.822C157.288 564.101 156.596 563.352 155.952 562.882C156.455 562.959 156.959 562.959 157.462 562.882C157.187 562.754 156.92 562.611 156.662 562.452C157.655 561.849 156.545 560.669 157.892 561.012C156.834 560.625 156.834 560.459 157.892 560.512C157.389 560.348 156.886 560.348 156.382 560.512C156.912 560.885 157.044 561.484 156.662 562.022C156.416 561.514 155.941 561.144 155.372 561.083C155.398 561.686 155.051 562.201 154.512 562.453C154.823 561.756 154.606 561.492 153.862 561.663C155.495 560.323 151.559 557.86 151.262 556.623C151.947 557.395 153.156 558.152 154.224 558.102C154.717 558.08 156.62 556.373 156.092 558.353C156.85 557.901 158.289 558.669 157.172 557.343C157.563 559.041 156.522 556.806 156.522 555.973C157.369 556.048 158.111 556.915 158.729 557.413C159.876 558.337 159.155 559.151 158.462 560.073C159.165 559.615 159.955 559.949 160.702 560.003C159.72 559.51 160.46 558.331 159.576 557.802C159.036 557.48 157.231 556.113 158.833 555.903C157.859 555.139 157.426 553.923 156.336 553.272C155.169 552.575 153.728 552.551 152.703 551.584C152.514 551.797 152.371 552.037 152.273 552.304C153.183 552.203 157.619 553.367 157.498 554.604C157.4 555.62 152.849 553.25 152.203 553.314C152.662 553.945 153.34 553.809 153.9 554.252C154.499 554.726 154.114 555.603 155.084 555.615C154.714 556.03 154.474 556.51 154.363 557.054C153.687 556.06 153.18 554.857 152.203 554.104C152.975 555.09 154.122 556.436 154.073 557.774C152.959 556.792 151.496 556.395 150.913 554.894C151.408 555.266 151.911 555.626 152.423 555.974C152.033 555.289 150.827 554.84 151.053 553.884C150.586 553.889 150.076 554.352 149.613 554.244C149.15 554.137 149.253 553.454 148.668 553.349C148.055 553.24 147.267 551.699 147.163 551.153C148.427 551.46 149.199 552.565 150.183 553.313C149.198 552.197 148.589 550.772 147.453 549.784C149.017 551.192 147.826 549.422 147.093 549.273C147.021 549.513 146.947 549.753 146.873 549.994C146.273 549.842 145.747 549.555 145.293 549.134C146.304 550.767 143.902 548.075 143.525 547.74C143.063 547.329 144.212 547.123 144.372 547.097C144.695 547.044 145.019 547.029 145.346 547.048C146.589 547.144 144.161 545.627 146.013 546.683C145.365 546.137 145.413 545.003 146.443 545.023C145.599 545.049 144.668 544.227 145.294 543.374C144.486 544.091 145.228 545.613 144.709 546.474C144.098 547.487 141.567 544.031 141.044 543.734C141.589 543.918 142.092 544.18 142.554 544.524C141.045 543.161 142.681 544.166 143.424 544.094C142.485 543.266 140.417 543.336 140.034 542.154C140.034 543.822 138.161 541.352 137.154 541.285C138.176 539.259 141.446 542.389 143.064 542.154C141.635 541.825 138.682 540.965 138.454 539.194C139.638 539.131 140.465 540.366 141.694 539.915C140.921 539.962 140.748 539.372 141.045 538.765C140.339 540.491 136.856 537.842 139.315 537.395C138.758 537.538 136.772 536.913 137.908 536.247C139.404 535.371 140.537 536.976 141.836 537.395C140.889 536.818 139.841 536.189 139.036 535.675C138.616 535.406 137.92 535.343 137.956 534.665C137.991 534.007 138.705 533.862 139.176 534.154C138.395 533.783 137.001 530.894 138.596 531.715C138.057 531.364 137.554 531.411 137.086 531.855C137.464 532.216 137.512 535.13 137.235 535.595C136.131 534.519 134.379 532.593 134.467 530.954C134.488 530.572 133.157 529.876 133.773 529.396C134.232 529.039 135.335 529.007 135.865 529.194C135.632 529.022 131.938 528.63 133.286 527.383C133.849 526.862 135.286 527.612 135.865 527.824C135.261 527.502 135.014 526.909 135.435 526.313C134.938 526.375 132.097 526.136 133.915 525.513C132.143 526.322 131.191 523.031 129.455 523.574C129.188 521.644 132.067 523.902 132.545 524.364C132.215 523.864 131.858 523.384 131.475 522.924C132.823 522.718 133.827 523.389 135.053 523.779C135.574 523.945 136.142 523.77 136.615 524.109C137.275 524.583 138.108 524.329 138.665 524.794C138.921 524.355 138.874 523.948 138.525 523.574C138.216 525.165 135.81 522.99 135.715 522.134C136.629 522.853 137.697 522.637 138.745 522.924C138.357 522.776 137.956 522.711 137.541 522.729C136.719 522.648 136.33 521.777 135.715 521.344C135.168 520.958 134.664 521.141 134.205 520.554C133.841 520.088 134.094 519.484 133.635 519.034C134.268 519.88 134.473 521.888 132.833 521.497C131.436 521.164 128.532 521.435 127.515 520.403C128.139 520.244 128.358 519.786 127.945 519.254C129.376 518.874 129.993 520.568 131.256 520.834C130.139 520.62 130.807 519.48 131.686 519.824C131.527 518.509 130.776 519.785 129.969 519.353C129.415 519.056 129.16 518.313 128.447 518.313C127.713 518.313 128.751 514.939 129.957 516.874C129.746 516.287 129.96 515.916 130.607 515.943C130.521 515.582 130.378 515.246 130.177 514.933C130.051 515.851 129.177 516.135 128.737 515.223C129.207 515.062 129.687 514.942 130.177 514.864C129.702 514.202 128.7 514.073 128.051 513.648C126.696 512.763 126.382 512.313 124.777 513.204C125.354 513.016 125.931 513.236 126.287 513.714C125.086 513.417 123.85 513.194 122.752 512.595C120.824 511.543 122.192 511.078 121.467 509.824C120.768 511.207 117.955 511.394 117.866 512.634C119.176 510.531 121.28 515.809 118.321 513.49C116.377 511.966 118.119 507.991 120.457 508.954C119.761 508.851 119.534 508.385 119.957 507.804C121.148 508.736 120.549 506.529 121.747 507.804C120.787 507.071 122.081 506.167 120.957 505.504C121.61 508.259 118.168 505.982 120.237 506.074C119.494 505.973 118.635 505.775 118.437 504.924C119.401 505.279 120.303 504.313 121.355 504.513C122.263 504.686 122.437 505.65 123.337 505.714C122.038 504.826 123.431 504.467 124.16 504.372C125.036 504.259 124.77 505.362 125.717 505.434C125.197 506.137 126.311 507.45 125.997 505.934C128.142 506.905 124.924 508.313 123.697 507.734C124.522 508.233 127.191 508.661 128.157 508.594C127.614 508.346 127.267 507.828 127.298 507.224C127.919 507.634 128.668 507.833 128.952 508.609C129.258 509.443 128.367 510.135 128.807 510.974C130.229 510.786 130.647 507.345 130.397 506.294C130.161 507.067 129.974 507.875 129.457 508.523C129.564 506.991 127.458 503.138 130.467 503.193C129.615 502.726 128.752 503.381 128.307 504.063C128.155 503.368 127.677 502.479 127.877 501.753C128.106 500.924 129.035 500.912 129.307 500.103C129.847 500.756 130.637 501.005 131.361 501.377C132.294 501.856 132.543 500.842 131.773 500.911C131.152 500.966 130.767 500.677 130.274 500.367C129.358 499.793 128.333 500.299 127.437 499.812C129.014 498.63 125.254 497.411 128.208 497.078C130.329 496.839 131.262 493.846 130.178 492.182C129.43 493.411 124.851 490.958 124.954 489.769C125.148 489.522 125.403 489.509 125.718 489.732C124.391 488.334 127.068 487.429 126.218 486.272C125.98 487.143 125.187 487.164 125.152 486.221C125.109 485.035 124.335 485.488 123.804 484.382C123.345 483.425 123.846 483.042 124.054 482.214C124.173 481.734 123.204 480.326 124.638 480.662C124.635 479.788 124.065 479.668 123.586 479.088C123.191 478.609 123.331 477.973 123.024 477.467C121.884 475.586 123.319 476.678 124.487 476.412C123.362 476.26 122.204 475.012 121.897 473.962C123.503 473.392 124.294 474.759 125.067 475.901C124.905 474.398 123.851 472.873 123.117 471.591C121.655 472.962 119.554 470.964 121.344 469.781C122.477 469.031 124.03 468.486 122.548 467.051C123.441 470.997 120.356 468.123 118.588 467.697C117.237 467.373 118.171 469.515 117.426 470.005C116.314 470.736 112.158 469.509 114.407 468.491C110.456 468.407 109.912 462.222 109.481 459.506C109.29 458.301 108.501 455.555 109.054 454.359C109.608 453.163 110.431 454.216 110.188 452.685C110.019 451.62 110.456 450.611 110.187 449.538C109.781 447.921 109.332 447.04 108.191 445.373C107.03 443.676 105.613 442.11 105.032 440.091C104.674 438.845 105.027 437.964 104.071 436.892C103.429 436.171 102.797 435.512 102.328 434.659C101.938 433.948 102.477 433.561 102.217 433.026C101.75 432.065 101.232 431.392 101.378 430.262C102.208 430.878 103.704 431.273 104.144 429.986C104.691 428.386 103.046 427.164 103.608 425.583C103.637 426.151 103.978 426.469 104.548 426.442C104.528 426.041 104.439 425.655 104.282 425.285C104.092 424.558 104.697 423.756 104.688 422.993C104.669 421.476 103.813 420.47 104.734 419.037C105.48 417.877 104.126 417.192 104.686 415.812C105.11 414.767 105.913 412.993 106.059 411.902C106.414 409.249 105.286 406.445 105.409 403.833C105.477 402.384 106.825 401.144 106.758 399.855C106.7 398.726 105.805 397.404 105.376 396.363C105.013 395.482 105.581 394.306 105.915 393.502C106.276 392.633 105.657 391.225 105.55 390.372C105.473 389.756 105.849 389.24 105.402 388.676C104.933 388.084 104.508 387.494 104.26 386.773C103.71 385.177 103.486 383.695 102.811 382.101C101.587 379.209 100.232 376.067 99.7011 372.957C99.4311 371.378 99.7541 371.221 100.853 370.424C101.711 369.802 100.862 368.412 101.443 367.608C101.995 366.844 100.21 362.651 99.5891 362.141C98.8081 361.498 97.8181 359.638 98.3651 358.613C99.1281 357.184 99.2331 355.907 99.7201 354.373C100.03 353.4 99.3191 351.698 99.3361 350.629C99.3651 348.894 100.674 347.843 99.9991 346.084C98.9881 343.449 100.388 340.175 100.408 337.38C100.427 334.94 98.9081 332.928 99.0241 330.614C99.0911 329.281 100.509 329.051 100.46 327.777C100.395 326.078 99.1681 324.411 98.8091 322.731C98.4341 320.974 98.7301 319.242 98.4761 317.496C98.3491 316.617 98.0241 316.022 98.2651 315.109C98.4621 314.363 98.7761 313.605 98.6131 312.814C98.4201 311.879 97.0041 312.442 96.7721 311.413C96.5271 310.33 96.8911 309.152 96.9911 308.072C98.6881 309.593 98.6001 304.631 98.5841 303.902C98.4921 299.68 99.3491 294.824 97.7781 290.86C96.0951 286.614 97.2071 281.947 95.6211 277.622C94.9601 275.821 94.2351 273.652 93.9071 271.768C93.6911 270.584 94.2521 268.176 92.8721 267.538" stroke="white"/>
</svg>
